<svg xmlns="http://www.w3.org/2000/svg" width="72.559" height="63.337" viewBox="0 0 72.559 63.337">
  <g id="surface1" transform="matrix(-0.799, -0.602, 0.602, -0.799, 62.633, 63.337)">
    <g id="Group_103" data-name="Group 103" transform="translate(1.928 2.038)">
      <path id="Path_222" data-name="Path 222" d="M78.032,9.655a57.418,57.418,0,0,1-9.5,4.017,68.1,68.1,0,0,1-10.1,2.417,74.7,74.7,0,0,1-20.82.371,74.865,74.865,0,0,1-20.122-5.336A68.253,68.253,0,0,1,8.263,6.367,57.474,57.474,0,0,1,0,.2L.142,0A80.074,80.074,0,0,0,8.883,5.178a83.687,83.687,0,0,0,9.3,4.087A86.682,86.682,0,0,0,37.91,13.994a86.757,86.757,0,0,0,20.289.117,83.5,83.5,0,0,0,10.013-1.747,80.47,80.47,0,0,0,9.733-2.941l.088.232" transform="translate(0 0)" fill="#ffc200"/>
    </g>
    <g id="Group_104" data-name="Group 104" transform="translate(0 0)">
      <path id="Path_223" data-name="Path 223" d="M4.242,11.114a16.219,16.219,0,0,1-1.4-2.188,22.391,22.391,0,0,1-1.1-2.34A25.157,25.157,0,0,1,.907,4.144Q.547,2.9.309,1.629L0,0,1.7.214A62.266,62.266,0,0,1,8.042,1.328c1.047.245,2.091.521,3.129.838a27.092,27.092,0,0,1,3.086,1.122,27.049,27.049,0,0,1-3.28.191c-1.085.007-2.165-.027-3.239-.092a62.518,62.518,0,0,1-6.4-.744L2.738,1.226q.177,1.213.366,2.431L3.493,6.1q.2,1.226.4,2.475c.129.833.262,1.672.352,2.539" transform="translate(0)" fill="#ffc200"/>
    </g>
  </g>
</svg>
