<svg xmlns="http://www.w3.org/2000/svg" width="72.558" height="63.337" viewBox="0 0 72.558 63.337">
  <g id="surface1" transform="matrix(0.799, -0.602, 0.602, 0.799, -1.54, 48.121)">
    <g id="Group_103" data-name="Group 103" transform="translate(1.928 0)">
      <path id="Path_222" data-name="Path 222" d="M78.032,7.36a57.418,57.418,0,0,0-9.5-4.017A68.1,68.1,0,0,0,58.429.926,75.4,75.4,0,0,0,17.487,5.89a68.253,68.253,0,0,0-9.224,4.757A57.474,57.474,0,0,0,0,16.81l.142.2a80.074,80.074,0,0,1,8.741-5.178,83.688,83.688,0,0,1,9.3-4.087A88.573,88.573,0,0,1,58.2,2.9,83.5,83.5,0,0,1,68.212,4.651a80.471,80.471,0,0,1,9.733,2.941l.088-.232" transform="translate(0 0)" fill="#ffc200"/>
    </g>
    <g id="Group_104" data-name="Group 104" transform="translate(0 7.938)">
      <path id="Path_223" data-name="Path 223" d="M4.242,0a16.219,16.219,0,0,0-1.4,2.188,22.391,22.391,0,0,0-1.1,2.34A25.157,25.157,0,0,0,.907,6.97q-.36,1.241-.6,2.515L0,11.114,1.7,10.9A62.266,62.266,0,0,0,8.042,9.786c1.047-.245,2.091-.521,3.129-.838a27.092,27.092,0,0,0,3.086-1.122,27.049,27.049,0,0,0-3.28-.191c-1.085-.007-2.165.027-3.239.092a62.518,62.518,0,0,0-6.4.744L2.738,9.888q.177-1.213.366-2.431l.389-2.444q.2-1.226.4-2.475C4.018,1.706,4.151.867,4.242,0" fill="#ffc200"/>
    </g>
  </g>
</svg>
