<svg xmlns="http://www.w3.org/2000/svg" width="117.424" height="69.078" viewBox="0 0 117.424 69.078">
  <g id="surface1" transform="translate(109.946 69.078) rotate(-159)">
    <g id="Group_103" data-name="Group 103" transform="translate(2.868 3.031)">
      <path id="Path_222" data-name="Path 222" d="M116.064,14.361a85.4,85.4,0,0,1-14.134,5.975A101.29,101.29,0,0,1,86.907,23.93a111.11,111.11,0,0,1-30.968.552A111.353,111.353,0,0,1,26.01,16.546,101.518,101.518,0,0,1,12.29,9.471,85.486,85.486,0,0,1,0,.3L.211,0a119.1,119.1,0,0,0,13,7.7,124.475,124.475,0,0,0,13.834,6.079,128.928,128.928,0,0,0,29.341,7.034,129.04,129.04,0,0,0,30.178.173,124.2,124.2,0,0,0,14.893-2.6,119.689,119.689,0,0,0,14.476-4.375l.13.345" transform="translate(0)" fill="#ffc200"/>
    </g>
    <g id="Group_104" data-name="Group 104" transform="translate(0 0)">
      <path id="Path_223" data-name="Path 223" d="M6.309,16.531a24.124,24.124,0,0,1-2.076-3.254A33.3,33.3,0,0,1,2.6,9.8,37.418,37.418,0,0,1,1.35,6.164Q.814,4.318.459,2.424L0,0,2.531.319a92.614,92.614,0,0,1,9.431,1.657c1.558.364,3.11.775,4.654,1.246A40.3,40.3,0,0,1,21.206,4.89a40.233,40.233,0,0,1-4.878.284c-1.614.01-3.22-.04-4.817-.137A92.988,92.988,0,0,1,2,3.93L4.072,1.824q.263,1.8.545,3.616L5.2,9.075q.3,1.824.59,3.681c.192,1.239.39,2.486.524,3.776" fill="#ffc200"/>
    </g>
  </g>
</svg>
