<svg xmlns="http://www.w3.org/2000/svg" width="117.424" height="69.078" viewBox="0 0 117.424 69.078">
  <g id="surface1" transform="translate(-2.677 42.621) rotate(-21)">
    <g id="Group_103" data-name="Group 103" transform="translate(2.868 0)">
      <path id="Path_222" data-name="Path 222" d="M116.064,10.947a85.4,85.4,0,0,0-14.134-5.975A101.29,101.29,0,0,0,86.907,1.377a112.144,112.144,0,0,0-60.9,7.384,101.518,101.518,0,0,0-13.72,7.075A85.486,85.486,0,0,0,0,25l.211.3a119.1,119.1,0,0,1,13-7.7,124.474,124.474,0,0,1,13.834-6.079A131.74,131.74,0,0,1,86.565,4.319a124.2,124.2,0,0,1,14.893,2.6,119.689,119.689,0,0,1,14.476,4.375l.13-.345" fill="#ffc200"/>
    </g>
    <g id="Group_104" data-name="Group 104" transform="translate(0 11.807)">
      <path id="Path_223" data-name="Path 223" d="M6.309,0A24.124,24.124,0,0,0,4.232,3.254,33.3,33.3,0,0,0,2.6,6.735,37.418,37.418,0,0,0,1.35,10.367q-.535,1.846-.89,3.74L0,16.531l2.531-.319a92.614,92.614,0,0,0,9.431-1.657c1.558-.364,3.11-.775,4.654-1.246a40.3,40.3,0,0,0,4.591-1.668,40.232,40.232,0,0,0-4.878-.284c-1.614-.01-3.22.04-4.817.137A92.988,92.988,0,0,0,2,12.6l2.073,2.106q.263-1.8.545-3.616L5.2,7.457q.3-1.824.59-3.681c.192-1.239.39-2.486.524-3.776" fill="#ffc200"/>
    </g>
  </g>
</svg>
