<svg xmlns="http://www.w3.org/2000/svg" width="90.588" height="81.85" viewBox="0 0 90.588 81.85">
  <g id="surface1" transform="translate(-221.086 -176.423)">
    <g id="Group_106" data-name="Group 106" transform="translate(221.586 251.154)">
      <path id="Path_230" data-name="Path 230" d="M221.586,393.406v6.618h89.588v-6.618Zm87.473,4.5H223.7v-2.385h85.358Zm0,0" transform="translate(-221.586 -393.406)" fill="#ffc200" stroke="#ffc200" stroke-width="1"/>
    </g>
    <path id="Path_231" data-name="Path 231" d="M259.074,209.03h63.9l-31.949-17.885Zm8.109-2.115,23.839-13.346,23.839,13.346Zm0,0" transform="translate(-24.642 -9.3)" fill="#ffc200" stroke="#ffc200" stroke-width="1"/>
    <g id="Group_107" data-name="Group 107" transform="translate(223.068 176.996)">
      <path id="Path_232" data-name="Path 232" d="M312.536,201.242,269.223,177,225.91,201.242v2.719h86.626Zm-83.372.6,40.058-22.425,40.059,22.425Zm0,0" transform="translate(-225.91 -176.996)" fill="#ffc200" stroke="#ffc200" stroke-width="1"/>
    </g>
    <path id="Path_233" data-name="Path 233" d="M338.309,211.785a4.8,4.8,0,1,0,4.8-4.8A4.8,4.8,0,0,0,338.309,211.785Zm4.8-2.681a2.681,2.681,0,1,1-2.681,2.681A2.683,2.683,0,0,1,343.105,209.1Zm0,0" transform="translate(-76.725 -19.714)" fill="#ffc200" stroke="#ffc200" stroke-width="1"/>
    <path id="Path_234" data-name="Path 234" d="M345.132,330.308c-1.841-.539-2.012-.969-2.065-1.563a1.822,1.822,0,0,1,1.4-2c.045-.008.091-.016.136-.022a1.523,1.523,0,0,1,1.213.387,1.7,1.7,0,0,1,.57,1.274v.1l2.115,0v-.1a3.81,3.81,0,0,0-1.284-2.861,3.7,3.7,0,0,0-1.326-.756v-2.357h-2.116v2.324a3.94,3.94,0,0,0-2.816,4.194c.189,2.127,1.831,2.894,3.577,3.407,1.886.554,2.057,1.147,2.075,1.756a1.733,1.733,0,0,1-1.211,1.758,1.878,1.878,0,0,1-.327.07,1.527,1.527,0,0,1-1.219-.383,1.7,1.7,0,0,1-.576-1.273h-2.115a3.811,3.811,0,0,0,1.293,2.861,3.714,3.714,0,0,0,1.32.745v2.36h2.115v-2.324c.037-.009.075-.017.112-.028a3.874,3.874,0,0,0,2.723-3.844C348.652,331.341,346.095,330.59,345.132,330.308Zm0,0" transform="translate(-78.456 -95.587)" fill="#ffc200" stroke="#ffc200" stroke-width="1"/>
    <g id="Group_108" data-name="Group 108" transform="translate(221.686 207.134)">
      <path id="Path_235" data-name="Path 235" d="M277.806,306.579h33.46v-2.115h-3.7l-.993-28.446h3.316V264.945H307.77V270H225.377v-5.052H223.26v11.073h3.314l-.993,28.446h-3.7v2.115Zm-20.35-2.115V290.408a9.117,9.117,0,0,1,18.234,0v14.057Zm26.05-.335.982-28.111h1.954l.981,28.111Zm18.01,0,.981-28.111h1.956l.981,28.111Zm-2.334-32.015h8.588V273.9h-8.588Zm-7.306,0h5.191v3.906h3.314l-.993,28.446h-9.836l-.993-28.446h3.317Zm-10.7,0h8.587V273.9h-8.587ZM227.71,304.129l.981-28.111h1.956l.981,28.111ZM226.648,273.9h-1.272v-1.788h8.587V273.9Zm16.942,30.561h-9.834l-.993-28.446h3.315v-3.906h5.193v3.906h3.314Zm2.13-.335.981-28.111h1.955l.982,28.111ZM244.659,273.9h-1.273v-1.788h8.588V273.9Zm7.108,30.561-.993-28.446h3.316v-3.906h24.968v3.906h3.313l-.993,28.446h-3.571V290.408a11.233,11.233,0,0,0-22.465,0v14.057Zm0,0" transform="translate(-221.879 -264.945)" fill="#ffc200" stroke="#ffc200" stroke-width="1"/>
    </g>
  </g>
</svg>
