<svg id="Group_112" data-name="Group 112" xmlns="http://www.w3.org/2000/svg" width="59.195" height="59.195" viewBox="0 0 59.195 59.195">
  <rect id="Rectangle_7" data-name="Rectangle 7" width="40" height="32" transform="translate(10 13.7)" fill="#fff"/>
  <path id="Path_237" data-name="Path 237" d="M118.882,61.472l1.842-5.683A9.1,9.1,0,0,0,116.2,44.878l-5.318-2.718-2.718-5.319a9.1,9.1,0,0,0-10.912-4.519L91.57,34.16l-5.682-1.841a9.107,9.107,0,0,0-10.913,4.519l-2.72,5.319-5.319,2.721a9.1,9.1,0,0,0-4.52,10.911l1.841,5.683-1.841,5.682a9.106,9.106,0,0,0,4.52,10.913l5.319,2.717L74.972,86.1a9.1,9.1,0,0,0,10.913,4.52l5.685-1.838,5.683,1.841a9.1,9.1,0,0,0,10.912-4.52l2.718-5.319L116.2,78.07a9.1,9.1,0,0,0,4.519-10.913ZM86.519,72.444l-6.788-6.786a2.96,2.96,0,0,1,4.186-4.185l4.694,4.694,13.573-13.573a2.959,2.959,0,1,1,4.185,4.185L90.7,72.444A2.962,2.962,0,0,1,86.519,72.444Zm0,0" transform="translate(-61.973 -31.875)" fill="#ffc200"/>
</svg>
