<svg xmlns="http://www.w3.org/2000/svg" xmlns:xlink="http://www.w3.org/1999/xlink" width="100.895" height="99.009" viewBox="0 0 100.895 99.009">
  <defs>
    <clipPath id="clip-path">
      <path id="Path_449" data-name="Path 449" d="M232.4,177H333.293v99.009H232.4Zm0,0" transform="translate(-232.398 -177)"/>
    </clipPath>
  </defs>
  <g id="surface1" transform="translate(-232.398 -177)">
    <g id="Group_184" data-name="Group 184" transform="translate(232.398 177)" clip-path="url(#clip-path)">
      <path id="Path_448" data-name="Path 448" d="M234.074,276.055h97.206a1.676,1.676,0,0,0,1.676-1.675v-6.7a1.675,1.675,0,0,0-1.676-1.674H321.058l-2.483-23.55,2.747,4.114.68,3.4a5.619,5.619,0,1,0,10.537-3.609l-1.435-2.866a.169.169,0,0,0-.021-.03c0-.008,0-.016-.006-.024L321.02,225.035a1.679,1.679,0,0,0-.848-.754l-4.542-1.814a14.94,14.94,0,0,0,3.706-18.928l-.864-8.642c2.7-1.141,4.429-3.383,4.429-5.89,0-3.6-3.581-6.553-8.049-6.69a10.058,10.058,0,0,0-17.42,0c-4.468.138-8.049,3.086-8.049,6.69,0,2.507,1.732,4.749,4.429,5.89l-.864,8.642a14.936,14.936,0,0,0,3.708,18.927l-4.542,1.814a1.67,1.67,0,0,0-.686.51l-5.658,7.063-6.835-5.461-1.825-3.038A6.274,6.274,0,0,0,275.976,222v-4.533a5.012,5.012,0,0,0-3.352-4.713v-7.005H274.3a5.031,5.031,0,0,0,5.029-5.021V190.681a5.032,5.032,0,0,0-5.029-5.022h-6.7a5.031,5.031,0,0,0-5.027,5.022v10.044a5.031,5.031,0,0,0,5.027,5.021h1.676v7.005a5.014,5.014,0,0,0-3.352,4.713v6.7a6.215,6.215,0,0,0,2.54,7.822l3.171,1.9,11.143,9.737a5.009,5.009,0,0,0,6.53.077l4.683-3.9-2.763,26.206h-29.3l1.966-3.928a8.364,8.364,0,0,0,5.378-7.791v-3.655a5.01,5.01,0,0,0-1.676-9.738H237.426a5.01,5.01,0,0,0-1.676,9.738v3.655a8.364,8.364,0,0,0,5.378,7.791l1.966,3.928h-9.02a1.676,1.676,0,0,0-1.676,1.674v6.7A1.676,1.676,0,0,0,234.074,276.055Zm41.9-85.374v10.044A1.678,1.678,0,0,1,274.3,202.4h-1.676V189.007H274.3A1.677,1.677,0,0,1,275.973,190.681ZM267.593,202.4a1.678,1.678,0,0,1-1.676-1.674V190.681a1.677,1.677,0,0,1,1.676-1.674h1.676V202.4Zm33.138,22.423c.067.024.136.044.2.067.336.123.676.243,1.022.343.133.039.267.069.4.1.32.084.639.164.966.226.164.033.331.051.495.076.3.047.605.1.913.128.217.02.435.021.649.033.256.013.505.039.761.039s.507-.026.761-.039c.218-.011.434-.013.651-.033.308-.03.61-.079.913-.128.164-.025.33-.043.493-.076.328-.062.648-.144.968-.226.133-.034.267-.062.4-.1.348-.1.689-.218,1.023-.343.067-.025.136-.043.2-.067l2.471,9.383H298.261Zm28.9,24.861a2.27,2.27,0,0,1-4.344-.362l-.432-2.162,3.849-.961.833,1.666A2.241,2.241,0,0,1,329.634,249.684Zm-2.539-6.535-3.455.862-5.893-8.829-2.434-9.237,3.054,1.22Zm-34.362-54.142c0-1.815,2.3-3.348,5.028-3.348a2.73,2.73,0,0,1,.283.021l.269.026a1.7,1.7,0,0,0,1.668-1.01,6.7,6.7,0,0,1,12.32,0,1.7,1.7,0,0,0,1.668,1.01l.27-.026a2.646,2.646,0,0,1,.282-.021c2.726,0,5.028,1.533,5.028,3.348,0,1.338-1.355,2.616-3.293,3.112A1.674,1.674,0,0,0,315,193.907l1.018,10.167h-19.76l1.018-10.165a1.673,1.673,0,0,0-1.254-1.787C294.088,191.623,292.734,190.345,292.734,189.007Zm1.676,21.762a11.642,11.642,0,0,1,.5-3.349h22.472a11.585,11.585,0,0,1,.5,3.349,11.72,11.72,0,0,1-6.666,10.552,11.163,11.163,0,0,1-1.163.484c-.018.008-.038.015-.056.021a11.651,11.651,0,0,1-7.7,0,.55.55,0,0,1-.056-.021,11.314,11.314,0,0,1-1.163-.484A11.723,11.723,0,0,1,294.409,210.769Zm-25.14,6.7a1.676,1.676,0,0,1,3.352,0v2.911l-.031,0c-.041-.007-.076-.025-.117-.029-.091-.012-.182,0-.272,0a6.437,6.437,0,0,0-.872-.01c-.146.008-.29.008-.432.026a6.34,6.34,0,0,0-1.016.225c-.143.044-.28.089-.419.141-.064.023-.129.038-.192.064v-3.321Zm-.493,9.488a2.893,2.893,0,0,1,.31-1.683c.007-.015.018-.023.025-.036a3.522,3.522,0,0,1,.218-.362,2.663,2.663,0,0,1,.29-.364,2.871,2.871,0,0,1,.793-.555c.023-.011.047-.026.07-.038a2.9,2.9,0,0,1,.9-.241l.069-.006a2.984,2.984,0,0,1,.911.069l.094.023a2.913,2.913,0,0,1,.9.4c.008.005.018.008.026.013a2.934,2.934,0,0,1,.85.9l1.307,2.175-3.178,3.174-2.178-1.3A2.922,2.922,0,0,1,268.776,226.953Zm18.381,14.179a1.672,1.672,0,0,1-2.178-.024l-9.908-8.658,2.7-2.7,7.209,5.76a1.676,1.676,0,0,0,2.355-.261l6.426-8.025,3.2-1.279-2.369,8.991Zm10.437-3.578h17.1l3,28.457H294.595Zm-37.74,25.109-1.676,3.349h-3.991v-3.349Zm-22.428-18.413h30.168a1.674,1.674,0,1,1,0,3.348H237.426a1.674,1.674,0,1,1,0-3.348Zm1.676,10.044v-3.349h26.816v3.349a5.032,5.032,0,0,1-5.027,5.023H244.13A5.032,5.032,0,0,1,239.1,254.293Zm6.064,8.369h5.667v3.349h-3.991Zm-9.416,6.7H329.6v3.349H235.75Zm0,0" transform="translate(-232.398 -177.168)" fill="#ffc200"/>
    </g>
    <path id="Path_450" data-name="Path 450" d="M403.827,336.8H393.77a1.675,1.675,0,0,0-1.676,1.674v5.021a6.7,6.7,0,0,0,13.409,0v-5.021A1.675,1.675,0,0,0,403.827,336.8Zm-1.676,6.7a3.353,3.353,0,0,1-6.705,0v-3.347h6.705Zm0,0" transform="translate(-92.657 -92.715)" fill="#ffc200"/>
    <path id="Path_451" data-name="Path 451" d="M276.313,296.918h3.353v8.371h-3.353Zm0,0" transform="translate(-25.48 -69.577)" fill="#ffc200"/>
    <path id="Path_452" data-name="Path 452" d="M296.277,304.895h3.352v6.7h-3.352Zm0,0" transform="translate(-37.063 -74.206)" fill="#ffc200"/>
    <path id="Path_453" data-name="Path 453" d="M256.352,304.895H259.7v6.7h-3.352Zm0,0" transform="translate(-13.898 -74.206)" fill="#ffc200"/>
    <path id="Path_454" data-name="Path 454" d="M276.313,280.969h3.353v3.348h-3.353Zm0,0" transform="translate(-25.48 -60.324)" fill="#ffc200"/>
    <path id="Path_455" data-name="Path 455" d="M256.352,288.945H259.7v3.347h-3.352Zm0,0" transform="translate(-13.898 -64.951)" fill="#ffc200"/>
    <path id="Path_456" data-name="Path 456" d="M296.277,288.945h3.352v3.347h-3.352Zm0,0" transform="translate(-37.063 -64.951)" fill="#ffc200"/>
  </g>
</svg>
