<svg xmlns="http://www.w3.org/2000/svg" xmlns:xlink="http://www.w3.org/1999/xlink" width="48.886" height="73.679" viewBox="0 0 48.886 73.679">
  <defs>
    <clipPath id="clip-path">
      <path id="Path_384" data-name="Path 384" d="M274.176,177h48.886v73.679H274.176Zm0,0" transform="translate(-274.176 -177)"/>
    </clipPath>
  </defs>
  <g id="surface1" transform="translate(-274.176 -177)">
    <g id="Group_161" data-name="Group 161" transform="translate(274.176 177)" clip-path="url(#clip-path)">
      <path id="Path_383" data-name="Path 383" d="M321.294,247.142a1.874,1.874,0,0,1-1.872,1.872H277.972a1.875,1.875,0,0,1-1.873-1.872V188.8a1.875,1.875,0,0,1,1.873-1.872h10.847v2.184a3.435,3.435,0,0,0,3.43,3.433h13.568a3.435,3.435,0,0,0,3.431-3.433v-2.184h10.173a1.874,1.874,0,0,1,1.872,1.872Zm-30.678-63.174h3.574a.9.9,0,0,0,.9-.9v-.147a3.943,3.943,0,0,1,4.089-3.943,4.039,4.039,0,0,1,3.8,4.059v.03a.9.9,0,0,0,.9.9h3.573v5.144a1.634,1.634,0,0,1-1.633,1.634H292.249a1.635,1.635,0,0,1-1.633-1.634Zm28.806,1.159H309.249v-2.057a.9.9,0,0,0-.9-.9h-3.639a5.837,5.837,0,0,0-5.468-4.986,5.748,5.748,0,0,0-5.9,4.986h-3.623a.9.9,0,0,0-.9.9v2.057H277.972A3.676,3.676,0,0,0,274.3,188.8v58.343a3.675,3.675,0,0,0,3.671,3.672h41.451a3.675,3.675,0,0,0,3.669-3.672V188.8a3.676,3.676,0,0,0-3.669-3.672" transform="translate(-274.262 -177.123)" fill="#ffc200"/>
    </g>
    <path id="Path_385" data-name="Path 385" d="M327.612,217.379h-4.124a.9.9,0,0,0,0,1.8h3.224V269.9H291.2V219.178h4.2a.9.9,0,0,0,0-1.8h-5.1a.9.9,0,0,0-.9.9V270.8a.9.9,0,0,0,.9.9h37.314a.9.9,0,0,0,.9-.9V218.277a.9.9,0,0,0-.9-.9" transform="translate(-10.467 -27.765)" fill="#ffc200"/>
    <path id="Path_386" data-name="Path 386" d="M329.633,242.686h10.1a1.688,1.688,0,1,1,0,3.376h-10.1a1.688,1.688,0,0,1,0-3.376Zm0,5.175h10.1a3.487,3.487,0,0,0,0-6.974h-10.1a3.487,3.487,0,0,0,0,6.974" transform="translate(-35.736 -43.929)" fill="#ffc200"/>
    <path id="Path_387" data-name="Path 387" d="M330.911,283.117a.9.9,0,0,0,0,1.8H343.63a.9.9,0,0,0,0-1.8H330.911" transform="translate(-38.393 -72.967)" fill="#ffc200"/>
    <path id="Path_388" data-name="Path 388" d="M321.223,302.264H340a.9.9,0,0,0,0-1.8H321.223a.9.9,0,0,0,0,1.8" transform="translate(-31.732 -84.895)" fill="#ffc200"/>
    <path id="Path_389" data-name="Path 389" d="M343.82,336.059a.9.9,0,0,0-.9-.9H329.015a.9.9,0,0,0,0,1.8H342.92a.9.9,0,0,0,.9-.9" transform="translate(-37.09 -108.752)" fill="#ffc200"/>
    <path id="Path_390" data-name="Path 390" d="M341.09,352.508a.9.9,0,1,0,0,1.8h6.359a.9.9,0,1,0,0-1.8H341.09" transform="translate(-45.392 -120.68)" fill="#ffc200"/>
    <path id="Path_391" data-name="Path 391" d="M346.673,319.611a.9.9,0,1,0,0-1.8H339.02a.9.9,0,1,0,0,1.8h7.652" transform="translate(-43.969 -96.824)" fill="#ffc200"/>
  </g>
</svg>
