<svg id="Group_31" data-name="Group 31" xmlns="http://www.w3.org/2000/svg" xmlns:xlink="http://www.w3.org/1999/xlink" width="87.857" height="97.779" viewBox="0 0 87.857 97.779">
  <defs>
    <clipPath id="clip-path">
      <path id="Path_10" data-name="Path 10" d="M188,86h80v42.153H188Zm0,0" transform="translate(-188 -86)" fill="#ffc200"/>
    </clipPath>
    <clipPath id="clip-path-2">
      <path id="Path_12" data-name="Path 12" d="M178.492,97h11.991v39.751H178.492Zm0,0" transform="translate(-178.492 -97)" fill="#ffc200"/>
    </clipPath>
    <clipPath id="clip-path-3">
      <path id="Path_14" data-name="Path 14" d="M228,26.793h33.888V89.78H228Zm0,0" transform="translate(-228 -26.793)" fill="#ffc200"/>
    </clipPath>
  </defs>
  <g id="Group_9" data-name="Group 9" transform="translate(7.859 48.936)" clip-path="url(#clip-path)">
    <path id="Path_9" data-name="Path 9" d="M228.435,127.939H190.479a1.65,1.65,0,0,1,0-3.3h37.956c11.339,0,16.321-2.693,19-4.136l.543-.291c1.443-.774,9.165-9.353,16.175-17.615-1.094-.936-2.945-2.161-4.717-1.644-2.18.636-3.18,1.421-5.85,3.523-1.531,1.2-3.629,2.844-6.725,5.049-6.922,4.934-18.07,3.261-23.468,1.043-3.152-1.291-4.9-2.832-5.221-4.578-.759-4.19,2.567-5.434,6.086-6.748,1.305-.484,2.774-1.036,4.362-1.789,3.39-1.6,3.093-5.589,2.666-7.668A85.541,85.541,0,0,0,217,93.138a52.469,52.469,0,0,0-19.356,12.3,1.635,1.635,0,0,1-1.159.484h-6a1.65,1.65,0,0,1,0-3.3h5.328a55.789,55.789,0,0,1,20.088-12.589A92.206,92.206,0,0,1,232.287,86.3a1.653,1.653,0,0,1,1.76,1.1c1.146,3.306,1.776,10.293-4.033,13.04-1.708.811-3.247,1.385-4.614,1.9-3.948,1.479-4.229,1.814-4,3.064.071.236,1,1.363,4.236,2.5,5.948,2.079,14.5,2.383,19.333-1.062,3.032-2.161,5.1-3.778,6.6-4.962,2.777-2.176,4.171-3.274,6.952-4.085,4.862-1.42,8.962,3.448,9.136,3.658a1.662,1.662,0,0,1-.009,2.124c-2.542,3.006-15.34,18.084-18.149,19.566l-.513.278c-2.925,1.579-8.381,4.527-20.55,4.527" transform="translate(-188.145 -86.051)" fill="#ffc200"/>
  </g>
  <g id="Group_10" data-name="Group 10" transform="translate(0 58.028)" clip-path="url(#clip-path-2)">
    <path id="Path_11" data-name="Path 11" d="M188.69,137.123h-8.533a1.65,1.65,0,0,1,0-3.3h6.89V101.182h-6.89a1.65,1.65,0,0,1,0-3.3h8.533a1.645,1.645,0,0,1,1.641,1.65v35.944a1.646,1.646,0,0,1-1.641,1.646" transform="translate(-178.497 -97.153)" fill="#ffc200"/>
  </g>
  <g id="Group_11" data-name="Group 11" transform="translate(40.92)" clip-path="url(#clip-path-3)">
    <path id="Path_13" data-name="Path 13" d="M259.709,89.445H243.8a1.65,1.65,0,0,1,0-3.3h14.267V30.132H231.975V74.448a1.642,1.642,0,1,1-3.284,0V28.479a1.646,1.646,0,0,1,1.641-1.647h29.377a1.647,1.647,0,0,1,1.643,1.647V87.8a1.647,1.647,0,0,1-1.643,1.646" transform="translate(-228.12 -26.8)" fill="#ffc200"/>
  </g>
  <path id="Path_15" data-name="Path 15" d="M250.359,84.507h-4.416a1.65,1.65,0,0,1,0-3.3h3.322a11.078,11.078,0,0,1,5.14-5.172V42.858a11.1,11.1,0,0,1-5.14-5.175h-6.551a11.017,11.017,0,0,1-5.136,5.175V73.875a1.64,1.64,0,1,1-3.28,0V41.754a1.654,1.654,0,0,1,1.1-1.559,7.658,7.658,0,0,0,4.672-4.7,1.649,1.649,0,0,1,1.55-1.114h8.743a1.648,1.648,0,0,1,1.55,1.1,7.685,7.685,0,0,0,4.682,4.707,1.656,1.656,0,0,1,1.1,1.559V77.139a1.655,1.655,0,0,1-1.1,1.556,7.687,7.687,0,0,0-4.682,4.7,1.646,1.646,0,0,1-1.55,1.107" transform="translate(-188.173 -28.11)" fill="#ffc200"/>
  <path id="Path_16" data-name="Path 16" d="M247.185,60.7a2.74,2.74,0,1,0,2.728,2.738A2.732,2.732,0,0,0,247.185,60.7Zm0,8.779A6.039,6.039,0,1,1,253.2,63.44a6.026,6.026,0,0,1-6.012,6.041" transform="translate(-189.367 -32.103)" fill="#ffc200"/>
</svg>
