<svg xmlns="http://www.w3.org/2000/svg" xmlns:xlink="http://www.w3.org/1999/xlink" width="87.569" height="60.785" viewBox="0 0 87.569 60.785">
  <defs>
    <clipPath id="clip-path">
      <path id="Path_395" data-name="Path 395" d="M211.738,197.348h87.569v60.786H211.738Zm0,0" transform="translate(-211.738 -197.348)"/>
    </clipPath>
  </defs>
  <g id="surface1" transform="translate(-211.738 -197.348)">
    <g id="Group_164" data-name="Group 164" transform="translate(211.738 197.348)" clip-path="url(#clip-path)">
      <path id="Path_394" data-name="Path 394" d="M297.613,247.744a8.721,8.721,0,0,1-8.708,8.713H222.1a8.721,8.721,0,0,1-8.708-8.713V207.729a8.721,8.721,0,0,1,8.708-8.714h66.8a8.722,8.722,0,0,1,8.708,8.714Zm-8.708-50.4H222.1a10.392,10.392,0,0,0-10.378,10.385v40.016A10.393,10.393,0,0,0,222.1,258.13h66.8a10.394,10.394,0,0,0,10.379-10.385V207.729A10.394,10.394,0,0,0,288.9,197.344" transform="translate(-211.73 -197.345)" fill="#ffc200"/>
    </g>
    <path id="Path_396" data-name="Path 396" d="M301.566,254.959a5.462,5.462,0,0,1-5.454,5.457h-66.8a5.461,5.461,0,0,1-5.453-5.457V214.943a5.461,5.461,0,0,1,5.453-5.456h66.8a5.462,5.462,0,0,1,5.454,5.456Zm-5.454-47.143h-66.8a7.133,7.133,0,0,0-7.124,7.127v40.016a7.134,7.134,0,0,0,7.124,7.127h66.8a7.134,7.134,0,0,0,7.124-7.127V214.943a7.133,7.133,0,0,0-7.124-7.127" transform="translate(-7.2 -7.212)" fill="#ffc200"/>
    <path id="Path_397" data-name="Path 397" d="M265.334,255.742a1.275,1.275,0,0,1-1.275,1.275H246.152a1.275,1.275,0,0,1-1.274-1.275V247.95a3.97,3.97,0,0,1,3.956-3.959h12.544a3.969,3.969,0,0,1,3.956,3.959Zm-10.228-28.5a7.172,7.172,0,1,1-7.168,7.173A7.17,7.17,0,0,1,255.105,227.244Zm13.867,30.291V226.727a1.9,1.9,0,0,0-1.889-1.891H243.128a1.9,1.9,0,0,0-1.89,1.891v30.809a1.9,1.9,0,0,0,1.89,1.891h23.956a1.9,1.9,0,0,0,1.889-1.891" transform="translate(-20.324 -18.938)" fill="#ffc200"/>
    <path id="Path_398" data-name="Path 398" d="M340.94,229.164h10.082a.836.836,0,0,0,0-1.672H340.94a.836.836,0,0,0,0,1.672" transform="translate(-88.438 -20.768)" fill="#ffc200"/>
    <path id="Path_399" data-name="Path 399" d="M385.189,229.164h10.083a.836.836,0,1,0,0-1.672H385.189a.836.836,0,0,0,0,1.672" transform="translate(-118.924 -20.768)" fill="#ffc200"/>
    <path id="Path_400" data-name="Path 400" d="M439.515,227.492H429.433a.836.836,0,0,0,0,1.672h10.083a.836.836,0,0,0,0-1.672" transform="translate(-149.405 -20.768)" fill="#ffc200"/>
    <path id="Path_401" data-name="Path 401" d="M345.865,328.844a.836.836,0,0,0-.835-.836h-2.8a.835.835,0,0,0,0,1.671h2.8a.835.835,0,0,0,.835-.835" transform="translate(-89.327 -90.018)" fill="#ffc200"/>
    <path id="Path_402" data-name="Path 402" d="M351.022,307.9H340.94a.836.836,0,0,0,0,1.672h10.082a.836.836,0,0,0,0-1.672" transform="translate(-88.438 -76.166)" fill="#ffc200"/>
    <path id="Path_403" data-name="Path 403" d="M388.846,307.9h-2.8a.836.836,0,0,0,0,1.672h2.8a.836.836,0,0,0,0-1.672" transform="translate(-119.514 -76.166)" fill="#ffc200"/>
    <path id="Path_404" data-name="Path 404" d="M417.822,307.9H407.741a.836.836,0,0,0,0,1.672h10.081a.836.836,0,1,0,0-1.672" transform="translate(-134.46 -76.166)" fill="#ffc200"/>
    <path id="Path_405" data-name="Path 405" d="M455.643,307.9h-2.8a.836.836,0,0,0,0,1.672h2.8a.836.836,0,0,0,0-1.672" transform="translate(-165.533 -76.166)" fill="#ffc200"/>
    <path id="Path_406" data-name="Path 406" d="M340.94,289.472h2.8a.835.835,0,0,0,0-1.671h-2.8a.835.835,0,0,0,0,1.671" transform="translate(-88.438 -62.317)" fill="#ffc200"/>
    <path id="Path_407" data-name="Path 407" d="M381.877,288.637a.836.836,0,0,0-.836-.836h-2.8a.835.835,0,1,0,0,1.671h2.8a.836.836,0,0,0,.836-.835" transform="translate(-114.136 -62.317)" fill="#ffc200"/>
    <path id="Path_408" data-name="Path 408" d="M413.92,247.6H403.839a.835.835,0,0,0,0,1.671H413.92a.835.835,0,1,0,0-1.671" transform="translate(-131.772 -34.62)" fill="#ffc200"/>
    <path id="Path_409" data-name="Path 409" d="M340.94,249.269h2.8a.835.835,0,0,0,0-1.671h-2.8a.835.835,0,0,0,0,1.671" transform="translate(-88.438 -34.62)" fill="#ffc200"/>
    <path id="Path_410" data-name="Path 410" d="M378.242,249.269h2.8a.835.835,0,1,0,0-1.671h-2.8a.835.835,0,1,0,0,1.671" transform="translate(-114.136 -34.62)" fill="#ffc200"/>
    <path id="Path_411" data-name="Path 411" d="M455.643,247.6h-2.8a.835.835,0,0,0,0,1.671h2.8a.835.835,0,0,0,0-1.671" transform="translate(-165.533 -34.62)" fill="#ffc200"/>
    <path id="Path_412" data-name="Path 412" d="M413.92,267.7H403.839a.835.835,0,0,0,0,1.671H413.92a.835.835,0,1,0,0-1.671" transform="translate(-131.772 -48.468)" fill="#ffc200"/>
    <path id="Path_413" data-name="Path 413" d="M340.94,269.37h2.8a.835.835,0,0,0,0-1.671h-2.8a.835.835,0,0,0,0,1.671" transform="translate(-88.438 -48.468)" fill="#ffc200"/>
    <path id="Path_414" data-name="Path 414" d="M381.042,267.7h-2.8a.835.835,0,1,0,0,1.671h2.8a.835.835,0,1,0,0-1.671" transform="translate(-114.136 -48.468)" fill="#ffc200"/>
    <path id="Path_415" data-name="Path 415" d="M455.643,267.7h-2.8a.835.835,0,0,0,0,1.671h2.8a.835.835,0,0,0,0-1.671" transform="translate(-165.533 -48.468)" fill="#ffc200"/>
    <path id="Path_416" data-name="Path 416" d="M240.809,353.193h1.064v-3.775h-1.064v3.775" transform="translate(-20.028 -104.768)" fill="#ffc200"/>
    <path id="Path_417" data-name="Path 417" d="M247.719,353.193h5.923v-3.775h-5.923v3.775" transform="translate(-24.789 -104.768)" fill="#ffc200"/>
    <path id="Path_418" data-name="Path 418" d="M271.91,353.193h2.216v-3.775H271.91v3.775" transform="translate(-41.455 -104.768)" fill="#ffc200"/>
    <path id="Path_419" data-name="Path 419" d="M282.375,353.193h.759v-3.775h-.759v3.775" transform="translate(-48.665 -104.768)" fill="#ffc200"/>
    <path id="Path_420" data-name="Path 420" d="M290.52,353.193h.759v-3.775h-.759v3.775" transform="translate(-54.277 -104.768)" fill="#ffc200"/>
    <path id="Path_421" data-name="Path 421" d="M295.938,353.193H297v-3.775h-1.064v3.775" transform="translate(-58.009 -104.768)" fill="#ffc200"/>
    <path id="Path_422" data-name="Path 422" d="M302.848,353.193h5.922v-3.775h-5.922v3.775" transform="translate(-62.77 -104.768)" fill="#ffc200"/>
    <path id="Path_423" data-name="Path 423" d="M327.039,353.193h1.723v-3.775h-1.723v3.775" transform="translate(-79.436 -104.768)" fill="#ffc200"/>
    <path id="Path_424" data-name="Path 424" d="M335.176,353.193h.588v-3.775h-.588v3.775" transform="translate(-85.042 -104.768)" fill="#ffc200"/>
    <path id="Path_425" data-name="Path 425" d="M341.5,353.193h.59v-3.775h-.59v3.775" transform="translate(-89.402 -104.768)" fill="#ffc200"/>
    <path id="Path_426" data-name="Path 426" d="M373.789,353.193h.472v-3.775h-.472v3.775" transform="translate(-111.644 -104.768)" fill="#ffc200"/>
    <path id="Path_427" data-name="Path 427" d="M363.8,353.193h2.624v-3.775H363.8v3.775" transform="translate(-104.766 -104.768)" fill="#ffc200"/>
    <path id="Path_428" data-name="Path 428" d="M358.363,353.193h.983v-3.775h-.983v3.775" transform="translate(-101.017 -104.768)" fill="#ffc200"/>
    <path id="Path_429" data-name="Path 429" d="M353.871,353.193h.589v-3.775h-.589v3.775" transform="translate(-97.922 -104.768)" fill="#ffc200"/>
    <path id="Path_430" data-name="Path 430" d="M347.539,353.193h.589v-3.775h-.589v3.775" transform="translate(-93.56 -104.768)" fill="#ffc200"/>
    <path id="Path_431" data-name="Path 431" d="M377.27,353.193h.486v-3.775h-.486v3.775" transform="translate(-114.043 -104.768)" fill="#ffc200"/>
    <path id="Path_432" data-name="Path 432" d="M380.43,353.193h2.708v-3.775H380.43v3.775" transform="translate(-116.22 -104.768)" fill="#ffc200"/>
    <path id="Path_433" data-name="Path 433" d="M391.488,353.193H392.5v-3.775h-1.013v3.775" transform="translate(-123.838 -104.768)" fill="#ffc200"/>
    <path id="Path_434" data-name="Path 434" d="M396.277,353.193h.347v-3.775h-.347v3.775" transform="translate(-127.137 -104.768)" fill="#ffc200"/>
    <path id="Path_435" data-name="Path 435" d="M400,353.193h.346v-3.775H400v3.775" transform="translate(-129.702 -104.768)" fill="#ffc200"/>
    <path id="Path_436" data-name="Path 436" d="M402.473,353.193h.487v-3.775h-.487v3.775" transform="translate(-131.406 -104.768)" fill="#ffc200"/>
    <path id="Path_437" data-name="Path 437" d="M405.633,353.193h2.708v-3.775h-2.708v3.775" transform="translate(-133.583 -104.768)" fill="#ffc200"/>
    <path id="Path_438" data-name="Path 438" d="M458.586,353.193h1.724v-3.775h-1.724v3.775" transform="translate(-170.065 -104.768)" fill="#ffc200"/>
    <path id="Path_439" data-name="Path 439" d="M454.094,353.193h.59v-3.775h-.59v3.775" transform="translate(-166.97 -104.768)" fill="#ffc200"/>
    <path id="Path_440" data-name="Path 440" d="M447.766,353.193h.589v-3.775h-.589v3.775" transform="translate(-162.611 -104.768)" fill="#ffc200"/>
    <path id="Path_441" data-name="Path 441" d="M415.855,353.193h.473v-3.775h-.473v3.775" transform="translate(-140.626 -104.768)" fill="#ffc200"/>
    <path id="Path_442" data-name="Path 442" d="M418.922,353.193h2.624v-3.775h-2.624v3.775" transform="translate(-142.739 -104.768)" fill="#ffc200"/>
    <path id="Path_443" data-name="Path 443" d="M429.645,353.193h.982v-3.775h-.982v3.775" transform="translate(-150.126 -104.768)" fill="#ffc200"/>
    <path id="Path_444" data-name="Path 444" d="M435.4,353.193h.589v-3.775H435.4v3.775" transform="translate(-154.09 -104.768)" fill="#ffc200"/>
    <path id="Path_445" data-name="Path 445" d="M441.73,353.193h.589v-3.775h-.589v3.775" transform="translate(-158.452 -104.768)" fill="#ffc200"/>
  </g>
</svg>
