<svg id="Group_31" data-name="Group 31" xmlns="http://www.w3.org/2000/svg" xmlns:xlink="http://www.w3.org/1999/xlink" width="72.878" height="81.108" viewBox="0 0 72.878 81.108">
  <defs>
    <clipPath id="clip-path">
      <path id="Path_10" data-name="Path 10" d="M188,86h66.359v34.966H188Zm0,0" transform="translate(-188 -86)" fill="#fec200"/>
    </clipPath>
    <clipPath id="clip-path-2">
      <path id="Path_12" data-name="Path 12" d="M178.492,97h9.947v32.973h-9.947Zm0,0" transform="translate(-178.492 -97)" fill="#fec200"/>
    </clipPath>
    <clipPath id="clip-path-3">
      <path id="Path_14" data-name="Path 14" d="M228,26.793h28.11V79.041H228Zm0,0" transform="translate(-228 -26.793)" fill="#fec200"/>
    </clipPath>
  </defs>
  <g id="Group_9" data-name="Group 9" transform="translate(6.519 40.593)" clip-path="url(#clip-path)">
    <path id="Path_9" data-name="Path 9" d="M221.683,120.838H190.2a1.368,1.368,0,0,1,0-2.737h31.484c9.406,0,13.538-2.234,15.761-3.431l.45-.241c1.2-.642,7.6-7.758,13.417-14.612-.908-.777-2.443-1.792-3.913-1.364-1.808.528-2.638,1.179-4.853,2.922-1.27.993-3.01,2.359-5.579,4.188-5.742,4.092-14.989,2.705-19.467.865-2.614-1.071-4.068-2.349-4.331-3.8-.629-3.476,2.129-4.507,5.048-5.6,1.083-.4,2.3-.86,3.619-1.484,2.812-1.326,2.566-4.636,2.212-6.361a70.955,70.955,0,0,0-11.853,2.78,43.523,43.523,0,0,0-16.055,10.2,1.356,1.356,0,0,1-.961.4H190.2a1.368,1.368,0,0,1,0-2.737h4.419A46.277,46.277,0,0,1,211.281,89.4a76.484,76.484,0,0,1,13.6-3.1,1.372,1.372,0,0,1,1.46.911c.951,2.742,1.473,8.538-3.345,10.817-1.416.673-2.694,1.149-3.827,1.572-3.275,1.227-3.508,1.5-3.321,2.542.059.2.825,1.131,3.514,2.071,4.934,1.724,12.025,1.977,16.037-.881,2.515-1.792,4.229-3.134,5.477-4.116,2.3-1.805,3.46-2.716,5.767-3.388,4.033-1.178,7.434,2.86,7.579,3.034a1.378,1.378,0,0,1-.008,1.762c-2.108,2.494-12.724,15-15.055,16.23l-.426.23c-2.426,1.31-6.952,3.755-17.046,3.755" transform="translate(-188.263 -86.092)" fill="#fec200"/>
  </g>
  <g id="Group_10" data-name="Group 10" transform="translate(0 48.134)" clip-path="url(#clip-path-2)">
    <path id="Path_11" data-name="Path 11" d="M186.956,130.433h-7.078a1.368,1.368,0,0,1,0-2.737h5.715V100.62h-5.715a1.369,1.369,0,0,1,0-2.737h7.078a1.364,1.364,0,0,1,1.361,1.369v29.816a1.365,1.365,0,0,1-1.361,1.366" transform="translate(-178.501 -97.278)" fill="#fec200"/>
  </g>
  <g id="Group_11" data-name="Group 11" transform="translate(33.943)" clip-path="url(#clip-path-3)">
    <path id="Path_13" data-name="Path 13" d="M254.42,78.769h-13.2a1.369,1.369,0,0,1,0-2.737h11.834V29.569H231.415v36.76a1.362,1.362,0,1,1-2.724,0V28.2a1.366,1.366,0,0,1,1.361-1.366H254.42a1.366,1.366,0,0,1,1.363,1.366V77.4a1.366,1.366,0,0,1-1.363,1.366" transform="translate(-228.217 -26.805)" fill="#fec200"/>
  </g>
  <path id="Path_15" data-name="Path 15" d="M247.62,75.961h-3.663a1.369,1.369,0,0,1,0-2.737h2.755a9.189,9.189,0,0,1,4.264-4.29V41.413a9.207,9.207,0,0,1-4.264-4.293h-5.434a9.138,9.138,0,0,1-4.26,4.293V67.142a1.361,1.361,0,1,1-2.721,0V40.5a1.372,1.372,0,0,1,.91-1.294,6.353,6.353,0,0,0,3.875-3.9,1.367,1.367,0,0,1,1.286-.924h7.252a1.367,1.367,0,0,1,1.286.916,6.374,6.374,0,0,0,3.884,3.9,1.373,1.373,0,0,1,.91,1.294V69.849a1.373,1.373,0,0,1-.91,1.291,6.377,6.377,0,0,0-3.884,3.9,1.366,1.366,0,0,1-1.286.919" transform="translate(-196.037 -29.179)" fill="#fec200"/>
  <path id="Path_16" data-name="Path 16" d="M246.162,60.139a2.272,2.272,0,1,0,2.263,2.271A2.266,2.266,0,0,0,246.162,60.139Zm0,7.282a5.01,5.01,0,1,1,4.987-5.011,5,5,0,0,1-4.987,5.011" transform="translate(-198.202 -36.416)" fill="#fec200"/>
</svg>
