<svg xmlns="http://www.w3.org/2000/svg" width="66.493" height="66.368" viewBox="0 0 66.493 66.368">
  <g id="surface1" transform="translate(-250.121 -192.617)">
    <path id="Path_220" data-name="Path 220" d="M310.713,305.718a5.719,5.719,0,1,0-5.726-5.8,7.079,7.079,0,0,1,3.307,5.265A5.682,5.682,0,0,0,310.713,305.718ZM291.181,294.28a5.719,5.719,0,1,0,3.047,10.554,7.065,7.065,0,0,1,2.665-4.513c0-.108.017-.214.017-.321A5.725,5.725,0,0,0,291.181,294.28Zm23.255-.121a7.083,7.083,0,0,1,3.3,5.263,5.714,5.714,0,1,0-3.3-5.263ZM306.967,305.9a5.732,5.732,0,1,1-5.733-5.717A5.728,5.728,0,0,1,306.967,305.9Zm6.179.206H308.32a7.043,7.043,0,0,1-2.179,4.908,8.708,8.708,0,0,1,6.226,8.329v.674a27.348,27.348,0,0,0,7.822-5.459c.1-.1.194-.2.29-.3v-.833A7.337,7.337,0,0,0,313.146,306.108Zm9.446-5.755h-4.826a7.037,7.037,0,0,1-2.178,4.908,8.713,8.713,0,0,1,6.192,7.567,27.126,27.126,0,0,0,5.546-10.743A7.314,7.314,0,0,0,322.592,300.353Zm-26.267,10.663a7.047,7.047,0,0,1-2.179-4.88c-.176-.015-.356-.028-.538-.028h-4.861a7.339,7.339,0,0,0-7.336,7.323v.916l.21.213a27.312,27.312,0,0,0,8.478,5.751v-.966A8.706,8.706,0,0,1,296.326,311.016Zm7.34,1H298.8a7.34,7.34,0,0,0-7.338,7.323v1.52a27.423,27.423,0,0,0,19.535-.25v-1.271A7.334,7.334,0,0,0,303.665,312.013Zm-22.017-11.867a5.711,5.711,0,0,0,2.421-.542,7.082,7.082,0,0,1,3.3-5.264,5.728,5.728,0,1,0-5.725,5.806Zm4.573,5.3a7.034,7.034,0,0,1-2.179-4.912h-4.826a7.309,7.309,0,0,0-4.694,1.7,27.139,27.139,0,0,0,5.522,10.613,8.711,8.711,0,0,1,6.177-7.4" transform="translate(-17.536 -68.924)" fill="#ffc200"/>
    <g id="Group_100" data-name="Group 100" transform="translate(250.121 192.617)">
      <path id="Path_221" data-name="Path 221" d="M253.907,225.8a29.433,29.433,0,1,1,8.629,20.791A29.288,29.288,0,0,1,253.907,225.8Zm62.707,0a33.219,33.219,0,1,0-9.739,23.463,33.051,33.051,0,0,0,9.739-23.463" transform="translate(-250.121 -192.617)" fill="#ffc200" fill-rule="evenodd"/>
    </g>
  </g>
</svg>
