<svg id="Capa_1" enable-background="new 0 0 511.998 511.998" height="512" viewBox="0 0 511.998 511.998" width="512" xmlns="http://www.w3.org/2000/svg"><g><path d="m145.872 337.366c-8.631 0-13.602 4.707-13.602 15.041v36.494c0 10.333 4.971 15.042 13.602 15.042 8.502 0 13.736-4.709 13.736-15.042v-36.494c.001-10.334-5.234-15.041-13.736-15.041z"/><path d="m456.831 229.311h-47.225l-68.368-128.445c-4.642 10.465-11.153 19.922-19.112 27.942l53.496 100.503h-239.246l53.494-100.503c-7.959-8.021-14.471-17.478-19.112-27.942l-68.367 128.445h-47.226c-30.418 0-55.165 24.748-55.165 55.167v172.353c0 30.419 24.747 55.167 55.165 55.167h401.666c30.418 0 55.166-24.748 55.166-55.167v-172.353c0-30.419-24.748-55.167-55.166-55.167zm-280.22 159.59c0 21.842-13.473 29.953-30.738 29.953-17.264 0-30.605-8.111-30.605-29.953v-36.494c0-21.844 13.342-29.952 30.605-29.952 17.266 0 30.738 8.108 30.738 29.952zm76.906-36.231c0 21.448-13.475 29.69-30.74 29.69h-14.648v30.346c0 3.533-4.315 5.364-8.5 5.364-4.316 0-8.504-1.831-8.504-5.364v-85.02c0-2.746 2.484-5.231 6.41-5.231h26.291c16.611 0 29.691 7.979 29.691 29.431zm47.344 10.854c3.4 0 5.365 3.27 5.365 6.803 0 3.008-1.703 6.541-5.365 6.541h-19.881v26.289h37.017c3.398 0 5.361 3.533 5.361 7.586 0 3.533-1.701 7.327-5.361 7.327h-46.566c-3.793 0-7.455-1.831-7.455-5.364v-84.889c0-3.533 3.662-5.362 7.455-5.362h46.566c3.66 0 5.361 3.794 5.361 7.323 0 4.057-1.963 7.588-5.361 7.588h-37.017v26.158zm95.871 49.182c0 3.533-4.314 5.364-8.504 5.364-4.055 0-7.584-1.308-9.809-5.364l-28.121-52.581v52.581c0 3.533-4.316 5.364-8.504 5.364-4.314 0-8.5-1.831-8.5-5.364v-84.889c0-3.662 4.186-5.362 8.5-5.362 6.15 0 8.637 1.308 12.691 9.025l25.242 48.789v-52.583c0-3.662 4.186-5.231 8.5-5.231 4.19 0 8.504 1.569 8.504 5.231v85.02z"/><path d="m222.777 337.366h-14.648v31.654h14.648c8.504 0 13.734-4.838 13.734-15.041v-1.572c0-10.201-5.231-15.041-13.734-15.041z"/><path d="m255.999 126.399c34.848 0 63.199-28.351 63.199-63.199 0-34.849-28.352-63.2-63.199-63.2-34.85 0-63.201 28.351-63.201 63.2s28.352 63.199 63.201 63.199z"/></g></svg>