<svg xmlns="http://www.w3.org/2000/svg" width="65.453" height="70.422" viewBox="0 0 65.453 70.422">
  <g id="Group_77" data-name="Group 77" transform="translate(-557.696 295.945)">
    <g id="Group_76" data-name="Group 76" transform="translate(558.196 -295.445)">
      <path id="Path_190" data-name="Path 190" d="M411.6,342.649a.782.782,0,0,0-.014-.128.324.324,0,0,0-.007-.032c-.008-.032-.019-.064-.03-.1,0-.01-.007-.021-.011-.03a.631.631,0,0,0-.053-.1L401.9,327.206a.735.735,0,0,0-.62-.339h-8.321v-6.784a.735.735,0,0,0-.734-.735H366.52a.735.735,0,0,0-.735.735v6.784h-8.321a.737.737,0,0,0-.62.339l-9.584,15.057a.649.649,0,0,0-.052.1c0,.009-.008.02-.012.029a.59.59,0,0,0-.03.1.279.279,0,0,0-.008.03.815.815,0,0,0-.013.129s0,.006,0,.008v6.56a4.673,4.673,0,0,0,5.832,4.523v30.937h-2.838a.735.735,0,0,0-.734.735v2.624a.734.734,0,0,0,.734.734H410.5a.734.734,0,0,0,.735-.734v-2.624a.735.735,0,0,0-.735-.735h-3.565V353.886a4.676,4.676,0,0,0,4.665-4.669v-6.568Zm-44.343-21.831H391.49v6.049H367.255Zm-9.387,7.518h43.008l8.65,13.587H349.219Zm17.573,53.353V362.748a.735.735,0,0,0-.734-.735H358.96a.735.735,0,0,0-.735.735v21.928h-3.779v-31.6a4.687,4.687,0,0,0,1.307-1.347,4.667,4.667,0,0,0,7.873,0,4.666,4.666,0,0,0,7.872,0,4.667,4.667,0,0,0,7.873,0,4.667,4.667,0,0,0,7.873,0,4.667,4.667,0,0,0,7.873,0,4.666,4.666,0,0,0,7.871,0,4.657,4.657,0,0,0,2.474,1.923v28.038Zm30.022,1.47v1.518H375.441v-1.518Zm-31.492-19.676v21.193H359.7V363.483Zm-17.483-14.268v-5.823h6.4v5.825a3.2,3.2,0,0,1-6.4,0Zm7.872,0v-5.825h6.4v5.825a3.2,3.2,0,0,1-6.4,0Zm7.873,0v-5.821h6.4v5.825a3.2,3.2,0,0,1-6.4,0Zm7.873,0v-5.823h6.4v5.825a3.2,3.2,0,0,1-6.4,0Zm7.873,0v-5.825h6.4v5.825a3.2,3.2,0,0,1-6.4,0Zm7.873,0v-5.823h6.4v5.825a3.2,3.2,0,0,1-6.4,0Zm-44.036,3.2a3.2,3.2,0,0,1-3.2-3.2v-5.825h6.4v5.825A3.2,3.2,0,0,1,351.817,352.417Zm57.948,33.73V387.3h-58.89v-1.154Zm.365-36.93a3.2,3.2,0,0,1-3.2,3.2,3.1,3.1,0,0,1-.595-.057,3.2,3.2,0,0,1-2.607-3.144v-5.825h6.4Zm0,0" transform="translate(-347.145 -319.348)" fill="#ffc200" stroke="#ffc200" stroke-width="1"/>
    </g>
    <path id="Path_191" data-name="Path 191" d="M477.788,441.953H456.794a.735.735,0,0,0-.735.735v22.3a.735.735,0,0,0,.735.735h20.994a.735.735,0,0,0,.735-.735v-22.3A.735.735,0,0,0,477.788,441.953Zm-.735,22.3H457.529v-20.83h19.524Zm0,0" transform="translate(134.212 -701.291)" fill="#ffc200" stroke="#ffc200" stroke-width="1"/>
  </g>
</svg>
