<svg xmlns="http://www.w3.org/2000/svg" width="76.305" height="106.671" viewBox="0 0 76.305 106.671">
  <g id="surface1" transform="translate(-98.215 -295.086)">
    <g id="Group_94" data-name="Group 94" transform="translate(98.215 295.086)">
      <path id="Path_216" data-name="Path 216" d="M112.035,342.707H160.7a14.01,14.01,0,0,1,9.756,3.931,13.324,13.324,0,0,1,4.065,9.555v37.945a1.908,1.908,0,0,1-1.907,1.905H142.144l-4.327,5.047-.034.041-.037.037-.035.037-.037.035-.039.036-.039.034-.041.032-.039.034-.043.029-.042.03-.085.053-.044.027-.046.025-.046.023-.092.043-.048.019-.1.035-.05.016-.049.014-.1.024-.049.011-.051.009-.05.007-.051.007-.051.005-.052,0-.055,0h-.1l-.053,0-.052,0-.051-.005-.051-.007-.05-.007-.051-.009-.049-.011-.052-.012-.049-.012-.049-.014-.05-.016-.1-.035-.046-.019-.092-.043-.046-.023-.046-.025-.089-.053-.041-.027-.042-.03-.043-.029-.039-.034-.041-.032-.041-.034-.074-.071-.035-.037-.037-.037-.034-.041-4.327-5.047H100.122a1.908,1.908,0,0,1-1.907-1.905V356.193a13.325,13.325,0,0,1,4.065-9.555A14.008,14.008,0,0,1,112.035,342.707Zm24.332,54.215,7.609-8.874-5-12.958h-5.221l-5,12.958Zm17.788-50.406,1.743,16.95a1.907,1.907,0,0,1-2.935,1.794l-2.357-1.528-6.751,4.923-1.539,4.492,5.628,14.593a1.9,1.9,0,0,1-.331,1.923l-2.2,2.571H170.7V356.193a9.521,9.521,0,0,0-2.912-6.825,10.182,10.182,0,0,0-7.094-2.852Zm-35.574,0h-6.546a10.177,10.177,0,0,0-7.092,2.852,9.521,9.521,0,0,0-2.912,6.825v36.039h25.294l-2.2-2.571a1.9,1.9,0,0,1-.331-1.923l5.628-14.593-1.539-4.492-6.751-4.923-2.357,1.528a1.907,1.907,0,0,1-2.935-1.794Zm15.233,17.144-1.307,3.811,1.307,3.809h5.108l1.307-3.809-1.307-3.811Zm-8.261-2.148,3.97,2.894.911-2.652-.957-2.786Zm16.75.242.909,2.652,3.97-2.894-3.924-2.544Zm2.807-6.128,6.586,4.267-1.1-10.668Zm-24.07,4.267,6.584-4.267-5.488-6.4Zm19.776-5.116,7.082-8.262h-23.06l7.082,8.262a1.936,1.936,0,0,1,.345.564l.023.058.007.023,1.519,4.428h5.108l1.519-4.428.019-.058.011-.023A1.9,1.9,0,0,1,140.816,354.778Zm-4.449-59.692c-12.96,0-23.458,10.257-23.458,22.858s10.5,22.858,23.458,22.858,23.46-10.255,23.46-22.858S149.329,295.086,136.367,295.086Zm0,3.811c10.828,0,19.644,8.52,19.644,19.048s-8.815,19.049-19.644,19.049-19.642-8.521-19.642-19.049S125.54,298.9,136.367,298.9Zm0,0" transform="translate(-98.215 -295.086)" fill="#ffc200" fill-rule="evenodd"/>
    </g>
  </g>
</svg>
