<svg xmlns="http://www.w3.org/2000/svg" width="94.452" height="95.555" viewBox="0 0 94.452 95.555">
  <g id="Group_88" data-name="Group 88" transform="translate(-231.474 577.441)">
    <g id="Group_82" data-name="Group 82" transform="translate(231.474 -518.65)">
      <path id="Path_192" data-name="Path 192" d="M141.265,178.107c-4.266-3.49-13.056,1.134-23.239,6.487-1.7.895-3.4,1.787-5.051,2.624a1.716,1.716,0,1,0,1.553,3.059c1.669-.845,3.381-1.745,5.1-2.647,7.157-3.763,16.959-8.916,19.461-6.869.477.39.457.606.449.7-.281,3.047-13.293,10.19-20.282,14.028-14.112,7.75-20.784,9.279-23.925,9.183-4.453-.125-8.2-1.146-13.363-3.641-1.81-.873-3.5-1.732-4.974-2.523l-.2-.113-.817,1.51.717-1.564-.5-.273c-3.868-2.013-8.763-2.788-13.274-3.211V178.1c1.79-.446,3.678-1,5.743-1.673a25.112,25.112,0,0,1,11.2-1.5c2.855.374,5.478,2.061,8.253,3.849a41.578,41.578,0,0,0,7.016,3.884c8.515,3.429,14.6,8.752,13.957,10.873-.19.633-.444.762-.552.817-1.3.67-5.1-.624-9.107-1.994-1.1-.374-2.146-.746-3.164-1.107-5.064-1.8-9.44-3.352-15.738-3.853a1.715,1.715,0,1,0-.275,3.419c5.849.465,10.025,1.948,14.862,3.666,1.032.366,2.091.742,3.2,1.121,3.925,1.341,6.9,2.36,9.234,2.36a5.492,5.492,0,0,0,2.552-.558,4.544,4.544,0,0,0,2.272-2.88c1.7-5.635-8.612-12.085-15.96-15.046a38.933,38.933,0,0,1-6.441-3.585c-3.109-2-6.046-3.89-9.666-4.366a28.64,28.64,0,0,0-12.721,1.643c-1.667.547-3.2,1-4.669,1.388v-.261a2.6,2.6,0,0,0-2.6-2.6H51.123a2.6,2.6,0,0,0-2.6,2.6v25.241a2.6,2.6,0,0,0,2.6,2.6h9.192a2.6,2.6,0,0,0,2.6-2.6V198.3c4.076.4,8.406,1.1,11.655,2.79l.744.4c1.581.851,3.27,1.709,5.16,2.623,5.567,2.69,9.842,3.844,14.76,3.981.111,0,.225,0,.337,0,5.2,0,13.722-3.231,25.34-9.609,14.935-8.2,21.665-12.563,22.049-16.721a4.119,4.119,0,0,0-1.693-3.669" transform="translate(-48.523 -171.342)" fill="#ffc200"/>
    </g>
    <path id="Path_193" data-name="Path 193" d="M198.8,189.311a1.436,1.436,0,0,0,.767-.223l1.7-1.087c5.432-3.472,11.59-7.41,15.25-7.416h.016a3.456,3.456,0,0,1,2.342.57,1.43,1.43,0,0,0,2.111-1.929,6,6,0,0,0-4.474-1.5c-4.5.006-10.745,4-16.789,7.867l-1.695,1.082a1.428,1.428,0,0,0,.769,2.635" transform="translate(93.523 -693.828)" fill="#ffc200"/>
    <path id="Path_194" data-name="Path 194" d="M187.964,181.189a1.43,1.43,0,1,0,1.693,2.3c1.134-.831,2.208-1.653,3.229-2.434,3.519-2.692,6.558-5.017,8.969-5.224a4.938,4.938,0,0,1,1.463.057,1.43,1.43,0,1,0,.628-2.791,7.733,7.733,0,0,0-2.339-.115c-3.242.281-6.427,2.718-10.463,5.8-1.006.77-2.063,1.58-3.181,2.4" transform="translate(99.524 -690.958)" fill="#ffc200"/>
    <path id="Path_195" data-name="Path 195" d="M179.952,175.394c-.855.8-1.821,1.711-3.106,2.754a1.43,1.43,0,0,0,1.806,2.219c1.366-1.109,2.417-2.1,3.261-2.891,1.764-1.656,2.531-2.336,3.825-2.529a4.009,4.009,0,0,1,1.327-.019,1.429,1.429,0,1,0,.54-2.807,6.868,6.868,0,0,0-2.288,0c-2.234.331-3.547,1.567-5.364,3.275" transform="translate(106.17 -690.402)" fill="#ffc200"/>
    <path id="Path_196" data-name="Path 196" d="M131.467,105.254a4.793,4.793,0,0,0,1.516-.268v10.586a1.718,1.718,0,0,0,3.435,0V90.626a1.718,1.718,0,0,0-3.435,0v9.3a1.805,1.805,0,0,0-.038.357,1.514,1.514,0,0,1-1.478,1.542c-.951,0-1.205-.97-1.205-1.542v-9a7.789,7.789,0,0,1,7.784-7.775h7.222a7.79,7.79,0,0,1,7.786,7.775v9c0,.572-.254,1.542-1.205,1.542a1.514,1.514,0,0,1-1.478-1.542,1.685,1.685,0,0,0-.039-.36V90.626a1.717,1.717,0,0,0-3.435,0v25.236a1.717,1.717,0,0,0,3.435,0V104.986a4.8,4.8,0,0,0,1.517.268,4.709,4.709,0,0,0,4.639-4.973v-9a11.225,11.225,0,0,0-11.219-11.205h-7.222A11.225,11.225,0,0,0,126.828,91.28v9a4.708,4.708,0,0,0,4.639,4.973" transform="translate(135.904 -635.157)" fill="#ffc200"/>
    <path id="Path_197" data-name="Path 197" d="M159.676,136.207v15.759a1.717,1.717,0,0,0,3.435,0V136.207a1.717,1.717,0,0,0-3.435,0" transform="translate(116.168 -667.852)" fill="#ffc200"/>
    <path id="Path_198" data-name="Path 198" d="M114.637,106.32v21.661a1.717,1.717,0,0,0,3.435,0V106.32a1.717,1.717,0,0,0-3.435,0" transform="translate(143.228 -649.895)" fill="#ffc200"/>
    <path id="Path_199" data-name="Path 199" d="M73.02,107.491a4.562,4.562,0,0,0,1.243-.193v9.649a1.718,1.718,0,0,0,3.435,0v-22.8a1.718,1.718,0,0,0-3.437,0l0,8.3a1.745,1.745,0,0,0-.034.34,1.241,1.241,0,0,1-1.208,1.267c-.929,0-.956-1.136-.956-1.267V94.748a6.982,6.982,0,0,1,6.978-6.97h6.61a6.905,6.905,0,0,1,3.206.778,1.716,1.716,0,1,0,1.58-3.047,10.455,10.455,0,0,0-4.786-1.162h-6.61a10.419,10.419,0,0,0-10.413,10.4v8.045a4.452,4.452,0,0,0,4.391,4.7" transform="translate(170.871 -637.724)" fill="#ffc200"/>
    <path id="Path_200" data-name="Path 200" d="M98.691,135.383v10.059a1.717,1.717,0,0,0,3.434,0V135.383a1.717,1.717,0,0,0-3.434,0" transform="translate(152.809 -667.357)" fill="#ffc200"/>
    <g id="Group_83" data-name="Group 83" transform="translate(267.957 -575.941)">
      <path id="Path_201" data-name="Path 201" d="M149.523,47a9.592,9.592,0,1,0-9.605-9.593A9.61,9.61,0,0,0,149.523,47" transform="translate(-139.918 -27.82)" fill="none" stroke="#ffc200" stroke-linecap="square" stroke-width="3"/>
    </g>
    <path id="Path_202" data-name="Path 202" d="M89.656,54.406a8.851,8.851,0,1,0-8.863-8.851,8.867,8.867,0,0,0,8.863,8.851" transform="translate(163.562 -609.099)" fill="none" stroke="#ffc200" stroke-linecap="square" stroke-width="3"/>
    <path id="Path_203" data-name="Path 203" d="M211.621,54.406a8.851,8.851,0,1,0-8.863-8.851,8.867,8.867,0,0,0,8.863,8.851" transform="translate(90.284 -609.099)" fill="none" stroke="#ffc200" stroke-linecap="square" stroke-width="3"/>
    <path id="Path_204" data-name="Path 204" d="M208.145,106.32a1.717,1.717,0,0,0-3.434,0v21.661a1.717,1.717,0,0,0,3.434,0V106.32" transform="translate(89.11 -649.895)" fill="#ffc200"/>
    <path id="Path_205" data-name="Path 205" d="M204.9,88.552a6.9,6.9,0,0,1,3.2-.773h6.61a6.983,6.983,0,0,1,6.978,6.97v8.045c0,.131-.027,1.267-.958,1.267a1.239,1.239,0,0,1-1.207-1.267,1.786,1.786,0,0,0-.034-.346v-8.3a1.718,1.718,0,0,0-3.435,0l0,23.934a1.718,1.718,0,0,0,3.435,0l0-10.786a4.531,4.531,0,0,0,1.241.193,4.452,4.452,0,0,0,4.393-4.7V94.748a10.419,10.419,0,0,0-10.413-10.4H208.1a10.44,10.44,0,0,0-4.773,1.155,1.716,1.716,0,1,0,1.576,3.048" transform="translate(90.501 -637.724)" fill="#ffc200"/>
    <path id="Path_206" data-name="Path 206" d="M224.1,145.442V135.383a1.718,1.718,0,0,0-3.435,0v10.059a1.718,1.718,0,0,0,3.435,0" transform="translate(79.528 -667.357)" fill="#ffc200"/>
  </g>
</svg>
