<svg xmlns="http://www.w3.org/2000/svg" width="95.698" height="60.77" viewBox="0 0 95.698 60.77">
  <g id="surface1" transform="translate(-211.766 -149.422)">
    <g id="Group_105" data-name="Group 105" transform="translate(211.766 149.422)">
      <path id="Path_224" data-name="Path 224" d="M221.788,152.894a6.546,6.546,0,0,0-6.544,6.532v40.762a6.546,6.546,0,0,0,6.544,6.531h75.653a6.544,6.544,0,0,0,6.542-6.531V159.426a6.544,6.544,0,0,0-6.542-6.532Zm75.653,57.3H221.788a10.024,10.024,0,0,1-10.022-10V159.426a10.025,10.025,0,0,1,10.022-10h75.653a10.025,10.025,0,0,1,10.022,10v40.762a10.024,10.024,0,0,1-10.022,10" transform="translate(-211.766 -149.422)" fill="#ffc200"/>
    </g>
    <path id="Path_225" data-name="Path 225" d="M264.739,189.527a8.345,8.345,0,1,0,8.36,8.346A8.353,8.353,0,0,0,264.739,189.527Zm10.245,36.851H254.492V212.71a5.268,5.268,0,0,1,5.273-5.262h9.948a5.266,5.266,0,0,1,5.271,5.262v13.668" transform="translate(-28.202 -26.472)" fill="#ffc200"/>
    <path id="Path_226" data-name="Path 226" d="M385.936,210.425H352.845a1.736,1.736,0,1,1,0-3.472h33.091a1.736,1.736,0,1,1,0,3.472" transform="translate(-91.974 -37.975)" fill="#ffc200"/>
    <path id="Path_227" data-name="Path 227" d="M385.936,237.175H352.845a1.736,1.736,0,1,1,0-3.472h33.091a1.736,1.736,0,1,1,0,3.472" transform="translate(-91.974 -55.631)" fill="#ffc200"/>
    <path id="Path_228" data-name="Path 228" d="M385.936,263.923H352.845a1.737,1.737,0,1,1,0-3.474h33.091a1.737,1.737,0,1,1,0,3.474" transform="translate(-91.974 -73.286)" fill="#ffc200"/>
    <path id="Path_229" data-name="Path 229" d="M385.936,290.673H352.845a1.737,1.737,0,1,1,0-3.474h33.091a1.737,1.737,0,1,1,0,3.474" transform="translate(-91.974 -90.943)" fill="#ffc200"/>
  </g>
</svg>
