<?xml version="1.0" standalone="no"?>
<!DOCTYPE svg PUBLIC "-//W3C//DTD SVG 1.1//EN" "http://www.w3.org/Graphics/SVG/1.1/DTD/svg11.dtd" >
<svg xmlns="http://www.w3.org/2000/svg" xmlns:xlink="http://www.w3.org/1999/xlink" version="1.1">
<metadata>
Created by FontForge 20170731 at Sat Jan  9 09:33:10 2021
 By Aleksey,,,
Copyright (c) 2012 by Brian J. Bonislawsky DBA Astigmatic (AOETI) (astigma@astigmatic.com), with ReservedFont Name "Grand Hotel"
</metadata>
<defs>
<font id="GrandHotel-Regular" horiz-adv-x="819" >
  <font-face 
    font-family="Grand Hotel"
    font-weight="400"
    font-stretch="normal"
    units-per-em="2048"
    panose-1="2 0 6 6 0 0 0 2 0 3"
    ascent="1638"
    descent="-410"
    x-height="782"
    cap-height="1434"
    bbox="-283 -844 2044 1937"
    underline-thickness="102"
    underline-position="-307"
    unicode-range="U+0020-FB02"
  />
<missing-glyph horiz-adv-x="512" 
 />
    <glyph glyph-name="fi" unicode="fi" horiz-adv-x="841" 
d="M715 682v-510q0 -94 53 -94q93 0 137 221q13 63 52 61q33 -3 56 -42q17 -29 11 -56q-16 -58 -37.5 -108t-56 -101t-86 -80.5t-113.5 -29.5q-79 0 -125.5 55.5t-46.5 136.5v483l-332 3v-46q148 -184 226.5 -385.5t78.5 -443.5q0 -170 -33.5 -304t-95.5 -210t-143 -76
q-51 0 -89 26t-59 71t-30.5 97t-9.5 113v1123q-2 2 -6.5 7t-6.5 7l-15.5 15.5l-15.5 15.5t-12 13.5t-11 15.5t-6 14t-3 16q0 17 12 31.5t35 17.5q2 0 11.5 1t17.5 1v562q0 35 -10.5 55.5t-10.5 21.5q0 10 21 16.5t45 6.5q50 0 80 -26t30 -64v-561q80 4 165 13t136.5 16
t59.5 7q76 0 101.5 -29.5t25.5 -76.5zM377 -254q0 142 -39 302.5t-111 305.5v-891q0 -157 49 -157q44 0 72.5 123t28.5 317zM647 985q-51 0 -87 37t-36 88q0 54 36 89.5t87 35.5q54 0 89.5 -35.5t35.5 -89.5q0 -52 -36 -88.5t-89 -36.5z" />
    <glyph glyph-name="fl" unicode="fl" horiz-adv-x="897" 
d="M965 297q13 61 51 59q32 -1 55 -39q19 -30 12 -57q-13 -38 -30 -76t-46.5 -83t-63 -78.5t-82 -56.5t-101.5 -23q-116 0 -179 73t-63 197v317q-52 -10 -104 -10q-106 0 -187 37v-16q136 -149 220.5 -387t84.5 -449q0 -255 -74 -402t-198 -147q-51 0 -89 26t-59 71
t-30.5 97t-9.5 113v1084l-13 12q-6 6 -23 21t-22 22t-11.5 23.5t-6.5 38.5q0 18 12 35t35 20q17 0 29 -2v586q0 35 -10.5 55.5t-10.5 21.5q0 10 21 16.5t45 6.5q50 0 80 -26t30 -64v-635q94 -23 150 -23q73 0 141 21v469q0 121 53.5 191.5t133.5 70.5q37 0 66.5 -9.5
t48.5 -23.5t32.5 -38t20 -44t10 -51t4 -49.5t0.5 -48.5q0 -108 -18.5 -198t-53 -155.5t-67 -108t-74.5 -83.5v-379q0 -65 26.5 -103t81.5 -38q65 0 116 70.5t67 148.5zM377 -295q0 121 -40 295.5t-110 321.5v-859q0 -157 49 -157q46 0 73.5 104.5t27.5 294.5zM674 1190v-410
q86 139 86 350q0 85 -12 113.5t-39 28.5q-16 0 -25.5 -24t-9.5 -58z" />
    <glyph glyph-name=".notdef" horiz-adv-x="512" 
 />
    <glyph glyph-name=".null" horiz-adv-x="0" 
 />
    <glyph glyph-name="nonmarkingreturn" horiz-adv-x="682" 
 />
    <glyph glyph-name="space" unicode=" " horiz-adv-x="450" 
 />
    <glyph glyph-name="exclam" unicode="!" horiz-adv-x="655" 
d="M328 150q41 0 70.5 -29t29.5 -70q0 -39 -29.5 -67.5t-70.5 -28.5q-40 0 -69.5 29t-29.5 67q0 41 29.5 70t69.5 29zM408 1352v-1043q0 -38 -18 -57t-46 -19q-34 0 -64 28t-30 67v1009q0 22 -9.5 44.5t-9.5 27.5q0 25 62 25q48 0 81.5 -19.5t33.5 -62.5z" />
    <glyph glyph-name="quotedbl" unicode="&#x22;" horiz-adv-x="614" 
d="M252 1356v-363q0 -19 -33.5 -31.5t-67 -8t-34.5 25.5v354q0 14 -7.5 22.5t-7.5 12.5q0 23 60 23q90 0 90 -35zM498 1356v-363q0 -19 -33.5 -31.5t-67.5 -8t-35 25.5v354q0 14 -7 22.5t-7 12.5q0 23 60 23q90 0 90 -35z" />
    <glyph glyph-name="numbersign" unicode="#" horiz-adv-x="952" 
d="M96 578h144l36 194h-139q-35 0 -35 45q0 26 16 47t40 21h139l61 319q0 43 35 43q39 0 66.5 -16t19.5 -49l-57 -297h182l62 319q0 43 34 43q39 0 66.5 -16t19.5 -49l-57 -297h129q3 0 8 1t8 1q37 0 37 -43q0 -72 -71 -72h-133l-37 -194h127q3 0 8 1t8 1q37 0 37 -43
q0 -37 -20 -54.5t-52 -17.5h-129l-67 -354q0 -25 -47 -25q-27 0 -48.5 17t-21.5 38q0 9 2 19l57 305h-182l-68 -354q0 -25 -47 -25q-26 0 -47.5 16.5t-21.5 38.5q0 9 2 19l57 305h-141q-35 0 -35 45q0 26 15.5 47t39.5 21zM399 772l-37 -194h185l37 194h-185z" />
    <glyph glyph-name="dollar" unicode="$" horiz-adv-x="808" 
d="M354 -68v131q-58 5 -106.5 27t-69 40.5t-20.5 25.5q0 31 25.5 67.5t47.5 36.5q9 0 24 -13t40.5 -29t58.5 -21v301q-40 22 -60 34t-57 37t-57.5 44t-47.5 49.5t-40.5 60.5t-24 70.5t-10.5 85.5q0 122 85.5 240t211.5 181v162q0 2 -5 12t-5 15q0 22 59 22q64 0 64 -51v-119
q56 9 76 9q102 0 161.5 -62t59.5 -166q0 -94 -48 -172t-106 -78q-26 0 -49 18t-31 42q-7 20 0.5 31.5t18.5 11.5q63 0 63 137q0 88 -86 88q-26 0 -59 -10v-588q46 -28 77 -51.5t63.5 -57.5t48.5 -76t16 -93q0 -87 -58.5 -155.5t-146.5 -94.5v-164q0 -20 -9.5 -28.5
t-31.5 -8.5q-31 0 -51.5 15t-20.5 44zM213 879q0 -67 36.5 -115.5t104.5 -93.5v460q-63 -47 -102 -112.5t-39 -138.5zM528 317q0 58 -61 109v-217q61 28 61 108z" />
    <glyph glyph-name="percent" unicode="%" horiz-adv-x="1159" 
d="M285 711q-103 0 -168.5 88t-65.5 272t65.5 273.5t168.5 89.5t167 -89t64 -274q0 -184 -64 -272t-167 -88zM285 1323q-51 0 -75 -60.5t-24 -191.5t24 -190.5t75 -59.5t73.5 59t22.5 191t-22.5 192t-73.5 60zM150 55l751 1346v20q0 15 23 15q29 0 61.5 -22t32.5 -52
q0 -16 -4 -23l-766 -1364q-8 -14 -27 -14q-27 0 -53.5 18t-26.5 48q0 16 9 28zM877 -41q-103 0 -168.5 88t-65.5 272t65.5 273.5t168.5 89.5t167 -89t64 -274q0 -184 -64 -272t-167 -88zM877 571q-51 0 -75 -60.5t-24 -191.5t24 -190t75 -59t73.5 58.5t22.5 190.5t-22.5 192
t-73.5 60z" />
    <glyph glyph-name="ampersand" unicode="&#x26;" horiz-adv-x="864" 
d="M793 41q26 -3 26 -18q0 -23 -40 -51.5t-77 -28.5q-34 0 -51 28q-44 80 -47 86q-108 -114 -237 -114q-153 0 -236.5 107t-83.5 274q0 89 22.5 182t59.5 171t64.5 126t56.5 90q-37 119 -62.5 226t-33 154.5t-7.5 59.5q0 36 21 58t59 22h383q16 4 23 4q39 0 39 -49
q0 -39 -24 -75t-60 -36q-146 0 -275 7q12 -119 91 -359t208 -514q25 122 25 266q0 11 -6.5 43.5t-1.5 42.5q21 54 125 54q20 0 35.5 -6.5t15.5 -16.5q0 -6 -4.5 -13.5t-9.5 -32t-5 -71.5q0 -264 -84 -450q62 -118 91 -166zM375 94q92 0 160 99q-131 260 -224 516
q-110 -187 -110 -383q0 -93 48.5 -162.5t125.5 -69.5z" />
    <glyph glyph-name="quotesingle" unicode="'" horiz-adv-x="368" 
d="M252 1356v-363q0 -19 -33.5 -31.5t-67 -8t-34.5 25.5v354q0 14 -7.5 22.5t-7.5 12.5q0 23 60 23q90 0 90 -35z" />
    <glyph glyph-name="parenleft" unicode="(" horiz-adv-x="552" 
d="M485 -162q36 -32 9 -69t-91 -37q-23 0 -62 41.5t-84.5 124.5t-85.5 191t-66.5 259.5t-26.5 310.5q0 129 17 250.5t41.5 209.5t60 170.5t63.5 131.5t61 94t44.5 57.5t21.5 22.5q4 4 16 4q32 0 78 -24t47 -49q0 -21 -26 -31q-11 -11 -29.5 -33.5t-64 -99t-80.5 -165.5
t-63.5 -234.5t-28.5 -303.5q0 -151 25.5 -291t61 -232t73 -162.5t62 -103t27.5 -32.5z" />
    <glyph glyph-name="parenright" unicode=")" horiz-adv-x="552" 
d="M68 1493q-36 32 -9 69t91 37q23 0 62 -41.5t84.5 -124.5t85.5 -191t66.5 -259.5t26.5 -310.5q0 -129 -17 -250.5t-41.5 -209.5t-60 -170.5t-63.5 -131.5t-61 -94t-44.5 -57.5t-21.5 -22.5q-4 -4 -16 -4q-32 0 -78 24t-47 49q0 21 26 31q11 11 29.5 33.5t64 99t80.5 165.5
t63.5 234.5t28.5 303.5q0 151 -25.5 291t-61 232t-73 162.5t-62 103t-27.5 32.5z" />
    <glyph glyph-name="asterisk" unicode="*" horiz-adv-x="675" 
d="M156 1296l125 -92v135q-5 29 5 40.5t40 11.5q69 0 69 -41v-152l111 82q31 23 43 23q14 0 33.5 -34t19.5 -50q0 -14 -10 -19l-154 -110l158 -115q10 -7 10 -23q0 -24 -18.5 -49.5t-38.5 -25.5q-8 0 -12 4l-142 100v-137q0 -18 -23 -29.5t-50 -11.5q-41 0 -41 26v146
l-138 -98l-10 -5q-18 0 -36.5 26.5t-18.5 51.5q0 18 12 27l154 113l-138 98q-7 4 -14 8.5t-10.5 6.5t-6.5 4.5t-4 5.5t-1 8q0 16 24.5 49t44.5 33q7 0 17 -7z" />
    <glyph glyph-name="plus" unicode="+" 
d="M137 717h201v213q0 8 -4 14.5t-4 9.5q0 15 53 15q98 0 98 -35v-217h213q8 0 16.5 5t10.5 5q20 0 20 -43q0 -36 -18.5 -73.5t-44.5 -37.5h-197v-215q0 -19 -35.5 -31.5t-71 -8t-36.5 25.5v229h-225q-15 0 -24 17t-9 41q0 32 15 59t42 27z" />
    <glyph glyph-name="comma" unicode="," horiz-adv-x="552" 
d="M293 150q43 0 71.5 -31.5t28.5 -89.5q0 -57 -57.5 -141.5t-95.5 -84.5q-24 0 -42 21.5t-18 42.5q0 4 1.5 6t3 3t5 2.5t5.5 2.5q19 5 73 78q-33 8 -54 33.5t-21 58.5q0 41 30 70t70 29z" />
    <glyph glyph-name="hyphen" unicode="-" horiz-adv-x="716" 
d="M156 621h413q8 0 16.5 5t10.5 5q20 0 20 -43q0 -38 -19 -84.5t-44 -46.5h-422q-15 0 -24 16.5t-9 40.5q0 34 16 70.5t42 36.5z" />
    <glyph glyph-name="period" unicode="." horiz-adv-x="552" 
d="M291 150q41 0 70.5 -29t29.5 -70q0 -39 -29.5 -67.5t-70.5 -28.5q-40 0 -69 29t-29 67q0 41 29 70t69 29z" />
    <glyph glyph-name="slash" unicode="/" horiz-adv-x="634" 
d="M20 51l469 1333q1 3 -0.5 12.5t-1.5 12.5q0 14 21 14q32 0 75.5 -20.5t43.5 -52.5q0 -11 -2 -15l-478 -1353q-8 -19 -36 -19q-29 0 -62 21.5t-33 48.5q0 6 4 18z" />
    <glyph glyph-name="zero" unicode="0" horiz-adv-x="890" 
d="M446 -57q-374 0 -374 745q0 47 0.5 75.5t3.5 92.5t9.5 109t19.5 109.5t31 110.5t46.5 96t65 81t87 51.5t111.5 20.5q69 0 125.5 -25t94.5 -66t66.5 -102t45 -123.5t26 -141.5t12.5 -144.5t3 -143.5q0 -129 -12 -235.5t-32 -182.5t-49.5 -134.5t-61.5 -94t-70 -58.5
t-73.5 -31.5t-74.5 -8.5zM446 1282q-215 0 -215 -594q0 -78 4 -148t17.5 -155.5t35.5 -146.5t63 -102.5t95 -41.5q101 0 157 158t56 436q0 121 -9.5 218t-23.5 158t-35.5 105t-39 65t-41.5 33t-36 13.5t-28 1.5z" />
    <glyph glyph-name="one" unicode="1" horiz-adv-x="534" 
d="M252 23v1130q-102 -141 -150 -141q-34 0 -60 31.5t-26 62.5q0 3 0.5 5t1 3.5t2.5 3t3 2.5t3.5 2t3.5 1t4.5 1.5t4.5 1.5q21 7 77.5 76t103.5 134l46 65q23 33 62 33q31 0 55.5 -24.5t24.5 -55.5v-1344q0 -47 -58 -47q-36 0 -67 18.5t-31 41.5z" />
    <glyph glyph-name="two" unicode="2" horiz-adv-x="815" 
d="M362 133h297q18 0 31.5 14.5t20.5 14.5q22 0 22 -60q0 -51 -20.5 -86.5t-59.5 -35.5h-460q-30 0 -53 21t-23 54q0 39 24 60q10 10 27 28t63.5 73t89 113t93.5 143.5t88 168t62.5 182t25.5 191.5q0 77 -19 133.5t-49 83.5t-57.5 39t-54.5 12q-80 0 -137.5 -65.5
t-57.5 -202.5q0 -94 31 -167t57 -73q5 0 12 5t9 5q9 0 6 -18q-3 -29 -33.5 -59.5t-67.5 -30.5q-72 0 -122 108.5t-50 229.5q0 104 31 187t82.5 132.5t114 75t129.5 25.5q68 0 124.5 -24.5t95 -66t65 -96.5t39 -115t12.5 -124q0 -101 -27 -209.5t-66.5 -199t-95 -183.5
t-102 -157t-97.5 -126z" />
    <glyph glyph-name="three" unicode="3" horiz-adv-x="792" 
d="M47 1026q0 101 30 181.5t80 128.5t111 73t127 25q70 0 126.5 -26t94 -69.5t63.5 -102t37 -120t11 -127.5q0 -315 -223 -467q180 -107 180 -284q0 -127 -81 -211t-204 -84q-50 0 -95 18.5t-77.5 47.5t-56.5 65.5t-35.5 73.5t-11.5 69q0 24 34.5 37.5t73.5 13.5
q45 0 45 -12q0 -4 -2 -10t-2 -13q0 -9 7 -29t21 -46t42.5 -45t65.5 -19q47 0 82.5 37.5t35.5 97.5q0 44 -14.5 81t-35 59.5t-48 40.5t-47 26t-39.5 13q-57 14 -57 90q0 51 41 51q2 0 7.5 -1t8.5 -1q229 75 229 407q0 143 -51.5 215t-132.5 72q-76 0 -130 -66.5t-54 -191.5
q0 -85 30 -151t56 -66q5 0 11 5t9 5q6 0 6 -12q0 -30 -30 -63t-70 -33q-48 0 -87.5 50.5t-60 122.5t-20.5 144z" />
    <glyph glyph-name="four" unicode="4" horiz-adv-x="792" 
d="M705 385h-48v-375q0 -47 -57 -47q-36 0 -67 18.5t-31 41.5v366h-74q-50 0 -164.5 -3t-146.5 -3q-33 0 -62.5 31.5t-29.5 58.5q0 8 1.5 14t5.5 12t6 8.5t8.5 8.5t8.5 8q119 303 119 736q0 14 -2.5 31.5t-5 30t-2.5 13.5q0 25 55 25q44 0 78.5 -27t34.5 -94
q0 -153 -29 -354.5t-88 -349.5q148 4 246 4h41v794q0 35 -10.5 56t-10.5 22q0 10 21 16.5t45 6.5q49 0 79.5 -26.5t30.5 -64.5v-806h54q18 0 31 14t20 14q22 0 22 -59q0 -52 -19.5 -86.5t-59.5 -34.5z" />
    <glyph glyph-name="five" unicode="5" horiz-adv-x="749" 
d="M94 891l60 489q3 21 22 21h207l176 2q19 0 32 10t19 10q11 0 16 -16.5t5 -34.5q0 -52 -19.5 -87.5t-58.5 -35.5h-268l-23 -258q53 39 123 39q38 0 75 -12t78 -47t71.5 -89t50.5 -146.5t20 -211.5q0 -153 -28 -269t-75.5 -182t-104 -98t-120.5 -32q-56 0 -103 20.5t-78 55
t-54.5 75t-36.5 84.5t-19 79.5t-6 64.5q0 47 14.5 70.5t51.5 23.5q36 0 68 -18t32 -33q0 -4 -4 -13.5t-4 -23.5q0 -26 4.5 -57t17 -75t43.5 -73t76 -29q80 0 123 109.5t43 320.5q0 171 -42.5 265t-125.5 94q-28 0 -53 -11.5t-39 -24.5t-32 -24.5t-35 -11.5q-27 0 -65.5 24
t-33.5 56z" />
    <glyph glyph-name="six" unicode="6" horiz-adv-x="817" 
d="M434 1284q-154 0 -188 -383q87 96 196 96q79 0 140.5 -41.5t97.5 -111.5t54 -156t18 -182q0 -110 -15.5 -199.5t-39 -146.5t-56 -100t-62 -64.5t-62.5 -34t-52 -15.5t-35 -3q-70 0 -126.5 31.5t-92.5 78.5t-62.5 117t-39.5 131.5t-20.5 139t-9 123t-1.5 98.5
q0 47 0.5 77.5t3.5 95.5t9 112.5t18.5 114t29.5 114t44.5 99.5t62 84.5t83 53.5t105.5 21q54 0 105.5 -24.5t86 -61t55.5 -76.5t21 -72q0 -24 -39 -44.5t-75 -20.5q-33 0 -33 16q0 51 -35 92t-86 41zM430 850q-74 0 -123.5 -68.5t-66.5 -203.5q4 -137 21.5 -236.5
t45.5 -151.5t58 -75t65 -23q29 0 56 20.5t53 65t41.5 129t15.5 199.5q0 146 -43 245t-123 99z" />
    <glyph glyph-name="seven" unicode="7" horiz-adv-x="653" 
d="M352 10q0 -47 -59 -47q-43 0 -74 25t-31 86q0 317 82 634.5t191 544.5q-301 -14 -348 -14q-25 0 -41 8t-23.5 22.5t-9.5 28.5t-2 33q0 31 9.5 53.5t25.5 22.5l16 -4q135 -6 262 -6q82 0 163 8t85 8q20 0 34.5 -14.5t14.5 -40.5q0 -21 -18 -66q-108 -257 -149 -380
q-125 -384 -128 -873v-29z" />
    <glyph glyph-name="eight" unicode="8" horiz-adv-x="778" 
d="M383 -57q-109 0 -180.5 85t-71.5 208q0 126 84 210q-154 129 -154 455q0 141 28 248t75 167t102 89t117 29q20 0 42 -3.5t55 -16.5t62.5 -34t60.5 -62t53 -95t36.5 -137t14.5 -185q0 -320 -156 -452q86 -80 86 -213q0 -124 -71 -208.5t-183 -84.5zM383 1282
q-74 0 -120 -106t-46 -275q0 -180 50 -278.5t116 -98.5t117 102.5t51 274.5q0 174 -45.5 277.5t-122.5 103.5zM383 375q-41 0 -70.5 -38t-29.5 -101q0 -60 28 -102t74 -42q49 0 74.5 41t25.5 103q0 64 -30 101.5t-72 37.5z" />
    <glyph glyph-name="nine" unicode="9" horiz-adv-x="817" 
d="M383 92q153 0 186 383q-85 -96 -194 -96q-79 0 -140 41.5t-97 112t-54 156t-18 181.5q0 110 15.5 199.5t38.5 146.5t56 100t62.5 64.5t62 34.5t51.5 16t35 3q70 0 126.5 -31.5t92.5 -78.5t62.5 -117t39.5 -131.5t20.5 -139t9 -123t1.5 -98.5q0 -47 -0.5 -77.5t-3.5 -95.5
t-9 -112.5t-18.5 -114t-29.5 -114t-44.5 -99.5t-62 -84.5t-83 -53.5t-105.5 -21q-54 0 -105.5 24.5t-86 60.5t-55.5 76t-21 72q0 24 39 45t75 21q33 0 33 -17q0 -51 35 -92t86 -41zM387 526q73 0 123.5 69t67.5 202q-4 137 -22 236.5t-46 151.5t-58 75.5t-65 23.5
q-29 0 -56 -20.5t-53 -65t-41.5 -129t-15.5 -199.5q0 -146 43 -245t123 -99z" />
    <glyph glyph-name="colon" unicode=":" horiz-adv-x="614" 
d="M322 150q41 0 70.5 -29t29.5 -70q0 -39 -29.5 -67.5t-70.5 -28.5q-40 0 -69.5 29t-29.5 67q0 41 29.5 70t69.5 29zM322 723q41 0 70.5 -28.5t29.5 -69.5q0 -39 -29.5 -68t-70.5 -29q-40 0 -69.5 29.5t-29.5 67.5q0 41 29.5 69.5t69.5 28.5z" />
    <glyph glyph-name="semicolon" unicode=";" horiz-adv-x="614" 
d="M322 723q41 0 70.5 -28.5t29.5 -69.5q0 -39 -29.5 -68t-70.5 -29q-40 0 -69.5 29.5t-29.5 67.5q0 41 29.5 69.5t69.5 28.5zM324 150q43 0 71.5 -31.5t28.5 -89.5q0 -57 -58 -141.5t-96 -84.5q-24 0 -41.5 21.5t-17.5 42.5q0 4 1.5 6t2.5 3t5 2.5t5 2.5q20 6 74 78
q-33 8 -54.5 33.5t-21.5 58.5q0 41 30.5 70t70.5 29z" />
    <glyph glyph-name="less" unicode="&#x3c;" 
d="M166 723l440 256q6 5 9.5 13t6.5 11.5t11 0.5q20 -5 38 -50t11 -80q-6 -18 -18 -26l-367 -205l383 -213q8 -8 10 -14q6 -26 -14 -70.5t-43 -50.5q-7 -3 -12 2l-457 262q-55 37 -55 94q0 14 2 24t3.5 16t8.5 11t10.5 6.5t15.5 6t17 6.5z" />
    <glyph glyph-name="equal" unicode="=" 
d="M158 573h516q8 0 16 5.5t10 5.5q21 0 21 -43q0 -36 -19 -73.5t-45 -37.5h-524q-15 0 -24 16.5t-9 40.5q0 32 15.5 59t42.5 27zM158 860h516q8 0 16 5t10 5q21 0 21 -43q0 -36 -19 -73t-45 -37h-524q-15 0 -24 16.5t-9 40.5q0 32 15.5 59t42.5 27z" />
    <glyph glyph-name="greater" unicode="&#x3e;" 
d="M653 580l-440 -256q-6 -3 -12.5 -7.5t-11 -7t-7.5 -2.5q-19 0 -33 33t-14 70q0 32 21 45l370 204l-387 213q-12 12 -12 25q0 35 15.5 79t35.5 44q4 0 6.5 -2t6.5 -6t8 -6l456 -263q14 -10 30 -13.5t21 -7.5t5 -20q0 -98 -58 -122z" />
    <glyph glyph-name="question" unicode="?" horiz-adv-x="884" 
d="M436 150q41 0 70 -29t29 -70q0 -39 -29 -67.5t-70 -28.5t-70.5 28.5t-29.5 67.5q0 41 29.5 70t70.5 29zM514 285q0 -46 -46 -52q-45 -6 -82 26q-28 24 -28 54q0 78 2 105q3 33 13 53t33 41q33 27 53 46t59.5 67t63 95t42.5 121.5t19 155.5q0 74 -14.5 129.5t-35.5 85
t-49.5 47.5t-50.5 22.5t-44 4.5q-81 0 -138 -61.5t-57 -190.5q0 -71 21.5 -135.5t50.5 -64.5q4 0 10 2t8 2q18 0 18 -19q0 -28 -34 -60t-80 -32q-62 0 -106 99t-44 208q0 100 30 178.5t80 125.5t111.5 71.5t129.5 24.5q163 0 256.5 -121.5t93.5 -317.5q0 -102 -22 -188
t-65.5 -155t-79.5 -111t-93 -97q-25 -25 -25 -79v-80z" />
    <glyph glyph-name="at" unicode="@" horiz-adv-x="1312" 
d="M645 223q33 31 45 3q11 -29 -11 -70q-30 -56 -89 -56q-74 0 -146.5 31.5t-131.5 89.5t-95.5 150t-36.5 202q0 115 38 221.5t106.5 189t172 132t224.5 49.5q185 0 294 -113.5t109 -299.5q0 -108 -27 -197.5t-88.5 -149t-148.5 -59.5q-38 0 -72.5 19t-56.5 51
q-62 -70 -127 -70q-85 0 -129.5 57.5t-44.5 159.5q0 164 87.5 272.5t219.5 108.5q17 0 34.5 -1.5t28.5 -3t13 -1.5q12 4 14 4q19 0 19 -27q0 -30 -17 -62t-38 -32q-3 0 -23.5 3t-36.5 3q-81 0 -127.5 -69.5t-46.5 -186.5q0 -50 20 -78t48 -28q45 0 80 51v219q-9 6 -9 10
q0 9 20 15t46 6q65 0 65 -31v-190q0 -47 14.5 -66.5t32.5 -19.5q58 0 89.5 83.5t31.5 207.5q0 145 -71 218.5t-205 73.5q-119 0 -214 -66.5t-145.5 -174t-50.5 -232.5q0 -156 94 -251t242 -95z" />
    <glyph glyph-name="A" unicode="A" horiz-adv-x="1015" 
d="M492 788q-39 0 -65 27t-26 76q0 24 6.5 44.5t16.5 20.5q1 0 22 -10t56 -10q76 0 150 29.5t125.5 88.5t51.5 132q0 45 -29.5 78.5t-84.5 33.5q-77 0 -146 -35t-121 -94.5t-94 -137.5t-68.5 -165t-40.5 -174.5t-14 -169.5q0 -444 234 -444q50 0 92.5 23.5t73 59.5t57 96
t43.5 115.5t32.5 135.5t24 138.5t19.5 141.5q3 19 27.5 30t56.5 11q29 0 48.5 -13t14.5 -40q-26 -138 -26 -334q0 -300 18 -448q6 -9 6 -14q0 -19 -34 -34.5t-70 -15.5q-47 0 -58 35t-15 150v11.5t-0.5 11t-0.5 12.5q-48 -101 -136 -166.5t-192 -65.5q-378 0 -378 600
q0 170 49 337.5t133 300.5t209 215.5t266 82.5q123 0 194.5 -74t71.5 -186q0 -114 -73 -208.5t-187 -146t-239 -51.5z" />
    <glyph glyph-name="B" unicode="B" horiz-adv-x="1189" 
d="M410 330v743q0 23 -4.5 42.5t-4.5 23.5q0 15 16 25t38 10q50 0 82 -26.5t32 -64.5v-759q0 -144 47 -209.5t140 -65.5q86 0 143 60t57 149q0 66 -23.5 114.5t-63.5 75t-85.5 38.5t-97.5 12q-18 0 -32.5 38t-10 76.5t32.5 38.5q27 0 58.5 6.5t70 21t73.5 42t65 65.5
t47.5 96.5t17.5 129.5q0 61 -20.5 115.5t-61 100t-110.5 72.5t-161 27q-120 0 -211 -37.5t-144.5 -103t-80 -147.5t-26.5 -179q0 -29 2.5 -55.5t7 -48t9.5 -40t11.5 -33t12.5 -26t12 -20t10.5 -14t7.5 -9.5l4 -4q31 8 31 -28q0 -21 -16 -59t-44 -63t-55 -5q-19 18 -38.5 43
t-47.5 73t-45.5 120.5t-17.5 156.5q0 286 170.5 459.5t445.5 173.5q234 0 373 -124.5t139 -340.5q0 -300 -264 -441q96 -28 155.5 -108t59.5 -205q0 -153 -102.5 -253.5t-255.5 -100.5q-98 0 -167 30t-108 87.5t-56 131.5t-17 173z" />
    <glyph glyph-name="C" unicode="C" horiz-adv-x="999" 
d="M463 852q56 0 122 29.5t121 76.5t91.5 111t36.5 127q0 43 -30.5 79t-94.5 36q-66 0 -129 -32t-115 -87t-96 -129t-74 -156.5t-47 -170.5t-17 -171q0 -100 17.5 -185.5t53.5 -156.5t100 -112t149 -41q36 0 70.5 6.5t61.5 17.5t51.5 24t42.5 26t31 23.5t20 18.5l8 7
q28 47 71 17q35 -25 44 -71q7 -35 -11 -53q-139 -139 -329 -165q-37 -5 -74 -5q-218 0 -343.5 175.5t-125.5 473.5q0 120 29.5 246t88 241.5t137.5 207t186.5 146t225.5 54.5q115 0 187.5 -70.5t72.5 -199.5q0 -120 -88.5 -234t-214 -180.5t-239.5 -66.5q-39 0 -65 25
t-26 73q0 24 6.5 44.5t16.5 20.5q1 0 22 -10t56 -10z" />
    <glyph glyph-name="D" unicode="D" horiz-adv-x="1247" 
d="M563 1057v-805q0 -87 27.5 -129.5t87.5 -42.5q58 0 118.5 56.5t109 151.5t79.5 232t31 285q0 106 -23 195.5t-69 159.5t-122 109.5t-175 39.5q-98 0 -175 -27.5t-124 -72.5t-77.5 -107t-42 -124.5t-11.5 -131.5q0 -88 27 -167t49 -111t32 -40q31 8 31 -28
q0 -41 -31.5 -81t-66.5 -40q-18 0 -31 10q-5 3 -20.5 19.5t-42 56t-49.5 88.5t-40.5 124.5t-17.5 156.5q0 281 164.5 456.5t431.5 175.5q111 0 203 -35.5t154.5 -96.5t106 -143.5t63.5 -175.5t20 -194q0 -209 -48.5 -384.5t-124.5 -285t-165 -169.5t-176 -60
q-140 0 -201.5 85.5t-61.5 254.5v785q0 23 -4 42t-4 23q0 15 16 25t38 10q50 0 82 -26t32 -64z" />
    <glyph glyph-name="E" unicode="E" horiz-adv-x="913" 
d="M866 147q-14 -23 -32.5 -47.5t-57 -60t-83 -62t-112 -46t-141.5 -19.5q-153 0 -256.5 90.5t-103.5 245.5q0 106 53 186.5t133 122.5q-178 109 -178 334q0 101 43.5 204.5t116 186t175 134.5t210.5 52q136 0 213.5 -76.5t77.5 -193.5q0 -105 -52 -203t-140 -159.5
t-187 -61.5q-45 0 -79 23.5t-34 74.5q0 25 6.5 49.5t16.5 24.5q1 0 21.5 -10t55.5 -10q97 0 163.5 85t66.5 189q0 54 -35 82.5t-94 28.5q-99 0 -188.5 -61.5t-141 -156t-51.5 -192.5q0 -109 66.5 -188t140.5 -86q6 2 18 2q35 0 35 -49q0 -35 -15.5 -70.5t-33.5 -36.5
q-37 -4 -71.5 -16.5t-69.5 -36.5t-56.5 -67.5t-21.5 -100.5q0 -78 56.5 -128t143.5 -50q61 0 115 18t90.5 45.5t60.5 54t35 50.5q14 34 43 34q31 0 57.5 -32t26.5 -68q0 -17 -6 -29z" />
    <glyph glyph-name="F" unicode="F" horiz-adv-x="1193" 
d="M844 115q0 -252 -115 -252q-37 0 -85 44.5t-48 74.5q0 12 3.5 14.5t14.5 -1t17 -3.5q53 0 53 149v322h-106q-30 0 -52 33.5t-22 68.5q0 18 8 29.5t23 11.5h149v666q-113 -7 -197.5 -32t-151.5 -75t-101.5 -134t-34.5 -202q0 -162 116 -278q31 8 31 -29q0 -41 -31.5 -81
t-66.5 -40q-17 0 -31 11q-60 44 -120 158.5t-60 258.5q0 296 188.5 450.5t556.5 154.5q65 0 258.5 -2t206.5 -2q18 0 31 4t19 8t8 4q10 0 19 -22t9 -46q0 -41 -25 -74.5t-69 -33.5q-14 0 -395 6v-670h256q30 22 34 -18q4 -45 -20 -93q-16 -32 -33 -32h-237v-348z" />
    <glyph glyph-name="G" unicode="G" horiz-adv-x="1050" 
d="M784 119q-136 -201 -317 -201q-188 0 -292.5 172.5t-104.5 464.5q0 123 29.5 251t88 245t137.5 209t186.5 147t225.5 55q113 0 186.5 -69t73.5 -185q0 -80 -41.5 -158t-104.5 -133t-138.5 -88.5t-141.5 -33.5q-39 0 -64.5 25t-25.5 73q0 25 6.5 49.5t16.5 24.5
q1 0 22 -10.5t56 -10.5q83 0 168.5 79t85.5 173q0 43 -30.5 79t-94.5 36q-123 0 -233.5 -114.5t-174 -289t-63.5 -352.5q0 -217 65.5 -348t165.5 -131q74 0 136.5 46t100 116.5t58 146t20.5 141.5q0 11 -2 36.5t-2 31.5q0 18 10 27.5t22 11.5t34 2q32 0 69 -23.5t37 -54.5
q-12 -133 -12 -309q0 -44 1 -150t1 -172q47 7 109 11q48 3 52 -44q5 -46 -28 -88q-24 -29 -51 -30q-28 0 -86 -4q-3 -63 -9.5 -117t-19 -113.5t-35 -105t-53.5 -83.5t-77.5 -58.5t-104.5 -20.5q-103 0 -166 68.5t-63 173.5q0 75 31 138t86.5 108t118.5 76.5t140 54.5v20
q0 49 -2 117t-2 88zM645 -567q118 0 137 309q-102 -33 -156.5 -89t-54.5 -132q0 -44 20.5 -66t53.5 -22z" />
    <glyph glyph-name="H" unicode="H" horiz-adv-x="1388" 
d="M793 1348v-730h319v699q0 104 31 161.5t76 57.5q40 0 74 -41t34 -68q0 -8 -5.5 -11t-13.5 -7.5t-16.5 -15t-14 -41t-5.5 -78.5v-1284q0 -47 -58 -47q-36 0 -69 18t-33 41v473h-319v-485q0 -47 -58 -47q-36 0 -69 18t-33 41v473h-146q-30 0 -51.5 34t-21.5 69q0 40 30 40
h189v662q-191 0 -312.5 -123t-121.5 -326q0 -79 22 -147.5t46.5 -101.5t39.5 -33q6 0 13 5t12 5q12 0 12 -33q0 -66 -46 -107t-89 -9q-66 47 -119 154.5t-53 260.5q0 126 40.5 229.5t107 172.5t155 117t182 69t189.5 21q33 0 57.5 -25t24.5 -61z" />
    <glyph glyph-name="I" unicode="I" horiz-adv-x="811" 
d="M694 1348v-1358q0 -47 -57 -47q-36 0 -69 18t-33 41v1272q-147 -18 -241.5 -125.5t-94.5 -292.5q0 -75 22 -140.5t46.5 -96.5t39.5 -31q5 0 11.5 7t11.5 7q14 0 14 -31q0 -66 -46 -110t-89 -12q-64 43 -118 154t-54 253q0 125 37 226t95.5 165.5t136 107.5t153.5 61
t153 18q33 0 57.5 -25t24.5 -61z" />
    <glyph glyph-name="J" unicode="J" horiz-adv-x="821" 
d="M535 -86v1360q-147 -18 -241.5 -125.5t-94.5 -292.5q0 -75 22 -140.5t46.5 -96.5t39.5 -31q5 0 11.5 7t11.5 7q14 0 14 -31q0 -52 -31 -93.5t-69 -41.5q-19 0 -35 13q-23 15 -49 45.5t-55.5 79t-48.5 123.5t-19 159q0 125 37 226t95.5 165.5t136 107.5t153.5 61t153 18
q33 0 57.5 -25t24.5 -61v-1358v-62q47 7 109 11q48 3 52 -44q5 -46 -28 -88q-24 -29 -51 -30q-30 0 -84 -4q-4 -79 -13 -143.5t-30 -133t-52.5 -115t-84 -76.5t-121.5 -30q-103 0 -166 68.5t-63 173.5q0 74 31 137t86 107.5t117.5 76t138.5 53.5v23zM395 -567q116 0 135 307
q-101 -31 -154.5 -87t-53.5 -132q0 -44 20 -66t53 -22z" />
    <glyph glyph-name="K" unicode="K" horiz-adv-x="1226" 
d="M694 1348v-721q82 17 135 56t78.5 95.5t38 122t18.5 144t13.5 153.5t30.5 159t63 152q13 27 43 27q41 0 81 -18.5t40 -42.5q0 -15 -16 -23q-34 -51 -55.5 -122.5t-31.5 -143t-19.5 -149.5t-25.5 -150.5t-43 -137.5t-78.5 -119t-125.5 -87q81 -43 137.5 -114.5t88.5 -153
t58 -163t64 -166.5t88 -141q4 -4 21.5 -11.5t17.5 -16.5q0 -27 -56 -67t-83 -40q-14 0 -27 13q-52 65 -90.5 149.5t-57.5 158t-44.5 151t-52.5 136.5t-80.5 106.5t-129.5 68.5v-463q0 -47 -57 -47q-36 0 -69 18t-33 41v1272q-147 -18 -241.5 -125.5t-94.5 -292.5
q0 -75 22 -140.5t46.5 -96.5t39.5 -31q6 0 17 4t16 4q16 0 16 -25q0 -65 -51.5 -109.5t-95.5 -12.5q-64 43 -118 154t-54 253q0 125 37 226t95.5 165.5t136 107.5t153.5 61t153 18q33 0 57.5 -25t24.5 -61z" />
    <glyph glyph-name="L" unicode="L" horiz-adv-x="1034" 
d="M766 -76q-43 0 -84 14t-81 42t-67.5 52.5t-66.5 63.5q-32 -68 -86.5 -110.5t-128.5 -42.5q-97 0 -155 62t-58 149q0 97 69 161t164 64q33 0 66 -10q-14 54 -45 127.5t-56 129.5t-45 136t-20 158q0 134 59.5 255t173 200t254.5 79q136 0 221 -77.5t85 -198.5
q0 -86 -39.5 -167.5t-100 -138t-133 -90.5t-139.5 -34q-44 0 -74 29.5t-30 86.5q0 27 16 27q1 0 13 -7t26 -7q101 0 200 90t99 182q0 64 -38.5 105.5t-111.5 41.5q-91 0 -164.5 -53.5t-113 -140.5t-39.5 -189q0 -71 25.5 -156t56.5 -153t57.5 -161t28.5 -177q18 -17 50 -50
t51.5 -51.5t46 -39.5t50.5 -31t48 -10q41 0 71 18.5t46 48.5t23 60t7 61q0 10 -2 22t-2 15q0 15 25 15q52 0 82 -27t30 -66q0 -124 -74.5 -215.5t-189.5 -91.5zM258 238q-31 0 -52.5 -21.5t-21.5 -54.5q0 -31 19 -53.5t53 -22.5q39 0 64 33.5t32 81.5q-50 37 -94 37z" />
    <glyph glyph-name="M" unicode="M" horiz-adv-x="1122" 
d="M1087 39q21 -13 -10 -46q-38 -41 -90 -49q-9 -1 -18 -1q-55 2 -94 62.5t-39 174.5v948q0 55 -10.5 90t-29 47.5t-30 15.5t-27.5 3q-14 0 -22.5 -1t-24.5 -10.5t-26 -26.5t-17.5 -52.5t-7.5 -85.5v-1106q3 0 6.5 -3.5t3.5 -6.5q0 -15 -40.5 -32t-78.5 -17q-18 0 -26.5 1.5
t-16.5 10.5t-8 27v1146q0 55 -9.5 89.5t-27.5 47.5t-29.5 16t-29.5 3q-10 0 -17 -1t-20 -4.5t-22.5 -14t-19 -26.5t-14.5 -44.5t-5 -65.5v-907q0 -135 -45 -206.5t-131 -71.5q-51 0 -74 31t-23 67q0 8 7 9.5t22.5 2t26.5 4.5q57 20 57 195v856q0 86 22 151.5t59.5 102
t80.5 54.5t92 18q118 0 188 -84q56 84 166 84q50 0 94.5 -18t82.5 -54.5t60.5 -102t22.5 -151.5v-911q0 -111 92 -158z" />
    <glyph glyph-name="N" unicode="N" horiz-adv-x="1261" 
d="M694 1348v-168q66 114 147 184t165 70q52 0 95.5 -43.5t43.5 -135.5v-1194q0 -52 15.5 -87t33.5 -47t33.5 -24.5t15.5 -25.5q0 -25 -29.5 -47.5t-74.5 -22.5q-25 0 -49.5 11t-48.5 34t-39.5 68.5t-16.5 106.5v1216q0 29 -18 29q-23 0 -68.5 -53t-91 -127t-79.5 -162.5
t-34 -149.5v-790q0 -47 -57 -47q-36 0 -69 18t-33 41v1272q-147 -18 -241.5 -125.5t-94.5 -292.5q0 -75 22 -140.5t46.5 -96.5t39.5 -31q6 0 17 4t16 4q16 0 16 -25q0 -52 -35 -93.5t-75 -41.5q-27 0 -62.5 32.5t-68.5 86.5t-55.5 135t-22.5 166q0 125 37 226t95.5 165.5
t136 107.5t153.5 61t153 18q33 0 57.5 -25t24.5 -61z" />
    <glyph glyph-name="O" unicode="O" horiz-adv-x="1042" 
d="M801 696q0 60 -6 125h-39q-131 0 -219 71t-88 187q0 81 52 138t134 57q105 0 174 -71.5t106 -190.5q26 16 58 51q9 27 24 27q22 0 44 -35.5t22 -75.5q0 -72 -115 -121q13 -93 13 -162q0 -151 -25.5 -276.5t-69 -212.5t-103 -147.5t-127 -88.5t-140.5 -28
q-145 0 -249.5 91t-155 240t-50.5 336q0 142 23.5 266.5t58.5 208.5t83 155t88.5 110.5t85 70.5t62 39.5t29.5 12.5t23 4q31 0 51 -34.5t20 -72.5q0 -47 -26 -47q-7 0 -11 2q-23 -13 -30.5 -17.5t-38.5 -26t-47.5 -38.5t-47 -51.5t-49 -69t-42 -87.5t-36.5 -110t-22.5 -133
t-9.5 -161q0 -134 25.5 -239.5t68.5 -168t95 -95t108 -32.5q131 0 214.5 159.5t84.5 440.5zM750 963h24q-16 74 -48 118.5t-77 44.5q-51 0 -51 -51q0 -42 39.5 -77t112.5 -35z" />
    <glyph glyph-name="P" unicode="P" horiz-adv-x="1161" 
d="M410 2v1071q0 23 -4.5 42.5t-4.5 23.5q0 15 16 25t38 10q50 0 82 -26.5t32 -64.5v-669q45 5 97.5 26t110.5 64t104.5 100t77 142.5t30.5 183.5q0 49 -11.5 96.5t-37.5 94t-63.5 81.5t-95 56.5t-126.5 21.5q-120 0 -211 -37.5t-144.5 -103t-80 -147.5t-26.5 -179
q0 -29 2.5 -55.5t7 -48t9.5 -40t11.5 -33t12.5 -26t12 -20t10.5 -14t7.5 -9.5l4 -4q31 8 31 -28q0 -21 -16 -59t-44 -63t-55 -5q-19 18 -38.5 43t-47.5 73t-45.5 120.5t-17.5 156.5q0 286 170.5 459.5t445.5 173.5q222 0 358 -140t136 -360q0 -129 -48 -246.5t-128.5 -203.5
t-184 -144t-217.5 -80v-270q0 -47 -57 -47q-36 0 -69 18t-33 41z" />
    <glyph glyph-name="Q" unicode="Q" horiz-adv-x="1069" 
d="M934 -242q30 0 52 17.5t26 17.5q25 0 17 -44q-10 -59 -58 -106q-46 -44 -101 -44q-71 0 -148 23t-155 70t-151 113t-136.5 157.5t-110.5 198t-74 240.5t-27 279q0 154 29.5 283t77 214.5t110 144.5t128 85.5t130.5 26.5t127 -25t120 -82t101.5 -139.5t69.5 -207
t26 -275.5q0 -157 -29.5 -288.5t-73.5 -212t-96.5 -137t-95.5 -79.5t-74 -23q-26 0 -64 42t-38 67q0 16 19 16h10q93 26 158 118t94.5 219t29.5 278q0 146 -24.5 259.5t-66 180t-91.5 100t-106 33.5t-109.5 -36t-99.5 -105.5t-74.5 -187.5t-28.5 -267q0 -143 26 -268.5
t69.5 -217.5t102.5 -167.5t123.5 -125t133.5 -83t132 -48t120 -14.5z" />
    <glyph glyph-name="R" unicode="R" horiz-adv-x="1161" 
d="M410 2v1071q0 23 -4.5 42.5t-4.5 23.5q0 15 16 25t38 10q50 0 82 -26.5t32 -64.5v-669q51 9 104 31t111 64t102.5 97.5t73.5 140t29 183.5q0 61 -20 121t-59.5 112t-107 84.5t-153.5 32.5q-114 0 -203.5 -39t-143.5 -105t-81.5 -148.5t-27.5 -174.5q0 -29 2.5 -55.5
t7 -48t9.5 -40t11.5 -33t12.5 -26t12 -20t10.5 -14t7.5 -9.5l4 -4q31 8 31 -28q0 -21 -16 -59t-44 -63t-55 -5q-19 18 -38.5 43t-47.5 73t-45.5 120.5t-17.5 156.5q0 284 168 458.5t442 174.5q223 0 361.5 -140t138.5 -360q0 -201 -109.5 -359t-279.5 -237q57 -33 97 -86
t63 -113.5t42.5 -120.5t48.5 -121.5t66 -101.5q4 -4 21.5 -11.5t17.5 -16.5q0 -27 -56 -67t-83 -40q-15 0 -27 12q-46 52 -78.5 118t-47 122.5t-34.5 116.5t-41.5 106t-66.5 83.5t-111 55.5v-284q0 -47 -57 -47q-36 0 -69 18t-33 41z" />
    <glyph glyph-name="S" unicode="S" horiz-adv-x="847" 
d="M414 -74q-49 0 -89.5 9.5t-64 23t-39.5 29t-22 26t-6 15.5q0 35 28 76.5t51 41.5q14 0 23 -18q49 -49 119 -49q64 0 103.5 39t39.5 104q0 49 -27.5 91.5t-71.5 76t-97.5 67.5t-107 74.5t-97.5 88.5t-71.5 118.5t-27.5 155.5q0 99 51 200.5t131 179.5t185 127.5t207 49.5
q119 0 188.5 -71.5t69.5 -192.5q0 -81 -43 -164.5t-104.5 -143t-128 -97.5t-113.5 -38q-49 0 -82 40.5t-33 78.5q0 16 4.5 19.5t21 -0.5t27.5 -4q55 0 124.5 48t120 121.5t50.5 137.5q0 112 -112 112q-57 0 -127 -32.5t-132 -85t-103.5 -129t-41.5 -156.5q0 -64 27.5 -118
t72 -93.5t98 -75.5t107 -73.5t98 -79t72 -99.5t27.5 -127q0 -125 -88.5 -214t-216.5 -89z" />
    <glyph glyph-name="T" unicode="T" horiz-adv-x="1050" 
d="M844 115q0 -252 -115 -252q-37 0 -85 44.5t-48 74.5q0 12 3.5 14.5t14.5 -1t17 -3.5q53 0 53 149v1131q-80 -6 -148 -23t-132 -50.5t-108 -82t-70.5 -122t-26.5 -165.5q0 -162 116 -278q31 8 31 -29q0 -41 -31.5 -81t-66.5 -40q-17 0 -31 11q-60 44 -120 158.5t-60 258.5
t55 259.5t153 190.5t232.5 115t294.5 40q56 0 194 -2t150 -2q15 0 26 4t16 8t7 4q9 0 17 -22t8 -46q0 -41 -21.5 -74.5t-58.5 -33.5q-13 0 -57 1t-108 2.5t-101 2.5v-1161z" />
    <glyph glyph-name="U" unicode="U" horiz-adv-x="1261" 
d="M985 193v4q-68 -115 -148 -184.5t-163 -69.5q-52 0 -95.5 43.5t-43.5 134.5v1153q-147 -18 -241.5 -125.5t-94.5 -292.5q0 -75 22 -140.5t46.5 -96.5t39.5 -31q6 0 17 4t16 4q16 0 16 -25q0 -65 -51.5 -109.5t-95.5 -12.5q-64 43 -118 154t-54 253q0 125 37 226
t95.5 165.5t136 107.5t153.5 61t153 18q33 0 57.5 -25t24.5 -61v-1215q0 -29 19 -29q31 0 96 75t120.5 185t55.5 191v778q0 23 -4 42.5t-4 23.5q0 15 15.5 25t37.5 10q50 0 82.5 -26.5t32.5 -64.5v-888q0 -301 18 -449q6 -9 6 -14q0 -19 -34 -34t-70 -15q-48 0 -63 58
q-12 42 -17 192z" />
    <glyph glyph-name="V" unicode="V" horiz-adv-x="1206" 
d="M985 1085q0 89 -5 159.5t-10 108t-5 46.5q0 15 15.5 25t37.5 10q50 0 74.5 -20.5t33.5 -65.5q19 -93 19 -236q0 -206 -27 -392.5t-73 -326t-106 -242.5t-128 -155.5t-137 -52.5q-52 0 -95.5 43.5t-43.5 134.5v1153q-147 -18 -241.5 -125.5t-94.5 -292.5q0 -75 22 -140.5
t46.5 -96.5t39.5 -31q6 0 17 4t16 4q16 0 16 -25q0 -65 -51.5 -109.5t-95.5 -12.5q-64 43 -118 154t-54 253q0 125 37 226t95.5 165.5t136 107.5t153.5 61t153 18q33 0 57.5 -25t24.5 -61v-1215q0 -29 19 -29q14 0 34.5 19t46 60t52 98t51.5 140t44.5 179t31.5 222t12 263z
" />
    <glyph glyph-name="W" unicode="W" horiz-adv-x="1122" 
d="M995 1200v-932q0 -86 -22 -151.5t-59.5 -102t-80.5 -54t-92 -17.5q-123 0 -192 86q-63 -86 -176 -86q-106 0 -176 78.5t-70 246.5v932q0 75 -17 110.5t-55 47.5q-8 3 -8 8q0 15 45.5 41.5t85.5 26.5q45 0 77 -49.5t32 -163.5v-973q0 -37 5 -65.5t14.5 -44.5t18 -26.5
t22 -14t20 -4.5t16.5 -1q14 0 22.5 1t24.5 10.5t26 26.5t17.5 52.5t7.5 85.5v1004q0 23 -4 42t-4 23q0 15 15.5 25t37.5 10q50 0 82.5 -26.5t32.5 -63.5v-1034q0 -55 9.5 -89.5t27.5 -47.5t29.5 -16t29.5 -3q13 0 21.5 1t24.5 9t26.5 23t18.5 47t8 76v973q0 114 31 163.5
t75 49.5q41 0 87 -26.5t46 -41.5q0 -5 -8 -8q-40 -12 -56 -47t-16 -111z" />
    <glyph glyph-name="X" unicode="X" horiz-adv-x="804" 
d="M766 53q8 -4 10.5 -5.5t5 -5t2.5 -9.5q0 -18 -46 -54t-74 -36t-43 24q-113 176 -215 379q-89 -184 -199 -358q-14 -23 -30 -34t-46 -11q-48 0 -89.5 37.5t-41.5 60.5q0 10 18 10q33 0 119 135t182 344q-87 195 -155 395t-94.5 305t-26.5 126q0 31 44.5 54.5t84.5 23.5
q15 0 29 -5.5t14 -13.5q0 -1 -7 -11t-7 -24q0 -8 20 -86.5t71.5 -238.5t115.5 -318q136 332 208 674q-2 2 -2 6q0 17 50 17q36 0 69 -16.5t33 -39.5q0 -18 -22 -116t-89.5 -306t-160.5 -417q130 -277 272 -486z" />
    <glyph glyph-name="Y" unicode="Y" horiz-adv-x="1271" 
d="M1145 1343v-1353v-62q48 7 108 11q48 3 53 -44q4 -46 -28 -88q-24 -29 -51 -30q-30 0 -84 -4q-4 -79 -13 -143.5t-30 -133t-52.5 -115t-84 -76.5t-121.5 -30q-103 0 -166.5 69t-63.5 173q0 74 31 137t86 107.5t117.5 76t138.5 53.5v23v283q-68 -115 -148 -184.5
t-163 -69.5q-52 0 -95.5 43.5t-43.5 134.5v1153q-147 -18 -241.5 -125.5t-94.5 -292.5q0 -75 22 -140.5t46.5 -96.5t39.5 -31q6 0 17 4t16 4q16 0 16 -25q0 -65 -51.5 -109.5t-95.5 -12.5q-64 43 -118 154t-54 253q0 125 37 226t95.5 165.5t136 107.5t153.5 61t153 18
q33 0 57.5 -25t24.5 -61v-1215q0 -29 19 -29q31 0 96 75t120.5 185t55.5 191v778q0 23 -4 42.5t-4 23.5q0 15 15.5 25t37.5 10q50 0 82.5 -26.5t32.5 -64.5zM846 -567q116 0 135 307q-102 -31 -155.5 -87t-53.5 -132q0 -44 20.5 -66t53.5 -22z" />
    <glyph glyph-name="Z" unicode="Z" horiz-adv-x="997" 
d="M324 -510q0 72 28.5 133t79.5 105.5t110.5 76t131.5 54.5q-28 90 -88 139.5t-144 52.5q-31 1 -50 33t-19 68q0 51 35 51q10 0 16 -2q4 -1 23.5 7.5t51.5 30t68 54t72.5 87.5t66 122t48 165.5t18.5 211.5q0 99 -21.5 174.5t-52 116t-71 65.5t-70 32t-57.5 7
q-113 0 -196 -104.5t-83 -282.5q0 -74 15.5 -137t38.5 -103t51 -68.5t53 -40.5t45 -12q8 0 19 3t14 3q10 0 10 -28q0 -55 -27.5 -90t-74.5 -35q-29 0 -68 19.5t-81 61.5t-77.5 98.5t-58.5 140.5t-23 178q0 137 40.5 247t106 175.5t143 100t157.5 34.5q191 0 311.5 -154
t120.5 -412q0 -463 -305 -718q64 -29 116.5 -92t79.5 -162q60 12 138 16q48 3 52 -44q5 -46 -28 -88q-24 -29 -51 -30q-44 0 -88 -6q2 -14 2 -47q0 -84 -15 -158.5t-47.5 -142.5t-93 -108t-143.5 -40q-103 0 -166 68.5t-63 173.5zM696 -301v16q-103 -31 -158 -88t-55 -133
q0 -44 20.5 -66t53.5 -22q45 0 78 46t47 110.5t14 136.5z" />
    <glyph glyph-name="bracketleft" unicode="[" horiz-adv-x="552" 
d="M250 1427v-1517h43q94 0 133 4q4 2 10 2q13 0 21 -17t8 -42q0 -35 -16.5 -60.5t-45.5 -25.5h-251q-31 0 -42.5 10.5t-11.5 42.5v1687q0 19 12 34.5t31 15.5h258q58 0 58 -60q0 -32 -13.5 -62t-27.5 -30q-11 0 -17 14q-55 4 -123 4h-26z" />
    <glyph glyph-name="backslash" unicode="\" horiz-adv-x="634" 
d="M141 1391l473 -1340q16 -25 -13 -52.5t-64.5 -32t-49.5 15.5l-485 1378q-7 11 -9.5 18.5t0 16t16 15.5t38.5 13q22 5 38.5 4.5t25.5 -3.5t16 -10t9 -11.5t5 -11.5z" />
    <glyph glyph-name="bracketright" unicode="]" horiz-adv-x="552" 
d="M303 -96v1517h-43q-94 0 -133 -4q-4 -2 -10 -2q-13 0 -21 17t-8 43q0 35 16.5 60.5t45.5 25.5h251q31 0 42.5 -10.5t11.5 -43.5v-1687q0 -19 -12 -34t-31 -15h-258q-58 0 -58 59q0 32 13.5 62t27.5 30q11 0 17 -14q55 -4 122 -4h27z" />
    <glyph glyph-name="asciicircum" unicode="^" 
d="M485 1376l183 -311q3 -4 7.5 -11t6.5 -11t2 -9q0 -18 -26 -32.5t-66 -14.5q-32 0 -45 21l-141 254l-136 -240q-7 -13 -10.5 -18t-14 -11t-24.5 -6q-28 0 -58 21.5t-30 42.5q0 4 4 8l185 319q38 56 94 56q17 0 27.5 -1.5t17.5 -8.5t9 -10t7.5 -18t7.5 -20z" />
    <glyph glyph-name="underscore" unicode="_" horiz-adv-x="827" 
d="M57 -164h723q8 0 16.5 5t10.5 5q9 0 14.5 -21t5.5 -42q0 -36 -18.5 -73.5t-44.5 -37.5h-731q-14 0 -23.5 26t-9.5 52q0 32 15 59t42 27z" />
    <glyph glyph-name="grave" unicode="`" 
d="M444 926l-192 211q-16 19 -16 34q0 27 29.5 46.5t53.5 19.5q33 0 60 -39l186 -215q17 -21 17 -31q0 -18 -26.5 -32.5t-66.5 -14.5q-32 0 -45 21z" />
    <glyph glyph-name="a" unicode="a" horiz-adv-x="724" 
d="M651 78q93 0 137 221q6 30 20 45.5t30 15.5q25 0 48 -27.5t23 -56.5q0 -6 -2 -14q-12 -45 -27 -85.5t-40.5 -84.5t-56 -76t-74.5 -52.5t-95 -20.5q-104 0 -157 84q-73 -84 -176 -84q-116 0 -180 86.5t-64 222.5q0 124 41 229.5t109 175t155.5 108t181.5 38.5
q42 0 68 -23.5t26 -62.5q0 -26 -5.5 -36.5t-20.5 -10.5q-9 0 -29.5 2t-30.5 2q-61 0 -119 -26t-107.5 -76.5t-80 -135t-30.5 -190.5q0 -79 31 -123.5t85 -44.5q72 0 115 106v316q0 23 -4 42t-4 23q0 15 15.5 25t37.5 10q50 0 80.5 -26t30.5 -64v-338q0 -38 17.5 -66
t51.5 -28z" />
    <glyph glyph-name="b" unicode="b" horiz-adv-x="774" 
d="M295 522q0 119 48.5 179.5t125.5 60.5q89 0 153 -86t64 -248q0 -121 -31 -233q17 -5 43 -5q63 0 100.5 41.5t47.5 106.5q4 24 40 31q44 9 68 -21q19 -25 9 -69q-20 -89 -84.5 -146t-163.5 -57q-59 0 -105 14q-85 -147 -250 -147q-138 0 -213 93.5t-75 248.5v977
q0 35 -10.5 55.5t-10.5 21.5q0 10 21 16.5t45 6.5q50 0 80 -26t30 -64v-959q0 -106 37.5 -170.5t108.5 -64.5q68 0 110 72q-87 63 -137.5 163t-50.5 209zM422 530q0 -72 26.5 -139t71.5 -115q10 59 10 136q0 99 -21 157t-50 58q-37 0 -37 -97z" />
    <glyph glyph-name="c" unicode="c" horiz-adv-x="608" 
d="M399 -57q-145 0 -249.5 103.5t-104.5 283.5q0 119 42 227t120 177t172 69q50 0 89.5 -21t61 -53t32.5 -65t11 -62q0 -44 -49 -71q-43 -23 -68 -8q-16 9 -12 32q-1 4 -5.5 24t-8.5 31t-12.5 26t-23 22.5t-34.5 7.5q-58 0 -102.5 -100t-44.5 -236q0 -119 58 -185.5
t151 -66.5q57 0 103.5 22t76.5 60.5t49 82t29 93.5q8 43 41 51.5t60.5 -14.5t23.5 -58q-5 -42 -18.5 -87t-44.5 -97.5t-74 -93t-113 -67.5t-156 -27z" />
    <glyph glyph-name="d" unicode="d" horiz-adv-x="749" 
d="M301 -57q-122 0 -193 85.5t-71 243.5q0 224 118.5 363t295.5 164v463q0 35 -10.5 55.5t-10.5 21.5q0 10 21 16.5t45 6.5q50 0 80 -26t30 -64v-1100q0 -38 18 -66t52 -28q93 0 137 221q6 30 19.5 45.5t29.5 15.5q25 0 48.5 -27.5t23.5 -56.5q0 -6 -2 -14
q-12 -45 -27 -85.5t-40.5 -84.5t-56 -76t-74.5 -52.5t-95 -20.5q-103 0 -156 80q-80 -80 -182 -80zM332 78q71 0 119 80v506q-53 -10 -96.5 -34t-81 -67t-58 -113.5t-20.5 -162.5q0 -104 39 -156.5t98 -52.5z" />
    <glyph glyph-name="e" unicode="e" horiz-adv-x="608" 
d="M543 596q0 -78 -33 -155t-104 -142.5t-166 -93.5q53 -127 190 -127q57 0 102.5 22t74 61t46 81.5t27.5 93.5q8 43 41 51.5t60.5 -14.5t23.5 -58q-5 -43 -17.5 -87t-42 -97.5t-71.5 -93.5t-111 -67t-155 -27q-70 0 -135 28t-116 78t-81.5 128t-30.5 171q0 190 95.5 322.5
t217.5 132.5q85 0 135 -57t50 -150zM213 354q0 -6 1 -18.5t1 -18.5q77 35 122.5 110t45.5 167q0 34 -11.5 53t-31.5 19q-35 0 -62 -36t-40.5 -88.5t-20 -102t-4.5 -85.5z" />
    <glyph glyph-name="f" unicode="f" horiz-adv-x="548" 
d="M463 586l-236 14v-45q150 -183 227.5 -375.5t77.5 -433.5q0 -170 -33.5 -304t-95.5 -210t-143 -76q-51 0 -89 26t-59 71t-30.5 97t-9.5 113v1102q-2 2 -6.5 7.5t-6.5 7.5l-15.5 15.5l-15.5 15.5t-12 13.5t-11 15.5t-6 14t-3 16q0 17 12 31.5t35 17.5q2 0 12 1t17 1v582
q0 35 -10.5 55.5t-10.5 21.5q0 10 21 16.5t45 6.5q50 0 80 -26t30 -64v-580q176 15 254 15q84 0 84 -58q0 -33 -10.5 -81t-28.5 -48q-4 0 -8.5 5.5t-17.5 11.5t-37 8zM377 -254q0 142 -39 298t-111 296v-877q0 -157 49 -157q44 0 72.5 123t28.5 317z" />
    <glyph glyph-name="g" unicode="g" horiz-adv-x="720" 
d="M195 -608q0 60 15 114t34 91t59 83t66 70t80 72v215q-74 -74 -168 -74q-116 0 -180 86.5t-64 222.5q0 124 41 229.5t109 175t155.5 108t181.5 38.5q42 0 68 -23.5t26 -62.5q0 -26 -5.5 -36.5t-20.5 -10.5q-9 0 -29.5 2t-30.5 2q-61 0 -119 -26t-107.5 -76.5t-80 -135
t-30.5 -190.5q0 -79 31 -123.5t85 -44.5q38 0 68.5 32t46 72.5t23.5 86.5v231q0 23 -4.5 42.5t-4.5 23.5q0 15 16 25t38 10q50 0 80 -26.5t30 -64.5v-557q126 139 180 326q17 61 50 61q25 0 48 -27.5t23 -56.5q0 -12 -2 -20q-25 -85 -59 -156t-76.5 -126t-78.5 -93t-85 -80
v-354q0 -149 -62 -220t-151 -71q-85 0 -140.5 68t-55.5 168zM391 -715q11 0 19.5 4t14.5 12t10.5 17t7 22t4 23t2 25t0.5 22.5v20.5v16v219q-54 -56 -82.5 -118.5t-28.5 -149.5q0 -49 14.5 -81t38.5 -32z" />
    <glyph glyph-name="h" unicode="h" horiz-adv-x="753" 
d="M72 33v1229q0 35 -10.5 55.5t-10.5 21.5q0 10 21 16.5t45 6.5q50 0 80 -26t30 -64v-672q97 203 230 203q49 0 84 -18.5t53 -50.5t25.5 -65.5t7.5 -72.5v-424q0 -94 53 -94q93 0 137 221q13 63 52 61q33 -3 56 -42q17 -29 11 -56q-16 -58 -37.5 -108t-56 -101t-86 -80.5
t-113.5 -29.5q-79 0 -125.5 55.5t-46.5 136.5v416q0 27 -1.5 45.5t-5.5 36t-13 26.5t-23 9q-30 0 -74.5 -49.5t-82 -131t-44.5 -157.5v-299v-25t-3 -22t-8.5 -22t-17 -13t-28.5 -6q-98 0 -98 90z" />
    <glyph glyph-name="i" unicode="i" horiz-adv-x="354" 
d="M180 985q-51 0 -87 37t-36 88q0 54 35.5 89.5t87.5 35.5q54 0 89.5 -35.5t35.5 -89.5q0 -52 -36 -88.5t-89 -36.5zM227 692v-520q0 -94 54 -94q93 0 137 221q13 63 52 61q33 -3 56 -42q17 -29 11 -56q-16 -58 -37.5 -108t-56 -101t-86 -80.5t-113.5 -29.5
q-79 0 -125.5 55.5t-46.5 136.5v547q0 23 -4.5 42.5t-4.5 23.5q0 15 16 24.5t38 9.5q50 0 80 -26t30 -64z" />
    <glyph glyph-name="j" unicode="j" horiz-adv-x="344" 
d="M408 299q17 61 49 61q25 0 48 -27.5t23 -56.5q0 -12 -2 -20q-25 -85 -59 -156t-76.5 -126t-78.5 -93t-85 -80v-354q0 -149 -62 -220t-151 -71q-85 0 -140.5 68t-55.5 168q0 60 15 114t34 91t59 83t66 70t80 72v860q0 23 -4.5 42.5t-4.5 23.5q0 15 16 24.5t38 9.5
q50 0 80 -26t30 -64v-719q127 141 181 326zM25 1110q0 54 36 89.5t89 35.5q52 0 88 -36t36 -89q0 -51 -36.5 -88t-87.5 -37q-52 0 -88.5 37t-36.5 88zM14 -715q11 0 19.5 4t14.5 12t10.5 17t7 22t4 23t2 25t0.5 22.5v20.5v16v219q-54 -56 -82.5 -118.5t-28.5 -149.5
q0 -49 14.5 -81t38.5 -32z" />
    <glyph glyph-name="k" unicode="k" horiz-adv-x="716" 
d="M72 33v1229q0 35 -10.5 55.5t-10.5 21.5q0 10 21 16.5t45 6.5q50 0 80 -26t30 -64v-639q125 170 240 170q90 0 136 -63.5t46 -157.5q0 -106 -59 -192t-137 -142q17 -74 53 -122t92 -48q44 0 84 37t64 85.5t34 96.5q13 63 52 61q33 -3 56 -42q17 -29 11 -56
q-13 -38 -30 -76t-46.5 -83t-63.5 -78.5t-82.5 -56.5t-101.5 -23q-58 0 -109.5 30.5t-85.5 78t-53.5 103.5t-19.5 107q0 17 19.5 38.5t48 47t56.5 56.5t47.5 77.5t19.5 98.5q0 38 -18.5 62t-47.5 24q-46 0 -104 -68.5t-101 -214.5v-352v-25t-3 -22t-8.5 -22t-17 -13
t-28.5 -6q-98 0 -98 90z" />
    <glyph glyph-name="l" unicode="l" horiz-adv-x="450" 
d="M227 1190v-584q31 61 58.5 219.5t27.5 249.5q0 197 -55 197q-16 0 -23.5 -26t-7.5 -56zM518 297q12 60 50 59q33 -1 57 -39q19 -29 12 -57q-13 -38 -30 -76t-46.5 -83t-63.5 -78.5t-82.5 -56.5t-101.5 -23q-116 0 -178.5 73t-62.5 197v932q0 114 54 188t132 74
q37 0 66.5 -13t48.5 -31.5t32.5 -49.5t20 -57t10 -64t4 -59.5t0.5 -55.5q0 -104 -29 -237t-67.5 -237.5t-71.5 -179t-45 -85.5v-119q0 -65 27 -103t82 -38q44 0 84 37t64 85.5t34 96.5z" />
    <glyph glyph-name="m" unicode="m" horiz-adv-x="1112" 
d="M1294 262q-16 -58 -37.5 -108t-56 -101t-86 -80.5t-113.5 -29.5q-79 0 -125.5 55.5t-46.5 136.5v416q0 58 -7 87.5t-31 29.5q-28 0 -69 -49.5t-75.5 -131t-40.5 -157.5v-299v-25t-3 -22t-8.5 -22t-17 -13t-28.5 -6q-98 0 -98 90v518q0 57 -7.5 87t-31.5 30
q-28 0 -69 -49.5t-75.5 -131t-40.5 -157.5v-299v-25t-3 -22t-8.5 -22t-17 -13t-28.5 -6q-98 0 -98 90v649q0 23 -4.5 42.5t-4.5 23.5q0 15 16 24.5t38 9.5q50 0 80 -26t30 -64v-86q94 197 217 197q84 0 121 -55.5t41 -137.5q90 193 215 193q47 0 81 -18.5t51 -50.5
t24.5 -65.5t7.5 -72.5v-424q0 -94 53 -94q94 0 138 221q6 30 19.5 45.5t29.5 15.5q25 0 48 -27.5t23 -56.5q0 -6 -2 -14z" />
    <glyph glyph-name="n" unicode="n" horiz-adv-x="739" 
d="M72 33v649q0 23 -4.5 42.5t-4.5 23.5q0 15 16 24.5t38 9.5q50 0 80 -26t30 -64v-92q97 203 230 203q49 0 84 -18.5t53 -50.5t25.5 -65.5t7.5 -72.5v-424q0 -94 53 -94q93 0 137 221q6 30 19.5 45.5t29.5 15.5q25 0 48.5 -27.5t23.5 -56.5q0 -6 -2 -14q-12 -45 -27 -85.5
t-40.5 -84.5t-56 -76t-74.5 -52.5t-95 -20.5q-79 0 -125.5 55.5t-46.5 136.5v416q0 27 -1.5 45.5t-5.5 36t-13 26.5t-23 9q-30 0 -74.5 -49.5t-82 -131t-44.5 -157.5v-299v-25t-3 -22t-8.5 -22t-17 -13t-28.5 -6q-98 0 -98 90z" />
    <glyph glyph-name="o" unicode="o" horiz-adv-x="749" 
d="M821 338q4 24 40 31q44 9 68 -21q19 -25 9 -69q-20 -89 -84.5 -146t-163.5 -57q-57 0 -100 14q-85 -147 -246 -147q-147 0 -223 108t-76 273q0 85 17.5 165t43.5 135.5t55 98.5t54 63.5t39 20.5q19 0 36 -17.5t24.5 -40.5t3.5 -48t-23 -37q-43 -64 -59 -106
q-35 -90 -35 -222q0 -124 42 -191t105 -67q76 0 121 78q-71 61 -109 156.5t-38 207.5q0 103 43 171.5t122 68.5q73 0 124 -98.5t51 -245.5q0 -120 -29 -221q18 -5 41 -5q62 0 99.5 41.5t47.5 106.5zM430 528q0 -138 78 -239q6 49 6 94q0 121 -9.5 181.5t-39.5 60.5
q-35 0 -35 -97z" />
    <glyph glyph-name="p" unicode="p" horiz-adv-x="739" 
d="M326 -78q-71 0 -99 31v-666q0 -35 -19.5 -56.5t-41.5 -27.5t-47 -6q-28 0 -37.5 14t-9.5 41v1430q0 35 -10.5 56t-10.5 22q0 10 21 16t45 6q48 0 78 -25.5t32 -62.5q77 109 187 109q115 0 176 -100.5t61 -260.5q0 -172 -53 -299q49 2 82.5 12t57.5 33.5t38 45.5t35 65
q14 31 24 43t23 12q25 0 49.5 -27.5t24.5 -50.5q0 -37 -25 -80.5t-72 -84.5t-127 -68t-176 -27q-41 -44 -96.5 -69t-109.5 -25zM362 666q-44 0 -80.5 -48t-54.5 -124v-443q40 59 193 72q34 50 53 135.5t19 151.5q0 132 -36 194t-94 62z" />
    <glyph glyph-name="q" unicode="q" horiz-adv-x="747" 
d="M281 -57q-116 0 -180 86.5t-64 222.5q0 124 41 229.5t109 175t155.5 108t181.5 38.5q42 0 68 -23.5t26 -62.5q0 -26 -5.5 -36.5t-20.5 -10.5q-9 0 -29.5 2t-30.5 2q-61 0 -119 -26t-107.5 -76.5t-80 -135t-30.5 -190.5q0 -79 31 -123.5t85 -44.5q38 0 68.5 31.5t46 72
t23.5 86.5v232q0 23 -4.5 42t-4.5 23q0 15 16 25t38 10q50 0 80 -26t30 -64v-565q146 150 207 354q17 61 49 61q25 0 48.5 -27.5t23.5 -56.5q0 -12 -2 -20q-43 -148 -111.5 -247t-161.5 -183q101 -111 150 -202t49 -195q0 -119 -59.5 -196t-143.5 -77q-102 0 -153 71
t-51 200v591q-72 -75 -168 -75zM711 -594q0 82 -23 153.5t-84 151.5v-303q0 -44 9.5 -72t20.5 -36.5t23 -8.5q22 0 38 29.5t16 85.5z" />
    <glyph glyph-name="r" unicode="r" horiz-adv-x="628" 
d="M518 -57q-39 0 -74 11.5t-67 37t-51 73t-19 111.5q0 178 103 453h-156h-23q-6 -232 -51 -377q-15 -48 -56 -37q-34 8 -52 45q-12 25 -6 49q27 96 32 357q-88 50 -88 131q0 41 31 67.5t72 26.5q42 0 77.5 -25.5t51.5 -83.5q68 -8 108 -8h107q22 0 62.5 -41.5t35.5 -73.5
q0 -5 -23 -81.5t-46 -188t-23 -201.5q0 -46 21.5 -78t60.5 -32q103 0 147 221q6 30 19.5 45.5t29.5 15.5q25 0 48.5 -27.5t23.5 -56.5q0 -3 -1 -7.5t-1 -6.5q-16 -58 -37.5 -108t-56 -101t-86 -80.5t-113.5 -29.5z" />
    <glyph glyph-name="s" unicode="s" horiz-adv-x="653" 
d="M188 281q-11 -40 -43.5 -43.5t-57.5 23.5t-17 61q7 32 20 75.5t22.5 72t30 88.5t27.5 79q-33 51 -33 96q0 50 65 106t109 56q36 0 55 -25t19 -67q0 -26 -11.5 -57.5t-24.5 -55t-13 -26.5q28 -50 73.5 -111.5t74 -100t51 -99t22.5 -128.5q0 -35 -10 -73q126 26 168 147
q20 55 47 55q25 0 49.5 -29.5t24.5 -52.5q0 -30 -29.5 -78.5t-65.5 -78.5q-109 -89 -274 -99q-83 -73 -201 -73q-60 0 -125.5 27t-99.5 59q-28 27 -42.5 57.5t-14 56t8.5 46.5t21 32.5t27 11.5q15 0 77 -29.5t135.5 -59t117.5 -29.5q45 53 45 125q0 46 -12 87.5t-36 78.5
t-45.5 62.5t-54.5 59.5q-36 -87 -80 -247z" />
    <glyph glyph-name="t" unicode="t" horiz-adv-x="370" 
d="M-113 963q74 -5 185 -7v347q0 35 -10.5 55.5t-10.5 21.5q0 10 21 16.5t45 6.5q50 0 80 -26t30 -64v-359q199 0 408 9q27 29 34 -10q7 -43 -13 -92q-16 -34 -35 -36q-164 -4 -394 -4v-649q0 -94 70 -94q93 0 137 221q6 30 19.5 45.5t29.5 15.5q25 0 48.5 -27.5t23.5 -56.5
q0 -6 -2 -14q-12 -45 -27 -85.5t-40.5 -84.5t-56 -76t-74.5 -52.5t-95 -20.5q-88 0 -138 55t-50 172v651l-142 4q-38 0 -61 50q-22 46 -6 74q8 14 24 14z" />
    <glyph glyph-name="u" unicode="u" horiz-adv-x="745" 
d="M635 -57q-67 0 -112 40.5t-56 104.5q-84 -147 -205 -147q-102 0 -159.5 80t-57.5 215q0 96 18.5 211t36.5 182l19 67q3 6 6 20.5t7 22t13.5 16.5t30 13t51.5 4q28 0 42.5 -8.5t14.5 -23t-3.5 -28t-11 -30.5t-9.5 -23q-23 -95 -33 -141t-18 -118t-8 -154t24.5 -126
t69.5 -44q58 0 103 80t65 196v330q0 35 -10.5 56t-10.5 22q0 10 21 16t45 6q50 0 80 -26t30 -64v-520q0 -94 54 -94q93 0 137 221q6 30 19.5 45.5t29.5 15.5q25 0 48.5 -27.5t23.5 -56.5q0 -6 -2 -14q-16 -58 -37.5 -108t-56 -101t-86 -80.5t-113.5 -29.5z" />
    <glyph glyph-name="v" unicode="v" horiz-adv-x="665" 
d="M72 143v539q0 23 -4.5 42.5t-4.5 23.5q0 15 16 24.5t38 9.5q50 0 80 -26t30 -64v-551q0 -32 9.5 -47.5t35.5 -15.5q82 0 148.5 104.5t66.5 272.5q0 58 -8.5 101.5t-24 69t-26 36.5t-25.5 22q-4 3 -11.5 5t-12 5t-4.5 8q0 29 28 65t56 36q40 0 82.5 -51t71 -134.5
t28.5 -168.5q0 -139 -47.5 -253.5t-138.5 -183.5t-209 -69q-174 0 -174 200z" />
    <glyph glyph-name="w" unicode="w" horiz-adv-x="1019" 
d="M430 223v459q0 23 -4 42.5t-4 23.5q0 15 15.5 24.5t37.5 9.5q50 0 80.5 -26t30.5 -64v-469q2 -72 23 -108.5t77 -36.5q102 0 102 145v459q0 23 -4 42.5t-4 23.5q0 15 16 24.5t38 9.5q50 0 80 -26t30 -64v-469q0 -280 -250 -280q-63 0 -113 28t-73 70q-21 -40 -74.5 -69
t-111.5 -29q-250 0 -250 282v457q0 23 -4.5 42.5t-4.5 23.5q0 15 16 24.5t38 9.5q50 0 80 -26t30 -64v-469q0 -31 3.5 -54.5t13.5 -45.5t31 -33.5t53 -11.5q102 0 102 145z" />
    <glyph glyph-name="x" unicode="x" horiz-adv-x="833" 
d="M180 252q-15 -48 -56 -37q-34 8 -52 45q-12 25 -6 49q16 62 34.5 192.5t18.5 203.5q0 54 28 76t93 22q73 0 108 -55q64 -105 141 -269q83 125 160 271q27 55 58 55q30 0 58 -35.5t28 -71.5q0 -18 -9 -30l-231 -330q67 -143 111.5 -205.5t97.5 -62.5q89 0 135 229
q6 30 19.5 45.5t29.5 15.5q25 0 48.5 -27.5t23.5 -56.5q0 -6 -2 -14q-83 -319 -273 -319q-92 0 -156 58t-130 198l-138 -195q-39 -61 -92 -61q-38 0 -72 19.5t-34 47.5q0 9 5 15t14 11t28 22t41 42q101 119 184 238q-65 149 -145 285q-3 -68 -24 -183t-44 -188z" />
    <glyph glyph-name="y" unicode="y" horiz-adv-x="735" 
d="M799 299q17 61 49 61q25 0 48.5 -27.5t23.5 -56.5q0 -12 -2 -20q-25 -85 -59.5 -156t-76.5 -126.5t-78.5 -93t-85.5 -79.5v-354q0 -149 -62 -220t-150 -71q-85 0 -141 68.5t-56 167.5q0 60 15 114t34 91t59 83t66 70t80 72v260q-84 -141 -201 -141q-102 0 -159.5 80
t-57.5 215q0 96 18.5 211t36.5 182l19 67q3 6 6 20.5t7 22t13.5 16.5t30 13t51.5 4q28 0 42.5 -8.5t14.5 -23t-3.5 -28t-11 -30.5t-9.5 -23q-23 -95 -33 -141t-18 -118t-8 -154t24.5 -126t69.5 -44q58 0 103 80t65 196v330q0 23 -4 42.5t-4 23.5q0 15 15.5 24.5t37.5 9.5
q50 0 80 -26t30 -64v-719q127 141 181 326zM406 -715q11 0 19.5 4t14.5 12t10.5 17t6.5 22t3.5 23.5t2 24.5t0.5 22.5v21v15.5v219q-54 -56 -82.5 -118.5t-28.5 -149.5q0 -48 15 -80.5t39 -32.5z" />
    <glyph glyph-name="z" unicode="z" horiz-adv-x="737" 
d="M211 -608q0 73 18 133t59 114.5t74 88t97 90.5q12 11 18 16q-43 217 -203 217l-28 113q56 16 107 47.5t94.5 77t69.5 110t26 138.5q0 56 -30 93.5t-87 37.5q-54 0 -92 -32.5t-75 -119.5t-75 -244q-16 -65 -58 -45q-31 15 -49 59q-10 24 -7 40q17 91 33.5 154t45 128.5
t64 105t90 64.5t123.5 25q126 0 199 -80.5t73 -202.5q0 -124 -73.5 -223.5t-188.5 -151.5q121 -67 168 -188q143 150 197 342q17 61 49 61q25 0 48.5 -27.5t23.5 -56.5q0 -12 -2 -20q-46 -154 -117 -255t-166 -183q12 -83 12 -197q0 -87 -12 -164.5t-38 -147.5t-75 -111.5
t-116 -41.5q-85 0 -141 68.5t-56 167.5zM494 -408q0 64 -2 101q-67 -62 -102.5 -130t-35.5 -165q0 -48 15 -80.5t39 -32.5q86 0 86 307z" />
    <glyph glyph-name="braceleft" unicode="{" horiz-adv-x="604" 
d="M467 -301q-38 0 -78 8.5t-84 31t-77.5 56.5t-55.5 90.5t-22 126.5q0 74 45 209t45 189q0 48 -13.5 79t-34 43.5t-44 22.5t-44 15.5t-34 22t-13.5 44.5q0 33 19 50.5t45.5 25t53.5 19t46 44.5t19 90q0 65 -46.5 197t-46.5 207t21 134t54 95.5t76 60.5t84 33t81 9
q41 0 58.5 -29t15.5 -68q-2 -34 -17 -53.5t-33 -5.5q-83 0 -132.5 -44t-49.5 -134q0 -69 45 -200t45 -202q0 -79 -41.5 -136.5t-103.5 -90.5q61 -20 103 -82t42 -147q0 -63 -44 -188t-44 -210q0 -75 49 -114t136 -39q21 4 34 -18.5t13 -55.5q0 -36 -18 -61t-54 -25z" />
    <glyph glyph-name="bar" unicode="|" horiz-adv-x="512" 
d="M178 -453v1940q0 3 -5 12t-5 14q0 23 80 23q34 0 59 -12t25 -39v-1960q0 -19 -18.5 -28t-43.5 -9q-34 0 -63 15.5t-29 43.5z" />
    <glyph glyph-name="braceright" unicode="}" horiz-adv-x="604" 
d="M137 1599q38 0 78 -8.5t84 -31t78 -56.5t56 -90.5t22 -126.5q0 -74 -45 -208.5t-45 -188.5q0 -48 13.5 -79t33.5 -43.5t44 -22.5t44 -15.5t33.5 -22t13.5 -44.5q0 -33 -18.5 -50.5t-45.5 -25.5t-54 -19.5t-45.5 -44.5t-18.5 -90q0 -65 46 -196.5t46 -206.5t-21 -134
t-54 -95.5t-76 -60.5t-84 -33t-81 -9q-41 0 -58 28.5t-15 67.5q2 34 16.5 54t32.5 6q83 0 132.5 44t49.5 134q0 69 -45 199.5t-45 201.5q0 79 41.5 136.5t103.5 90.5q-60 20 -102.5 82.5t-42.5 147.5q0 55 22 120.5t44 137t22 139.5q0 75 -49 114.5t-135 39.5q-21 -4 -34 18
t-13 55q0 36 17.5 61t53.5 25z" />
    <glyph glyph-name="asciitilde" unicode="~" 
d="M223 555q0 -33 -43 -33q-32 0 -60 14.5t-28 34.5q0 79 54.5 152.5t132.5 73.5q33 0 64 -15t54.5 -36t45 -42t44 -36t43.5 -15q25 0 42.5 26.5t17.5 61.5q0 50 53 50q29 0 56.5 -14t27.5 -29q0 -57 -18.5 -104t-48 -75.5t-63 -43.5t-65.5 -15q-41 0 -81.5 22.5t-66 49
t-50 49t-37.5 22.5q-32 0 -50 -30t-24 -68z" />
    <glyph glyph-name="nbspace" unicode="&#xa0;" horiz-adv-x="450" 
 />
    <glyph glyph-name="exclamdown" unicode="&#xa1;" horiz-adv-x="655" 
d="M348 711q-41 0 -70.5 28.5t-29.5 69.5q0 39 29.5 67.5t70.5 28.5q40 0 69 -29t29 -67q0 -41 -29 -69.5t-69 -28.5zM268 -492v1043q0 38 18 57t46 19q34 0 64 -28t30 -67v-1009q0 -22 9 -44.5t9 -27.5q0 -24 -61 -24q-48 0 -81.5 19t-33.5 62z" />
    <glyph glyph-name="cent" unicode="&#xa2;" horiz-adv-x="735" 
d="M346 76v184q-117 28 -192.5 126t-75.5 251q0 101 32.5 195.5t94.5 165.5t141 98v182q0 2 -5 12t-5 15q0 22 59 22q64 0 64 -51v-168q60 -7 103 -43t60 -77t17 -79q0 -44 -49 -71q-43 -23 -68 -8q-16 9 -12 32q-2 6 -7 23t-8.5 28.5t-13 25.5t-22.5 22v-576q51 3 90 29
q41 35 79 18t40 -56.5t-31 -70.5q-74 -52 -178 -55v-197q0 -20 -9.5 -28.5t-31.5 -8.5q-31 0 -51.5 15.5t-20.5 44.5zM238 637q0 -170 108 -229v540q-51 -36 -79.5 -120t-28.5 -191z" />
    <glyph glyph-name="sterling" unicode="&#xa3;" horiz-adv-x="970" 
d="M645 475h-201q41 -139 41 -221q0 -32 -10 -75.5t-26 -72.5q120 -45 196 -45q48 0 80 17.5t47 50.5t20 66t5 77q0 10 -2 22t-2 15q0 15 24 15q54 0 83.5 -23t29.5 -63q0 -128 -73.5 -221t-197.5 -93q-98 0 -288 70q-27 -23 -72 -37t-86 -14q-90 0 -141.5 33t-51.5 92
q0 49 31.5 77t79 32.5t96.5 -2.5t90 -23q21 47 21 86q0 96 -51 237h-160q-30 0 -44.5 26.5t-14.5 63.5q0 41 30 41h140q-64 176 -64 334q0 93 28.5 181t80.5 158t132 112.5t175 42.5q119 0 194.5 -83.5t75.5 -205.5q0 -82 -34.5 -161t-90.5 -79q-58 0 -97 39q-26 27 -11 37
q5 4 16 4q23 -1 38.5 26t21.5 58t6 59q0 62 -39 105t-101 43q-101 0 -166 -96t-65 -267q0 -112 63 -307h263q31 23 34 -16q3 -43 -21 -87q-15 -28 -32 -28z" />
    <glyph glyph-name="currency" unicode="&#xa4;" horiz-adv-x="978" 
d="M96 420l101 100q-54 85 -54 191q0 100 52 184l-97 98q-5 5 -15 10t-17 10t-7 11q0 26 35 60t66 34q16 0 26 -10l109 -109q83 58 192 58q105 0 193 -56l102 103q12 16 31 16q22 0 45 -31t23 -67q0 -20 -11 -31l-90 -90q56 -88 56 -190q0 -109 -58 -195l107 -106
q6 -6 6 -17q0 -27 -31 -64.5t-55 -37.5q-6 0 -12 6l-119 119q-82 -51 -187 -51t-188 55l-119 -119q-6 -6 -18 -6q-26 0 -53 29.5t-27 62.5q0 19 14 33zM274 709q0 -88 62.5 -150.5t150.5 -62.5t153 63t65 150q0 88 -65 152.5t-153 64.5q-87 0 -150 -64.5t-63 -152.5z" />
    <glyph glyph-name="yen" unicode="&#xa5;" horiz-adv-x="1355" 
d="M1262 -190h-105q-1 -57 -5 -106t-13.5 -105.5t-23.5 -101t-37 -87.5t-53 -71.5t-73.5 -46t-95.5 -17.5q-103 0 -166 68.5t-63 173.5q0 158 116 245q12 9 27 9q32 0 62 -38t30 -67q0 -18 -16 -18q-1 0 -4 1t-4 1q-52 -55 -52 -129q0 -44 20.5 -66t53.5 -22q125 0 137 377
h-151q-30 0 -45 27t-15 63q0 18 8 29.5t23 11.5h182v94h-153q-30 0 -45 27t-15 63q0 18 8 29.5t23 11.5h182v276q-68 -115 -148 -184.5t-163 -69.5q-52 0 -95.5 43.5t-43.5 135.5v907q-147 -18 -241.5 -125.5t-94.5 -292.5q0 -58 13 -110.5t31.5 -85.5t36 -52.5t28.5 -19.5
q6 0 16.5 4t15.5 4q17 0 17 -25q0 -65 -52 -109.5t-96 -12.5q-64 43 -118 154t-54 253q0 125 37 226t96 165.5t136 107.5t153.5 61t153.5 18q33 0 57.5 -25t24.5 -61v-969q0 -29 18 -29q31 0 96 75t120.5 185t55.5 191v532q0 23 -4 42.5t-4 23.5q0 15 15.5 25t37.5 10
q50 0 82.5 -26.5t32.5 -64.5v-1177h121q31 23 34 -16q4 -43 -20 -87q-15 -28 -32 -28h-103v-45v-49h121q31 23 34 -16q4 -43 -20 -87q-15 -28 -32 -28z" />
    <glyph glyph-name="brokenbar" unicode="&#xa6;" horiz-adv-x="512" 
d="M178 721v684q0 3 -5 12t-5 15q0 22 80 22q34 0 59 -12t25 -39v-705q0 -36 -62 -36q-34 0 -63 15.5t-29 43.5zM178 -371v684q0 3 -5 12t-5 15q0 22 80 22q34 0 59 -12t25 -39v-704q0 -19 -18.5 -28t-43.5 -9q-34 0 -63 15.5t-29 43.5z" />
    <glyph glyph-name="section" unicode="&#xa7;" horiz-adv-x="716" 
d="M188 184q26 0 48 -16t30 -39q7 -21 -2 -34t-22 -13q-47 0 -47 -78q0 -45 33.5 -69.5t88.5 -24.5q72 0 134.5 60.5t62.5 162.5q0 36 -13 65.5t-43 56.5t-52.5 42t-67.5 43q-36 22 -44 27t-39.5 26t-41.5 31.5t-31 33t-28.5 41t-15 44.5t-7.5 55q0 65 38.5 120t100.5 83
q-84 52 -131 116.5t-47 165.5q0 87 45 169t128 136t181 54q91 0 152 -55.5t61 -143.5q0 -83 -42 -150t-95 -67q-25 0 -46.5 16t-29.5 39q-7 21 2.5 34t20.5 13q24 0 37.5 29t13.5 62q0 36 -25 58.5t-63 22.5q-73 0 -133.5 -64t-60.5 -153q0 -35 14 -65.5t43 -56.5t54.5 -43
t66.5 -41q48 -28 76.5 -48t63 -52.5t51 -72t16.5 -86.5q0 -66 -38.5 -120t-101.5 -82q83 -52 131 -118t48 -165q0 -148 -103.5 -256t-253.5 -108q-110 0 -181 62.5t-71 160.5q0 78 41.5 135t93.5 57zM485 612q0 29 -20 56q-39 30 -90 30q-55 0 -81 -25.5t-26 -68.5
q0 -30 23 -61q29 -25 88 -25q106 0 106 94z" />
    <glyph glyph-name="dieresis" unicode="&#xa8;" 
d="M166 1042q0 40 28 68.5t68 28.5t68 -28.5t28 -68.5t-28 -68t-68 -28t-68 28t-28 68zM461 1042q0 40 28 68.5t68 28.5t68 -28.5t28 -68.5t-28 -68t-68 -28t-68 28t-28 68z" />
    <glyph glyph-name="copyright" unicode="&#xa9;" horiz-adv-x="1695" 
d="M817 811q68 0 139.5 58t71.5 118q0 32 -20 53t-66 21q-77 0 -148.5 -41t-120.5 -105t-78.5 -142t-29.5 -152q0 -58 14 -107.5t43 -90.5t79.5 -65t117.5 -24q63 0 121 19t80.5 33t28.5 20q15 18 38 18q22 0 42 -24t20 -50q0 -24 -10 -31q-1 -2 -15 -13t-44 -28t-67 -32.5
t-91.5 -27t-110.5 -11.5q-176 0 -277.5 112t-101.5 302q0 106 39 208t106 181t165.5 127.5t209.5 48.5q92 0 149.5 -52.5t57.5 -140.5q0 -59 -32 -115t-82 -95.5t-113 -64t-123 -24.5q-30 0 -50 18.5t-20 55.5q0 21 8 39t21 18q5 0 8 -1t5.5 -2.5t4.5 -2.5q12 -8 31 -8z
M102 686q0 203 100 374.5t271.5 271.5t374.5 100q152 0 290 -59t237.5 -159t158.5 -238t59 -290t-59 -290t-158.5 -237.5t-237.5 -158.5t-290 -59t-290 59t-238 158.5t-159 237.5t-59 290zM236 686q0 -166 82 -307t223 -223t307 -82t307 82t223 223t82 307t-82 307t-223 223
t-307 82t-307 -82t-223 -223t-82 -307z" />
    <glyph glyph-name="ordfeminine" unicode="&#xaa;" horiz-adv-x="622" 
d="M233 784q-92 0 -142 66t-50 170q0 94 31.5 174t83.5 132.5t119.5 82t140.5 29.5q34 0 56 -19t22 -51q0 -39 -27 -39q-7 0 -22 2t-23 2q-44 0 -86.5 -19.5t-78.5 -56.5t-58.5 -99.5t-22.5 -141.5q0 -58 21.5 -90.5t58.5 -32.5q49 0 78 78v215q0 17 -3 28.5t-3 20.5
q0 12 14 21.5t33 9.5q40 0 66 -21t26 -51v-233q0 -28 10.5 -48t32.5 -20q26 0 33 12q5 10 16 10q14 0 28.5 -21t14.5 -44q0 -32 -37.5 -49t-81.5 -17q-78 0 -121 56q-53 -56 -129 -56zM145 700h365q25 3 35 -11t10 -42q0 -30 -14.5 -49.5t-38.5 -19.5q-6 0 -10 2h-367
q-53 0 -53 47q0 40 18 56.5t55 16.5z" />
    <glyph glyph-name="guillemotleft" unicode="&#xab;" horiz-adv-x="1089" 
d="M188 575l252 238q1 1 8 9t10.5 10.5t11 6t15.5 3.5q16 0 34 -32t18 -65q0 -34 -23 -57l-215 -192l215 -191q21 -21 21 -51q0 -33 -21 -62.5t-43 -29.5q-10 0 -20 10l-265 240q-43 29 -43 98q0 24 9 39t36 26zM557 575l252 238q1 1 8 9t10.5 10.5t11 6t15.5 3.5
q16 0 33.5 -32t17.5 -65q0 -35 -22 -57l-215 -192l215 -191q20 -20 20 -51q0 -33 -20.5 -62.5t-42.5 -29.5q-11 0 -21 10l-264 240q-43 29 -43 98q0 24 9 39t36 26z" />
    <glyph glyph-name="logicalnot" unicode="&#xac;" 
d="M139 860h518q50 0 50 -29q0 -8 -2.5 -23.5t-2.5 -31.5v-315q3 -9 3 -17q0 -18 -17.5 -27t-44.5 -9q-31 0 -57.5 11t-26.5 27v271h-444q-15 0 -24 16.5t-9 40.5q0 32 15 59t42 27z" />
    <glyph glyph-name="uni00AD" unicode="&#xad;" horiz-adv-x="716" 
d="M156 621h413q8 0 16.5 5t10.5 5q20 0 20 -43q0 -38 -19 -84.5t-44 -46.5h-422q-15 0 -24 16.5t-9 40.5q0 34 16 70.5t42 36.5z" />
    <glyph glyph-name="registered" unicode="&#xae;" horiz-adv-x="1228" 
d="M102 926q0 212 150 362t362 150t362 -150t150 -362t-150 -362t-362 -150t-362 150t-150 362zM225 926q0 -161 114 -275t275 -114t275.5 114t114.5 275t-114.5 275t-275.5 114t-275 -114t-114 -275zM440 670v348q0 4 -1 12.5t-1 11.5q0 29 45 29q31 0 49.5 -12.5
t18.5 -36.5v-113q69 7 126.5 42.5t57.5 88.5q0 35 -33.5 62.5t-103.5 27.5q-99 0 -147 -32q-10 -33 -43 -33q-21 0 -41.5 19t-20.5 42q0 49 86 83t164 34q116 0 187 -53t71 -137q0 -71 -51 -125.5t-137 -83.5q42 -31 63 -66q49 -80 90 -80q17 0 17 -18q0 -19 -25.5 -45.5
t-40.5 -26.5q-57 0 -129 123q-10 19 -18 30.5t-26.5 24t-45.5 19.5v-139q0 -25 -6.5 -34t-26.5 -9q-26 0 -52 12.5t-26 34.5z" />
    <glyph glyph-name="macron" unicode="&#xaf;" 
d="M248 1094h352q25 3 35 -11.5t10 -42.5q0 -32 -15 -58t-38 -26q-6 0 -10 2h-355q-53 0 -53 48q0 41 19.5 64.5t54.5 23.5z" />
    <glyph glyph-name="degree" unicode="&#xb0;" horiz-adv-x="542" 
d="M102 1264q0 70 49.5 120t118.5 50q70 0 120 -50t50 -120q0 -69 -50 -118.5t-120 -49.5q-69 0 -118.5 49.5t-49.5 118.5zM201 1264q0 -31 19 -50.5t50 -19.5t51.5 19.5t20.5 50.5t-20.5 51t-51.5 20t-50 -20t-19 -51z" />
    <glyph glyph-name="plusminus" unicode="&#xb1;" 
d="M137 717h201v213q0 8 -4 14.5t-4 9.5q0 15 53 15q98 0 98 -35v-217h213q8 0 16.5 5t10.5 5q20 0 20 -43q0 -36 -18.5 -73.5t-44.5 -37.5h-197v-215q0 -19 -35.5 -31.5t-71 -8t-36.5 25.5v229h-225q-15 0 -24 17t-9 41q0 32 15 59t42 27zM158 205h516q8 0 16 5t10 5
q21 0 21 -43q0 -36 -19 -73.5t-45 -37.5h-524q-15 0 -24 17t-9 41q0 32 15.5 59t42.5 27z" />
    <glyph glyph-name="twosuperior" unicode="&#xb2;" horiz-adv-x="587" 
d="M283 690h174q14 0 25 8.5t14 8.5q6 0 13 -19.5t7 -34.5q0 -33 -16.5 -56.5t-46.5 -23.5h-301q-24 0 -42 15.5t-18 38.5q0 15 19 39l2 2q21 21 42 43t67.5 80.5t79.5 114t60 132t27 144.5q0 80 -31.5 110.5t-68.5 30.5q-45 0 -75 -33t-30 -108q0 -50 14.5 -89.5
t26.5 -41.5q9 5 14.5 2.5t4.5 -15.5q-1 -26 -20.5 -43.5t-47.5 -17.5q-52 0 -88.5 66t-36.5 139q0 83 37 142t89.5 84.5t113.5 25.5q110 0 172.5 -77t62.5 -179q0 -214 -243 -488z" />
    <glyph glyph-name="threesuperior" unicode="&#xb3;" horiz-adv-x="573" 
d="M41 1190q0 60 21 108.5t56 77t76.5 43.5t86.5 15q75 0 129 -41t78 -100t24 -126q0 -182 -137 -270q108 -64 108 -166q0 -76 -58.5 -127t-141.5 -51t-138 55t-55 111q0 18 29.5 28.5t60.5 10.5q22 0 30.5 -5t8.5 -24q0 -7 5 -20.5t21.5 -29t41.5 -15.5q26 0 44.5 18
t18.5 49q0 100 -106 117q-45 7 -45 59q0 35 45 35q51 0 93 64.5t42 164.5q0 78 -29 115t-76 37q-43 0 -71.5 -33.5t-28.5 -101.5q0 -47 14.5 -82t28.5 -35l9 1q8 2 11 -0.5t3 -10.5q0 -20 -22 -42t-52 -22q-51 0 -88 62t-37 131z" />
    <glyph glyph-name="acute" unicode="&#xb4;" 
d="M561 1137l-182 -195q-22 -37 -68 -37q-39 0 -59.5 14t-20.5 33q0 10 17 31l186 215q3 17 24 28t44 11q31 0 57.5 -17t26.5 -42q0 -6 -3 -12.5t-5.5 -10t-8.5 -10t-8 -8.5z" />
    <glyph glyph-name="mu" unicode="&#xb5;" horiz-adv-x="745" 
d="M236 692v-446q0 -79 33.5 -124.5t80.5 -45.5q113 0 148 260v346q0 35 -10.5 56t-10.5 22q0 10 21 16t45 6q50 0 80 -26t30 -64v-520q0 -94 54 -94q5 0 9.5 1t9 3.5t7.5 4t8 6t7 6t7.5 7.5t6.5 7q10 10 20 10q15 0 26 -18t11 -46q0 -44 -20 -67q-43 -49 -129 -49
q-55 0 -96 28.5t-60 75.5q-66 -104 -156 -104q-76 0 -122 77v-344q0 -27 -11 -46t-28.5 -28t-34.5 -12.5t-35 -3.5q-28 0 -37.5 14.5t-9.5 41.5v1040q0 35 -10.5 56t-10.5 22q0 10 21 16t45 6q50 0 80.5 -26t30.5 -64z" />
    <glyph glyph-name="paragraph" unicode="&#xb6;" horiz-adv-x="1179" 
d="M596 0v252q-66 6 -127 27q-151 51 -248.5 166t-126.5 276q-52 308 117 512q79 95 195.5 148t244.5 53q66 0 126 -8t97.5 -19t69 -24.5t44 -21.5t18.5 -13q30 -23 30 -64v-1294q0 -47 -57 -47q-36 0 -67 18t-31 41v287q-69 -27 -127 -35v-264q0 -47 -58 -47
q-37 0 -68.5 17t-31.5 40zM516 426q38 -12 80 -18v864q-78 -9 -148.5 -45.5t-117.5 -93.5q-124 -149 -80 -385q11 -61 34.5 -112.5t50.5 -85t62 -60t62.5 -40.5t56.5 -24zM881 1239q-59 22 -127 31v-856q79 17 127 51v774z" />
    <glyph glyph-name="periodcentered" unicode="&#xb7;" horiz-adv-x="552" 
d="M291 741q41 0 70.5 -28.5t29.5 -69.5q0 -39 -29.5 -67.5t-70.5 -28.5q-40 0 -69 29t-29 67q0 41 29 69.5t69 28.5z" />
    <glyph glyph-name="cedilla" unicode="&#xb8;" 
d="M461 -43l-23 -63q50 -9 85.5 -30t51.5 -49t22.5 -51.5t6.5 -48.5q0 -30 -12 -62t-36.5 -62.5t-69.5 -50t-103 -19.5q-87 0 -123.5 21t-36.5 67q0 18 8.5 37t20.5 12q37 -18 108 -18q54 0 86.5 23.5t32.5 64.5q0 33 -26 46t-57 11.5t-57 10.5t-26 44q0 11 9.5 45.5
t19.5 62.5l10 29q3 26 21.5 40t42.5 14q39 0 48.5 -19.5t-3.5 -54.5z" />
    <glyph glyph-name="onesuperior" unicode="&#xb9;" horiz-adv-x="444" 
d="M188 606v627q-46 -66 -82 -66q-26 0 -45.5 23.5t-19.5 44.5q0 10 4.5 14t13 7t13.5 8q12 11 44.5 48t58.5 68l26 31q3 23 37 23q35 0 59.5 -17t24.5 -39v-778q0 -35 -54 -35q-28 0 -54 13t-26 28z" />
    <glyph glyph-name="ordmasculine" unicode="&#xba;" horiz-adv-x="651" 
d="M555 983q9 6 23 6q21 0 37 -20t16 -43q0 -15 -8.5 -24t-25 -13t-29.5 -5t-33 -1q-26 0 -72 8q-64 -109 -189 -109q-115 0 -174 81.5t-59 207.5q0 80 20.5 153t49 117.5t55 70.5t41.5 26q22 0 39.5 -23t17.5 -49q0 -15 -24 -49q-66 -86 -66 -236q0 -91 29 -140.5t73 -49.5
q55 0 84 53q-53 47 -81.5 119t-28.5 156q0 79 34 131.5t97 52.5q59 0 99 -74.5t40 -187.5q0 -92 -20 -162q8 -2 22 -2q25 0 33 6zM346 1225q0 -93 45 -160q2 16 2 51q0 89 -5.5 133.5t-22.5 44.5q-19 0 -19 -69zM135 700h354q25 3 35.5 -11t10.5 -42q0 -30 -15 -49.5
t-39 -19.5q-6 0 -10 2h-356q-54 0 -54 47q0 40 18.5 56.5t55.5 16.5z" />
    <glyph glyph-name="guillemotright" unicode="&#xbb;" horiz-adv-x="1089" 
d="M901 428l-252 -238l-6 -6t-6 -6.5t-6 -6t-7.5 -5t-8.5 -3t-11 -1.5q-16 0 -33.5 31.5t-17.5 64.5q0 35 22 57l216 193l-216 190q-20 20 -20 52q0 33 20.5 62.5t42.5 29.5q10 0 21 -11l264 -239q43 -29 43 -98q0 -24 -9 -39.5t-36 -26.5zM532 428l-251 -238l-6 -6t-6 -6.5
t-6 -6t-7.5 -5t-8.5 -3t-11 -1.5q-16 0 -34 31.5t-18 64.5q0 34 23 57l215 193l-215 190q-21 21 -21 52q0 33 21 62.5t43 29.5q9 0 20 -11l265 -239q43 -29 43 -98q0 -24 -9.5 -39.5t-36.5 -26.5z" />
    <glyph glyph-name="onequarter" unicode="&#xbc;" horiz-adv-x="1253" 
d="M1110 209h-18v-203q0 -18 -17.5 -26.5t-40.5 -8.5q-28 0 -52 13t-24 28v199h-32q-66 0 -133.5 -2t-71.5 -2q-25 0 -47.5 24.5t-22.5 42.5q0 11 19 33q75 178 75 424q0 7 -4 23t-4 20q0 23 56 23q32 0 58 -18t26 -60q0 -84 -17.5 -199.5t-50.5 -200.5q64 3 137 3h12v452
q0 16 -6 28t-6 17q0 10 16 15.5t37 5.5q38 0 65.5 -18.5t27.5 -43.5v-456q5 1 16.5 2t15.5 2q3 10 21 10q26 0 26 -43q0 -34 -15.5 -59t-45.5 -25zM135 94l723 1295v20q0 14 23 14q29 0 61.5 -21.5t32.5 -51.5q0 -16 -4 -23l-738 -1313q-8 -14 -26 -14q-27 0 -53.5 18
t-26.5 48q0 17 8 28zM188 606v627q-46 -66 -82 -66q-26 0 -45.5 23.5t-19.5 44.5q0 10 4.5 14t13 7t13.5 8q12 11 44.5 48t58.5 68l26 31q3 23 37 23q35 0 59.5 -17t24.5 -39v-778q0 -35 -54 -35q-28 0 -54 13t-26 28z" />
    <glyph glyph-name="onehalf" unicode="&#xbd;" horiz-adv-x="1241" 
d="M135 94l723 1295v20q0 14 23 14q29 0 61.5 -21.5t32.5 -51.5q0 -16 -4 -23l-738 -1313q-8 -14 -26 -14q-27 0 -53.5 18t-26.5 48q0 17 8 28zM188 606v627q-46 -66 -82 -66q-26 0 -45.5 23.5t-19.5 44.5q0 10 4.5 14t13 7t13.5 8q12 11 44.5 48t58.5 68l26 31q3 23 37 23
q35 0 59.5 -17t24.5 -39v-778q0 -35 -54 -35q-28 0 -54 13t-26 28zM915 96h175q14 0 24.5 8.5t13.5 8.5q6 0 13.5 -19.5t7.5 -34.5q0 -33 -16.5 -56t-47.5 -23h-301q-24 0 -41.5 15t-17.5 38q0 17 18 39q238 238 274 452q5 33 5 64q0 80 -31.5 110.5t-68.5 30.5
q-45 0 -75 -33t-30 -108q0 -50 14.5 -89.5t26.5 -41.5q9 5 14.5 2.5t4.5 -15.5q-1 -26 -20.5 -43.5t-47.5 -17.5q-52 0 -88.5 66t-36.5 139q0 83 37 142t89.5 84.5t113.5 25.5q110 0 172.5 -77t62.5 -179q0 -213 -244 -488z" />
    <glyph glyph-name="threequarters" unicode="&#xbe;" horiz-adv-x="1368" 
d="M1225 209h-19v-203q0 -35 -57 -35q-28 0 -52 13t-24 28v199h-33q-66 0 -133 -2t-71 -2q-25 0 -47.5 24.5t-22.5 42.5q0 12 18 33q76 180 76 424q0 7 -4 23t-4 20q0 23 55 23q32 0 58 -18t26 -60q0 -85 -17 -200t-50 -200q65 3 137 3h12v452q0 16 -6 28t-6 17
q0 10 16 15.5t37 5.5q38 0 65 -18.5t27 -43.5v-456q5 1 17 2t16 2q3 10 21 10q26 0 26 -43q0 -34 -15.5 -59t-45.5 -25zM41 1190q0 60 21 108.5t56 77t76.5 43.5t86.5 15q75 0 129 -41t78 -100t24 -126q0 -182 -137 -270q108 -64 108 -166q0 -76 -58.5 -127t-141.5 -51
t-138 55t-55 111q0 18 29.5 28.5t60.5 10.5q22 0 30.5 -5t8.5 -24q0 -7 5 -20.5t21.5 -29t41.5 -15.5q26 0 44.5 18t18.5 49q0 100 -106 117q-45 7 -45 59q0 35 45 35q51 0 93 64.5t42 164.5q0 78 -29 115t-76 37q-43 0 -71.5 -33.5t-28.5 -101.5q0 -47 14.5 -82t28.5 -35
l9 1q8 2 11 -0.5t3 -10.5q0 -20 -22 -42t-52 -22q-51 0 -88 62t-37 131zM250 94l723 1295v20q0 14 22 14q29 0 62 -21.5t33 -51.5q0 -15 -5 -23l-737 -1313q-8 -14 -26 -14q-27 0 -53.5 18t-26.5 48q0 17 8 28z" />
    <glyph glyph-name="questiondown" unicode="&#xbf;" horiz-adv-x="884" 
d="M461 711q-41 0 -70 28.5t-29 69.5q0 39 29 67.5t70 28.5t70.5 -28.5t29.5 -67.5q0 -41 -29.5 -69.5t-70.5 -28.5zM383 575q0 46 46 52q45 6 82 -26q27 -24 28 -54q0 -78 -2 -105q-5 -57 -45 -94q-33 -28 -53 -46.5t-59.5 -66.5t-63 -95t-43 -121.5t-19.5 -155.5
q0 -74 15 -129.5t36 -85t49.5 -47.5t50.5 -22.5t44 -4.5q81 0 137.5 61.5t56.5 190.5q0 71 -21.5 136t-50.5 65q-5 0 -11 -2t-7 -2q-18 0 -18 18q0 28 34 60t80 32q62 0 106 -99t44 -208q0 -80 -19.5 -147t-53 -113t-78.5 -78t-95 -46.5t-104 -14.5q-163 0 -257 121t-94 317
q0 102 22 188t65.5 155t79.5 111t93 97q25 25 25 80v79z" />
    <glyph glyph-name="Agrave" unicode="&#xc0;" horiz-adv-x="1015" 
d="M492 788q-39 0 -65 27t-26 76q0 24 6.5 44.5t16.5 20.5q1 0 22 -10t56 -10q76 0 150 29.5t125.5 88.5t51.5 132q0 45 -29.5 78.5t-84.5 33.5q-77 0 -146 -35t-121 -94.5t-94 -137.5t-68.5 -165t-40.5 -174.5t-14 -169.5q0 -444 234 -444q50 0 92.5 23.5t73 59.5t57 96
t43.5 115.5t32.5 135.5t24 138.5t19.5 141.5q3 19 27.5 30t56.5 11q29 0 48.5 -13t14.5 -40q-26 -138 -26 -334q0 -300 18 -448q6 -9 6 -14q0 -19 -34 -34.5t-70 -15.5q-47 0 -58 35t-15 150v11.5t-0.5 11t-0.5 12.5q-48 -101 -136 -166.5t-192 -65.5q-378 0 -378 600
q0 170 49 337.5t133 300.5t209 215.5t266 82.5q123 0 194.5 -74t71.5 -186q0 -114 -73 -208.5t-187 -146t-239 -51.5zM670 1556l-193 211q-16 19 -16 35q0 27 30 46.5t54 19.5q32 0 59 -39l187 -215q16 -20 16 -31q0 -18 -26 -32.5t-66 -14.5q-33 0 -45 20z" />
    <glyph glyph-name="Aacute" unicode="&#xc1;" horiz-adv-x="1015" 
d="M492 788q-39 0 -65 27t-26 76q0 24 6.5 44.5t16.5 20.5q1 0 22 -10t56 -10q76 0 150 29.5t125.5 88.5t51.5 132q0 45 -29.5 78.5t-84.5 33.5q-77 0 -146 -35t-121 -94.5t-94 -137.5t-68.5 -165t-40.5 -174.5t-14 -169.5q0 -444 234 -444q50 0 92.5 23.5t73 59.5t57 96
t43.5 115.5t32.5 135.5t24 138.5t19.5 141.5q3 19 27.5 30t56.5 11q29 0 48.5 -13t14.5 -40q-26 -138 -26 -334q0 -300 18 -448q6 -9 6 -14q0 -19 -34 -34.5t-70 -15.5q-47 0 -58 35t-15 150v11.5t-0.5 11t-0.5 12.5q-48 -101 -136 -166.5t-192 -65.5q-378 0 -378 600
q0 170 49 337.5t133 300.5t209 215.5t266 82.5q123 0 194.5 -74t71.5 -186q0 -114 -73 -208.5t-187 -146t-239 -51.5zM854 1767l-182 -194q-22 -37 -68 -37q-39 0 -59.5 14t-20.5 33q0 10 17 31l186 215q3 17 24 28t44 11q31 0 57.5 -17.5t26.5 -42.5q0 -6 -3 -12.5
t-5.5 -10t-8.5 -10t-8 -8.5z" />
    <glyph glyph-name="Acircumflex" unicode="&#xc2;" horiz-adv-x="1015" 
d="M492 788q-39 0 -65 27t-26 76q0 24 6.5 44.5t16.5 20.5q1 0 22 -10t56 -10q76 0 150 29.5t125.5 88.5t51.5 132q0 45 -29.5 78.5t-84.5 33.5q-77 0 -146 -35t-121 -94.5t-94 -137.5t-68.5 -165t-40.5 -174.5t-14 -169.5q0 -444 234 -444q50 0 92.5 23.5t73 59.5t57 96
t43.5 115.5t32.5 135.5t24 138.5t19.5 141.5q3 19 27.5 30t56.5 11q29 0 48.5 -13t14.5 -40q-26 -138 -26 -334q0 -300 18 -448q6 -9 6 -14q0 -19 -34 -34.5t-70 -15.5q-47 0 -58 35t-15 150v11.5t-0.5 11t-0.5 12.5q-48 -101 -136 -166.5t-192 -65.5q-378 0 -378 600
q0 170 49 337.5t133 300.5t209 215.5t266 82.5q123 0 194.5 -74t71.5 -186q0 -114 -73 -208.5t-187 -146t-239 -51.5zM750 1810l135 -196q16 -20 16 -31q0 -18 -26 -32.5t-66 -14.5q-33 0 -45 20l-100 156l-89 -141q-7 -13 -10.5 -18t-14 -11t-24.5 -6q-28 0 -58 21t-30 42
q0 5 4 9l144 204q38 56 94 56q24 0 37.5 -8t17.5 -16t15 -34z" />
    <glyph glyph-name="Atilde" unicode="&#xc3;" horiz-adv-x="1015" 
d="M492 788q-39 0 -65 27t-26 76q0 24 6.5 44.5t16.5 20.5q1 0 22 -10t56 -10q76 0 150 29.5t125.5 88.5t51.5 132q0 45 -29.5 78.5t-84.5 33.5q-77 0 -146 -35t-121 -94.5t-94 -137.5t-68.5 -165t-40.5 -174.5t-14 -169.5q0 -444 234 -444q50 0 92.5 23.5t73 59.5t57 96
t43.5 115.5t32.5 135.5t24 138.5t19.5 141.5q3 19 27.5 30t56.5 11q29 0 48.5 -13t14.5 -40q-26 -138 -26 -334q0 -300 18 -448q6 -9 6 -14q0 -19 -34 -34.5t-70 -15.5q-47 0 -58 35t-15 150v11.5t-0.5 11t-0.5 12.5q-48 -101 -136 -166.5t-192 -65.5q-378 0 -378 600
q0 170 49 337.5t133 300.5t209 215.5t266 82.5q123 0 194.5 -74t71.5 -186q0 -114 -73 -208.5t-187 -146t-239 -51.5zM535 1604q0 -12 -15.5 -19.5t-32.5 -7.5q-27 0 -50 12t-23 29q0 65 45 125.5t110 60.5q37 0 69.5 -17t51 -37t41.5 -37t43 -17q41 0 41 63q0 21 17 31
t38 10q25 0 47.5 -12t22.5 -25q0 -91 -51 -143.5t-111 -52.5q-37 0 -71 17.5t-53.5 38.5t-37.5 38.5t-28 17.5q-26 0 -36.5 -20t-16.5 -55z" />
    <glyph glyph-name="Adieresis" unicode="&#xc4;" horiz-adv-x="1015" 
d="M492 788q-39 0 -65 27t-26 76q0 24 6.5 44.5t16.5 20.5q1 0 22 -10t56 -10q76 0 150 29.5t125.5 88.5t51.5 132q0 45 -29.5 78.5t-84.5 33.5q-77 0 -146 -35t-121 -94.5t-94 -137.5t-68.5 -165t-40.5 -174.5t-14 -169.5q0 -444 234 -444q50 0 92.5 23.5t73 59.5t57 96
t43.5 115.5t32.5 135.5t24 138.5t19.5 141.5q3 19 27.5 30t56.5 11q29 0 48.5 -13t14.5 -40q-26 -138 -26 -334q0 -300 18 -448q6 -9 6 -14q0 -19 -34 -34.5t-70 -15.5q-47 0 -58 35t-15 150v11.5t-0.5 11t-0.5 12.5q-48 -101 -136 -166.5t-192 -65.5q-378 0 -378 600
q0 170 49 337.5t133 300.5t209 215.5t266 82.5q123 0 194.5 -74t71.5 -186q0 -114 -73 -208.5t-187 -146t-239 -51.5zM426 1673q0 40 28 68t68 28t68 -28t28 -68t-28 -68t-68 -28t-68 28t-28 68zM721 1673q0 40 28 68t68 28t68 -28t28 -68t-28 -68t-68 -28t-68 28t-28 68z
" />
    <glyph glyph-name="Aring" unicode="&#xc5;" horiz-adv-x="1015" 
d="M492 788q-39 0 -65 27t-26 76q0 24 6.5 44.5t16.5 20.5q1 0 22 -10t56 -10q76 0 150 29.5t125.5 88.5t51.5 132q0 45 -29.5 78.5t-84.5 33.5q-77 0 -146 -35t-121 -94.5t-94 -137.5t-68.5 -165t-40.5 -174.5t-14 -169.5q0 -444 234 -444q50 0 92.5 23.5t73 59.5t57 96
t43.5 115.5t32.5 135.5t24 138.5t19.5 141.5q3 19 27.5 30t56.5 11q29 0 48.5 -13t14.5 -40q-26 -138 -26 -334q0 -300 18 -448q6 -9 6 -14q0 -19 -34 -34.5t-70 -15.5q-47 0 -58 35t-15 150v11.5t-0.5 11t-0.5 12.5q-48 -101 -136 -166.5t-192 -65.5q-378 0 -378 600
q0 170 49 337.5t133 300.5t209 215.5t266 82.5q123 0 194.5 -74t71.5 -186q0 -114 -73 -208.5t-187 -146t-239 -51.5zM459 1726q0 88 61.5 149.5t149.5 61.5t149.5 -61.5t61.5 -149.5t-61.5 -149t-149.5 -61t-149.5 61t-61.5 149zM580 1726q0 -38 26 -64t64 -26
q37 0 63.5 26t26.5 64q0 37 -26.5 64t-63.5 27q-38 0 -64 -27t-26 -64z" />
    <glyph glyph-name="AE" unicode="&#xc6;" horiz-adv-x="1703" 
d="M1657 147q-14 -23 -32.5 -47.5t-57 -60t-83 -62t-112 -46t-141.5 -19.5q-89 0 -164.5 32.5t-126.5 92.5q4 -28 6 -43q6 -9 6 -14q0 -19 -34 -34.5t-70 -15.5q-47 0 -58 35t-15 150v11.5t-0.5 11t-0.5 12.5q-48 -101 -136 -166.5t-192 -65.5q-378 0 -378 600
q0 170 49 337.5t133 300.5t209 215.5t266 82.5q115 0 185.5 -66t78.5 -169q78 112 192.5 180.5t241.5 68.5q136 0 213.5 -76.5t77.5 -193.5q0 -105 -52 -203t-140 -159.5t-187 -61.5q-45 0 -78.5 23.5t-33.5 74.5q0 25 6 49.5t16 24.5q1 0 22 -10t56 -10q97 0 163 85t66 189
q0 54 -35 82.5t-94 28.5q-99 0 -188.5 -61.5t-141 -156t-51.5 -192.5q0 -109 66.5 -188t140.5 -86q6 2 19 2q35 0 35 -49q0 -35 -16 -70.5t-34 -36.5q-37 -4 -71.5 -16.5t-69.5 -36.5t-56.5 -67.5t-21.5 -100.5q0 -78 57 -128t144 -50q61 0 115 18t90.5 45.5t60.5 54
t35 50.5q14 34 43 34q31 0 57.5 -32t26.5 -68q0 -17 -6 -29zM492 788q-39 0 -65 27t-26 76q0 24 6.5 44.5t16.5 20.5q1 0 22 -10t56 -10q76 0 150 29.5t125.5 88.5t51.5 132q0 45 -29.5 78.5t-84.5 33.5q-77 0 -146 -35t-121 -94.5t-94 -137.5t-68.5 -165t-40.5 -174.5
t-14 -169.5q0 -444 234 -444q50 0 92.5 23.5t73 59.5t57 96t43.5 115.5t32.5 135.5t24 138.5t19.5 141.5q3 18 24.5 28.5t51.5 12.5q-4 36 -4 62q0 35 2 53q-72 -72 -175.5 -114t-213.5 -42zM928 442v-2q46 71 129 117q-77 49 -119 113q-10 -102 -10 -228z" />
    <glyph glyph-name="Ccedilla" unicode="&#xc7;" horiz-adv-x="999" 
d="M463 852q56 0 122 29.5t121 76.5t91.5 111t36.5 127q0 43 -30.5 79t-94.5 36q-66 0 -129 -32t-115 -87t-96 -129t-74 -156.5t-47 -170.5t-17 -171q0 -100 17.5 -185.5t53.5 -156.5t100 -112t149 -41q36 0 70.5 6.5t61.5 17.5t51.5 24t42.5 26t31 23.5t20 18.5l8 7
q28 47 71 17q35 -25 44 -71q7 -35 -11 -53q-151 -151 -356 -168l-19 -53q50 -9 85.5 -30t51.5 -48.5t22.5 -51t6.5 -48.5q0 -30 -12 -62t-36.5 -63t-69.5 -50.5t-103 -19.5q-87 0 -123.5 21t-36.5 67q0 18 8.5 37t20.5 12q37 -18 108 -18q54 0 86.5 23.5t32.5 64.5
q0 33 -26 46t-57 12t-57 11t-26 44q0 6 29 108q-189 28 -295 199.5t-106 445.5q0 120 29.5 246t88 241.5t137.5 207t186.5 146t225.5 54.5q115 0 187.5 -70.5t72.5 -199.5q0 -120 -88.5 -234t-214 -180.5t-239.5 -66.5q-39 0 -65 25t-26 73q0 24 6.5 44.5t16.5 20.5
q1 0 22 -10t56 -10z" />
    <glyph glyph-name="Egrave" unicode="&#xc8;" horiz-adv-x="913" 
d="M866 147q-14 -23 -32.5 -47.5t-57 -60t-83 -62t-112 -46t-141.5 -19.5q-153 0 -256.5 90.5t-103.5 245.5q0 106 53 186.5t133 122.5q-178 109 -178 334q0 101 43.5 204.5t116 186t175 134.5t210.5 52q136 0 213.5 -76.5t77.5 -193.5q0 -105 -52 -203t-140 -159.5
t-187 -61.5q-45 0 -79 23.5t-34 74.5q0 25 6.5 49.5t16.5 24.5q1 0 21.5 -10t55.5 -10q97 0 163.5 85t66.5 189q0 54 -35 82.5t-94 28.5q-99 0 -188.5 -61.5t-141 -156t-51.5 -192.5q0 -109 66.5 -188t140.5 -86q6 2 18 2q35 0 35 -49q0 -35 -15.5 -70.5t-33.5 -36.5
q-37 -4 -71.5 -16.5t-69.5 -36.5t-56.5 -67.5t-21.5 -100.5q0 -78 56.5 -128t143.5 -50q61 0 115 18t90.5 45.5t60.5 54t35 50.5q14 34 43 34q31 0 57.5 -32t26.5 -68q0 -17 -6 -29zM592 1571l-193 211q-16 19 -16 35q0 27 30 46t54 19q32 0 59 -39l187 -215q16 -20 16 -31
q0 -18 -26 -32.5t-66 -14.5q-32 0 -45 21z" />
    <glyph glyph-name="Eacute" unicode="&#xc9;" horiz-adv-x="913" 
d="M866 147q-14 -23 -32.5 -47.5t-57 -60t-83 -62t-112 -46t-141.5 -19.5q-153 0 -256.5 90.5t-103.5 245.5q0 106 53 186.5t133 122.5q-178 109 -178 334q0 101 43.5 204.5t116 186t175 134.5t210.5 52q136 0 213.5 -76.5t77.5 -193.5q0 -105 -52 -203t-140 -159.5
t-187 -61.5q-45 0 -79 23.5t-34 74.5q0 25 6.5 49.5t16.5 24.5q1 0 21.5 -10t55.5 -10q97 0 163.5 85t66.5 189q0 54 -35 82.5t-94 28.5q-99 0 -188.5 -61.5t-141 -156t-51.5 -192.5q0 -109 66.5 -188t140.5 -86q6 2 18 2q35 0 35 -49q0 -35 -15.5 -70.5t-33.5 -36.5
q-37 -4 -71.5 -16.5t-69.5 -36.5t-56.5 -67.5t-21.5 -100.5q0 -78 56.5 -128t143.5 -50q61 0 115 18t90.5 45.5t60.5 54t35 50.5q14 34 43 34q31 0 57.5 -32t26.5 -68q0 -17 -6 -29zM776 1782l-182 -195q-22 -37 -68 -37q-39 0 -59.5 14t-20.5 33q0 10 17 31l186 215
q3 17 24 28t44 11q31 0 57.5 -17t26.5 -42q0 -6 -3 -12.5t-5.5 -10t-8.5 -10t-8 -8.5z" />
    <glyph glyph-name="Ecircumflex" unicode="&#xca;" horiz-adv-x="913" 
d="M866 147q-14 -23 -32.5 -47.5t-57 -60t-83 -62t-112 -46t-141.5 -19.5q-153 0 -256.5 90.5t-103.5 245.5q0 106 53 186.5t133 122.5q-178 109 -178 334q0 101 43.5 204.5t116 186t175 134.5t210.5 52q136 0 213.5 -76.5t77.5 -193.5q0 -105 -52 -203t-140 -159.5
t-187 -61.5q-45 0 -79 23.5t-34 74.5q0 25 6.5 49.5t16.5 24.5q1 0 21.5 -10t55.5 -10q97 0 163.5 85t66.5 189q0 54 -35 82.5t-94 28.5q-99 0 -188.5 -61.5t-141 -156t-51.5 -192.5q0 -109 66.5 -188t140.5 -86q6 2 18 2q35 0 35 -49q0 -35 -15.5 -70.5t-33.5 -36.5
q-37 -4 -71.5 -16.5t-69.5 -36.5t-56.5 -67.5t-21.5 -100.5q0 -78 56.5 -128t143.5 -50q61 0 115 18t90.5 45.5t60.5 54t35 50.5q14 34 43 34q31 0 57.5 -32t26.5 -68q0 -17 -6 -29zM672 1825l135 -197q16 -20 16 -31q0 -18 -26 -32.5t-66 -14.5q-32 0 -45 21l-100 155
l-88 -141q-7 -13 -10.5 -18t-14 -11t-24.5 -6q-28 0 -58.5 21.5t-30.5 42.5q0 3 5 8l143 205q37 55 94 55q24 0 37 -7.5t18 -16t15 -33.5z" />
    <glyph glyph-name="Edieresis" unicode="&#xcb;" horiz-adv-x="913" 
d="M866 147q-14 -23 -32.5 -47.5t-57 -60t-83 -62t-112 -46t-141.5 -19.5q-153 0 -256.5 90.5t-103.5 245.5q0 106 53 186.5t133 122.5q-178 109 -178 334q0 101 43.5 204.5t116 186t175 134.5t210.5 52q136 0 213.5 -76.5t77.5 -193.5q0 -105 -52 -203t-140 -159.5
t-187 -61.5q-45 0 -79 23.5t-34 74.5q0 25 6.5 49.5t16.5 24.5q1 0 21.5 -10t55.5 -10q97 0 163.5 85t66.5 189q0 54 -35 82.5t-94 28.5q-99 0 -188.5 -61.5t-141 -156t-51.5 -192.5q0 -109 66.5 -188t140.5 -86q6 2 18 2q35 0 35 -49q0 -35 -15.5 -70.5t-33.5 -36.5
q-37 -4 -71.5 -16.5t-69.5 -36.5t-56.5 -67.5t-21.5 -100.5q0 -78 56.5 -128t143.5 -50q61 0 115 18t90.5 45.5t60.5 54t35 50.5q14 34 43 34q31 0 57.5 -32t26.5 -68q0 -17 -6 -29zM348 1688q0 40 28 68t68 28t68.5 -28t28.5 -68t-28.5 -68.5t-68.5 -28.5t-68 28.5
t-28 68.5zM643 1688q0 40 28 68t68 28t68.5 -28t28.5 -68t-28.5 -68.5t-68.5 -28.5t-68 28.5t-28 68.5z" />
    <glyph glyph-name="Igrave" unicode="&#xcc;" horiz-adv-x="811" 
d="M694 1348v-1358q0 -47 -57 -47q-36 0 -69 18t-33 41v1272q-147 -18 -241.5 -125.5t-94.5 -292.5q0 -75 22 -140.5t46.5 -96.5t39.5 -31q5 0 11.5 7t11.5 7q14 0 14 -31q0 -66 -46 -110t-89 -12q-64 43 -118 154t-54 253q0 125 37 226t95.5 165.5t136 107.5t153.5 61
t153 18q33 0 57.5 -25t24.5 -61zM569 1536l-192 211q-17 20 -17 35q0 27 30 46t54 19q33 0 60 -39l186 -215q17 -21 17 -30q0 -18 -26.5 -32.5t-66.5 -14.5q-33 0 -45 20z" />
    <glyph glyph-name="Iacute" unicode="&#xcd;" horiz-adv-x="811" 
d="M694 1348v-1358q0 -47 -57 -47q-36 0 -69 18t-33 41v1272q-147 -18 -241.5 -125.5t-94.5 -292.5q0 -75 22 -140.5t46.5 -96.5t39.5 -31q5 0 11.5 7t11.5 7q14 0 14 -31q0 -66 -46 -110t-89 -12q-64 43 -118 154t-54 253q0 125 37 226t95.5 165.5t136 107.5t153.5 61
t153 18q33 0 57.5 -25t24.5 -61zM754 1747l-183 -195q-21 -36 -67 -36q-39 0 -59.5 14t-20.5 33q0 10 16 30l187 215q3 17 23.5 28t43.5 11q31 0 57.5 -17t26.5 -42q0 -6 -2.5 -12.5t-5 -10t-9 -10t-7.5 -8.5z" />
    <glyph glyph-name="Icircumflex" unicode="&#xce;" horiz-adv-x="811" 
d="M694 1348v-1358q0 -47 -57 -47q-36 0 -69 18t-33 41v1272q-147 -18 -241.5 -125.5t-94.5 -292.5q0 -75 22 -140.5t46.5 -96.5t39.5 -31q5 0 11.5 7t11.5 7q14 0 14 -31q0 -66 -46 -110t-89 -12q-64 43 -118 154t-54 253q0 125 37 226t95.5 165.5t136 107.5t153.5 61
t153 18q33 0 57.5 -25t24.5 -61zM649 1790l135 -197q17 -21 17 -30q0 -18 -26 -32.5t-66 -14.5q-33 0 -45 20l-101 156l-88 -142q-7 -12 -10.5 -17.5t-13.5 -11t-25 -5.5q-28 0 -58 21t-30 42q0 4 4 8l143 205q37 55 95 55q22 0 35 -6.5t17.5 -14.5t13.5 -29q1 -2 1.5 -3.5
t1.5 -3.5z" />
    <glyph glyph-name="Idieresis" unicode="&#xcf;" horiz-adv-x="811" 
d="M694 1348v-1358q0 -47 -57 -47q-36 0 -69 18t-33 41v1272q-147 -18 -241.5 -125.5t-94.5 -292.5q0 -75 22 -140.5t46.5 -96.5t39.5 -31q5 0 11.5 7t11.5 7q14 0 14 -31q0 -66 -46 -110t-89 -12q-64 43 -118 154t-54 253q0 125 37 226t95.5 165.5t136 107.5t153.5 61
t153 18q33 0 57.5 -25t24.5 -61zM326 1653q0 40 28 68t68 28t68 -28t28 -68t-28 -68.5t-68 -28.5t-68 28.5t-28 68.5zM621 1653q0 40 28 68t68 28t68 -28t28 -68t-28 -68.5t-68 -28.5t-68 28.5t-28 68.5z" />
    <glyph glyph-name="Eth" unicode="&#xd0;" horiz-adv-x="1247" 
d="M350 735h53v312q0 23 -4 42t-4 23q0 15 16 25t38 10q50 0 82 -26t32 -64v-322h139q25 3 35.5 -11t10.5 -42q0 -31 -15.5 -57.5t-38.5 -26.5q-6 0 -10 2h-121v-348q0 -87 27.5 -129.5t87.5 -42.5q58 0 118.5 56.5t109 151.5t79.5 232t31 285q0 106 -23 195.5t-69 159.5
t-122 109.5t-175 39.5q-98 0 -175 -27.5t-124 -72.5t-77.5 -107t-42 -124.5t-11.5 -131.5q0 -88 27 -167t49 -111t32 -40q31 8 31 -28q0 -41 -31.5 -81t-66.5 -40q-18 0 -31 10q-5 3 -20.5 19.5t-42 56t-49.5 88.5t-40.5 124.5t-17.5 156.5q0 281 164.5 456.5t431.5 175.5
q111 0 203 -35.5t154.5 -96.5t106 -143.5t63.5 -175.5t20 -194q0 -209 -48.5 -384.5t-124.5 -285t-165 -169.5t-176 -60q-140 0 -201.5 85.5t-61.5 254.5v338h-73q-54 0 -54 47q0 41 19.5 64.5t54.5 23.5z" />
    <glyph glyph-name="Ntilde" unicode="&#xd1;" horiz-adv-x="1261" 
d="M694 1348v-168q66 114 147 184t165 70q52 0 95.5 -43.5t43.5 -135.5v-1194q0 -52 15.5 -87t33.5 -47t33.5 -24.5t15.5 -25.5q0 -25 -29.5 -47.5t-74.5 -22.5q-25 0 -49.5 11t-48.5 34t-39.5 68.5t-16.5 106.5v1216q0 29 -18 29q-23 0 -68.5 -53t-91 -127t-79.5 -162.5
t-34 -149.5v-790q0 -47 -57 -47q-36 0 -69 18t-33 41v1272q-147 -18 -241.5 -125.5t-94.5 -292.5q0 -75 22 -140.5t46.5 -96.5t39.5 -31q6 0 17 4t16 4q16 0 16 -25q0 -52 -35 -93.5t-75 -41.5q-27 0 -62.5 32.5t-68.5 86.5t-55.5 135t-22.5 166q0 125 37 226t95.5 165.5
t136 107.5t153.5 61t153 18q33 0 57.5 -25t24.5 -61zM666 1583q0 -12 -15.5 -19.5t-32.5 -7.5q-27 0 -50 12t-23 29q0 66 45 126.5t110 60.5q38 0 70 -17t50.5 -37.5t41 -37.5t43.5 -17q41 0 41 64q0 21 17 31t38 10q25 0 47.5 -12t22.5 -25q0 -91 -51 -144t-111 -53
q-37 0 -71 17.5t-53.5 39t-37.5 39t-28 17.5q-26 0 -36.5 -20t-16.5 -56z" />
    <glyph glyph-name="Ograve" unicode="&#xd2;" horiz-adv-x="1042" 
d="M801 696q0 60 -6 125h-39q-131 0 -219 71t-88 187q0 81 52 138t134 57q105 0 174 -71.5t106 -190.5q26 16 58 51q9 27 24 27q22 0 44 -35.5t22 -75.5q0 -72 -115 -121q13 -93 13 -162q0 -151 -25.5 -276.5t-69 -212.5t-103 -147.5t-127 -88.5t-140.5 -28
q-145 0 -249.5 91t-155 240t-50.5 336q0 142 23.5 266.5t58.5 208.5t83 155t88.5 110.5t85 70.5t62 39.5t29.5 12.5t23 4q31 0 51 -34.5t20 -72.5q0 -47 -26 -47q-7 0 -11 2q-23 -13 -30.5 -17.5t-38.5 -26t-47.5 -38.5t-47 -51.5t-49 -69t-42 -87.5t-36.5 -110t-22.5 -133
t-9.5 -161q0 -134 25.5 -239.5t68.5 -168t95 -95t108 -32.5q131 0 214.5 159.5t84.5 440.5zM750 963h24q-16 74 -48 118.5t-77 44.5q-51 0 -51 -51q0 -42 39.5 -77t112.5 -35zM580 1556l-193 211q-16 19 -16 35q0 27 30 46.5t54 19.5q32 0 59 -39l186 -215q17 -21 17 -31
q0 -18 -26 -32.5t-66 -14.5q-33 0 -45 20z" />
    <glyph glyph-name="Oacute" unicode="&#xd3;" horiz-adv-x="1042" 
d="M801 696q0 60 -6 125h-39q-131 0 -219 71t-88 187q0 81 52 138t134 57q105 0 174 -71.5t106 -190.5q26 16 58 51q9 27 24 27q22 0 44 -35.5t22 -75.5q0 -72 -115 -121q13 -93 13 -162q0 -151 -25.5 -276.5t-69 -212.5t-103 -147.5t-127 -88.5t-140.5 -28
q-145 0 -249.5 91t-155 240t-50.5 336q0 142 23.5 266.5t58.5 208.5t83 155t88.5 110.5t85 70.5t62 39.5t29.5 12.5t23 4q31 0 51 -34.5t20 -72.5q0 -47 -26 -47q-7 0 -11 2q-23 -13 -30.5 -17.5t-38.5 -26t-47.5 -38.5t-47 -51.5t-49 -69t-42 -87.5t-36.5 -110t-22.5 -133
t-9.5 -161q0 -134 25.5 -239.5t68.5 -168t95 -95t108 -32.5q131 0 214.5 159.5t84.5 440.5zM750 963h24q-16 74 -48 118.5t-77 44.5q-51 0 -51 -51q0 -42 39.5 -77t112.5 -35zM764 1767l-182 -194q-22 -37 -68 -37q-39 0 -59.5 14t-20.5 33q0 10 17 31l186 215q3 17 24 28
t44 11q31 0 57 -17.5t26 -42.5q0 -6 -2.5 -12.5t-5 -10t-9 -10t-7.5 -8.5z" />
    <glyph glyph-name="Ocircumflex" unicode="&#xd4;" horiz-adv-x="1042" 
d="M801 696q0 60 -6 125h-39q-131 0 -219 71t-88 187q0 81 52 138t134 57q105 0 174 -71.5t106 -190.5q26 16 58 51q9 27 24 27q22 0 44 -35.5t22 -75.5q0 -72 -115 -121q13 -93 13 -162q0 -151 -25.5 -276.5t-69 -212.5t-103 -147.5t-127 -88.5t-140.5 -28
q-145 0 -249.5 91t-155 240t-50.5 336q0 142 23.5 266.5t58.5 208.5t83 155t88.5 110.5t85 70.5t62 39.5t29.5 12.5t23 4q31 0 51 -34.5t20 -72.5q0 -47 -26 -47q-7 0 -11 2q-23 -13 -30.5 -17.5t-38.5 -26t-47.5 -38.5t-47 -51.5t-49 -69t-42 -87.5t-36.5 -110t-22.5 -133
t-9.5 -161q0 -134 25.5 -239.5t68.5 -168t95 -95t108 -32.5q131 0 214.5 159.5t84.5 440.5zM750 963h24q-16 74 -48 118.5t-77 44.5q-51 0 -51 -51q0 -42 39.5 -77t112.5 -35zM659 1810l136 -196q16 -20 16 -31q0 -18 -26 -32.5t-66 -14.5q-33 0 -45 20l-101 156l-88 -141
q-7 -13 -10.5 -18t-14 -11t-24.5 -6q-28 0 -58 21t-30 42q0 5 4 9l144 204q38 56 94 56q40 0 54 -25q4 -6 15 -33z" />
    <glyph glyph-name="Otilde" unicode="&#xd5;" horiz-adv-x="1042" 
d="M801 696q0 60 -6 125h-39q-131 0 -219 71t-88 187q0 81 52 138t134 57q105 0 174 -71.5t106 -190.5q26 16 58 51q9 27 24 27q22 0 44 -35.5t22 -75.5q0 -72 -115 -121q13 -93 13 -162q0 -151 -25.5 -276.5t-69 -212.5t-103 -147.5t-127 -88.5t-140.5 -28
q-145 0 -249.5 91t-155 240t-50.5 336q0 142 23.5 266.5t58.5 208.5t83 155t88.5 110.5t85 70.5t62 39.5t29.5 12.5t23 4q31 0 51 -34.5t20 -72.5q0 -47 -26 -47q-7 0 -11 2q-23 -13 -30.5 -17.5t-38.5 -26t-47.5 -38.5t-47 -51.5t-49 -69t-42 -87.5t-36.5 -110t-22.5 -133
t-9.5 -161q0 -134 25.5 -239.5t68.5 -168t95 -95t108 -32.5q131 0 214.5 159.5t84.5 440.5zM750 963h24q-16 74 -48 118.5t-77 44.5q-51 0 -51 -51q0 -42 39.5 -77t112.5 -35zM444 1604q0 -12 -15 -19.5t-32 -7.5q-27 0 -50 12t-23 29q0 65 45 125.5t110 60.5q37 0 69.5 -17
t51 -37t41.5 -37t43 -17q41 0 41 63q0 21 17 31t38 10q25 0 47.5 -12t22.5 -25q0 -91 -51 -143.5t-111 -52.5q-37 0 -71 17.5t-53.5 38.5t-37.5 38.5t-28 17.5q-18 0 -30 -12.5t-16 -26.5t-8 -36z" />
    <glyph glyph-name="Odieresis" unicode="&#xd6;" horiz-adv-x="1042" 
d="M801 696q0 60 -6 125h-39q-131 0 -219 71t-88 187q0 81 52 138t134 57q105 0 174 -71.5t106 -190.5q26 16 58 51q9 27 24 27q22 0 44 -35.5t22 -75.5q0 -72 -115 -121q13 -93 13 -162q0 -151 -25.5 -276.5t-69 -212.5t-103 -147.5t-127 -88.5t-140.5 -28
q-145 0 -249.5 91t-155 240t-50.5 336q0 142 23.5 266.5t58.5 208.5t83 155t88.5 110.5t85 70.5t62 39.5t29.5 12.5t23 4q31 0 51 -34.5t20 -72.5q0 -47 -26 -47q-7 0 -11 2q-23 -13 -30.5 -17.5t-38.5 -26t-47.5 -38.5t-47 -51.5t-49 -69t-42 -87.5t-36.5 -110t-22.5 -133
t-9.5 -161q0 -134 25.5 -239.5t68.5 -168t95 -95t108 -32.5q131 0 214.5 159.5t84.5 440.5zM750 963h24q-16 74 -48 118.5t-77 44.5q-51 0 -51 -51q0 -42 39.5 -77t112.5 -35zM336 1673q0 40 28 68t68 28t68 -28t28 -68t-28 -68t-68 -28t-68 28t-28 68zM631 1673q0 40 28 68
t68 28t68 -28t28 -68t-28 -68t-68 -28t-68 28t-28 68z" />
    <glyph glyph-name="multiply" unicode="&#xd7;" 
d="M223 940l197 -199l194 195q5 6 6.5 14.5t4 12.5t10.5 4q22 0 50 -38.5t28 -74.5q0 -20 -11 -31l-182 -182l197 -195q6 -6 6 -16q0 -27 -31 -64.5t-55 -37.5q-6 0 -12 6l-207 205l-201 -201q-6 -6 -18 -6q-26 0 -53 29.5t-27 62.5q0 19 14 33l184 184l-182 184
q-5 5 -15 10t-17 10t-7 11q0 26 35 60t66 34q16 0 26 -10z" />
    <glyph glyph-name="Oslash" unicode="&#xd8;" horiz-adv-x="1042" 
d="M78 -10l80 145q-117 181 -117 475q0 142 23.5 266.5t58.5 208.5t83 155t88.5 110.5t85 70.5t62 39.5t29.5 12.5t23 4q31 0 51 -34.5t20 -72.5q0 -47 -26 -47q-7 0 -11 2q-23 -13 -30.5 -17.5t-38.5 -26t-47.5 -38.5t-47 -51.5t-49 -69t-42 -87.5t-36.5 -110t-22.5 -133
t-9.5 -161q0 -190 49 -320l444 803q-22 19 -49 19q-28 0 -41.5 -18.5t-13.5 -39.5q0 -15 3.5 -24t7.5 -11.5t7.5 -6t3.5 -7.5q0 -15 -37 -44.5t-69 -29.5q-28 0 -44.5 44t-16.5 83q0 81 52 138t134 57q71 0 131 -37l70 125q2 3 1.5 11t0.5 13q3 14 22 11q31 -4 70.5 -31.5
t34.5 -60.5q0 -11 -4 -13l-93 -168q49 -85 71 -200.5t22 -227.5q0 -151 -25.5 -276.5t-69 -212.5t-103 -147.5t-127 -88.5t-140.5 -28q-135 0 -238 80l-68 -121q-11 -20 -38 -13q-29 3 -57.5 30t-24.5 54q3 10 8 17zM801 696q0 148 -25 262l-436 -786q73 -76 162 -76
q130 0 214.5 160.5t84.5 439.5z" />
    <glyph glyph-name="Ugrave" unicode="&#xd9;" horiz-adv-x="1261" 
d="M985 193v4q-68 -115 -148 -184.5t-163 -69.5q-52 0 -95.5 43.5t-43.5 134.5v1153q-147 -18 -241.5 -125.5t-94.5 -292.5q0 -75 22 -140.5t46.5 -96.5t39.5 -31q6 0 17 4t16 4q16 0 16 -25q0 -65 -51.5 -109.5t-95.5 -12.5q-64 43 -118 154t-54 253q0 125 37 226
t95.5 165.5t136 107.5t153.5 61t153 18q33 0 57.5 -25t24.5 -61v-1215q0 -29 19 -29q31 0 96 75t120.5 185t55.5 191v778q0 23 -4 42.5t-4 23.5q0 15 15.5 25t37.5 10q50 0 82.5 -26.5t32.5 -64.5v-888q0 -301 18 -449q6 -9 6 -14q0 -19 -34 -34t-70 -15q-48 0 -63 58
q-12 42 -17 192zM825 1534l-192 211q-17 20 -17 35q0 27 30 46t54 19q33 0 60 -39l186 -215q17 -21 17 -30q0 -18 -26.5 -33t-66.5 -15q-32 0 -45 21z" />
    <glyph glyph-name="Uacute" unicode="&#xda;" horiz-adv-x="1261" 
d="M985 193v4q-68 -115 -148 -184.5t-163 -69.5q-52 0 -95.5 43.5t-43.5 134.5v1153q-147 -18 -241.5 -125.5t-94.5 -292.5q0 -75 22 -140.5t46.5 -96.5t39.5 -31q6 0 17 4t16 4q16 0 16 -25q0 -65 -51.5 -109.5t-95.5 -12.5q-64 43 -118 154t-54 253q0 125 37 226
t95.5 165.5t136 107.5t153.5 61t153 18q33 0 57.5 -25t24.5 -61v-1215q0 -29 19 -29q31 0 96 75t120.5 185t55.5 191v778q0 23 -4 42.5t-4 23.5q0 15 15.5 25t37.5 10q50 0 82.5 -26.5t32.5 -64.5v-888q0 -301 18 -449q6 -9 6 -14q0 -19 -34 -34t-70 -15q-48 0 -63 58
q-12 42 -17 192zM1010 1745l-183 -195q-22 -37 -67 -37q-39 0 -59.5 14.5t-20.5 33.5q0 10 16 30l187 215q3 17 23.5 28t43.5 11q31 0 57.5 -17t26.5 -42q0 -6 -2.5 -12.5t-5 -10t-9 -10t-7.5 -8.5z" />
    <glyph glyph-name="Ucircumflex" unicode="&#xdb;" horiz-adv-x="1261" 
d="M985 193v4q-68 -115 -148 -184.5t-163 -69.5q-52 0 -95.5 43.5t-43.5 134.5v1153q-147 -18 -241.5 -125.5t-94.5 -292.5q0 -75 22 -140.5t46.5 -96.5t39.5 -31q6 0 17 4t16 4q16 0 16 -25q0 -65 -51.5 -109.5t-95.5 -12.5q-64 43 -118 154t-54 253q0 125 37 226
t95.5 165.5t136 107.5t153.5 61t153 18q33 0 57.5 -25t24.5 -61v-1215q0 -29 19 -29q31 0 96 75t120.5 185t55.5 191v778q0 23 -4 42.5t-4 23.5q0 15 15.5 25t37.5 10q50 0 82.5 -26.5t32.5 -64.5v-888q0 -301 18 -449q6 -9 6 -14q0 -19 -34 -34t-70 -15q-48 0 -63 58
q-12 42 -17 192zM905 1788l135 -197q17 -21 17 -30q0 -18 -26.5 -33t-65.5 -15q-32 0 -45 21l-101 156l-88 -142q-7 -13 -10.5 -18t-14 -11t-24.5 -6q-28 0 -58 21.5t-30 42.5q0 4 4 8l143 205q37 55 95 55q22 0 35 -6.5t17.5 -14.5t13.5 -29q1 -2 1.5 -3.5t1.5 -3.5z" />
    <glyph glyph-name="Udieresis" unicode="&#xdc;" horiz-adv-x="1261" 
d="M985 193v4q-68 -115 -148 -184.5t-163 -69.5q-52 0 -95.5 43.5t-43.5 134.5v1153q-147 -18 -241.5 -125.5t-94.5 -292.5q0 -75 22 -140.5t46.5 -96.5t39.5 -31q6 0 17 4t16 4q16 0 16 -25q0 -65 -51.5 -109.5t-95.5 -12.5q-64 43 -118 154t-54 253q0 125 37 226
t95.5 165.5t136 107.5t153.5 61t153 18q33 0 57.5 -25t24.5 -61v-1215q0 -29 19 -29q31 0 96 75t120.5 185t55.5 191v778q0 23 -4 42.5t-4 23.5q0 15 15.5 25t37.5 10q50 0 82.5 -26.5t32.5 -64.5v-888q0 -301 18 -449q6 -9 6 -14q0 -19 -34 -34t-70 -15q-48 0 -63 58
q-12 42 -17 192zM582 1651q0 40 28 68t68 28t68 -28t28 -68t-28 -68.5t-68 -28.5t-68 28.5t-28 68.5zM877 1651q0 40 28 68t68 28t68 -28t28 -68t-28 -68.5t-68 -28.5t-68 28.5t-28 68.5z" />
    <glyph glyph-name="Yacute" unicode="&#xdd;" horiz-adv-x="1271" 
d="M1145 1343v-1353v-62q48 7 108 11q48 3 53 -44q4 -46 -28 -88q-24 -29 -51 -30q-30 0 -84 -4q-4 -79 -13 -143.5t-30 -133t-52.5 -115t-84 -76.5t-121.5 -30q-103 0 -166.5 69t-63.5 173q0 74 31 137t86 107.5t117.5 76t138.5 53.5v23v283q-68 -115 -148 -184.5
t-163 -69.5q-52 0 -95.5 43.5t-43.5 134.5v1153q-147 -18 -241.5 -125.5t-94.5 -292.5q0 -75 22 -140.5t46.5 -96.5t39.5 -31q6 0 17 4t16 4q16 0 16 -25q0 -65 -51.5 -109.5t-95.5 -12.5q-64 43 -118 154t-54 253q0 125 37 226t95.5 165.5t136 107.5t153.5 61t153 18
q33 0 57.5 -25t24.5 -61v-1215q0 -29 19 -29q31 0 96 75t120.5 185t55.5 191v778q0 23 -4 42.5t-4 23.5q0 15 15.5 25t37.5 10q50 0 82.5 -26.5t32.5 -64.5zM846 -567q116 0 135 307q-102 -31 -155.5 -87t-53.5 -132q0 -44 20.5 -66t53.5 -22zM1014 1747l-183 -195
q-21 -36 -67 -36q-39 0 -59.5 14t-20.5 33q0 10 16 30l187 215q3 17 23.5 28t43.5 11q31 0 57.5 -17t26.5 -42q0 -6 -2.5 -12.5t-5 -10t-9 -10t-7.5 -8.5z" />
    <glyph glyph-name="Thorn" unicode="&#xde;" horiz-adv-x="1181" 
d="M410 2v1014q-111 -39 -164 -116.5t-53 -176.5q0 -23 3 -44t8 -36.5t12 -30t14 -24t14 -17.5t12 -12.5t10 -8.5l4 -3q31 8 31 -29q0 -21 -16 -59t-44 -63t-55 -5q-19 14 -38.5 34.5t-47.5 59t-45.5 96.5t-17.5 124q0 171 99.5 294t273.5 175v159q0 23 -4.5 42.5t-4.5 23.5
q0 15 16 25t38 10q50 0 82 -26.5t32 -64.5v-139q54 4 84 4q222 0 358 -114.5t136 -296.5q0 -107 -48 -203t-128.5 -166.5t-184 -118t-217.5 -65.5v-254q0 -47 -57 -47q-36 0 -69 18t-33 41zM655 1055q-32 0 -86 -4v-656q45 4 97.5 20t110.5 48.5t104.5 76t77 108.5t30.5 140
q0 37 -11.5 73.5t-37.5 72t-63.5 62t-95 43t-126.5 16.5z" />
    <glyph glyph-name="germandbls" unicode="&#xdf;" horiz-adv-x="796" 
d="M549 1120q0 -67 -13 -126t-28 -92.5t-28 -69.5t-13 -62q0 -45 36.5 -107.5t80 -119t80 -138t36.5 -159.5q0 -46 -12 -96q129 31 170 149q20 55 47 55q25 0 49.5 -29.5t24.5 -52.5q0 -30 -29 -78.5t-65 -78.5q-108 -87 -260 -97q-65 -75 -174 -75q-76 0 -121 50.5
t-45 110.5q0 37 18 63t39 26q10 0 72.5 -36.5t93.5 -35.5q43 50 43 119q0 39 -23.5 91.5t-56.5 105t-65.5 105t-54 106t-19.5 93.5q2 47 33.5 167t31.5 218q0 62 -24.5 111t-71.5 49q-74 0 -74 -207v-1579q0 -35 -19.5 -56.5t-41.5 -27.5t-47 -6q-28 0 -37.5 14t-9.5 41
v1614q0 170 66 262.5t169 92.5q104 0 173 -97t69 -217z" />
    <glyph glyph-name="agrave" unicode="&#xe0;" horiz-adv-x="724" 
d="M651 78q93 0 137 221q6 30 20 45.5t30 15.5q25 0 48 -27.5t23 -56.5q0 -6 -2 -14q-12 -45 -27 -85.5t-40.5 -84.5t-56 -76t-74.5 -52.5t-95 -20.5q-104 0 -157 84q-73 -84 -176 -84q-116 0 -180 86.5t-64 222.5q0 124 41 229.5t109 175t155.5 108t181.5 38.5
q42 0 68 -23.5t26 -62.5q0 -26 -5.5 -36.5t-20.5 -10.5q-9 0 -29.5 2t-30.5 2q-61 0 -119 -26t-107.5 -76.5t-80 -135t-30.5 -190.5q0 -79 31 -123.5t85 -44.5q72 0 115 106v316q0 23 -4 42t-4 23q0 15 15.5 25t37.5 10q50 0 80.5 -26t30.5 -64v-338q0 -38 17.5 -66
t51.5 -28zM428 926l-192 211q-17 20 -17 34q0 27 30 46.5t54 19.5q32 0 59 -39l187 -215q16 -20 16 -31q0 -18 -26 -32.5t-66 -14.5q-32 0 -45 21z" />
    <glyph glyph-name="aacute" unicode="&#xe1;" horiz-adv-x="724" 
d="M651 78q93 0 137 221q6 30 20 45.5t30 15.5q25 0 48 -27.5t23 -56.5q0 -6 -2 -14q-12 -45 -27 -85.5t-40.5 -84.5t-56 -76t-74.5 -52.5t-95 -20.5q-104 0 -157 84q-73 -84 -176 -84q-116 0 -180 86.5t-64 222.5q0 124 41 229.5t109 175t155.5 108t181.5 38.5
q42 0 68 -23.5t26 -62.5q0 -26 -5.5 -36.5t-20.5 -10.5q-9 0 -29.5 2t-30.5 2q-61 0 -119 -26t-107.5 -76.5t-80 -135t-30.5 -190.5q0 -79 31 -123.5t85 -44.5q72 0 115 106v316q0 23 -4 42t-4 23q0 15 15.5 25t37.5 10q50 0 80.5 -26t30.5 -64v-338q0 -38 17.5 -66
t51.5 -28zM612 1137l-182 -195q-22 -37 -68 -37q-39 0 -59 14t-20 33q0 11 16 31l186 215q3 17 24 28t44 11q31 0 57.5 -17t26.5 -42q0 -6 -3 -12.5t-5.5 -10t-8.5 -10t-8 -8.5z" />
    <glyph glyph-name="acircumflex" unicode="&#xe2;" horiz-adv-x="724" 
d="M651 78q93 0 137 221q6 30 20 45.5t30 15.5q25 0 48 -27.5t23 -56.5q0 -6 -2 -14q-12 -45 -27 -85.5t-40.5 -84.5t-56 -76t-74.5 -52.5t-95 -20.5q-104 0 -157 84q-73 -84 -176 -84q-116 0 -180 86.5t-64 222.5q0 124 41 229.5t109 175t155.5 108t181.5 38.5
q42 0 68 -23.5t26 -62.5q0 -26 -5.5 -36.5t-20.5 -10.5q-9 0 -29.5 2t-30.5 2q-61 0 -119 -26t-107.5 -76.5t-80 -135t-30.5 -190.5q0 -79 31 -123.5t85 -44.5q72 0 115 106v316q0 23 -4 42t-4 23q0 15 15.5 25t37.5 10q50 0 80.5 -26t30.5 -64v-338q0 -38 17.5 -66
t51.5 -28zM508 1180l135 -197q16 -20 16 -31q0 -18 -26 -32.5t-66 -14.5q-32 0 -45 21l-100 155l-88 -141q-7 -13 -10.5 -18t-14 -11t-24.5 -6q-28 0 -58 21.5t-30 42.5q0 4 4 8l143 205q37 55 94 55q24 0 37 -7.5t18 -16t15 -33.5z" />
    <glyph glyph-name="atilde" unicode="&#xe3;" horiz-adv-x="724" 
d="M651 78q93 0 137 221q6 30 20 45.5t30 15.5q25 0 48 -27.5t23 -56.5q0 -6 -2 -14q-12 -45 -27 -85.5t-40.5 -84.5t-56 -76t-74.5 -52.5t-95 -20.5q-104 0 -157 84q-73 -84 -176 -84q-116 0 -180 86.5t-64 222.5q0 124 41 229.5t109 175t155.5 108t181.5 38.5
q42 0 68 -23.5t26 -62.5q0 -26 -5.5 -36.5t-20.5 -10.5q-9 0 -29.5 2t-30.5 2q-61 0 -119 -26t-107.5 -76.5t-80 -135t-30.5 -190.5q0 -79 31 -123.5t85 -44.5q72 0 115 106v316q0 23 -4 42t-4 23q0 15 15.5 25t37.5 10q50 0 80.5 -26t30.5 -64v-338q0 -38 17.5 -66
t51.5 -28zM293 973q0 -12 -15 -19.5t-32 -7.5q-27 0 -50.5 12t-23.5 29q0 65 45.5 126t110.5 61q38 0 70 -17t50 -37.5t41 -37.5t43 -17q41 0 41 63q0 21 17.5 31t38.5 10q25 0 47 -11.5t22 -24.5q0 -91 -51 -144t-110 -53q-37 0 -71 17.5t-54 39t-38 39t-28 17.5
q-26 0 -36.5 -20t-16.5 -56z" />
    <glyph glyph-name="adieresis" unicode="&#xe4;" horiz-adv-x="724" 
d="M651 78q93 0 137 221q6 30 20 45.5t30 15.5q25 0 48 -27.5t23 -56.5q0 -6 -2 -14q-12 -45 -27 -85.5t-40.5 -84.5t-56 -76t-74.5 -52.5t-95 -20.5q-104 0 -157 84q-73 -84 -176 -84q-116 0 -180 86.5t-64 222.5q0 124 41 229.5t109 175t155.5 108t181.5 38.5
q42 0 68 -23.5t26 -62.5q0 -26 -5.5 -36.5t-20.5 -10.5q-9 0 -29.5 2t-30.5 2q-61 0 -119 -26t-107.5 -76.5t-80 -135t-30.5 -190.5q0 -79 31 -123.5t85 -44.5q72 0 115 106v316q0 23 -4 42t-4 23q0 15 15.5 25t37.5 10q50 0 80.5 -26t30.5 -64v-338q0 -38 17.5 -66
t51.5 -28zM184 1042q0 40 28.5 68.5t68.5 28.5t68 -28.5t28 -68.5t-28 -68t-68 -28t-68.5 28t-28.5 68zM479 1042q0 40 28 68.5t68 28.5t68.5 -28.5t28.5 -68.5t-28.5 -68t-68.5 -28t-68 28t-28 68z" />
    <glyph glyph-name="aring" unicode="&#xe5;" horiz-adv-x="724" 
d="M651 78q93 0 137 221q6 30 20 45.5t30 15.5q25 0 48 -27.5t23 -56.5q0 -6 -2 -14q-12 -45 -27 -85.5t-40.5 -84.5t-56 -76t-74.5 -52.5t-95 -20.5q-104 0 -157 84q-73 -84 -176 -84q-116 0 -180 86.5t-64 222.5q0 124 41 229.5t109 175t155.5 108t181.5 38.5
q42 0 68 -23.5t26 -62.5q0 -26 -5.5 -36.5t-20.5 -10.5q-9 0 -29.5 2t-30.5 2q-61 0 -119 -26t-107.5 -76.5t-80 -135t-30.5 -190.5q0 -79 31 -123.5t85 -44.5q72 0 115 106v316q0 23 -4 42t-4 23q0 15 15.5 25t37.5 10q50 0 80.5 -26t30.5 -64v-338q0 -38 17.5 -66
t51.5 -28zM217 1096q0 88 61.5 149.5t149.5 61.5t149.5 -61.5t61.5 -149.5t-61.5 -149.5t-149.5 -61.5t-149.5 61.5t-61.5 149.5zM338 1096q0 -38 26 -64t64 -26q37 0 63.5 26t26.5 64q0 37 -26.5 63.5t-63.5 26.5q-38 0 -64 -26.5t-26 -63.5z" />
    <glyph glyph-name="ae" unicode="&#xe6;" horiz-adv-x="985" 
d="M264 -57q-102 0 -164.5 88t-62.5 221q0 124 41 229.5t109 175t155.5 108t181.5 38.5q59 0 84 -43q58 43 127 43q85 0 135 -57t50 -150q0 -78 -33.5 -155t-104.5 -142.5t-166 -93.5q53 -127 191 -127q57 0 102.5 22t74 61t46 81.5t27.5 93.5q8 43 41 51.5t60.5 -14.5
t23.5 -58t-14 -71.5t-28.5 -80.5t-49.5 -81.5t-72 -69.5t-101.5 -50.5t-132.5 -18.5q-119 0 -209 69q-2 -32 -14 -50.5t-45 -18.5q-83 0 -90 73q-73 -73 -162 -73zM311 78q87 0 127 143q-16 62 -16 127q0 190 98 326q-60 -3 -116 -30.5t-103.5 -78t-76.5 -133.5t-29 -186
q0 -79 31 -123.5t85 -44.5zM590 354q0 -6 1 -18.5t1 -18.5q77 35 122.5 110t45.5 167q0 34 -11.5 53t-31.5 19q-35 0 -62 -36t-40.5 -88.5t-20 -102t-4.5 -85.5z" />
    <glyph glyph-name="ccedilla" unicode="&#xe7;" horiz-adv-x="608" 
d="M414 -63l-23 -64q50 -9 85.5 -30t51.5 -48.5t22.5 -51t6.5 -48.5q0 -30 -12 -62t-36.5 -63t-69.5 -50.5t-103 -19.5q-87 0 -123.5 21t-36.5 67q0 18 8.5 37.5t20.5 12.5q39 -19 108 -19q54 0 86.5 23.5t32.5 64.5q0 33 -26 46t-57 12t-57 11t-26 44q0 8 5.5 29t11.5 41.5
t12.5 41.5t7.5 23q-114 31 -186 128t-72 247q0 119 42 227t120 177t172 69q50 0 89.5 -21t61 -53t32.5 -65t11 -62q0 -44 -49 -71q-43 -23 -68 -8q-16 9 -12 32q-1 4 -5.5 24t-8.5 31t-12.5 26t-23 22.5t-34.5 7.5q-58 0 -102.5 -100t-44.5 -236q0 -119 58 -185.5t151 -66.5
q57 0 103.5 22t76.5 60.5t49 82t29 93.5q8 43 41 51.5t60.5 -14.5t23.5 -58q-5 -42 -18 -85.5t-42.5 -95t-71 -92t-108.5 -68.5t-149 -31q-2 -2 -2 -6z" />
    <glyph glyph-name="egrave" unicode="&#xe8;" horiz-adv-x="608" 
d="M543 596q0 -78 -33 -155t-104 -142.5t-166 -93.5q53 -127 190 -127q57 0 102.5 22t74 61t46 81.5t27.5 93.5q8 43 41 51.5t60.5 -14.5t23.5 -58q-5 -43 -17.5 -87t-42 -97.5t-71.5 -93.5t-111 -67t-155 -27q-70 0 -135 28t-116 78t-81.5 128t-30.5 171q0 190 95.5 322.5
t217.5 132.5q85 0 135 -57t50 -150zM213 354q0 -6 1 -18.5t1 -18.5q77 35 122.5 110t45.5 167q0 34 -11.5 53t-31.5 19q-35 0 -62 -36t-40.5 -88.5t-20 -102t-4.5 -85.5zM358 926l-192 211q-16 19 -16 34q0 27 29.5 46.5t53.5 19.5q33 0 60 -39l186 -215q17 -21 17 -31
q0 -18 -26.5 -32.5t-66.5 -14.5q-32 0 -45 21z" />
    <glyph glyph-name="eacute" unicode="&#xe9;" horiz-adv-x="608" 
d="M543 596q0 -78 -33 -155t-104 -142.5t-166 -93.5q53 -127 190 -127q57 0 102.5 22t74 61t46 81.5t27.5 93.5q8 43 41 51.5t60.5 -14.5t23.5 -58q-5 -43 -17.5 -87t-42 -97.5t-71.5 -93.5t-111 -67t-155 -27q-70 0 -135 28t-116 78t-81.5 128t-30.5 171q0 190 95.5 322.5
t217.5 132.5q85 0 135 -57t50 -150zM213 354q0 -6 1 -18.5t1 -18.5q77 35 122.5 110t45.5 167q0 34 -11.5 53t-31.5 19q-35 0 -62 -36t-40.5 -88.5t-20 -102t-4.5 -85.5zM543 1137l-183 -195q-22 -37 -67 -37q-39 0 -59.5 14t-20.5 33q0 11 16 31l187 215q3 17 23.5 28
t43.5 11q31 0 57.5 -17t26.5 -42q0 -6 -2.5 -12.5t-5 -10t-9 -10t-7.5 -8.5z" />
    <glyph glyph-name="ecircumflex" unicode="&#xea;" horiz-adv-x="608" 
d="M543 596q0 -78 -33 -155t-104 -142.5t-166 -93.5q53 -127 190 -127q57 0 102.5 22t74 61t46 81.5t27.5 93.5q8 43 41 51.5t60.5 -14.5t23.5 -58q-5 -43 -17.5 -87t-42 -97.5t-71.5 -93.5t-111 -67t-155 -27q-70 0 -135 28t-116 78t-81.5 128t-30.5 171q0 190 95.5 322.5
t217.5 132.5q85 0 135 -57t50 -150zM213 354q0 -6 1 -18.5t1 -18.5q77 35 122.5 110t45.5 167q0 34 -11.5 53t-31.5 19q-35 0 -62 -36t-40.5 -88.5t-20 -102t-4.5 -85.5zM438 1180l135 -197q17 -21 17 -31q0 -18 -26 -32.5t-66 -14.5q-32 0 -45 21l-101 155l-88 -141
q-7 -13 -10.5 -18t-14 -11t-24.5 -6q-28 0 -58 21.5t-30 42.5q0 4 4 8l143 205q37 55 95 55q22 0 35 -6.5t17.5 -14.5t13.5 -29q1 -2 1.5 -3.5t1.5 -3.5z" />
    <glyph glyph-name="edieresis" unicode="&#xeb;" horiz-adv-x="608" 
d="M543 596q0 -78 -33 -155t-104 -142.5t-166 -93.5q53 -127 190 -127q57 0 102.5 22t74 61t46 81.5t27.5 93.5q8 43 41 51.5t60.5 -14.5t23.5 -58q-5 -43 -17.5 -87t-42 -97.5t-71.5 -93.5t-111 -67t-155 -27q-70 0 -135 28t-116 78t-81.5 128t-30.5 171q0 190 95.5 322.5
t217.5 132.5q85 0 135 -57t50 -150zM213 354q0 -6 1 -18.5t1 -18.5q77 35 122.5 110t45.5 167q0 34 -11.5 53t-31.5 19q-35 0 -62 -36t-40.5 -88.5t-20 -102t-4.5 -85.5zM115 1042q0 40 28 68.5t68 28.5t68 -28.5t28 -68.5t-28 -68t-68 -28t-68 28t-28 68zM410 1042
q0 40 28 68.5t68 28.5t68 -28.5t28 -68.5t-28 -68t-68 -28t-68 28t-28 68z" />
    <glyph glyph-name="igrave" unicode="&#xec;" horiz-adv-x="354" 
d="M227 692v-520q0 -94 54 -94q93 0 137 221q13 63 52 61q33 -3 56 -42q17 -29 11 -56q-16 -58 -37.5 -108t-56 -101t-86 -80.5t-113.5 -29.5q-79 0 -125.5 55.5t-46.5 136.5v547q0 23 -4.5 42.5t-4.5 23.5q0 15 16 24.5t38 9.5q50 0 80 -26t30 -64zM150 915l-193 211
q-16 19 -16 35q0 27 30 46.5t54 19.5q32 0 59 -39l186 -215q17 -21 17 -31q0 -18 -26 -32.5t-66 -14.5q-33 0 -45 20z" />
    <glyph glyph-name="iacute" unicode="&#xed;" horiz-adv-x="354" 
d="M227 692v-520q0 -94 54 -94q93 0 137 221q13 63 52 61q33 -3 56 -42q17 -29 11 -56q-16 -58 -37.5 -108t-56 -101t-86 -80.5t-113.5 -29.5q-79 0 -125.5 55.5t-46.5 136.5v547q0 23 -4.5 42.5t-4.5 23.5q0 15 16 24.5t38 9.5q50 0 80 -26t30 -64zM334 1126l-182 -194
q-22 -37 -68 -37q-39 0 -59.5 14t-20.5 33q0 11 16 31l187 215q3 17 23.5 28t43.5 11q31 0 57.5 -17.5t26.5 -42.5q0 -6 -2.5 -12.5t-5 -10t-9 -10t-7.5 -8.5z" />
    <glyph glyph-name="icircumflex" unicode="&#xee;" horiz-adv-x="354" 
d="M227 692v-520q0 -94 54 -94q93 0 137 221q13 63 52 61q33 -3 56 -42q17 -29 11 -56q-16 -58 -37.5 -108t-56 -101t-86 -80.5t-113.5 -29.5q-79 0 -125.5 55.5t-46.5 136.5v547q0 23 -4.5 42.5t-4.5 23.5q0 15 16 24.5t38 9.5q50 0 80 -26t30 -64zM229 1169l136 -196
q16 -20 16 -31q0 -18 -26 -32.5t-66 -14.5q-33 0 -45 20l-101 156l-88 -141q-7 -13 -10.5 -18t-14 -11t-24.5 -6q-28 0 -58 21t-30 42q0 5 4 9l144 204q38 56 94 56q40 0 54 -25q4 -6 15 -33z" />
    <glyph glyph-name="idieresis" unicode="&#xef;" horiz-adv-x="354" 
d="M227 692v-520q0 -94 54 -94q93 0 137 221q13 63 52 61q33 -3 56 -42q17 -29 11 -56q-16 -58 -37.5 -108t-56 -101t-86 -80.5t-113.5 -29.5q-79 0 -125.5 55.5t-46.5 136.5v547q0 23 -4.5 42.5t-4.5 23.5q0 15 16 24.5t38 9.5q50 0 80 -26t30 -64zM-94 1032q0 40 28 68
t68 28t68 -28t28 -68t-28 -68t-68 -28t-68 28t-28 68zM201 1032q0 40 28 68t68 28t68 -28t28 -68t-28 -68t-68 -28t-68 28t-28 68z" />
    <glyph glyph-name="eth" unicode="&#xf0;" horiz-adv-x="702" 
d="M115 1073q69 49 157 115q-42 47 -79.5 73.5t-57.5 26.5q-7 0 -18 -2t-17 -2q-16 0 -16 23q0 31 39 79t76 48q30 0 59 -23q66 -56 131 -133q94 76 150 127q4 40 32 12q30 -30 43 -80q11 -41 -6 -53q-16 -12 -69 -49t-78 -55q201 -306 201 -723q0 -107 -18 -197.5
t-55 -162.5t-100 -113t-145 -41q-94 0 -164 58.5t-102.5 147.5t-32.5 195t29.5 196.5t74.5 146t93.5 86t91.5 30.5q25 0 45 -29.5t20 -62.5q0 -18 -13.5 -31t-37.5 -6q-22 -12 -37.5 -23t-38 -36.5t-36.5 -56.5t-24.5 -84t-10.5 -118q0 -125 42.5 -201.5t104.5 -76.5
q56 0 94.5 51t55 131t16.5 184q0 381 -170 650q-36 -27 -66.5 -51t-42.5 -34l-12 -10q-32 -26 -80 1q-38 21 -40 48q0 15 12 25z" />
    <glyph glyph-name="ntilde" unicode="&#xf1;" horiz-adv-x="753" 
d="M72 33v649q0 23 -4.5 42.5t-4.5 23.5q0 15 16 24.5t38 9.5q50 0 80 -26t30 -64v-92q97 203 230 203q49 0 84 -18.5t53 -50.5t25.5 -65.5t7.5 -72.5v-424q0 -94 53 -94q93 0 137 221q6 30 19.5 45.5t29.5 15.5q25 0 48.5 -27.5t23.5 -56.5q0 -6 -2 -14q-12 -45 -27 -85.5
t-40.5 -84.5t-56 -76t-74.5 -52.5t-95 -20.5q-79 0 -125.5 55.5t-46.5 136.5v416q0 27 -1.5 45.5t-5.5 36t-13 26.5t-23 9q-30 0 -74.5 -49.5t-82 -131t-44.5 -157.5v-299v-25t-3 -22t-8.5 -22t-17 -13t-28.5 -6q-98 0 -98 90zM215 973q0 -12 -15 -19.5t-32 -7.5
q-27 0 -50.5 12t-23.5 29q0 65 45.5 126t110.5 61q38 0 70 -17t50.5 -37.5t41 -37.5t43.5 -17q41 0 41 63q0 21 17 31t38 10q25 0 47.5 -11.5t22.5 -24.5q0 -91 -51 -144t-111 -53q-37 0 -71 17.5t-54 39t-38 39t-28 17.5q-26 0 -36.5 -20t-16.5 -56z" />
    <glyph glyph-name="ograve" unicode="&#xf2;" horiz-adv-x="749" 
d="M821 338q4 24 40 31q44 9 68 -21q19 -25 9 -69q-20 -89 -84.5 -146t-163.5 -57q-57 0 -100 14q-85 -147 -246 -147q-147 0 -223 108t-76 273q0 85 17.5 165t43.5 135.5t55 98.5t54 63.5t39 20.5q19 0 36 -17.5t24.5 -40.5t3.5 -48t-23 -37q-43 -64 -59 -106
q-35 -90 -35 -222q0 -124 42 -191t105 -67q76 0 121 78q-71 61 -109 156.5t-38 207.5q0 103 43 171.5t122 68.5q73 0 124 -98.5t51 -245.5q0 -120 -29 -221q18 -5 41 -5q62 0 99.5 41.5t47.5 106.5zM430 528q0 -138 78 -239q6 49 6 94q0 121 -9.5 181.5t-39.5 60.5
q-35 0 -35 -97zM367 924l-193 211q-16 19 -16 34q0 27 30 46.5t54 19.5q32 0 59 -39l186 -215q17 -21 17 -31q0 -18 -26 -32.5t-66 -14.5q-32 0 -45 21z" />
    <glyph glyph-name="oacute" unicode="&#xf3;" horiz-adv-x="749" 
d="M821 338q4 24 40 31q44 9 68 -21q19 -25 9 -69q-20 -89 -84.5 -146t-163.5 -57q-57 0 -100 14q-85 -147 -246 -147q-147 0 -223 108t-76 273q0 85 17.5 165t43.5 135.5t55 98.5t54 63.5t39 20.5q19 0 36 -17.5t24.5 -40.5t3.5 -48t-23 -37q-43 -64 -59 -106
q-35 -90 -35 -222q0 -124 42 -191t105 -67q76 0 121 78q-71 61 -109 156.5t-38 207.5q0 103 43 171.5t122 68.5q73 0 124 -98.5t51 -245.5q0 -120 -29 -221q18 -5 41 -5q62 0 99.5 41.5t47.5 106.5zM430 528q0 -138 78 -239q6 49 6 94q0 121 -9.5 181.5t-39.5 60.5
q-35 0 -35 -97zM551 1135l-182 -195q-22 -37 -68 -37q-39 0 -59.5 14t-20.5 33q0 10 17 31l186 215q3 17 24 28t44 11q31 0 57 -17t26 -42q0 -6 -2.5 -12.5t-5 -10t-9 -10t-7.5 -8.5z" />
    <glyph glyph-name="ocircumflex" unicode="&#xf4;" horiz-adv-x="749" 
d="M821 338q4 24 40 31q44 9 68 -21q19 -25 9 -69q-20 -89 -84.5 -146t-163.5 -57q-57 0 -100 14q-85 -147 -246 -147q-147 0 -223 108t-76 273q0 85 17.5 165t43.5 135.5t55 98.5t54 63.5t39 20.5q19 0 36 -17.5t24.5 -40.5t3.5 -48t-23 -37q-43 -64 -59 -106
q-35 -90 -35 -222q0 -124 42 -191t105 -67q76 0 121 78q-71 61 -109 156.5t-38 207.5q0 103 43 171.5t122 68.5q73 0 124 -98.5t51 -245.5q0 -120 -29 -221q18 -5 41 -5q62 0 99.5 41.5t47.5 106.5zM430 528q0 -138 78 -239q6 49 6 94q0 121 -9.5 181.5t-39.5 60.5
q-35 0 -35 -97zM446 1178l136 -197q16 -20 16 -31q0 -18 -26 -32.5t-66 -14.5q-32 0 -45 21l-101 155l-88 -141q-7 -13 -10.5 -18t-14 -11t-24.5 -6q-28 0 -58 21.5t-30 42.5q0 4 4 8l144 205q37 55 94 55q22 0 35 -6.5t17.5 -14.5t13.5 -29q1 -2 1.5 -3.5t1.5 -3.5z" />
    <glyph glyph-name="otilde" unicode="&#xf5;" horiz-adv-x="749" 
d="M821 338q4 24 40 31q44 9 68 -21q19 -25 9 -69q-20 -89 -84.5 -146t-163.5 -57q-57 0 -100 14q-85 -147 -246 -147q-147 0 -223 108t-76 273q0 85 17.5 165t43.5 135.5t55 98.5t54 63.5t39 20.5q19 0 36 -17.5t24.5 -40.5t3.5 -48t-23 -37q-43 -64 -59 -106
q-35 -90 -35 -222q0 -124 42 -191t105 -67q76 0 121 78q-71 61 -109 156.5t-38 207.5q0 103 43 171.5t122 68.5q73 0 124 -98.5t51 -245.5q0 -120 -29 -221q18 -5 41 -5q62 0 99.5 41.5t47.5 106.5zM430 528q0 -138 78 -239q6 49 6 94q0 121 -9.5 181.5t-39.5 60.5
q-35 0 -35 -97zM231 971q0 -12 -15 -19.5t-32 -7.5q-27 0 -50 12t-23 29q0 65 45 125.5t110 60.5q38 0 70 -17t50.5 -37t41 -37t43.5 -17q41 0 41 63q0 21 17 31t38 10q25 0 47.5 -12t22.5 -25q0 -91 -51 -143.5t-111 -52.5q-37 0 -71 17.5t-53.5 39t-37.5 39t-28 17.5
q-18 0 -30 -13t-16 -26.5t-8 -36.5z" />
    <glyph glyph-name="odieresis" unicode="&#xf6;" horiz-adv-x="749" 
d="M821 338q4 24 40 31q44 9 68 -21q19 -25 9 -69q-20 -89 -84.5 -146t-163.5 -57q-57 0 -100 14q-85 -147 -246 -147q-147 0 -223 108t-76 273q0 85 17.5 165t43.5 135.5t55 98.5t54 63.5t39 20.5q19 0 36 -17.5t24.5 -40.5t3.5 -48t-23 -37q-43 -64 -59 -106
q-35 -90 -35 -222q0 -124 42 -191t105 -67q76 0 121 78q-71 61 -109 156.5t-38 207.5q0 103 43 171.5t122 68.5q73 0 124 -98.5t51 -245.5q0 -120 -29 -221q18 -5 41 -5q62 0 99.5 41.5t47.5 106.5zM430 528q0 -138 78 -239q6 49 6 94q0 121 -9.5 181.5t-39.5 60.5
q-35 0 -35 -97zM123 1040q0 40 28 68.5t68 28.5t68 -28.5t28 -68.5t-28 -68t-68 -28t-68 28t-28 68zM418 1040q0 40 28 68.5t68 28.5t68 -28.5t28 -68.5t-28 -68t-68 -28t-68 28t-28 68z" />
    <glyph glyph-name="divide" unicode="&#xf7;" 
d="M137 717h557q8 0 16.5 5t10.5 5q20 0 20 -43q0 -36 -18.5 -73.5t-44.5 -37.5h-565q-15 0 -24 17t-9 41q0 32 15 59t42 27zM319 885q0 37 27 63.5t64 26.5t63.5 -26.5t26.5 -63.5t-26.5 -63.5t-63.5 -26.5t-64 26.5t-27 63.5zM319 406q0 37 27 63.5t64 26.5t63.5 -26.5
t26.5 -63.5t-26.5 -64t-63.5 -27t-64 27t-27 64z" />
    <glyph glyph-name="oslash" unicode="&#xf8;" horiz-adv-x="749" 
d="M821 338q4 24 40 31q44 9 68 -21q19 -25 9 -69q-20 -89 -84.5 -146t-163.5 -57q-57 0 -100 14q-85 -147 -246 -147q-60 0 -115 20l-79 -166q-7 -14 -27 -14q-29 0 -53.5 18.5t-24.5 46.5q0 14 8 25l78 162q-86 105 -86 289q0 85 17.5 165t43.5 135.5t55 98.5t54 63.5
t39 20.5q19 0 36 -17.5t24.5 -40.5t3.5 -48t-23 -37q-43 -64 -59 -106q-35 -90 -35 -222q0 -77 14 -129l113 227q-6 43 -6 86q0 102 42.5 170.5t120.5 69.5l76 151q0 2 -1 8t-1 9q0 18 16 18q26 0 62.5 -20.5t36.5 -51.5q0 -12 -4 -20l-80 -160q72 -102 72 -278
q0 -120 -29 -221q18 -5 41 -5q62 0 99.5 41.5t47.5 106.5zM348 78q76 0 121 78q-51 43 -88 112l-88 -176q22 -14 55 -14zM449 406q17 -62 59 -117q6 49 6 94q0 87 -6 145z" />
    <glyph glyph-name="ugrave" unicode="&#xf9;" horiz-adv-x="745" 
d="M635 -57q-67 0 -112 40.5t-56 104.5q-84 -147 -205 -147q-102 0 -159.5 80t-57.5 215q0 96 18.5 211t36.5 182l19 67q3 6 6 20.5t7 22t13.5 16.5t30 13t51.5 4q28 0 42.5 -8.5t14.5 -23t-3.5 -28t-11 -30.5t-9.5 -23q-23 -95 -33 -141t-18 -118t-8 -154t24.5 -126
t69.5 -44q58 0 103 80t65 196v330q0 35 -10.5 56t-10.5 22q0 10 21 16t45 6q50 0 80 -26t30 -64v-520q0 -94 54 -94q93 0 137 221q6 30 19.5 45.5t29.5 15.5q25 0 48.5 -27.5t23.5 -56.5q0 -6 -2 -14q-16 -58 -37.5 -108t-56 -101t-86 -80.5t-113.5 -29.5zM369 915l-193 211
q-16 19 -16 35q0 27 30 46.5t54 19.5q32 0 59 -39l186 -215q17 -21 17 -31q0 -18 -26 -32.5t-66 -14.5q-33 0 -45 20z" />
    <glyph glyph-name="uacute" unicode="&#xfa;" horiz-adv-x="745" 
d="M635 -57q-67 0 -112 40.5t-56 104.5q-84 -147 -205 -147q-102 0 -159.5 80t-57.5 215q0 96 18.5 211t36.5 182l19 67q3 6 6 20.5t7 22t13.5 16.5t30 13t51.5 4q28 0 42.5 -8.5t14.5 -23t-3.5 -28t-11 -30.5t-9.5 -23q-23 -95 -33 -141t-18 -118t-8 -154t24.5 -126
t69.5 -44q58 0 103 80t65 196v330q0 35 -10.5 56t-10.5 22q0 10 21 16t45 6q50 0 80 -26t30 -64v-520q0 -94 54 -94q93 0 137 221q6 30 19.5 45.5t29.5 15.5q25 0 48.5 -27.5t23.5 -56.5q0 -6 -2 -14q-16 -58 -37.5 -108t-56 -101t-86 -80.5t-113.5 -29.5zM553 1126
l-182 -194q-22 -37 -68 -37q-39 0 -59.5 14t-20.5 33q0 10 17 31l186 215q3 17 24 28t44 11q31 0 57.5 -17.5t26.5 -42.5q0 -6 -3 -12.5t-5.5 -10t-8.5 -10t-8 -8.5z" />
    <glyph glyph-name="ucircumflex" unicode="&#xfb;" horiz-adv-x="745" 
d="M635 -57q-67 0 -112 40.5t-56 104.5q-84 -147 -205 -147q-102 0 -159.5 80t-57.5 215q0 96 18.5 211t36.5 182l19 67q3 6 6 20.5t7 22t13.5 16.5t30 13t51.5 4q28 0 42.5 -8.5t14.5 -23t-3.5 -28t-11 -30.5t-9.5 -23q-23 -95 -33 -141t-18 -118t-8 -154t24.5 -126
t69.5 -44q58 0 103 80t65 196v330q0 35 -10.5 56t-10.5 22q0 10 21 16t45 6q50 0 80 -26t30 -64v-520q0 -94 54 -94q93 0 137 221q6 30 19.5 45.5t29.5 15.5q25 0 48.5 -27.5t23.5 -56.5q0 -6 -2 -14q-16 -58 -37.5 -108t-56 -101t-86 -80.5t-113.5 -29.5zM449 1169
l135 -196q16 -20 16 -31q0 -18 -26 -32.5t-66 -14.5q-33 0 -45 20l-101 156l-88 -141q-7 -13 -10.5 -18t-14 -11t-24.5 -6q-28 0 -58 21t-30 42q0 5 4 9l144 204q38 56 94 56q24 0 37.5 -8t17.5 -16t15 -34z" />
    <glyph glyph-name="udieresis" unicode="&#xfc;" horiz-adv-x="745" 
d="M635 -57q-67 0 -112 40.5t-56 104.5q-84 -147 -205 -147q-102 0 -159.5 80t-57.5 215q0 96 18.5 211t36.5 182l19 67q3 6 6 20.5t7 22t13.5 16.5t30 13t51.5 4q28 0 42.5 -8.5t14.5 -23t-3.5 -28t-11 -30.5t-9.5 -23q-23 -95 -33 -141t-18 -118t-8 -154t24.5 -126
t69.5 -44q58 0 103 80t65 196v330q0 35 -10.5 56t-10.5 22q0 10 21 16t45 6q50 0 80 -26t30 -64v-520q0 -94 54 -94q93 0 137 221q6 30 19.5 45.5t29.5 15.5q25 0 48.5 -27.5t23.5 -56.5q0 -6 -2 -14q-16 -58 -37.5 -108t-56 -101t-86 -80.5t-113.5 -29.5zM125 1032
q0 40 28 68t68 28t68 -28t28 -68t-28 -68t-68 -28t-68 28t-28 68zM420 1032q0 40 28 68t68 28t68 -28t28 -68t-28 -68t-68 -28t-68 28t-28 68z" />
    <glyph glyph-name="yacute" unicode="&#xfd;" horiz-adv-x="735" 
d="M799 299q17 61 49 61q25 0 48.5 -27.5t23.5 -56.5q0 -12 -2 -20q-25 -85 -59.5 -156t-76.5 -126.5t-78.5 -93t-85.5 -79.5v-354q0 -149 -62 -220t-150 -71q-85 0 -141 68.5t-56 167.5q0 60 15 114t34 91t59 83t66 70t80 72v260q-84 -141 -201 -141q-102 0 -159.5 80
t-57.5 215q0 96 18.5 211t36.5 182l19 67q3 6 6 20.5t7 22t13.5 16.5t30 13t51.5 4q28 0 42.5 -8.5t14.5 -23t-3.5 -28t-11 -30.5t-9.5 -23q-23 -95 -33 -141t-18 -118t-8 -154t24.5 -126t69.5 -44q58 0 103 80t65 196v330q0 23 -4 42.5t-4 23.5q0 15 15.5 24.5t37.5 9.5
q50 0 80 -26t30 -64v-719q127 141 181 326zM406 -715q11 0 19.5 4t14.5 12t10.5 17t6.5 22t3.5 23.5t2 24.5t0.5 22.5v21v15.5v219q-54 -56 -82.5 -118.5t-28.5 -149.5q0 -48 15 -80.5t39 -32.5zM575 1126l-182 -194q-22 -37 -67 -37q-39 0 -59.5 14t-20.5 33q0 11 16 31
l187 215q3 17 23.5 28t43.5 11q31 0 57.5 -17.5t26.5 -42.5q0 -6 -3 -12.5t-5.5 -10t-8.5 -10t-8 -8.5z" />
    <glyph glyph-name="thorn" unicode="&#xfe;" horiz-adv-x="739" 
d="M227 1317v-623q77 109 187 109q115 0 176 -100.5t61 -260.5q0 -172 -53 -299q49 2 82.5 12t57.5 33.5t38 45.5t35 65q14 31 24 43t23 12q25 0 49.5 -27.5t24.5 -50.5q0 -37 -25 -80.5t-72 -84.5t-127 -68t-176 -27q-41 -44 -96.5 -69t-109.5 -25q-71 0 -99 31v-666
q0 -35 -19.5 -56.5t-41.5 -27.5t-47 -6q-28 0 -37.5 14t-9.5 41v2055q0 35 -10.5 55.5t-10.5 21.5q0 10 21 16.5t45 6.5q50 0 80 -26t30 -64zM362 666q-44 0 -80.5 -48t-54.5 -124v-443q40 59 193 72q34 50 53 135.5t19 151.5q0 132 -36 194t-94 62z" />
    <glyph glyph-name="ydieresis" unicode="&#xff;" horiz-adv-x="735" 
d="M799 299q17 61 49 61q25 0 48.5 -27.5t23.5 -56.5q0 -12 -2 -20q-25 -85 -59.5 -156t-76.5 -126.5t-78.5 -93t-85.5 -79.5v-354q0 -149 -62 -220t-150 -71q-85 0 -141 68.5t-56 167.5q0 60 15 114t34 91t59 83t66 70t80 72v260q-84 -141 -201 -141q-102 0 -159.5 80
t-57.5 215q0 96 18.5 211t36.5 182l19 67q3 6 6 20.5t7 22t13.5 16.5t30 13t51.5 4q28 0 42.5 -8.5t14.5 -23t-3.5 -28t-11 -30.5t-9.5 -23q-23 -95 -33 -141t-18 -118t-8 -154t24.5 -126t69.5 -44q58 0 103 80t65 196v330q0 23 -4 42.5t-4 23.5q0 15 15.5 24.5t37.5 9.5
q50 0 80 -26t30 -64v-719q127 141 181 326zM406 -715q11 0 19.5 4t14.5 12t10.5 17t6.5 22t3.5 23.5t2 24.5t0.5 22.5v21v15.5v219q-54 -56 -82.5 -118.5t-28.5 -149.5q0 -48 15 -80.5t39 -32.5zM147 1032q0 40 28.5 68t68.5 28t68 -28t28 -68t-28 -68t-68 -28t-68.5 28
t-28.5 68zM442 1032q0 40 28.5 68t68.5 28t68 -28t28 -68t-28 -68t-68 -28t-68.5 28t-28.5 68z" />
    <glyph glyph-name="Amacron" unicode="&#x100;" horiz-adv-x="1015" 
d="M492 788q-39 0 -65 27t-26 76q0 24 6.5 44.5t16.5 20.5q1 0 22 -10t56 -10q76 0 150 29.5t125.5 88.5t51.5 132q0 45 -29.5 78.5t-84.5 33.5q-77 0 -146 -35t-121 -94.5t-94 -137.5t-68.5 -165t-40.5 -174.5t-14 -169.5q0 -444 234 -444q50 0 92.5 23.5t73 59.5t57 96
t43.5 115.5t32.5 135.5t24 138.5t19.5 141.5q3 19 27.5 30t56.5 11q29 0 48.5 -13t14.5 -40q-26 -138 -26 -334q0 -300 18 -448q6 -9 6 -14q0 -19 -34 -34.5t-70 -15.5q-47 0 -58 35t-15 150v11.5t-0.5 11t-0.5 12.5q-48 -101 -136 -166.5t-192 -65.5q-378 0 -378 600
q0 170 49 337.5t133 300.5t209 215.5t266 82.5q123 0 194.5 -74t71.5 -186q0 -114 -73 -208.5t-187 -146t-239 -51.5zM508 1724h352q25 3 35 -11t10 -42q0 -32 -15 -58t-38 -26q-6 0 -10 2h-355q-53 0 -53 47q0 41 19.5 64.5t54.5 23.5z" />
    <glyph glyph-name="amacron" unicode="&#x101;" horiz-adv-x="724" 
d="M651 78q93 0 137 221q6 30 20 45.5t30 15.5q25 0 48 -27.5t23 -56.5q0 -6 -2 -14q-12 -45 -27 -85.5t-40.5 -84.5t-56 -76t-74.5 -52.5t-95 -20.5q-104 0 -157 84q-73 -84 -176 -84q-116 0 -180 86.5t-64 222.5q0 124 41 229.5t109 175t155.5 108t181.5 38.5
q42 0 68 -23.5t26 -62.5q0 -26 -5.5 -36.5t-20.5 -10.5q-9 0 -29.5 2t-30.5 2q-61 0 -119 -26t-107.5 -76.5t-80 -135t-30.5 -190.5q0 -79 31 -123.5t85 -44.5q72 0 115 106v316q0 23 -4 42t-4 23q0 15 15.5 25t37.5 10q50 0 80.5 -26t30.5 -64v-338q0 -38 17.5 -66
t51.5 -28zM266 1094h352q25 3 35.5 -11.5t10.5 -42.5q0 -31 -15.5 -57.5t-38.5 -26.5q-6 0 -10 2h-354q-53 0 -53 48q0 42 19 65t54 23z" />
    <glyph glyph-name="Abreve" unicode="&#x102;" horiz-adv-x="1015" 
d="M492 788q-39 0 -65 27t-26 76q0 24 6.5 44.5t16.5 20.5q1 0 22 -10t56 -10q76 0 150 29.5t125.5 88.5t51.5 132q0 45 -29.5 78.5t-84.5 33.5q-77 0 -146 -35t-121 -94.5t-94 -137.5t-68.5 -165t-40.5 -174.5t-14 -169.5q0 -444 234 -444q50 0 92.5 23.5t73 59.5t57 96
t43.5 115.5t32.5 135.5t24 138.5t19.5 141.5q3 19 27.5 30t56.5 11q29 0 48.5 -13t14.5 -40q-26 -138 -26 -334q0 -300 18 -448q6 -9 6 -14q0 -19 -34 -34.5t-70 -15.5q-47 0 -58 35t-15 150v11.5t-0.5 11t-0.5 12.5q-48 -101 -136 -166.5t-192 -65.5q-378 0 -378 600
q0 170 49 337.5t133 300.5t209 215.5t266 82.5q123 0 194.5 -74t71.5 -186q0 -114 -73 -208.5t-187 -146t-239 -51.5zM672 1556q-42 0 -82 11.5t-79.5 37.5t-64 76.5t-24.5 118.5q0 18 26 32.5t66 14.5q33 0 45 -20q2 -24 3.5 -38.5t8.5 -37.5t18 -36t31.5 -23.5t49.5 -10.5
q28 0 47.5 10t28.5 21t14 33t5.5 32.5t0.5 32.5q4 14 17 25.5t34 11.5q28 0 57 -20t29 -41q0 -57 -17.5 -100.5t-43 -67.5t-59.5 -38.5t-60 -19t-51 -4.5z" />
    <glyph glyph-name="abreve" unicode="&#x103;" horiz-adv-x="724" 
d="M651 78q93 0 137 221q6 30 20 45.5t30 15.5q25 0 48 -27.5t23 -56.5q0 -6 -2 -14q-12 -45 -27 -85.5t-40.5 -84.5t-56 -76t-74.5 -52.5t-95 -20.5q-104 0 -157 84q-73 -84 -176 -84q-116 0 -180 86.5t-64 222.5q0 124 41 229.5t109 175t155.5 108t181.5 38.5
q42 0 68 -23.5t26 -62.5q0 -26 -5.5 -36.5t-20.5 -10.5q-9 0 -29.5 2t-30.5 2q-61 0 -119 -26t-107.5 -76.5t-80 -135t-30.5 -190.5q0 -79 31 -123.5t85 -44.5q72 0 115 106v316q0 23 -4 42t-4 23q0 15 15.5 25t37.5 10q50 0 80.5 -26t30.5 -64v-338q0 -38 17.5 -66
t51.5 -28zM430 926q-42 0 -82 11.5t-79.5 37t-64 76t-24.5 118.5q0 18 26.5 33t65.5 15q32 0 45 -21q2 -24 3.5 -38.5t8.5 -37.5t18 -36t31.5 -23t49.5 -10q28 0 47.5 10t28.5 21t14 33t5.5 32.5t0.5 32.5q4 14 17 25.5t34 11.5q28 0 57.5 -20.5t29.5 -41.5
q0 -57 -18 -100.5t-43.5 -67t-59 -38.5t-60 -19t-51.5 -4z" />
    <glyph glyph-name="Aogonek" unicode="&#x104;" horiz-adv-x="1015" 
d="M492 788q-39 0 -65 27t-26 76q0 24 6.5 44.5t16.5 20.5q1 0 22 -10t56 -10q76 0 150 29.5t125.5 88.5t51.5 132q0 45 -29.5 78.5t-84.5 33.5q-77 0 -146 -35t-121 -94.5t-94 -137.5t-68.5 -165t-40.5 -174.5t-14 -169.5q0 -444 234 -444q50 0 92.5 23.5t73 59.5t57 96
t43.5 115.5t32.5 135.5t24 138.5t19.5 141.5q3 19 27.5 30t56.5 11q29 0 48.5 -13t14.5 -40q-26 -138 -26 -334q0 -22 -1 -110t0 -127t7 -105.5t18 -119.5q6 -23 -18 -33q-65 -25 -117.5 -81.5t-52.5 -115.5q0 -74 94 -74q82 0 121 19q12 7 20.5 -12t8.5 -37
q0 -46 -36.5 -67t-123.5 -21q-112 0 -166.5 54t-54.5 120q0 71 46 139.5t111 114.5q-7 37 -10 164q-48 -101 -136 -166.5t-192 -65.5q-378 0 -378 600q0 170 49 337.5t133 300.5t209 215.5t266 82.5q123 0 194.5 -74t71.5 -186q0 -114 -73 -208.5t-187 -146t-239 -51.5z" />
    <glyph glyph-name="aogonek" unicode="&#x105;" horiz-adv-x="724" 
d="M651 78q93 0 137 221q6 30 20 45.5t30 15.5q25 0 48 -27.5t23 -56.5q0 -6 -2 -14q-53 -192 -147 -266q-12 -10 -40 -31.5t-41 -32t-33 -29.5t-29.5 -33.5t-17 -34.5t-7.5 -40q0 -74 94 -74q82 0 121 19q12 7 20.5 -12t8.5 -37q0 -46 -36.5 -67t-123.5 -21
q-112 0 -166.5 54t-54.5 120q0 49 23 90t71 86q-29 10 -54.5 31t-37.5 43q-73 -84 -176 -84q-116 0 -180 86.5t-64 222.5q0 124 41 229.5t109 175t155.5 108t181.5 38.5q42 0 68 -23.5t26 -62.5q0 -26 -5.5 -36.5t-20.5 -10.5q-9 0 -29.5 2t-30.5 2q-61 0 -119 -26
t-107.5 -76.5t-80 -135t-30.5 -190.5q0 -79 31 -123.5t85 -44.5q72 0 115 106v316q0 23 -4 42t-4 23q0 15 15.5 25t37.5 10q50 0 80.5 -26t30.5 -64v-338q0 -38 17.5 -66t51.5 -28z" />
    <glyph glyph-name="Cacute" unicode="&#x106;" horiz-adv-x="999" 
d="M463 852q56 0 122 29.5t121 76.5t91.5 111t36.5 127q0 43 -30.5 79t-94.5 36q-66 0 -129 -32t-115 -87t-96 -129t-74 -156.5t-47 -170.5t-17 -171q0 -100 17.5 -185.5t53.5 -156.5t100 -112t149 -41q36 0 70.5 6.5t61.5 17.5t51.5 24t42.5 26t31 23.5t20 18.5l8 7
q28 47 71 17q35 -25 44 -71q7 -35 -11 -53q-139 -139 -329 -165q-37 -5 -74 -5q-218 0 -343.5 175.5t-125.5 473.5q0 120 29.5 246t88 241.5t137.5 207t186.5 146t225.5 54.5q115 0 187.5 -70.5t72.5 -199.5q0 -120 -88.5 -234t-214 -180.5t-239.5 -66.5q-39 0 -65 25
t-26 73q0 24 6.5 44.5t16.5 20.5q1 0 22 -10t56 -10zM877 1774l-183 -195q-22 -37 -67 -37q-39 0 -59.5 14t-20.5 33q0 11 16 31l187 215q3 17 23.5 28t43.5 11q31 0 57.5 -17t26.5 -42q0 -6 -2.5 -12.5t-5 -10t-9 -10t-7.5 -8.5z" />
    <glyph glyph-name="cacute" unicode="&#x107;" horiz-adv-x="608" 
d="M399 -57q-145 0 -249.5 103.5t-104.5 283.5q0 119 42 227t120 177t172 69q50 0 89.5 -21t61 -53t32.5 -65t11 -62q0 -44 -49 -71q-43 -23 -68 -8q-16 9 -12 32q-1 4 -5.5 24t-8.5 31t-12.5 26t-23 22.5t-34.5 7.5q-58 0 -102.5 -100t-44.5 -236q0 -119 58 -185.5
t151 -66.5q57 0 103.5 22t76.5 60.5t49 82t29 93.5q8 43 41 51.5t60.5 -14.5t23.5 -58q-5 -42 -18.5 -87t-44.5 -97.5t-74 -93t-113 -67.5t-156 -27zM578 1137l-183 -195q-22 -37 -67 -37q-39 0 -59.5 14t-20.5 33q0 11 16 31l187 215q3 17 23.5 28t43.5 11q31 0 57.5 -17
t26.5 -42q0 -6 -2.5 -12.5t-5 -10t-9 -10t-7.5 -8.5z" />
    <glyph glyph-name="Ccircumflex" unicode="&#x108;" horiz-adv-x="999" 
d="M463 852q56 0 122 29.5t121 76.5t91.5 111t36.5 127q0 43 -30.5 79t-94.5 36q-66 0 -129 -32t-115 -87t-96 -129t-74 -156.5t-47 -170.5t-17 -171q0 -100 17.5 -185.5t53.5 -156.5t100 -112t149 -41q36 0 70.5 6.5t61.5 17.5t51.5 24t42.5 26t31 23.5t20 18.5l8 7
q28 47 71 17q35 -25 44 -71q7 -35 -11 -53q-139 -139 -329 -165q-37 -5 -74 -5q-218 0 -343.5 175.5t-125.5 473.5q0 120 29.5 246t88 241.5t137.5 207t186.5 146t225.5 54.5q115 0 187.5 -70.5t72.5 -199.5q0 -120 -88.5 -234t-214 -180.5t-239.5 -66.5q-39 0 -65 25
t-26 73q0 24 6.5 44.5t16.5 20.5q1 0 22 -10t56 -10zM772 1817l135 -197q17 -21 17 -31q0 -18 -26.5 -32.5t-66.5 -14.5q-32 0 -45 21l-100 155l-88 -141q-7 -13 -10.5 -18t-14 -11t-24.5 -6q-28 0 -58 21.5t-30 42.5q0 4 4 8l143 205q37 55 94 55q24 0 37 -7.5t18 -16
t15 -33.5z" />
    <glyph glyph-name="ccircumflex" unicode="&#x109;" horiz-adv-x="608" 
d="M399 -57q-145 0 -249.5 103.5t-104.5 283.5q0 119 42 227t120 177t172 69q50 0 89.5 -21t61 -53t32.5 -65t11 -62q0 -44 -49 -71q-43 -23 -68 -8q-16 9 -12 32q-1 4 -5.5 24t-8.5 31t-12.5 26t-23 22.5t-34.5 7.5q-58 0 -102.5 -100t-44.5 -236q0 -119 58 -185.5
t151 -66.5q57 0 103.5 22t76.5 60.5t49 82t29 93.5q8 43 41 51.5t60.5 -14.5t23.5 -58q-5 -42 -18.5 -87t-44.5 -97.5t-74 -93t-113 -67.5t-156 -27zM473 1180l135 -197q17 -21 17 -31q0 -18 -26.5 -32.5t-66.5 -14.5q-32 0 -45 21l-100 155l-88 -141q-7 -13 -10.5 -18
t-14 -11t-24.5 -6q-28 0 -58 21.5t-30 42.5q0 4 4 8l143 205q37 55 94 55q24 0 37 -7.5t18 -16t15 -33.5z" />
    <glyph glyph-name="Cdotaccent" unicode="&#x10a;" horiz-adv-x="999" 
d="M463 852q56 0 122 29.5t121 76.5t91.5 111t36.5 127q0 43 -30.5 79t-94.5 36q-66 0 -129 -32t-115 -87t-96 -129t-74 -156.5t-47 -170.5t-17 -171q0 -100 17.5 -185.5t53.5 -156.5t100 -112t149 -41q36 0 70.5 6.5t61.5 17.5t51.5 24t42.5 26t31 23.5t20 18.5l8 7
q28 47 71 17q35 -25 44 -71q7 -35 -11 -53q-139 -139 -329 -165q-37 -5 -74 -5q-218 0 -343.5 175.5t-125.5 473.5q0 120 29.5 246t88 241.5t137.5 207t186.5 146t225.5 54.5q115 0 187.5 -70.5t72.5 -199.5q0 -120 -88.5 -234t-214 -180.5t-239.5 -66.5q-39 0 -65 25
t-26 73q0 24 6.5 44.5t16.5 20.5q1 0 22 -10t56 -10zM590 1665q0 43 29.5 72.5t72.5 29.5t73 -29.5t30 -72.5t-30 -72.5t-73 -29.5t-72.5 29.5t-29.5 72.5z" />
    <glyph glyph-name="cdotaccent" unicode="&#x10b;" horiz-adv-x="608" 
d="M399 -57q-145 0 -249.5 103.5t-104.5 283.5q0 119 42 227t120 177t172 69q50 0 89.5 -21t61 -53t32.5 -65t11 -62q0 -44 -49 -71q-43 -23 -68 -8q-16 9 -12 32q-1 4 -5.5 24t-8.5 31t-12.5 26t-23 22.5t-34.5 7.5q-58 0 -102.5 -100t-44.5 -236q0 -119 58 -185.5
t151 -66.5q57 0 103.5 22t76.5 60.5t49 82t29 93.5q8 43 41 51.5t60.5 -14.5t23.5 -58q-5 -42 -18.5 -87t-44.5 -97.5t-74 -93t-113 -67.5t-156 -27zM291 1028q0 43 29.5 72.5t72.5 29.5t73 -29.5t30 -72.5t-30 -72.5t-73 -29.5t-72.5 29.5t-29.5 72.5z" />
    <glyph glyph-name="Ccaron" unicode="&#x10c;" horiz-adv-x="999" 
d="M463 852q56 0 122 29.5t121 76.5t91.5 111t36.5 127q0 43 -30.5 79t-94.5 36q-66 0 -129 -32t-115 -87t-96 -129t-74 -156.5t-47 -170.5t-17 -171q0 -100 17.5 -185.5t53.5 -156.5t100 -112t149 -41q36 0 70.5 6.5t61.5 17.5t51.5 24t42.5 26t31 23.5t20 18.5l8 7
q28 47 71 17q35 -25 44 -71q7 -35 -11 -53q-139 -139 -329 -165q-37 -5 -74 -5q-218 0 -343.5 175.5t-125.5 473.5q0 120 29.5 246t88 241.5t137.5 207t186.5 146t225.5 54.5q115 0 187.5 -70.5t72.5 -199.5q0 -120 -88.5 -234t-214 -180.5t-239.5 -66.5q-39 0 -65 25
t-26 73q0 24 6.5 44.5t16.5 20.5q1 0 22 -10t56 -10zM606 1599l-135 197q-16 20 -16 31q0 18 26 32.5t66 14.5q32 0 45 -21l100 -155l88 141q9 35 49 35q28 0 57 -20.5t29 -41.5q0 -12 -14 -26l-131 -189q-18 -55 -65 -55q-39 0 -55.5 10.5t-43.5 46.5z" />
    <glyph glyph-name="ccaron" unicode="&#x10d;" horiz-adv-x="608" 
d="M399 -57q-145 0 -249.5 103.5t-104.5 283.5q0 119 42 227t120 177t172 69q50 0 89.5 -21t61 -53t32.5 -65t11 -62q0 -44 -49 -71q-43 -23 -68 -8q-16 9 -12 32q-1 4 -5.5 24t-8.5 31t-12.5 26t-23 22.5t-34.5 7.5q-58 0 -102.5 -100t-44.5 -236q0 -119 58 -185.5
t151 -66.5q57 0 103.5 22t76.5 60.5t49 82t29 93.5q8 43 41 51.5t60.5 -14.5t23.5 -58q-5 -42 -18.5 -87t-44.5 -97.5t-74 -93t-113 -67.5t-156 -27zM307 963l-135 196q-16 20 -16 31q0 18 26 32.5t66 14.5q33 0 45 -20l100 -156l88 141q9 35 49 35q28 0 57 -20t29 -41
q0 -13 -14 -27l-131 -188q-18 -56 -65 -56q-38 0 -54.5 11t-44.5 47z" />
    <glyph glyph-name="Dcaron" unicode="&#x10e;" horiz-adv-x="1247" 
d="M563 1057v-805q0 -87 27.5 -129.5t87.5 -42.5q58 0 118.5 56.5t109 151.5t79.5 232t31 285q0 106 -23 195.5t-69 159.5t-122 109.5t-175 39.5q-98 0 -175 -27.5t-124 -72.5t-77.5 -107t-42 -124.5t-11.5 -131.5q0 -88 27 -167t49 -111t32 -40q31 8 31 -28
q0 -41 -31.5 -81t-66.5 -40q-18 0 -31 10q-5 3 -20.5 19.5t-42 56t-49.5 88.5t-40.5 124.5t-17.5 156.5q0 281 164.5 456.5t431.5 175.5q111 0 203 -35.5t154.5 -96.5t106 -143.5t63.5 -175.5t20 -194q0 -209 -48.5 -384.5t-124.5 -285t-165 -169.5t-176 -60
q-140 0 -201.5 85.5t-61.5 254.5v785q0 23 -4 42t-4 23q0 15 16 25t38 10q50 0 82 -26t32 -64zM567 1606l-135 196q-16 20 -16 31q0 18 26 32.5t66 14.5q33 0 45 -20l100 -156l88 141q9 35 50 35q28 0 57 -20t29 -41q0 -12 -15 -27l-131 -188q-18 -56 -65 -56
q-38 0 -54.5 11t-44.5 47z" />
    <glyph glyph-name="dcaron" unicode="&#x10f;" horiz-adv-x="913" 
d="M301 -57q-122 0 -193 85.5t-71 243.5q0 224 118.5 363t295.5 164v463q0 35 -10.5 55.5t-10.5 21.5q0 10 21 16.5t45 6.5q50 0 80 -26t30 -64v-1100q0 -38 18 -66t52 -28q93 0 137 221q6 30 19.5 45.5t29.5 15.5q25 0 48.5 -27.5t23.5 -56.5q0 -6 -2 -14
q-12 -45 -27 -85.5t-40.5 -84.5t-56 -76t-74.5 -52.5t-95 -20.5q-103 0 -156 80q-80 -80 -182 -80zM332 78q71 0 119 80v506q-53 -10 -96.5 -34t-81 -67t-58 -113.5t-20.5 -162.5q0 -104 39 -156.5t98 -52.5zM795 1319q40 0 67 -28.5t27 -82.5q0 -57 -51.5 -132t-87.5 -75
q-23 0 -39.5 19.5t-16.5 38.5q0 5 1.5 7t6 4t5.5 3q23 7 63 66q-30 6 -50 30t-20 60q0 41 28.5 65.5t66.5 24.5z" />
    <glyph glyph-name="Dcroat" unicode="&#x110;" horiz-adv-x="1247" 
d="M350 735h53v312q0 23 -4 42t-4 23q0 15 16 25t38 10q50 0 82 -26t32 -64v-322h139q25 3 35.5 -11t10.5 -42q0 -31 -15.5 -57.5t-38.5 -26.5q-6 0 -10 2h-121v-348q0 -87 27.5 -129.5t87.5 -42.5q58 0 118.5 56.5t109 151.5t79.5 232t31 285q0 106 -23 195.5t-69 159.5
t-122 109.5t-175 39.5q-98 0 -175 -27.5t-124 -72.5t-77.5 -107t-42 -124.5t-11.5 -131.5q0 -88 27 -167t49 -111t32 -40q31 8 31 -28q0 -41 -31.5 -81t-66.5 -40q-18 0 -31 10q-5 3 -20.5 19.5t-42 56t-49.5 88.5t-40.5 124.5t-17.5 156.5q0 281 164.5 456.5t431.5 175.5
q111 0 203 -35.5t154.5 -96.5t106 -143.5t63.5 -175.5t20 -194q0 -209 -48.5 -384.5t-124.5 -285t-165 -169.5t-176 -60q-140 0 -201.5 85.5t-61.5 254.5v338h-73q-54 0 -54 47q0 41 19.5 64.5t54.5 23.5z" />
    <glyph glyph-name="dcroat" unicode="&#x111;" horiz-adv-x="749" 
d="M301 -57q-122 0 -193 85.5t-71 243.5q0 224 118.5 363t295.5 164v141h-156q-53 0 -53 47q0 42 19 65t54 23h136v187q0 35 -10.5 55.5t-10.5 21.5q0 10 21 16.5t45 6.5q50 0 80 -26t30 -64v-197h82q25 3 35 -11t10 -42q0 -32 -15 -58t-38 -26q-6 0 -10 2h-64v-768
q0 -38 18 -66t52 -28q93 0 137 221q6 30 19.5 45.5t29.5 15.5q25 0 48.5 -27.5t23.5 -56.5q0 -6 -2 -14q-12 -45 -27 -85.5t-40.5 -84.5t-56 -76t-74.5 -52.5t-95 -20.5q-103 0 -156 80q-80 -80 -182 -80zM332 78q71 0 119 80v506q-53 -10 -96.5 -34t-81 -67t-58 -113.5
t-20.5 -162.5q0 -104 39 -156.5t98 -52.5z" />
    <glyph glyph-name="Emacron" unicode="&#x112;" horiz-adv-x="913" 
d="M866 147q-14 -23 -32.5 -47.5t-57 -60t-83 -62t-112 -46t-141.5 -19.5q-153 0 -256.5 90.5t-103.5 245.5q0 106 53 186.5t133 122.5q-178 109 -178 334q0 101 43.5 204.5t116 186t175 134.5t210.5 52q136 0 213.5 -76.5t77.5 -193.5q0 -105 -52 -203t-140 -159.5
t-187 -61.5q-45 0 -79 23.5t-34 74.5q0 25 6.5 49.5t16.5 24.5q1 0 21.5 -10t55.5 -10q97 0 163.5 85t66.5 189q0 54 -35 82.5t-94 28.5q-99 0 -188.5 -61.5t-141 -156t-51.5 -192.5q0 -109 66.5 -188t140.5 -86q6 2 18 2q35 0 35 -49q0 -35 -15.5 -70.5t-33.5 -36.5
q-37 -4 -71.5 -16.5t-69.5 -36.5t-56.5 -67.5t-21.5 -100.5q0 -78 56.5 -128t143.5 -50q61 0 115 18t90.5 45.5t60.5 54t35 50.5q14 34 43 34q31 0 57.5 -32t26.5 -68q0 -17 -6 -29zM430 1739h352q25 3 35 -11t10 -42q0 -32 -15 -58t-38 -26q-6 0 -10 2h-354q-54 0 -54 47
q0 41 19.5 64.5t54.5 23.5z" />
    <glyph glyph-name="emacron" unicode="&#x113;" horiz-adv-x="608" 
d="M543 596q0 -78 -33 -155t-104 -142.5t-166 -93.5q53 -127 190 -127q57 0 102.5 22t74 61t46 81.5t27.5 93.5q8 43 41 51.5t60.5 -14.5t23.5 -58q-5 -43 -17.5 -87t-42 -97.5t-71.5 -93.5t-111 -67t-155 -27q-70 0 -135 28t-116 78t-81.5 128t-30.5 171q0 190 95.5 322.5
t217.5 132.5q85 0 135 -57t50 -150zM213 354q0 -6 1 -18.5t1 -18.5q77 35 122.5 110t45.5 167q0 34 -11.5 53t-31.5 19q-35 0 -62 -36t-40.5 -88.5t-20 -102t-4.5 -85.5zM197 1094h352q25 3 35 -11.5t10 -42.5q0 -32 -15 -58t-38 -26q-7 0 -11 2h-354q-53 0 -53 48
q0 41 19.5 64.5t54.5 23.5z" />
    <glyph glyph-name="Ebreve" unicode="&#x114;" horiz-adv-x="913" 
d="M866 147q-14 -23 -32.5 -47.5t-57 -60t-83 -62t-112 -46t-141.5 -19.5q-153 0 -256.5 90.5t-103.5 245.5q0 106 53 186.5t133 122.5q-178 109 -178 334q0 101 43.5 204.5t116 186t175 134.5t210.5 52q136 0 213.5 -76.5t77.5 -193.5q0 -105 -52 -203t-140 -159.5
t-187 -61.5q-45 0 -79 23.5t-34 74.5q0 25 6.5 49.5t16.5 24.5q1 0 21.5 -10t55.5 -10q97 0 163.5 85t66.5 189q0 54 -35 82.5t-94 28.5q-99 0 -188.5 -61.5t-141 -156t-51.5 -192.5q0 -109 66.5 -188t140.5 -86q6 2 18 2q35 0 35 -49q0 -35 -15.5 -70.5t-33.5 -36.5
q-37 -4 -71.5 -16.5t-69.5 -36.5t-56.5 -67.5t-21.5 -100.5q0 -78 56.5 -128t143.5 -50q61 0 115 18t90.5 45.5t60.5 54t35 50.5q14 34 43 34q31 0 57.5 -32t26.5 -68q0 -17 -6 -29zM594 1571q-42 0 -82 11.5t-79.5 37.5t-64 76.5t-24.5 118.5q0 18 26 32.5t66 14.5
q32 0 45 -21q2 -24 3.5 -38.5t8.5 -37.5t18 -36t31.5 -23t49.5 -10q28 0 47.5 10t28.5 21t14 33t5.5 32.5t0.5 32.5q4 14 17 25.5t34 11.5q28 0 57 -20.5t29 -41.5q0 -57 -17.5 -100.5t-43 -67t-59.5 -38.5t-60 -19t-51 -4z" />
    <glyph glyph-name="ebreve" unicode="&#x115;" horiz-adv-x="608" 
d="M543 596q0 -78 -33 -155t-104 -142.5t-166 -93.5q53 -127 190 -127q57 0 102.5 22t74 61t46 81.5t27.5 93.5q8 43 41 51.5t60.5 -14.5t23.5 -58q-5 -43 -17.5 -87t-42 -97.5t-71.5 -93.5t-111 -67t-155 -27q-70 0 -135 28t-116 78t-81.5 128t-30.5 171q0 190 95.5 322.5
t217.5 132.5q85 0 135 -57t50 -150zM213 354q0 -6 1 -18.5t1 -18.5q77 35 122.5 110t45.5 167q0 34 -11.5 53t-31.5 19q-35 0 -62 -36t-40.5 -88.5t-20 -102t-4.5 -85.5zM360 926q-33 0 -64.5 6.5t-66 23.5t-60 43.5t-42 70.5t-16.5 99q0 18 26.5 33t65.5 15q32 0 45 -21
q2 -25 3.5 -39t8 -37t17.5 -36t31.5 -23t49.5 -10q28 0 47.5 9.5t29 21.5t14.5 33t5.5 32.5t0.5 32.5q4 14 17 25.5t34 11.5q28 0 57 -20.5t29 -41.5q0 -57 -18 -100.5t-43.5 -67t-59 -38.5t-60 -19t-51.5 -4z" />
    <glyph glyph-name="Edotaccent" unicode="&#x116;" horiz-adv-x="913" 
d="M866 147q-14 -23 -32.5 -47.5t-57 -60t-83 -62t-112 -46t-141.5 -19.5q-153 0 -256.5 90.5t-103.5 245.5q0 106 53 186.5t133 122.5q-178 109 -178 334q0 101 43.5 204.5t116 186t175 134.5t210.5 52q136 0 213.5 -76.5t77.5 -193.5q0 -105 -52 -203t-140 -159.5
t-187 -61.5q-45 0 -79 23.5t-34 74.5q0 25 6.5 49.5t16.5 24.5q1 0 21.5 -10t55.5 -10q97 0 163.5 85t66.5 189q0 54 -35 82.5t-94 28.5q-99 0 -188.5 -61.5t-141 -156t-51.5 -192.5q0 -109 66.5 -188t140.5 -86q6 2 18 2q35 0 35 -49q0 -35 -15.5 -70.5t-33.5 -36.5
q-37 -4 -71.5 -16.5t-69.5 -36.5t-56.5 -67.5t-21.5 -100.5q0 -78 56.5 -128t143.5 -50q61 0 115 18t90.5 45.5t60.5 54t35 50.5q14 34 43 34q31 0 57.5 -32t26.5 -68q0 -17 -6 -29zM489 1673q0 43 30 73t73 30t72.5 -30t29.5 -73t-29.5 -72.5t-72.5 -29.5t-73 29.5
t-30 72.5z" />
    <glyph glyph-name="edotaccent" unicode="&#x117;" horiz-adv-x="608" 
d="M543 596q0 -78 -33 -155t-104 -142.5t-166 -93.5q53 -127 190 -127q57 0 102.5 22t74 61t46 81.5t27.5 93.5q8 43 41 51.5t60.5 -14.5t23.5 -58q-5 -43 -17.5 -87t-42 -97.5t-71.5 -93.5t-111 -67t-155 -27q-70 0 -135 28t-116 78t-81.5 128t-30.5 171q0 190 95.5 322.5
t217.5 132.5q85 0 135 -57t50 -150zM213 354q0 -6 1 -18.5t1 -18.5q77 35 122.5 110t45.5 167q0 34 -11.5 53t-31.5 19q-35 0 -62 -36t-40.5 -88.5t-20 -102t-4.5 -85.5zM256 1028q0 43 29.5 72.5t72.5 29.5t73 -29.5t30 -72.5t-30 -72.5t-73 -29.5t-72.5 29.5t-29.5 72.5z
" />
    <glyph glyph-name="Eogonek" unicode="&#x118;" horiz-adv-x="913" 
d="M866 147q-29 -47 -81.5 -97.5t-122.5 -88.5q-69 -37 -121 -87t-52 -99q0 -74 95 -74q84 0 121 18q12 7 20 -12t8 -37q0 -46 -36.5 -67t-123.5 -21q-112 0 -166.5 54t-54.5 120q0 76 74 156q-150 5 -248 96t-98 240q0 106 53 186.5t133 122.5q-178 109 -178 334
q0 101 43.5 204.5t116 186t175 134.5t210.5 52q136 0 213.5 -76.5t77.5 -193.5q0 -105 -52 -203t-140 -159.5t-187 -61.5q-45 0 -79 23.5t-34 74.5q0 25 6.5 49.5t16.5 24.5q1 0 21.5 -10t55.5 -10q97 0 163.5 85t66.5 189q0 54 -35 82.5t-94 28.5q-99 0 -188.5 -61.5
t-141 -156t-51.5 -192.5q0 -109 66.5 -188t140.5 -86q6 2 18 2q35 0 35 -49q0 -35 -15.5 -70.5t-33.5 -36.5q-37 -4 -71.5 -16.5t-69.5 -36.5t-56.5 -67.5t-21.5 -100.5q0 -78 56.5 -128t143.5 -50q61 0 115 18t90.5 45.5t60.5 54t35 50.5q14 34 43 34q31 0 57.5 -32
t26.5 -68q0 -17 -6 -29z" />
    <glyph glyph-name="eogonek" unicode="&#x119;" horiz-adv-x="608" 
d="M543 596q0 -78 -33 -155t-104 -142.5t-166 -93.5q53 -127 190 -127q57 0 102.5 22t74 61t46 81.5t27.5 93.5q8 43 41 51.5t60.5 -14.5t23.5 -58q-33 -269 -260 -352q-68 -26 -126.5 -82.5t-58.5 -109.5q0 -74 95 -74q83 0 120 18q12 7 20.5 -12t8.5 -37q0 -46 -36.5 -67
t-123.5 -21q-112 0 -166.5 54t-54.5 120q0 112 117 197q-129 27 -212 134t-83 265q0 190 95.5 322.5t217.5 132.5q85 0 135 -57t50 -150zM213 354q0 -6 1 -18.5t1 -18.5q77 35 122.5 110t45.5 167q0 34 -11.5 53t-31.5 19q-35 0 -62 -36t-40.5 -88.5t-20 -102t-4.5 -85.5z
" />
    <glyph glyph-name="Ecaron" unicode="&#x11a;" horiz-adv-x="913" 
d="M866 147q-14 -23 -32.5 -47.5t-57 -60t-83 -62t-112 -46t-141.5 -19.5q-153 0 -256.5 90.5t-103.5 245.5q0 106 53 186.5t133 122.5q-178 109 -178 334q0 101 43.5 204.5t116 186t175 134.5t210.5 52q136 0 213.5 -76.5t77.5 -193.5q0 -105 -52 -203t-140 -159.5
t-187 -61.5q-45 0 -79 23.5t-34 74.5q0 25 6.5 49.5t16.5 24.5q1 0 21.5 -10t55.5 -10q97 0 163.5 85t66.5 189q0 54 -35 82.5t-94 28.5q-99 0 -188.5 -61.5t-141 -156t-51.5 -192.5q0 -109 66.5 -188t140.5 -86q6 2 18 2q35 0 35 -49q0 -35 -15.5 -70.5t-33.5 -36.5
q-37 -4 -71.5 -16.5t-69.5 -36.5t-56.5 -67.5t-21.5 -100.5q0 -78 56.5 -128t143.5 -50q61 0 115 18t90.5 45.5t60.5 54t35 50.5q14 34 43 34q31 0 57.5 -32t26.5 -68q0 -17 -6 -29zM506 1608l-135 196q-17 21 -17 31q0 18 26 32.5t66 14.5q34 0 46 -20l100 -156l88 141
q9 35 49 35q28 0 57 -20t29 -41q0 -13 -14 -27l-131 -188q-18 -56 -66 -56q-27 0 -43.5 7t-25.5 16t-29 35z" />
    <glyph glyph-name="ecaron" unicode="&#x11b;" horiz-adv-x="608" 
d="M543 596q0 -78 -33 -155t-104 -142.5t-166 -93.5q53 -127 190 -127q57 0 102.5 22t74 61t46 81.5t27.5 93.5q8 43 41 51.5t60.5 -14.5t23.5 -58q-5 -43 -17.5 -87t-42 -97.5t-71.5 -93.5t-111 -67t-155 -27q-70 0 -135 28t-116 78t-81.5 128t-30.5 171q0 190 95.5 322.5
t217.5 132.5q85 0 135 -57t50 -150zM213 354q0 -6 1 -18.5t1 -18.5q77 35 122.5 110t45.5 167q0 34 -11.5 53t-31.5 19q-35 0 -62 -36t-40.5 -88.5t-20 -102t-4.5 -85.5zM272 963l-135 196q-16 20 -16 31q0 18 26 32.5t66 14.5q33 0 45 -20l100 -156l88 141q9 35 50 35
q28 0 57 -20t29 -41q0 -12 -15 -27l-131 -188q-18 -56 -65 -56q-38 0 -54.5 11t-44.5 47z" />
    <glyph glyph-name="Gcircumflex" unicode="&#x11c;" horiz-adv-x="1050" 
d="M784 119q-136 -201 -317 -201q-188 0 -292.5 172.5t-104.5 464.5q0 123 29.5 251t88 245t137.5 209t186.5 147t225.5 55q113 0 186.5 -69t73.5 -185q0 -80 -41.5 -158t-104.5 -133t-138.5 -88.5t-141.5 -33.5q-39 0 -64.5 25t-25.5 73q0 25 6.5 49.5t16.5 24.5
q1 0 22 -10.5t56 -10.5q83 0 168.5 79t85.5 173q0 43 -30.5 79t-94.5 36q-123 0 -233.5 -114.5t-174 -289t-63.5 -352.5q0 -217 65.5 -348t165.5 -131q74 0 136.5 46t100 116.5t58 146t20.5 141.5q0 11 -2 36.5t-2 31.5q0 18 10 27.5t22 11.5t34 2q32 0 69 -23.5t37 -54.5
q-12 -133 -12 -309q0 -44 1 -150t1 -172q47 7 109 11q48 3 52 -44q5 -46 -28 -88q-24 -29 -51 -30q-28 0 -86 -4q-3 -63 -9.5 -117t-19 -113.5t-35 -105t-53.5 -83.5t-77.5 -58.5t-104.5 -20.5q-103 0 -166 68.5t-63 173.5q0 75 31 138t86.5 108t118.5 76.5t140 54.5v20
q0 49 -2 117t-2 88zM645 -567q118 0 137 309q-102 -33 -156.5 -89t-54.5 -132q0 -44 20.5 -66t53.5 -22zM791 1821l135 -197q16 -20 16 -31q0 -18 -26 -32.5t-66 -14.5q-32 0 -45 21l-100 155l-89 -141q-7 -13 -10.5 -18t-14 -11t-24.5 -6q-28 0 -58 21.5t-30 42.5q0 4 4 8
l144 205q37 55 94 55q24 0 37 -7.5t18 -16t15 -33.5z" />
    <glyph glyph-name="gcircumflex" unicode="&#x11d;" horiz-adv-x="720" 
d="M195 -608q0 60 15 114t34 91t59 83t66 70t80 72v215q-74 -74 -168 -74q-116 0 -180 86.5t-64 222.5q0 124 41 229.5t109 175t155.5 108t181.5 38.5q42 0 68 -23.5t26 -62.5q0 -26 -5.5 -36.5t-20.5 -10.5q-9 0 -29.5 2t-30.5 2q-61 0 -119 -26t-107.5 -76.5t-80 -135
t-30.5 -190.5q0 -79 31 -123.5t85 -44.5q38 0 68.5 32t46 72.5t23.5 86.5v231q0 23 -4.5 42.5t-4.5 23.5q0 15 16 25t38 10q50 0 80 -26.5t30 -64.5v-557q126 139 180 326q17 61 50 61q25 0 48 -27.5t23 -56.5q0 -12 -2 -20q-25 -85 -59 -156t-76.5 -126t-78.5 -93t-85 -80
v-354q0 -149 -62 -220t-151 -71q-85 0 -140.5 68t-55.5 168zM391 -715q11 0 19.5 4t14.5 12t10.5 17t7 22t4 23t2 25t0.5 22.5v20.5v16v219q-54 -56 -82.5 -118.5t-28.5 -149.5q0 -49 14.5 -81t38.5 -32zM535 1204l135 -196q16 -20 16 -31q0 -18 -26 -32.5t-66 -14.5
q-33 0 -45 20l-100 156l-89 -141q-7 -13 -10.5 -18t-14 -11t-24.5 -6q-28 0 -58 21t-30 42q0 4 4 8l144 205q38 56 94 56q24 0 37.5 -8t17.5 -16t15 -34z" />
    <glyph glyph-name="Gbreve" unicode="&#x11e;" horiz-adv-x="1050" 
d="M784 119q-136 -201 -317 -201q-188 0 -292.5 172.5t-104.5 464.5q0 123 29.5 251t88 245t137.5 209t186.5 147t225.5 55q113 0 186.5 -69t73.5 -185q0 -80 -41.5 -158t-104.5 -133t-138.5 -88.5t-141.5 -33.5q-39 0 -64.5 25t-25.5 73q0 25 6.5 49.5t16.5 24.5
q1 0 22 -10.5t56 -10.5q83 0 168.5 79t85.5 173q0 43 -30.5 79t-94.5 36q-123 0 -233.5 -114.5t-174 -289t-63.5 -352.5q0 -217 65.5 -348t165.5 -131q74 0 136.5 46t100 116.5t58 146t20.5 141.5q0 11 -2 36.5t-2 31.5q0 18 10 27.5t22 11.5t34 2q32 0 69 -23.5t37 -54.5
q-12 -133 -12 -309q0 -44 1 -150t1 -172q47 7 109 11q48 3 52 -44q5 -46 -28 -88q-24 -29 -51 -30q-28 0 -86 -4q-3 -63 -9.5 -117t-19 -113.5t-35 -105t-53.5 -83.5t-77.5 -58.5t-104.5 -20.5q-103 0 -166 68.5t-63 173.5q0 75 31 138t86.5 108t118.5 76.5t140 54.5v20
q0 49 -2 117t-2 88zM645 -567q118 0 137 309q-102 -33 -156.5 -89t-54.5 -132q0 -44 20.5 -66t53.5 -22zM713 1567q-42 0 -82 11.5t-79.5 37t-64 76t-24.5 118.5q0 18 26.5 33t65.5 15q32 0 45 -21q2 -24 3.5 -38.5t8.5 -37.5t18 -36t31.5 -23t49.5 -10q28 0 47.5 10
t28.5 21t14 33t5.5 32.5t0.5 32.5q4 14 17 25.5t34 11.5q28 0 57 -20.5t29 -41.5q0 -57 -17.5 -100.5t-43 -67t-59.5 -38.5t-60 -19t-51 -4z" />
    <glyph glyph-name="gbreve" unicode="&#x11f;" horiz-adv-x="720" 
d="M195 -608q0 60 15 114t34 91t59 83t66 70t80 72v215q-74 -74 -168 -74q-116 0 -180 86.5t-64 222.5q0 124 41 229.5t109 175t155.5 108t181.5 38.5q42 0 68 -23.5t26 -62.5q0 -26 -5.5 -36.5t-20.5 -10.5q-9 0 -29.5 2t-30.5 2q-61 0 -119 -26t-107.5 -76.5t-80 -135
t-30.5 -190.5q0 -79 31 -123.5t85 -44.5q38 0 68.5 32t46 72.5t23.5 86.5v231q0 23 -4.5 42.5t-4.5 23.5q0 15 16 25t38 10q50 0 80 -26.5t30 -64.5v-557q126 139 180 326q17 61 50 61q25 0 48 -27.5t23 -56.5q0 -12 -2 -20q-25 -85 -59 -156t-76.5 -126t-78.5 -93t-85 -80
v-354q0 -149 -62 -220t-151 -71q-85 0 -140.5 68t-55.5 168zM391 -715q11 0 19.5 4t14.5 12t10.5 17t7 22t4 23t2 25t0.5 22.5v20.5v16v219q-54 -56 -82.5 -118.5t-28.5 -149.5q0 -49 14.5 -81t38.5 -32zM457 950q-42 0 -82 11.5t-79.5 37.5t-64 76.5t-24.5 118.5
q0 18 26 32.5t66 14.5q33 0 45 -20q2 -24 3.5 -38.5t8.5 -37.5t18 -36t31.5 -23.5t49.5 -10.5q28 0 47.5 10t28.5 21t14 33t5.5 32.5t0.5 32.5q4 14 17 25.5t34 11.5q28 0 57 -20t29 -41q0 -57 -17.5 -100.5t-43 -67.5t-59.5 -38.5t-60 -19t-51 -4.5z" />
    <glyph glyph-name="Gdotaccent" unicode="&#x120;" horiz-adv-x="1050" 
d="M784 119q-136 -201 -317 -201q-188 0 -292.5 172.5t-104.5 464.5q0 123 29.5 251t88 245t137.5 209t186.5 147t225.5 55q113 0 186.5 -69t73.5 -185q0 -80 -41.5 -158t-104.5 -133t-138.5 -88.5t-141.5 -33.5q-39 0 -64.5 25t-25.5 73q0 25 6.5 49.5t16.5 24.5
q1 0 22 -10.5t56 -10.5q83 0 168.5 79t85.5 173q0 43 -30.5 79t-94.5 36q-123 0 -233.5 -114.5t-174 -289t-63.5 -352.5q0 -217 65.5 -348t165.5 -131q74 0 136.5 46t100 116.5t58 146t20.5 141.5q0 11 -2 36.5t-2 31.5q0 18 10 27.5t22 11.5t34 2q32 0 69 -23.5t37 -54.5
q-12 -133 -12 -309q0 -44 1 -150t1 -172q47 7 109 11q48 3 52 -44q5 -46 -28 -88q-24 -29 -51 -30q-28 0 -86 -4q-3 -63 -9.5 -117t-19 -113.5t-35 -105t-53.5 -83.5t-77.5 -58.5t-104.5 -20.5q-103 0 -166 68.5t-63 173.5q0 75 31 138t86.5 108t118.5 76.5t140 54.5v20
q0 49 -2 117t-2 88zM645 -567q118 0 137 309q-102 -33 -156.5 -89t-54.5 -132q0 -44 20.5 -66t53.5 -22zM608 1669q0 43 30 73t73 30t72.5 -30t29.5 -73t-29.5 -72.5t-72.5 -29.5t-73 29.5t-30 72.5z" />
    <glyph glyph-name="gdotaccent" unicode="&#x121;" horiz-adv-x="720" 
d="M195 -608q0 60 15 114t34 91t59 83t66 70t80 72v215q-74 -74 -168 -74q-116 0 -180 86.5t-64 222.5q0 124 41 229.5t109 175t155.5 108t181.5 38.5q42 0 68 -23.5t26 -62.5q0 -26 -5.5 -36.5t-20.5 -10.5q-9 0 -29.5 2t-30.5 2q-61 0 -119 -26t-107.5 -76.5t-80 -135
t-30.5 -190.5q0 -79 31 -123.5t85 -44.5q38 0 68.5 32t46 72.5t23.5 86.5v231q0 23 -4.5 42.5t-4.5 23.5q0 15 16 25t38 10q50 0 80 -26.5t30 -64.5v-557q126 139 180 326q17 61 50 61q25 0 48 -27.5t23 -56.5q0 -12 -2 -20q-25 -85 -59 -156t-76.5 -126t-78.5 -93t-85 -80
v-354q0 -149 -62 -220t-151 -71q-85 0 -140.5 68t-55.5 168zM391 -715q11 0 19.5 4t14.5 12t10.5 17t7 22t4 23t2 25t0.5 22.5v20.5v16v219q-54 -56 -82.5 -118.5t-28.5 -149.5q0 -49 14.5 -81t38.5 -32zM352 1053q0 43 30 72.5t73 29.5t72.5 -29.5t29.5 -72.5t-29.5 -73
t-72.5 -30t-73 30t-30 73z" />
    <glyph glyph-name="Gcommaaccent" unicode="&#x122;" horiz-adv-x="1050" 
d="M518 -692q-49 32 -17 88q23 41 63 57q36 14 46 -12q13 -8 35 -8q143 0 143 481q0 49 -2 117t-2 88q-136 -201 -317 -201q-188 0 -292.5 172.5t-104.5 464.5q0 123 29.5 251t88 245t137.5 209t186.5 147t225.5 55q113 0 186.5 -69t73.5 -185q0 -80 -41.5 -158t-104.5 -133
t-138.5 -88.5t-141.5 -33.5q-39 0 -64.5 25t-25.5 73q0 25 6.5 49.5t16.5 24.5q1 0 22 -10.5t56 -10.5q83 0 168.5 79t85.5 173q0 43 -30.5 79t-94.5 36q-123 0 -233.5 -114.5t-174 -289t-63.5 -352.5q0 -217 65.5 -348t165.5 -131q74 0 136.5 46t100 116.5t58 146
t20.5 141.5q0 11 -2 36.5t-2 31.5q0 18 10 27.5t22 11.5t34 2q32 0 69 -23.5t37 -54.5q-12 -133 -12 -309q0 -46 1 -161t1 -189q0 -62 -1.5 -111t-8.5 -117t-19 -119.5t-34.5 -106.5t-53.5 -90t-79 -58t-107 -23q-73 0 -123 33zM477 -166q40 0 67 -28t27 -82
q0 -57 -51.5 -132t-87.5 -75q-23 0 -39 19t-16 38q0 4 1 6t2.5 3t4.5 2.5t4 2.5q24 7 64 66q-30 6 -50 30t-20 60q0 41 28 65.5t66 24.5z" />
    <glyph glyph-name="gcommaaccent" unicode="&#x123;" horiz-adv-x="720" 
d="M195 -608q0 60 15 114t34 91t59 83t66 70t80 72v215q-74 -74 -168 -74q-116 0 -180 86.5t-64 222.5q0 124 41 229.5t109 175t155.5 108t181.5 38.5q42 0 68 -23.5t26 -62.5q0 -26 -5.5 -36.5t-20.5 -10.5q-9 0 -29.5 2t-30.5 2q-61 0 -119 -26t-107.5 -76.5t-80 -135
t-30.5 -190.5q0 -79 31 -123.5t85 -44.5q38 0 68.5 32t46 72.5t23.5 86.5v231q0 23 -4.5 42.5t-4.5 23.5q0 15 16 25t38 10q50 0 80 -26.5t30 -64.5v-557q126 139 180 326q17 61 50 61q25 0 48 -27.5t23 -56.5q0 -12 -2 -20q-25 -85 -59 -156t-76.5 -126t-78.5 -93t-85 -80
v-354q0 -149 -62 -220t-151 -71q-85 0 -140.5 68t-55.5 168zM465 926q-40 0 -67 28t-27 82q0 57 51.5 132t87.5 75q23 0 39 -19t16 -38q0 -3 -0.5 -5t-2 -3.5l-2.5 -2.5t-3.5 -2t-3.5 -2q-25 -7 -64 -65q30 -6 50 -30t20 -60q0 -41 -28 -65.5t-66 -24.5zM391 -715
q11 0 19.5 4t14.5 12t10.5 17t7 22t4 23t2 25t0.5 22.5v20.5v16v219q-54 -56 -82.5 -118.5t-28.5 -149.5q0 -49 14.5 -81t38.5 -32z" />
    <glyph glyph-name="Hcircumflex" unicode="&#x124;" horiz-adv-x="1388" 
d="M793 1348v-730h319v699q0 104 31 161.5t76 57.5q40 0 74 -41t34 -68q0 -8 -5.5 -11t-13.5 -7.5t-16.5 -15t-14 -41t-5.5 -78.5v-1284q0 -47 -58 -47q-36 0 -69 18t-33 41v473h-319v-485q0 -47 -58 -47q-36 0 -69 18t-33 41v473h-146q-30 0 -51.5 34t-21.5 69q0 40 30 40
h189v662q-191 0 -312.5 -123t-121.5 -326q0 -79 22 -147.5t46.5 -101.5t39.5 -33q6 0 13 5t12 5q12 0 12 -33q0 -66 -46 -107t-89 -9q-66 47 -119 154.5t-53 260.5q0 126 40.5 229.5t107 172.5t155 117t182 69t189.5 21q33 0 57.5 -25t24.5 -61zM981 1796l135 -197
q17 -21 17 -30q0 -18 -26.5 -32.5t-66.5 -14.5q-33 0 -45 20l-100 156l-88 -142q-7 -12 -10.5 -17.5t-13.5 -11t-25 -5.5q-28 0 -58 21t-30 42q0 4 4 8l143 205q37 55 94 55q24 0 37 -7.5t18 -16t15 -33.5z" />
    <glyph glyph-name="hcircumflex" unicode="&#x125;" horiz-adv-x="753" 
d="M72 33v1229q0 35 -10.5 55.5t-10.5 21.5q0 10 21 16.5t45 6.5q50 0 80 -26t30 -64v-672q97 203 230 203q49 0 84 -18.5t53 -50.5t25.5 -65.5t7.5 -72.5v-424q0 -94 53 -94q93 0 137 221q13 63 52 61q33 -3 56 -42q17 -29 11 -56q-16 -58 -37.5 -108t-56 -101t-86 -80.5
t-113.5 -29.5q-79 0 -125.5 55.5t-46.5 136.5v416q0 27 -1.5 45.5t-5.5 36t-13 26.5t-23 9q-30 0 -74.5 -49.5t-82 -131t-44.5 -157.5v-299v-25t-3 -22t-8.5 -22t-17 -13t-28.5 -6q-98 0 -98 90zM225 1720l135 -196q17 -21 17 -31q0 -18 -26 -32.5t-66 -14.5q-33 0 -45 20
l-101 156l-88 -141q-7 -13 -10.5 -18t-14 -11t-24.5 -6q-28 0 -58 21t-30 42q0 5 4 9l143 204q38 56 95 56q40 0 54 -25q4 -6 15 -33z" />
    <glyph glyph-name="Hbar" unicode="&#x126;" horiz-adv-x="1388" 
d="M1272 1274v-281h82q25 3 35 -11t10 -42q0 -32 -15 -58t-38 -26q-7 0 -11 2h-63v-868q0 -47 -58 -47q-36 0 -69 18t-33 41v473h-319v-485q0 -47 -58 -47q-36 0 -69 18t-33 41v856h-113q-53 0 -53 47q0 41 19.5 64.5t54.5 23.5h92v287q-191 0 -312.5 -123t-121.5 -326
q0 -79 22 -147.5t46.5 -101.5t39.5 -33q6 0 13 5t12 5q12 0 12 -33q0 -66 -46 -107t-89 -9q-66 47 -119 154.5t-53 260.5q0 126 40.5 229.5t107 172.5t155 117t182 69t189.5 21q33 0 57.5 -25t24.5 -61v-355h319v324q0 104 31 161.5t76 57.5q40 0 74 -41t34 -68
q0 -8 -5.5 -11t-13.5 -7.5t-16.5 -15t-14 -41t-5.5 -78.5zM793 858v-240h319v240h-319z" />
    <glyph glyph-name="hbar" unicode="&#x127;" horiz-adv-x="753" 
d="M72 33v907h-64q-53 0 -53 47q0 41 19.5 64.5t54.5 23.5h43v187q0 35 -10.5 55.5t-10.5 21.5q0 10 21 16.5t45 6.5q50 0 80 -26t30 -64v-197h174q25 3 35 -11t10 -42q0 -32 -15 -58t-38 -26q-6 0 -10 2h-156v-340q97 203 230 203q49 0 84 -18.5t53 -50.5t25.5 -65.5
t7.5 -72.5v-424q0 -94 53 -94q93 0 137 221q13 63 52 61q33 -3 56 -42q17 -29 11 -56q-16 -58 -37.5 -108t-56 -101t-86 -80.5t-113.5 -29.5q-79 0 -125.5 55.5t-46.5 136.5v416q0 27 -1.5 45.5t-5.5 36t-13 26.5t-23 9q-30 0 -74.5 -49.5t-82 -131t-44.5 -157.5v-299v-25
t-3 -22t-8.5 -22t-17 -13t-28.5 -6q-98 0 -98 90z" />
    <glyph glyph-name="Itilde" unicode="&#x128;" horiz-adv-x="811" 
d="M694 1348v-1358q0 -47 -57 -47q-36 0 -69 18t-33 41v1272q-147 -18 -241.5 -125.5t-94.5 -292.5q0 -75 22 -140.5t46.5 -96.5t39.5 -31q5 0 11.5 7t11.5 7q14 0 14 -31q0 -66 -46 -110t-89 -12q-64 43 -118 154t-54 253q0 125 37 226t95.5 165.5t136 107.5t153.5 61
t153 18q33 0 57.5 -25t24.5 -61zM434 1583q0 -12 -15 -19.5t-32 -7.5q-27 0 -50.5 12t-23.5 29q0 65 45.5 126t110.5 61q37 0 69.5 -17t51 -37.5t41.5 -37.5t43 -17q41 0 41 64q0 21 17 31t38 10q25 0 47.5 -12t22.5 -25q0 -91 -51 -144t-111 -53q-37 0 -71 17.5t-54 39
t-38 39t-28 17.5q-26 0 -36.5 -20t-16.5 -56z" />
    <glyph glyph-name="itilde" unicode="&#x129;" horiz-adv-x="354" 
d="M227 692v-520q0 -94 54 -94q93 0 137 221q13 63 52 61q33 -3 56 -42q17 -29 11 -56q-16 -58 -37.5 -108t-56 -101t-86 -80.5t-113.5 -29.5q-79 0 -125.5 55.5t-46.5 136.5v547q0 23 -4.5 42.5t-4.5 23.5q0 15 16 24.5t38 9.5q50 0 80 -26t30 -64zM14 963q0 -12 -15 -19.5
t-32 -7.5q-27 0 -50 12t-23 29q0 65 45 125.5t110 60.5q37 0 69.5 -17t51 -37t41.5 -37t43 -17q41 0 41 63q0 21 17 31t38 10q25 0 47.5 -12t22.5 -25q0 -91 -51 -143.5t-111 -52.5q-37 0 -71 17.5t-53.5 38.5t-37.5 38.5t-28 17.5q-18 0 -30 -12.5t-16 -26.5t-8 -36z" />
    <glyph glyph-name="Imacron" unicode="&#x12a;" horiz-adv-x="811" 
d="M694 1348v-1358q0 -47 -57 -47q-36 0 -69 18t-33 41v1272q-147 -18 -241.5 -125.5t-94.5 -292.5q0 -75 22 -140.5t46.5 -96.5t39.5 -31q5 0 11.5 7t11.5 7q14 0 14 -31q0 -66 -46 -110t-89 -12q-64 43 -118 154t-54 253q0 125 37 226t95.5 165.5t136 107.5t153.5 61
t153 18q33 0 57.5 -25t24.5 -61zM408 1704h352q25 3 35 -11t10 -42q0 -32 -15 -58t-38 -26q-7 0 -11 2h-354q-53 0 -53 47q0 41 19.5 64.5t54.5 23.5z" />
    <glyph glyph-name="imacron" unicode="&#x12b;" horiz-adv-x="354" 
d="M227 692v-520q0 -94 54 -94q93 0 137 221q13 63 52 61q33 -3 56 -42q17 -29 11 -56q-16 -58 -37.5 -108t-56 -101t-86 -80.5t-113.5 -29.5q-79 0 -125.5 55.5t-46.5 136.5v547q0 23 -4.5 42.5t-4.5 23.5q0 15 16 24.5t38 9.5q50 0 80 -26t30 -64zM-12 1083h352
q25 3 35 -11t10 -42q0 -32 -15 -58t-38 -26q-6 0 -10 2h-355q-53 0 -53 47q0 41 19.5 64.5t54.5 23.5z" />
    <glyph glyph-name="Ibreve" unicode="&#x12c;" horiz-adv-x="811" 
d="M694 1348v-1358q0 -47 -57 -47q-36 0 -69 18t-33 41v1272q-147 -18 -241.5 -125.5t-94.5 -292.5q0 -75 22 -140.5t46.5 -96.5t39.5 -31q5 0 11.5 7t11.5 7q14 0 14 -31q0 -66 -46 -110t-89 -12q-64 43 -118 154t-54 253q0 125 37 226t95.5 165.5t136 107.5t153.5 61
t153 18q33 0 57.5 -25t24.5 -61zM571 1536q-42 0 -82 11.5t-79.5 37.5t-63.5 76.5t-24 118.5q0 18 26 32.5t66 14.5q32 0 45 -21q2 -25 3.5 -39t8 -37t17.5 -36t31.5 -23t49.5 -10q28 0 47.5 9.5t29 21.5t14.5 33t5.5 32.5t0.5 32.5q4 14 17 25.5t34 11.5q28 0 57 -20.5
t29 -41.5q0 -57 -18 -100.5t-43.5 -67t-59 -38.5t-60 -19t-51.5 -4z" />
    <glyph glyph-name="ibreve" unicode="&#x12d;" horiz-adv-x="354" 
d="M227 692v-520q0 -94 54 -94q93 0 137 221q13 63 52 61q33 -3 56 -42q17 -29 11 -56q-16 -58 -37.5 -108t-56 -101t-86 -80.5t-113.5 -29.5q-79 0 -125.5 55.5t-46.5 136.5v547q0 23 -4.5 42.5t-4.5 23.5q0 15 16 24.5t38 9.5q50 0 80 -26t30 -64zM152 915q-42 0 -82 11.5
t-79.5 37.5t-64 76.5t-24.5 118.5q0 18 26 32.5t66 14.5q33 0 45 -20q2 -24 3.5 -38.5t8.5 -37.5t18 -36t31.5 -23.5t49.5 -10.5q28 0 47.5 10t28.5 21t14 33t5.5 32.5t0.5 32.5q4 14 17 25.5t34 11.5q28 0 57 -20t29 -41q0 -57 -17.5 -100.5t-43 -67.5t-59.5 -38.5t-60 -19
t-51 -4.5z" />
    <glyph glyph-name="Iogonek" unicode="&#x12e;" horiz-adv-x="811" 
d="M694 1348v-1350q0 -43 -32 -55q-62 -23 -105 -75.5t-43 -113.5q0 -73 94 -73q84 0 121 18q12 7 20.5 -12t8.5 -37q0 -46 -36.5 -67t-123.5 -21q-112 0 -166.5 54t-54.5 120q0 73 47 141.5t113 112.5q-2 4 -2 12v1272q-147 -18 -241.5 -125.5t-94.5 -292.5
q0 -75 22 -140.5t46.5 -96.5t39.5 -31q5 0 11.5 7t11.5 7q14 0 14 -31q0 -66 -46 -110t-89 -12q-64 43 -118 154t-54 253q0 125 37 226t95.5 165.5t136 107.5t153.5 61t153 18q33 0 57.5 -25t24.5 -61z" />
    <glyph glyph-name="iogonek" unicode="&#x12f;" horiz-adv-x="354" 
d="M227 692v-520q0 -94 54 -94q93 0 137 221q13 63 52 61q33 -3 56 -42q17 -29 11 -56q-68 -254 -236 -319q-59 -22 -103 -70t-44 -94q0 -74 94 -74q82 0 121 19q12 7 20 -12.5t8 -37.5q0 -46 -36.5 -67t-122.5 -21q-112 0 -167 54t-55 120q0 121 125 215q-69 57 -69 160
v547q0 23 -4.5 42.5t-4.5 23.5q0 15 16 24.5t38 9.5q50 0 80 -26t30 -64zM180 985q-51 0 -87 37t-36 88q0 54 35.5 89.5t87.5 35.5q54 0 89.5 -35.5t35.5 -89.5q0 -52 -36 -88.5t-89 -36.5z" />
    <glyph glyph-name="Idotaccent" unicode="&#x130;" horiz-adv-x="811" 
d="M694 1348v-1358q0 -47 -57 -47q-36 0 -69 18t-33 41v1272q-147 -18 -241.5 -125.5t-94.5 -292.5q0 -75 22 -140.5t46.5 -96.5t39.5 -31q5 0 11.5 7t11.5 7q14 0 14 -31q0 -66 -46 -110t-89 -12q-64 43 -118 154t-54 253q0 125 37 226t95.5 165.5t136 107.5t153.5 61
t153 18q33 0 57.5 -25t24.5 -61zM467 1638q0 43 29.5 73t72.5 30t73 -30t30 -73t-30 -72.5t-73 -29.5t-72.5 29.5t-29.5 72.5z" />
    <glyph glyph-name="dotlessi" unicode="&#x131;" horiz-adv-x="354" 
d="M227 692v-520q0 -94 54 -94q93 0 137 221q13 63 52 61q33 -3 56 -42q17 -29 11 -56q-16 -58 -37.5 -108t-56 -101t-86 -80.5t-113.5 -29.5q-79 0 -125.5 55.5t-46.5 136.5v547q0 23 -4.5 42.5t-4.5 23.5q0 15 16 24.5t38 9.5q50 0 80 -26t30 -64z" />
    <glyph glyph-name="IJ" unicode="&#x132;" horiz-adv-x="1634" 
d="M694 1348v-1358q0 -47 -57 -47q-36 0 -69 18t-33 41v1272q-147 -18 -241.5 -125.5t-94.5 -292.5q0 -75 22 -140.5t46.5 -96.5t39.5 -31q5 0 11.5 7t11.5 7q14 0 14 -31q0 -66 -46 -110t-89 -12q-64 43 -118 154t-54 253q0 125 37 226t95.5 165.5t136 107.5t153.5 61
t153 18q33 0 57.5 -25t24.5 -61zM1348 -86v1360q-147 -18 -241.5 -125.5t-94.5 -292.5q0 -75 22 -140.5t46.5 -96.5t39.5 -31q5 0 11.5 7t11.5 7q14 0 14 -31q0 -52 -31 -93.5t-69 -41.5q-19 0 -35 13q-23 15 -49 45.5t-55.5 79t-48.5 123.5t-19 159q0 125 37 226
t95.5 165.5t136 107.5t153.5 61t153 18q33 0 57.5 -25t24.5 -61v-1358v-62q47 7 109 11q48 3 52 -44q5 -46 -28 -88q-24 -29 -51 -30q-30 0 -84 -4q-4 -79 -13 -143.5t-30 -133t-52.5 -115t-84 -76.5t-121.5 -30q-103 0 -166 68.5t-63 173.5q0 74 31 137t86 107.5t117.5 76
t138.5 53.5v23zM1208 -567q116 0 135 307q-101 -31 -154.5 -87t-53.5 -132q0 -44 20 -66t53 -22z" />
    <glyph glyph-name="ij" unicode="&#x133;" horiz-adv-x="698" 
d="M762 299q17 61 49 61q25 0 48.5 -27.5t23.5 -56.5q0 -12 -2 -20q-25 -85 -59 -156t-76.5 -126t-78.5 -93t-85 -80v-354q0 -149 -62 -220t-151 -71q-85 0 -141 68.5t-56 167.5q0 60 15 114t34 91t59 83t66 70t80 72v209q-78 -88 -182 -88q-79 0 -125.5 55.5t-46.5 136.5
v547q0 23 -4.5 42.5t-4.5 23.5q0 15 16 24.5t38 9.5q50 0 80 -26t30 -64v-520q0 -94 54 -94q38 0 68 35t45.5 83.5t23.5 88.5t8 61v336q0 23 -4 42.5t-4 23.5q0 15 15.5 24.5t37.5 9.5q50 0 80.5 -26t30.5 -64v-719q126 139 180 326zM379 1110q0 54 36 89.5t89 35.5
q52 0 88.5 -36t36.5 -89q0 -51 -37 -88t-88 -37q-52 0 -88.5 37t-36.5 88zM180 985q-51 0 -87 37t-36 88q0 54 35.5 89.5t87.5 35.5q54 0 89.5 -35.5t35.5 -89.5q0 -52 -36 -88.5t-89 -36.5zM369 -715q11 0 19.5 4t14.5 12t10.5 17t6.5 22t3.5 23.5t2 24.5t0.5 22.5v21v15.5
v219q-54 -56 -82.5 -118.5t-28.5 -149.5q0 -48 15 -80.5t39 -32.5z" />
    <glyph glyph-name="Jcircumflex" unicode="&#x134;" horiz-adv-x="821" 
d="M535 -86v1360q-147 -18 -241.5 -125.5t-94.5 -292.5q0 -75 22 -140.5t46.5 -96.5t39.5 -31q5 0 11.5 7t11.5 7q14 0 14 -31q0 -52 -31 -93.5t-69 -41.5q-19 0 -35 13q-23 15 -49 45.5t-55.5 79t-48.5 123.5t-19 159q0 125 37 226t95.5 165.5t136 107.5t153.5 61t153 18
q33 0 57.5 -25t24.5 -61v-1358v-62q47 7 109 11q48 3 52 -44q5 -46 -28 -88q-24 -29 -51 -30q-30 0 -84 -4q-4 -79 -13 -143.5t-30 -133t-52.5 -115t-84 -76.5t-121.5 -30q-103 0 -166 68.5t-63 173.5q0 74 31 137t86 107.5t117.5 76t138.5 53.5v23zM395 -567q116 0 135 307
q-101 -31 -154.5 -87t-53.5 -132q0 -44 20 -66t53 -22zM651 1790l135 -197q17 -21 17 -30q0 -18 -26 -32.5t-66 -14.5q-33 0 -45 20l-101 156l-88 -142q-7 -12 -10.5 -17.5t-13.5 -11t-25 -5.5q-28 0 -58 21t-30 42q0 4 4 8l143 205q37 55 95 55q22 0 35 -6.5t17.5 -14.5
t13.5 -29q1 -2 1.5 -3.5t1.5 -3.5z" />
    <glyph glyph-name="jcircumflex" unicode="&#x135;" horiz-adv-x="344" 
d="M408 299q17 61 49 61q25 0 48 -27.5t23 -56.5q0 -12 -2 -20q-25 -85 -59 -156t-76.5 -126t-78.5 -93t-85 -80v-354q0 -149 -62 -220t-151 -71q-85 0 -140.5 68t-55.5 168q0 60 15 114t34 91t59 83t66 70t80 72v860q0 23 -4.5 42.5t-4.5 23.5q0 15 16 24.5t38 9.5
q50 0 80 -26t30 -64v-719q127 141 181 326zM14 -715q11 0 19.5 4t14.5 12t10.5 17t7 22t4 23t2 25t0.5 22.5v20.5v16v219q-54 -56 -82.5 -118.5t-28.5 -149.5q0 -49 14.5 -81t38.5 -32zM252 1180l135 -197q16 -20 16 -31q0 -18 -26 -32.5t-66 -14.5q-32 0 -45 21l-100 155
l-88 -141q-7 -13 -10.5 -18t-14 -11t-24.5 -6q-28 0 -58 21.5t-30 42.5q0 4 4 8l143 205q37 55 94 55q24 0 37 -7.5t18 -16t15 -33.5z" />
    <glyph glyph-name="Kcommaaccent" unicode="&#x136;" horiz-adv-x="1226" 
d="M694 1348v-721q82 17 135 56t78.5 95.5t38 122t18.5 144t13.5 153.5t30.5 159t63 152q13 27 43 27q41 0 81 -18.5t40 -42.5q0 -15 -16 -23q-34 -51 -55.5 -122.5t-31.5 -143t-19.5 -149.5t-25.5 -150.5t-43 -137.5t-78.5 -119t-125.5 -87q81 -43 137.5 -114.5t88.5 -153
t58 -163t64 -166.5t88 -141q4 -4 21.5 -11.5t17.5 -16.5q0 -27 -56 -67t-83 -40q-14 0 -27 13q-52 65 -90.5 149.5t-57.5 158t-44.5 151t-52.5 136.5t-80.5 106.5t-129.5 68.5v-463q0 -47 -57 -47q-36 0 -69 18t-33 41v1272q-147 -18 -241.5 -125.5t-94.5 -292.5
q0 -75 22 -140.5t46.5 -96.5t39.5 -31q6 0 17 4t16 4q16 0 16 -25q0 -65 -51.5 -109.5t-95.5 -12.5q-64 43 -118 154t-54 253q0 125 37 226t95.5 165.5t136 107.5t153.5 61t153 18q33 0 57.5 -25t24.5 -61zM834 -143q40 0 67 -28.5t27 -82.5q0 -57 -52 -132t-88 -75
q-23 0 -39 19.5t-16 38.5q0 4 1 6t2.5 3t4.5 2.5t4 2.5q25 7 64 65q-30 6 -50 30.5t-20 60.5q0 41 28.5 65.5t66.5 24.5z" />
    <glyph glyph-name="kcommaaccent" unicode="&#x137;" horiz-adv-x="716" 
d="M72 33v1229q0 35 -10.5 55.5t-10.5 21.5q0 10 21 16.5t45 6.5q50 0 80 -26t30 -64v-639q125 170 240 170q90 0 136 -63.5t46 -157.5q0 -106 -59 -192t-137 -142q17 -74 53 -122t92 -48q44 0 84 37t64 85.5t34 96.5q13 63 52 61q33 -3 56 -42q17 -29 11 -56
q-13 -38 -30 -76t-46.5 -83t-63.5 -78.5t-82.5 -56.5t-101.5 -23q-58 0 -109.5 30.5t-85.5 78t-53.5 103.5t-19.5 107q0 17 19.5 38.5t48 47t56.5 56.5t47.5 77.5t19.5 98.5q0 38 -18.5 62t-47.5 24q-46 0 -104 -68.5t-101 -214.5v-352v-25t-3 -22t-8.5 -22t-17 -13
t-28.5 -6q-98 0 -98 90zM362 -127q40 0 67.5 -28.5t27.5 -82.5q0 -57 -52 -131.5t-88 -74.5q-23 0 -39 19t-16 38q0 4 1 6t2.5 3t4.5 2.5t4 2.5q24 7 64 66q-30 6 -50 30t-20 60q0 41 28 65.5t66 24.5z" />
    <glyph glyph-name="kgreenlandic" unicode="&#x138;" horiz-adv-x="716" 
d="M72 33v669q0 35 -10.5 56t-10.5 22q0 10 21 16.5t45 6.5q50 0 80 -26t30 -64v-80q125 170 240 170q90 0 136 -63.5t46 -157.5q0 -106 -59 -192t-137 -142q17 -74 53 -122t92 -48q44 0 84 37t64 85.5t34 96.5q13 63 52 61q33 -3 56 -42q17 -29 11 -56q-13 -38 -30 -76
t-46.5 -83t-63.5 -78.5t-82.5 -56.5t-101.5 -23q-58 0 -109.5 30.5t-85.5 78t-53.5 103.5t-19.5 107q0 17 19.5 38.5t48 47t56.5 56.5t47.5 77.5t19.5 98.5q0 38 -18.5 62t-47.5 24q-46 0 -104 -68.5t-101 -214.5v-352v-25t-3 -22t-8.5 -22t-17 -13t-28.5 -6q-98 0 -98 90z
" />
    <glyph glyph-name="Lacute" unicode="&#x139;" horiz-adv-x="1034" 
d="M766 -76q-43 0 -84 14t-81 42t-67.5 52.5t-66.5 63.5q-32 -68 -86.5 -110.5t-128.5 -42.5q-97 0 -155 62t-58 149q0 97 69 161t164 64q33 0 66 -10q-14 54 -45 127.5t-56 129.5t-45 136t-20 158q0 134 59.5 255t173 200t254.5 79q136 0 221 -77.5t85 -198.5
q0 -86 -39.5 -167.5t-100 -138t-133 -90.5t-139.5 -34q-44 0 -74 29.5t-30 86.5q0 27 16 27q1 0 13 -7t26 -7q101 0 200 90t99 182q0 64 -38.5 105.5t-111.5 41.5q-91 0 -164.5 -53.5t-113 -140.5t-39.5 -189q0 -71 25.5 -156t56.5 -153t57.5 -161t28.5 -177q18 -17 50 -50
t51.5 -51.5t46 -39.5t50.5 -31t48 -10q41 0 71 18.5t46 48.5t23 60t7 61q0 10 -2 22t-2 15q0 15 25 15q52 0 82 -27t30 -66q0 -124 -74.5 -215.5t-189.5 -91.5zM258 238q-31 0 -52.5 -21.5t-21.5 -54.5q0 -31 19 -53.5t53 -22.5q39 0 64 33.5t32 81.5q-50 37 -94 37z
M838 1767l-183 -194q-22 -37 -67 -37q-39 0 -59.5 14t-20.5 33q0 11 16 31l187 215q3 17 23.5 28t43.5 11q31 0 57.5 -17.5t26.5 -42.5q0 -6 -2.5 -12.5t-5 -10t-9 -10t-7.5 -8.5z" />
    <glyph glyph-name="lacute" unicode="&#x13a;" horiz-adv-x="450" 
d="M227 1190v-584q31 61 58.5 219.5t27.5 249.5q0 197 -55 197q-16 0 -23.5 -26t-7.5 -56zM518 297q12 60 50 59q33 -1 57 -39q19 -29 12 -57q-13 -38 -30 -76t-46.5 -83t-63.5 -78.5t-82.5 -56.5t-101.5 -23q-116 0 -178.5 73t-62.5 197v932q0 114 54 188t132 74
q37 0 66.5 -13t48.5 -31.5t32.5 -49.5t20 -57t10 -64t4 -59.5t0.5 -55.5q0 -104 -29 -237t-67.5 -237.5t-71.5 -179t-45 -85.5v-119q0 -65 27 -103t82 -38q44 0 84 37t64 85.5t34 96.5zM440 1710l-182 -194q-22 -37 -68 -37q-39 0 -59 14t-20 33q0 10 16 30l186 216
q3 16 24 27t44 11q31 0 57.5 -17t26.5 -42q0 -6 -3 -12.5t-5.5 -10t-8.5 -10t-8 -8.5z" />
    <glyph glyph-name="Lcommaaccent" unicode="&#x13b;" horiz-adv-x="1034" 
d="M766 -76q-43 0 -84 14t-81 42t-67.5 52.5t-66.5 63.5q-32 -68 -86.5 -110.5t-128.5 -42.5q-97 0 -155 62t-58 149q0 97 69 161t164 64q33 0 66 -10q-14 54 -45 127.5t-56 129.5t-45 136t-20 158q0 134 59.5 255t173 200t254.5 79q136 0 221 -77.5t85 -198.5
q0 -86 -39.5 -167.5t-100 -138t-133 -90.5t-139.5 -34q-44 0 -74 29.5t-30 86.5q0 27 16 27q1 0 13 -7t26 -7q101 0 200 90t99 182q0 64 -38.5 105.5t-111.5 41.5q-91 0 -164.5 -53.5t-113 -140.5t-39.5 -189q0 -71 25.5 -156t56.5 -153t57.5 -161t28.5 -177q18 -17 50 -50
t51.5 -51.5t46 -39.5t50.5 -31t48 -10q41 0 71 18.5t46 48.5t23 60t7 61q0 10 -2 22t-2 15q0 15 25 15q52 0 82 -27t30 -66q0 -124 -74.5 -215.5t-189.5 -91.5zM258 238q-31 0 -52.5 -21.5t-21.5 -54.5q0 -31 19 -53.5t53 -22.5q39 0 64 33.5t32 81.5q-50 37 -94 37z
M520 -127q40 0 67 -28.5t27 -82.5q0 -57 -51.5 -131.5t-87.5 -74.5q-23 0 -39 19t-16 38q0 4 1 6t2.5 3t4.5 2.5t4 2.5q24 7 64 66q-30 6 -50 30t-20 60q0 41 28 65.5t66 24.5z" />
    <glyph glyph-name="lcommaaccent" unicode="&#x13c;" horiz-adv-x="450" 
d="M227 1190v-584q31 61 58.5 219.5t27.5 249.5q0 197 -55 197q-16 0 -23.5 -26t-7.5 -56zM518 297q12 60 50 59q33 -1 57 -39q19 -29 12 -57q-13 -38 -30 -76t-46.5 -83t-63.5 -78.5t-82.5 -56.5t-101.5 -23q-116 0 -178.5 73t-62.5 197v932q0 114 54 188t132 74
q37 0 66.5 -13t48.5 -31.5t32.5 -49.5t20 -57t10 -64t4 -59.5t0.5 -55.5q0 -104 -29 -237t-67.5 -237.5t-71.5 -179t-45 -85.5v-119q0 -65 27 -103t82 -38q44 0 84 37t64 85.5t34 96.5zM270 -127q40 0 67.5 -28.5t27.5 -82.5q0 -57 -52 -131.5t-88 -74.5q-23 0 -39 19
t-16 38q0 4 1 6t2.5 3t4.5 2.5t4 2.5q24 7 64 66q-30 6 -50 30t-20 60q0 41 28 65.5t66 24.5z" />
    <glyph glyph-name="Lcaron" unicode="&#x13d;" horiz-adv-x="1267" 
d="M766 -76q-43 0 -84 14t-81 42t-67.5 52.5t-66.5 63.5q-32 -68 -86.5 -110.5t-128.5 -42.5q-97 0 -155 62t-58 149q0 97 69 161t164 64q33 0 66 -10q-14 54 -45 127.5t-56 129.5t-45 136t-20 158q0 134 59.5 255t173 200t254.5 79q136 0 221 -77.5t85 -198.5
q0 -86 -39.5 -167.5t-100 -138t-133 -90.5t-139.5 -34q-44 0 -74 29.5t-30 86.5q0 27 16 27q1 0 13 -7t26 -7q101 0 200 90t99 182q0 64 -38.5 105.5t-111.5 41.5q-91 0 -164.5 -53.5t-113 -140.5t-39.5 -189q0 -71 25.5 -156t56.5 -153t57.5 -161t28.5 -177q18 -17 50 -50
t51.5 -51.5t46 -39.5t50.5 -31t48 -10q41 0 71 18.5t46 48.5t23 60t7 61q0 10 -2 22t-2 15q0 15 25 15q52 0 82 -27t30 -66q0 -124 -74.5 -215.5t-189.5 -91.5zM258 238q-31 0 -52.5 -21.5t-21.5 -54.5q0 -31 19 -53.5t53 -22.5q39 0 64 33.5t32 81.5q-50 37 -94 37z
M1149 1341q40 0 67 -28t27 -82q0 -57 -51.5 -132t-87.5 -75q-23 0 -39 19t-16 38q0 3 0.5 5t2 3.5l2.5 2.5t3.5 2t3.5 2q24 7 63 65q-30 6 -49.5 30t-19.5 60q0 41 28 65.5t66 24.5z" />
    <glyph glyph-name="lcaron" unicode="&#x13e;" horiz-adv-x="681" 
d="M227 1190v-584q31 61 58.5 219.5t27.5 249.5q0 197 -55 197q-16 0 -23.5 -26t-7.5 -56zM518 297q12 60 50 59q33 -1 57 -39q19 -29 12 -57q-13 -38 -30 -76t-46.5 -83t-63.5 -78.5t-82.5 -56.5t-101.5 -23q-116 0 -178.5 73t-62.5 197v932q0 114 54 188t132 74
q37 0 66.5 -13t48.5 -31.5t32.5 -49.5t20 -57t10 -64t4 -59.5t0.5 -55.5q0 -104 -29 -237t-67.5 -237.5t-71.5 -179t-45 -85.5v-119q0 -65 27 -103t82 -38q44 0 84 37t64 85.5t34 96.5zM608 1327q40 0 67 -28t27 -82q0 -57 -51.5 -132t-87.5 -75q-23 0 -39 19t-16 38
q0 4 1 6t2.5 3t4.5 2.5t4 2.5q24 7 64 66q-30 6 -50 30t-20 60q0 41 28 65.5t66 24.5z" />
    <glyph glyph-name="Ldot" unicode="&#x13f;" horiz-adv-x="1034" 
d="M766 -76q-43 0 -84 14t-81 42t-67.5 52.5t-66.5 63.5q-32 -68 -86.5 -110.5t-128.5 -42.5q-97 0 -155 62t-58 149q0 97 69 161t164 64q33 0 66 -10q-14 54 -45 127.5t-56 129.5t-45 136t-20 158q0 134 59.5 255t173 200t254.5 79q136 0 221 -77.5t85 -198.5
q0 -86 -39.5 -167.5t-100 -138t-133 -90.5t-139.5 -34q-44 0 -74 29.5t-30 86.5q0 27 16 27q1 0 13 -7t26 -7q101 0 200 90t99 182q0 64 -38.5 105.5t-111.5 41.5q-91 0 -164.5 -53.5t-113 -140.5t-39.5 -189q0 -71 25.5 -156t56.5 -153t57.5 -161t28.5 -177q18 -17 50 -50
t51.5 -51.5t46 -39.5t50.5 -31t48 -10q41 0 71 18.5t46 48.5t23 60t7 61q0 10 -2 22t-2 15q0 15 25 15q52 0 82 -27t30 -66q0 -124 -74.5 -215.5t-189.5 -91.5zM258 238q-31 0 -52.5 -21.5t-21.5 -54.5q0 -31 19 -53.5t53 -22.5q39 0 64 33.5t32 81.5q-50 37 -94 37z
M899 659q41 0 70.5 -28.5t29.5 -69.5q0 -39 -29.5 -67.5t-70.5 -28.5q-40 0 -69 29t-29 67q0 41 29 69.5t69 28.5z" />
    <glyph glyph-name="ldotaccent" unicode="&#x140;" horiz-adv-x="577" 
d="M227 1190v-584q31 61 58.5 219.5t27.5 249.5q0 197 -55 197q-16 0 -23.5 -26t-7.5 -56zM518 297q12 60 50 59q33 -1 57 -39q19 -29 12 -57q-13 -38 -30 -76t-46.5 -83t-63.5 -78.5t-82.5 -56.5t-101.5 -23q-116 0 -178.5 73t-62.5 197v932q0 114 54 188t132 74
q37 0 66.5 -13t48.5 -31.5t32.5 -49.5t20 -57t10 -64t4 -59.5t0.5 -55.5q0 -104 -29 -237t-67.5 -237.5t-71.5 -179t-45 -85.5v-119q0 -65 27 -103t82 -38q44 0 84 37t64 85.5t34 96.5zM485 635q42 0 71.5 -28.5t29.5 -69.5q0 -39 -30 -68t-71 -29q-39 0 -68.5 29t-29.5 68
q0 41 29 69.5t69 28.5z" />
    <glyph glyph-name="Lslash" unicode="&#x141;" horiz-adv-x="1034" 
d="M766 -76q-43 0 -84 14t-81 42t-67.5 52.5t-66.5 63.5q-32 -68 -86.5 -110.5t-128.5 -42.5q-97 0 -155 62t-58 149q0 97 69 161t164 64q33 0 66 -10q-12 40 -37 104l-160 -45q-16 -4 -22 -4q-24 0 -35.5 19t-11.5 46q0 47 53 62l127 35q-38 91 -59 168t-21 166
q0 134 59.5 255t173 200t254.5 79q136 0 221 -77.5t85 -198.5q0 -86 -39.5 -167.5t-100 -138t-133 -90.5t-139.5 -34q-44 0 -74 29.5t-30 86.5q0 27 16 27q1 0 13 -7t26 -7q101 0 200 90t99 182q0 64 -38.5 105.5t-111.5 41.5q-91 0 -164.5 -53.5t-113 -140.5t-39.5 -189
q0 -108 72 -282l188 53q12 6 22 6q18 0 29.5 -18.5t11.5 -48.5q0 -25 -12 -43.5t-33 -18.5l-163 -47q50 -132 53 -248q18 -17 50 -50t51.5 -51.5t46 -39.5t50.5 -31t48 -10q41 0 71 18.5t46 48.5t23 60t7 61q0 10 -2 22t-2 15q0 15 25 15q52 0 82 -27t30 -66
q0 -124 -74.5 -215.5t-189.5 -91.5zM256 86q39 0 64 33.5t32 81.5q-50 37 -94 37q-31 0 -52.5 -21.5t-21.5 -54.5q0 -31 19 -53.5t53 -22.5z" />
    <glyph glyph-name="lslash" unicode="&#x142;" horiz-adv-x="450" 
d="M518 297q12 60 50 59q33 -1 57 -39q19 -29 12 -57q-13 -38 -30 -76t-46.5 -83t-63.5 -78.5t-82.5 -56.5t-101.5 -23q-116 0 -178.5 71.5t-62.5 194.5l-39 -14q-20 -5 -23 -5q-24 -3 -36.5 16t-14.5 46q-3 44 49 65l64 23v805q0 114 54 188t132 74q37 0 66.5 -13
t48.5 -31.5t32.5 -49.5t20 -57t10 -64t4 -59.5t0.5 -55.5q0 -154 -55 -341.5t-117 -323.5l119 43q16 8 23 8q18 2 31 -17t14 -49q2 -25 -8 -43.5t-31 -19.5l-189 -70v-45q0 -65 27 -103t82 -38q44 0 84 37t64 85.5t34 96.5zM227 1190v-584q31 61 58.5 219.5t27.5 249.5
q0 197 -55 197q-16 0 -23.5 -26t-7.5 -56z" />
    <glyph glyph-name="Nacute" unicode="&#x143;" horiz-adv-x="1261" 
d="M694 1348v-168q66 114 147 184t165 70q52 0 95.5 -43.5t43.5 -135.5v-1194q0 -52 15.5 -87t33.5 -47t33.5 -24.5t15.5 -25.5q0 -25 -29.5 -47.5t-74.5 -22.5q-25 0 -49.5 11t-48.5 34t-39.5 68.5t-16.5 106.5v1216q0 29 -18 29q-23 0 -68.5 -53t-91 -127t-79.5 -162.5
t-34 -149.5v-790q0 -47 -57 -47q-36 0 -69 18t-33 41v1272q-147 -18 -241.5 -125.5t-94.5 -292.5q0 -75 22 -140.5t46.5 -96.5t39.5 -31q6 0 17 4t16 4q16 0 16 -25q0 -52 -35 -93.5t-75 -41.5q-27 0 -62.5 32.5t-68.5 86.5t-55.5 135t-22.5 166q0 125 37 226t95.5 165.5
t136 107.5t153.5 61t153 18q33 0 57.5 -25t24.5 -61zM985 1747l-182 -195q-21 -36 -68 -36q-39 0 -59.5 14t-20.5 33q0 9 17 30l186 215q3 17 24 28t44 11q31 0 57.5 -17t26.5 -42q0 -6 -3 -12.5t-5.5 -10t-8.5 -10t-8 -8.5z" />
    <glyph glyph-name="nacute" unicode="&#x144;" horiz-adv-x="753" 
d="M72 33v649q0 23 -4.5 42.5t-4.5 23.5q0 15 16 24.5t38 9.5q50 0 80 -26t30 -64v-92q97 203 230 203q49 0 84 -18.5t53 -50.5t25.5 -65.5t7.5 -72.5v-424q0 -94 53 -94q93 0 137 221q6 30 19.5 45.5t29.5 15.5q25 0 48.5 -27.5t23.5 -56.5q0 -6 -2 -14q-12 -45 -27 -85.5
t-40.5 -84.5t-56 -76t-74.5 -52.5t-95 -20.5q-79 0 -125.5 55.5t-46.5 136.5v416q0 27 -1.5 45.5t-5.5 36t-13 26.5t-23 9q-30 0 -74.5 -49.5t-82 -131t-44.5 -157.5v-299v-25t-3 -22t-8.5 -22t-17 -13t-28.5 -6q-98 0 -98 90zM535 1137l-183 -195q-22 -37 -67 -37
q-39 0 -59.5 14t-20.5 33q0 11 16 31l187 215q3 17 23.5 28t43.5 11q31 0 57.5 -17t26.5 -42q0 -6 -2.5 -12.5t-5 -10t-9 -10t-7.5 -8.5z" />
    <glyph glyph-name="Ncommaaccent" unicode="&#x145;" horiz-adv-x="1261" 
d="M694 1348v-168q66 114 147 184t165 70q52 0 95.5 -43.5t43.5 -135.5v-1194q0 -52 15.5 -87t33.5 -47t33.5 -24.5t15.5 -25.5q0 -25 -29.5 -47.5t-74.5 -22.5q-25 0 -49.5 11t-48.5 34t-39.5 68.5t-16.5 106.5v1216q0 29 -18 29q-23 0 -68.5 -53t-91 -127t-79.5 -162.5
t-34 -149.5v-790q0 -47 -57 -47q-36 0 -69 18t-33 41v1272q-147 -18 -241.5 -125.5t-94.5 -292.5q0 -75 22 -140.5t46.5 -96.5t39.5 -31q6 0 17 4t16 4q16 0 16 -25q0 -52 -35 -93.5t-75 -41.5q-27 0 -62.5 32.5t-68.5 86.5t-55.5 135t-22.5 166q0 125 37 226t95.5 165.5
t136 107.5t153.5 61t153 18q33 0 57.5 -25t24.5 -61zM844 -127q40 0 67 -28.5t27 -82.5q0 -57 -51.5 -131.5t-87.5 -74.5q-23 0 -39.5 19t-16.5 38q0 5 1.5 7t6 4t5.5 3q23 7 63 66q-30 6 -49.5 30t-19.5 60q0 41 28 65.5t66 24.5z" />
    <glyph glyph-name="ncommaaccent" unicode="&#x146;" horiz-adv-x="753" 
d="M72 33v649q0 23 -4.5 42.5t-4.5 23.5q0 15 16 24.5t38 9.5q50 0 80 -26t30 -64v-92q97 203 230 203q49 0 84 -18.5t53 -50.5t25.5 -65.5t7.5 -72.5v-424q0 -94 53 -94q93 0 137 221q6 30 19.5 45.5t29.5 15.5q25 0 48.5 -27.5t23.5 -56.5q0 -6 -2 -14q-12 -45 -27 -85.5
t-40.5 -84.5t-56 -76t-74.5 -52.5t-95 -20.5q-79 0 -125.5 55.5t-46.5 136.5v416q0 27 -1.5 45.5t-5.5 36t-13 26.5t-23 9q-30 0 -74.5 -49.5t-82 -131t-44.5 -157.5v-299v-25t-3 -22t-8.5 -22t-17 -13t-28.5 -6q-98 0 -98 90zM381 -127q40 0 67 -28.5t27 -82.5
q0 -57 -51.5 -131.5t-87.5 -74.5q-23 0 -39 19t-16 38q0 4 1 6t2.5 3t4.5 2.5t4 2.5q23 7 63 66q-30 6 -49.5 30t-19.5 60q0 41 28 65.5t66 24.5z" />
    <glyph glyph-name="Ncaron" unicode="&#x147;" horiz-adv-x="1261" 
d="M694 1348v-168q66 114 147 184t165 70q52 0 95.5 -43.5t43.5 -135.5v-1194q0 -52 15.5 -87t33.5 -47t33.5 -24.5t15.5 -25.5q0 -25 -29.5 -47.5t-74.5 -22.5q-25 0 -49.5 11t-48.5 34t-39.5 68.5t-16.5 106.5v1216q0 29 -18 29q-23 0 -68.5 -53t-91 -127t-79.5 -162.5
t-34 -149.5v-790q0 -47 -57 -47q-36 0 -69 18t-33 41v1272q-147 -18 -241.5 -125.5t-94.5 -292.5q0 -75 22 -140.5t46.5 -96.5t39.5 -31q6 0 17 4t16 4q16 0 16 -25q0 -52 -35 -93.5t-75 -41.5q-27 0 -62.5 32.5t-68.5 86.5t-55.5 135t-22.5 166q0 125 37 226t95.5 165.5
t136 107.5t153.5 61t153 18q33 0 57.5 -25t24.5 -61zM715 1573l-135 196q-17 21 -17 31q0 18 26 32.5t66 14.5q33 0 45 -20l101 -156l88 141q9 35 49 35q28 0 57 -20t29 -41q0 -13 -14 -27l-131 -188q-18 -55 -66 -55q-27 0 -43.5 6.5t-25.5 15.5t-29 35z" />
    <glyph glyph-name="ncaron" unicode="&#x148;" horiz-adv-x="753" 
d="M72 33v649q0 23 -4.5 42.5t-4.5 23.5q0 15 16 24.5t38 9.5q50 0 80 -26t30 -64v-92q97 203 230 203q49 0 84 -18.5t53 -50.5t25.5 -65.5t7.5 -72.5v-424q0 -94 53 -94q93 0 137 221q6 30 19.5 45.5t29.5 15.5q25 0 48.5 -27.5t23.5 -56.5q0 -6 -2 -14q-12 -45 -27 -85.5
t-40.5 -84.5t-56 -76t-74.5 -52.5t-95 -20.5q-79 0 -125.5 55.5t-46.5 136.5v416q0 27 -1.5 45.5t-5.5 36t-13 26.5t-23 9q-30 0 -74.5 -49.5t-82 -131t-44.5 -157.5v-299v-25t-3 -22t-8.5 -22t-17 -13t-28.5 -6q-98 0 -98 90zM264 963l-135 196q-16 20 -16 31q0 18 26 32.5
t66 14.5q33 0 45 -20l100 -156l88 141q9 35 49 35q28 0 57 -20t29 -41q0 -13 -14 -27l-131 -188q-18 -56 -66 -56q-27 0 -43.5 7t-25.5 16t-29 35z" />
    <glyph glyph-name="napostrophe" unicode="&#x149;" horiz-adv-x="753" 
d="M72 33v649q0 23 -4.5 42.5t-4.5 23.5q0 15 16 24.5t38 9.5q50 0 80 -26t30 -64v-92q97 203 230 203q49 0 84 -18.5t53 -50.5t25.5 -65.5t7.5 -72.5v-424q0 -94 53 -94q93 0 137 221q6 30 19.5 45.5t29.5 15.5q25 0 48.5 -27.5t23.5 -56.5q0 -6 -2 -14q-12 -45 -27 -85.5
t-40.5 -84.5t-56 -76t-74.5 -52.5t-95 -20.5q-79 0 -125.5 55.5t-46.5 136.5v416q0 27 -1.5 45.5t-5.5 36t-13 26.5t-23 9q-30 0 -74.5 -49.5t-82 -131t-44.5 -157.5v-299v-25t-3 -22t-8.5 -22t-17 -13t-28.5 -6q-98 0 -98 90zM100 1311q40 0 67.5 -28.5t27.5 -82.5
q0 -57 -52 -132t-88 -75q-23 0 -39 19.5t-16 38.5q0 4 1 6t2.5 3t4.5 2.5t4 2.5q25 7 64 65q-30 6 -50 30.5t-20 60.5q0 41 28 65.5t66 24.5z" />
    <glyph glyph-name="Eng" unicode="&#x14a;" horiz-adv-x="1271" 
d="M694 1348v-168q66 114 147 184t165 70q52 0 95.5 -43.5t43.5 -135.5v-1265v-62q48 7 108 11q48 3 53 -44q4 -46 -28 -88q-24 -29 -51 -30q-30 0 -84 -4q-4 -79 -13 -143.5t-30 -133t-52.5 -115t-84 -76.5t-121.5 -30q-103 0 -166.5 69t-63.5 173q0 74 31 137t86 107.5
t117.5 76t138.5 53.5v23v1329q0 29 -18 29q-22 0 -66.5 -50.5t-89 -122t-79 -158t-38.5 -148.5v-803q0 -47 -57 -47q-36 0 -69 18t-33 41v1272q-147 -18 -241.5 -125.5t-94.5 -292.5q0 -75 22 -140.5t46.5 -96.5t39.5 -31q6 0 17 4t16 4q16 0 16 -25q0 -52 -35 -93.5
t-75 -41.5q-27 0 -62.5 32.5t-68.5 86.5t-55.5 135t-22.5 166q0 125 37 226t95.5 165.5t136 107.5t153.5 61t153 18q33 0 57.5 -25t24.5 -61zM846 -567q116 0 135 307q-102 -31 -155.5 -87t-53.5 -132q0 -44 20.5 -66t53.5 -22z" />
    <glyph glyph-name="eng" unicode="&#x14b;" horiz-adv-x="743" 
d="M72 33v649q0 23 -4.5 42.5t-4.5 23.5q0 15 16 24.5t38 9.5q50 0 80 -26t30 -64v-92q97 203 230 203q49 0 84 -18.5t53 -50.5t25.5 -65.5t7.5 -72.5v-623q126 139 180 326q17 61 49 61q25 0 48.5 -27.5t23.5 -56.5q0 -12 -2 -20q-25 -85 -59 -156t-76.5 -126t-78.5 -93
t-85 -80v-354q0 -149 -62 -220t-151 -71q-85 0 -141 68.5t-56 167.5q0 60 15 114t34 91t59 83t66 70t80 72v729q0 27 -1.5 45.5t-5.5 36t-13 26.5t-23 9q-30 0 -74.5 -49.5t-82 -131t-44.5 -157.5v-299v-25t-3 -22t-8.5 -22t-17 -13t-28.5 -6q-98 0 -98 90zM471 -553v219
q-54 -56 -82.5 -118.5t-28.5 -149.5q0 -48 15 -80.5t39 -32.5q11 0 19.5 4t14.5 12t10.5 17t6.5 22t3.5 23.5t2 24.5t0.5 22.5v21v15.5z" />
    <glyph glyph-name="Omacron" unicode="&#x14c;" horiz-adv-x="1042" 
d="M801 696q0 60 -6 125h-39q-131 0 -219 71t-88 187q0 81 52 138t134 57q105 0 174 -71.5t106 -190.5q26 16 58 51q9 27 24 27q22 0 44 -35.5t22 -75.5q0 -72 -115 -121q13 -93 13 -162q0 -151 -25.5 -276.5t-69 -212.5t-103 -147.5t-127 -88.5t-140.5 -28
q-145 0 -249.5 91t-155 240t-50.5 336q0 142 23.5 266.5t58.5 208.5t83 155t88.5 110.5t85 70.5t62 39.5t29.5 12.5t23 4q31 0 51 -34.5t20 -72.5q0 -47 -26 -47q-7 0 -11 2q-23 -13 -30.5 -17.5t-38.5 -26t-47.5 -38.5t-47 -51.5t-49 -69t-42 -87.5t-36.5 -110t-22.5 -133
t-9.5 -161q0 -134 25.5 -239.5t68.5 -168t95 -95t108 -32.5q131 0 214.5 159.5t84.5 440.5zM750 963h24q-16 74 -48 118.5t-77 44.5q-51 0 -51 -51q0 -42 39.5 -77t112.5 -35zM418 1724h352q25 3 35 -11t10 -42q0 -32 -15 -58t-38 -26q-6 0 -10 2h-355q-53 0 -53 47
q0 41 19.5 64.5t54.5 23.5z" />
    <glyph glyph-name="omacron" unicode="&#x14d;" horiz-adv-x="749" 
d="M821 338q4 24 40 31q44 9 68 -21q19 -25 9 -69q-20 -89 -84.5 -146t-163.5 -57q-57 0 -100 14q-85 -147 -246 -147q-147 0 -223 108t-76 273q0 85 17.5 165t43.5 135.5t55 98.5t54 63.5t39 20.5q19 0 36 -17.5t24.5 -40.5t3.5 -48t-23 -37q-43 -64 -59 -106
q-35 -90 -35 -222q0 -124 42 -191t105 -67q76 0 121 78q-71 61 -109 156.5t-38 207.5q0 103 43 171.5t122 68.5q73 0 124 -98.5t51 -245.5q0 -120 -29 -221q18 -5 41 -5q62 0 99.5 41.5t47.5 106.5zM430 528q0 -138 78 -239q6 49 6 94q0 121 -9.5 181.5t-39.5 60.5
q-35 0 -35 -97zM205 1092h352q25 3 35 -11.5t10 -42.5q0 -32 -15 -58t-38 -26q-6 0 -10 2h-355q-53 0 -53 48q0 41 19.5 64.5t54.5 23.5z" />
    <glyph glyph-name="Obreve" unicode="&#x14e;" horiz-adv-x="1042" 
d="M801 696q0 60 -6 125h-39q-131 0 -219 71t-88 187q0 81 52 138t134 57q105 0 174 -71.5t106 -190.5q26 16 58 51q9 27 24 27q22 0 44 -35.5t22 -75.5q0 -72 -115 -121q13 -93 13 -162q0 -151 -25.5 -276.5t-69 -212.5t-103 -147.5t-127 -88.5t-140.5 -28
q-145 0 -249.5 91t-155 240t-50.5 336q0 142 23.5 266.5t58.5 208.5t83 155t88.5 110.5t85 70.5t62 39.5t29.5 12.5t23 4q31 0 51 -34.5t20 -72.5q0 -47 -26 -47q-7 0 -11 2q-23 -13 -30.5 -17.5t-38.5 -26t-47.5 -38.5t-47 -51.5t-49 -69t-42 -87.5t-36.5 -110t-22.5 -133
t-9.5 -161q0 -134 25.5 -239.5t68.5 -168t95 -95t108 -32.5q131 0 214.5 159.5t84.5 440.5zM750 963h24q-16 74 -48 118.5t-77 44.5q-51 0 -51 -51q0 -42 39.5 -77t112.5 -35zM582 1556q-42 0 -82 11.5t-79.5 37.5t-64 76.5t-24.5 118.5q0 18 26 32.5t66 14.5q33 0 45 -20
q2 -24 3.5 -38.5t8.5 -37.5t18 -36t31.5 -23.5t49.5 -10.5q28 0 47.5 10t28.5 21t14 33t5.5 32.5t0.5 32.5q4 14 17 25.5t34 11.5q28 0 57 -20t29 -41q0 -57 -17.5 -100.5t-43 -67.5t-59.5 -38.5t-60 -19t-51 -4.5z" />
    <glyph glyph-name="obreve" unicode="&#x14f;" horiz-adv-x="749" 
d="M821 338q4 24 40 31q44 9 68 -21q19 -25 9 -69q-20 -89 -84.5 -146t-163.5 -57q-57 0 -100 14q-85 -147 -246 -147q-147 0 -223 108t-76 273q0 85 17.5 165t43.5 135.5t55 98.5t54 63.5t39 20.5q19 0 36 -17.5t24.5 -40.5t3.5 -48t-23 -37q-43 -64 -59 -106
q-35 -90 -35 -222q0 -124 42 -191t105 -67q76 0 121 78q-71 61 -109 156.5t-38 207.5q0 103 43 171.5t122 68.5q73 0 124 -98.5t51 -245.5q0 -120 -29 -221q18 -5 41 -5q62 0 99.5 41.5t47.5 106.5zM430 528q0 -138 78 -239q6 49 6 94q0 121 -9.5 181.5t-39.5 60.5
q-35 0 -35 -97zM369 924q-42 0 -82 11.5t-79.5 37t-64 76t-24.5 118.5q0 18 26 32.5t66 14.5q33 0 45 -20q2 -24 3.5 -38.5t8.5 -37.5t18 -36t31.5 -23t49.5 -10q28 0 47.5 10t28.5 21t14 33t5.5 32.5t0.5 32.5q4 14 17 25t34 11q28 0 57 -20t29 -41q0 -57 -17.5 -100.5
t-43 -67t-59.5 -38.5t-60 -19t-51 -4z" />
    <glyph glyph-name="Ohungarumlaut" unicode="&#x150;" horiz-adv-x="1042" 
d="M801 696q0 60 -6 125h-39q-131 0 -219 71t-88 187q0 81 52 138t134 57q105 0 174 -71.5t106 -190.5q26 16 58 51q9 27 24 27q22 0 44 -35.5t22 -75.5q0 -72 -115 -121q13 -93 13 -162q0 -151 -25.5 -276.5t-69 -212.5t-103 -147.5t-127 -88.5t-140.5 -28
q-145 0 -249.5 91t-155 240t-50.5 336q0 142 23.5 266.5t58.5 208.5t83 155t88.5 110.5t85 70.5t62 39.5t29.5 12.5t23 4q31 0 51 -34.5t20 -72.5q0 -47 -26 -47q-7 0 -11 2q-23 -13 -30.5 -17.5t-38.5 -26t-47.5 -38.5t-47 -51.5t-49 -69t-42 -87.5t-36.5 -110t-22.5 -133
t-9.5 -161q0 -134 25.5 -239.5t68.5 -168t95 -95t108 -32.5q131 0 214.5 159.5t84.5 440.5zM750 963h24q-16 74 -48 118.5t-77 44.5q-51 0 -51 -51q0 -42 39.5 -77t112.5 -35zM631 1767l-131 -194q-14 -37 -60 -37q-37 0 -52 12.5t-21 34.5q-2 11 10 31l131 215
q-1 17 16.5 28t40.5 11q29 0 51.5 -17t28.5 -43q3 -15 -14 -41zM909 1767l-151 -194q-16 -37 -62 -37q-65 0 -73 47q-3 13 12 31l151 215q1 17 20 28t42 11q30 0 53 -17t27 -43q1 -6 -1 -12.5t-4.5 -10t-7 -9.5t-6.5 -9z" />
    <glyph glyph-name="ohungarumlaut" unicode="&#x151;" horiz-adv-x="749" 
d="M821 338q4 24 40 31q44 9 68 -21q19 -25 9 -69q-20 -89 -84.5 -146t-163.5 -57q-57 0 -100 14q-85 -147 -246 -147q-147 0 -223 108t-76 273q0 85 17.5 165t43.5 135.5t55 98.5t54 63.5t39 20.5q19 0 36 -17.5t24.5 -40.5t3.5 -48t-23 -37q-43 -64 -59 -106
q-35 -90 -35 -222q0 -124 42 -191t105 -67q76 0 121 78q-71 61 -109 156.5t-38 207.5q0 103 43 171.5t122 68.5q73 0 124 -98.5t51 -245.5q0 -120 -29 -221q18 -5 41 -5q62 0 99.5 41.5t47.5 106.5zM430 528q0 -138 78 -239q6 49 6 94q0 121 -9.5 181.5t-39.5 60.5
q-35 0 -35 -97zM418 1135l-131 -195q-14 -37 -60 -37q-37 0 -52 12.5t-21 34.5q-2 11 10 31l131 215q-1 17 16.5 28t40.5 11q29 0 51.5 -16.5t28.5 -42.5q3 -15 -14 -41zM696 1135l-151 -195q-16 -37 -62 -37q-65 0 -73 47q-3 13 12 31l151 215q1 17 20 28t42 11
q30 0 53 -16.5t27 -42.5q1 -6 -1 -12.5t-4.5 -10t-7 -9.5t-6.5 -9z" />
    <glyph glyph-name="OE" unicode="&#x152;" horiz-adv-x="1695" 
d="M1649 147q-14 -23 -32.5 -47.5t-57 -60t-83 -62t-112 -46t-141.5 -19.5q-142 0 -243 78t-116 213q-64 -129 -160.5 -194.5t-207.5 -65.5q-145 0 -249.5 91t-155 240t-50.5 336q0 142 23.5 266.5t58.5 208.5t83 155t88.5 110.5t85 70.5t62 39.5t29.5 12.5t23 4
q31 0 51 -34.5t20 -72.5q0 -47 -26 -47q-7 0 -11 2q-23 -13 -30.5 -17.5t-38.5 -26t-47.5 -38.5t-47 -51.5t-49 -69t-42 -87.5t-36.5 -110t-22.5 -133t-9.5 -161q0 -134 25.5 -239.5t68.5 -168t95 -95t108 -32.5q131 0 214.5 159.5t84.5 440.5q0 60 -6 125h-39
q-131 0 -219 71t-88 187q0 81 52 138t134 57q105 0 173.5 -72t106.5 -188q19 88 64 169.5t108.5 145t149 101.5t178.5 38q136 0 213.5 -76.5t77.5 -193.5q0 -105 -52 -203t-140 -159.5t-187 -61.5q-45 0 -79 23.5t-34 74.5q0 25 6.5 49.5t16.5 24.5q1 0 22 -10t56 -10
q97 0 163 85t66 189q0 54 -35 82.5t-94 28.5q-99 0 -188.5 -61.5t-141 -156t-51.5 -192.5q0 -109 66.5 -188t140.5 -86q6 2 19 2q34 0 34 -49q0 -35 -15.5 -70.5t-33.5 -36.5q-37 -4 -71.5 -16.5t-69.5 -36.5t-56.5 -67.5t-21.5 -100.5q0 -78 57 -128t144 -50q61 0 115 18
t90.5 45.5t60.5 54t35 50.5q14 34 43 34q31 0 57.5 -32t26.5 -68q0 -17 -6 -29zM750 963h24q-35 163 -125 163q-51 0 -51 -51q0 -42 39.5 -77t112.5 -35zM958 643q-3 -100 -14 -168q43 48 105 82q-54 31 -91 86z" />
    <glyph glyph-name="oe" unicode="&#x153;" horiz-adv-x="1058" 
d="M348 78q76 0 121 78q-70 61 -108.5 157t-38.5 207q0 103 43 171.5t122 68.5q67 0 117 -86q40 61 93.5 95t111.5 34q85 0 134.5 -57t49.5 -150q0 -78 -33 -155t-104 -142.5t-166 -93.5q53 -127 191 -127q197 0 249 258q8 43 41 51.5t60.5 -14.5t23.5 -58q-5 -43 -17.5 -87
t-42 -97.5t-71.5 -93.5t-111 -67t-155 -27q-82 0 -152.5 37t-117.5 106q-81 -143 -244 -143q-147 0 -223 108t-76 273q0 85 17.5 165t43.5 135.5t55 98.5t54 63.5t39 20.5q19 0 36 -17.5t24.5 -40.5t3.5 -48t-23 -37q-43 -64 -59 -106q-35 -90 -35 -222q0 -124 42 -191
t105 -67zM664 354q0 -6 1 -18.5t1 -18.5q77 35 122.5 110t45.5 167q0 34 -11.5 53t-31.5 19q-35 0 -62 -36t-40.5 -88.5t-20 -102t-4.5 -85.5zM430 528q0 -138 78 -239q6 49 6 94q0 121 -9.5 181.5t-39.5 60.5q-35 0 -35 -97z" />
    <glyph glyph-name="Racute" unicode="&#x154;" horiz-adv-x="1161" 
d="M410 2v1071q0 23 -4.5 42.5t-4.5 23.5q0 15 16 25t38 10q50 0 82 -26.5t32 -64.5v-669q51 9 104 31t111 64t102.5 97.5t73.5 140t29 183.5q0 61 -20 121t-59.5 112t-107 84.5t-153.5 32.5q-114 0 -203.5 -39t-143.5 -105t-81.5 -148.5t-27.5 -174.5q0 -29 2.5 -55.5
t7 -48t9.5 -40t11.5 -33t12.5 -26t12 -20t10.5 -14t7.5 -9.5l4 -4q31 8 31 -28q0 -21 -16 -59t-44 -63t-55 -5q-19 18 -38.5 43t-47.5 73t-45.5 120.5t-17.5 156.5q0 284 168 458.5t442 174.5q223 0 361.5 -140t138.5 -360q0 -201 -109.5 -359t-279.5 -237q57 -33 97 -86
t63 -113.5t42.5 -120.5t48.5 -121.5t66 -101.5q4 -4 21.5 -11.5t17.5 -16.5q0 -27 -56 -67t-83 -40q-15 0 -27 12q-46 52 -78.5 118t-47 122.5t-34.5 116.5t-41.5 106t-66.5 83.5t-111 55.5v-284q0 -47 -57 -47q-36 0 -69 18t-33 41zM840 1747l-183 -195q-21 -36 -67 -36
q-39 0 -59.5 14t-20.5 33q0 10 16 30l187 215q3 17 23.5 28t43.5 11q31 0 57.5 -17t26.5 -42q0 -6 -2.5 -12.5t-5 -10t-9 -10t-7.5 -8.5z" />
    <glyph glyph-name="racute" unicode="&#x155;" horiz-adv-x="628" 
d="M518 -57q-39 0 -74 11.5t-67 37t-51 73t-19 111.5q0 178 103 453h-156h-23q-6 -232 -51 -377q-15 -48 -56 -37q-34 8 -52 45q-12 25 -6 49q27 96 32 357q-88 50 -88 131q0 41 31 67.5t72 26.5q42 0 77.5 -25.5t51.5 -83.5q68 -8 108 -8h107q22 0 62.5 -41.5t35.5 -73.5
q0 -5 -23 -81.5t-46 -188t-23 -201.5q0 -46 21.5 -78t60.5 -32q103 0 147 221q6 30 19.5 45.5t29.5 15.5q25 0 48.5 -27.5t23.5 -56.5q0 -3 -1 -7.5t-1 -6.5q-16 -58 -37.5 -108t-56 -101t-86 -80.5t-113.5 -29.5zM508 1161l-182 -194q-22 -37 -68 -37q-39 0 -59.5 14
t-20.5 33q0 10 17 31l186 215q3 17 24 28t44 11q31 0 57 -17.5t26 -42.5q0 -6 -2.5 -12.5t-5 -10t-9 -10t-7.5 -8.5z" />
    <glyph glyph-name="Rcommaaccent" unicode="&#x156;" horiz-adv-x="1161" 
d="M410 2v1071q0 23 -4.5 42.5t-4.5 23.5q0 15 16 25t38 10q50 0 82 -26.5t32 -64.5v-669q51 9 104 31t111 64t102.5 97.5t73.5 140t29 183.5q0 61 -20 121t-59.5 112t-107 84.5t-153.5 32.5q-114 0 -203.5 -39t-143.5 -105t-81.5 -148.5t-27.5 -174.5q0 -29 2.5 -55.5
t7 -48t9.5 -40t11.5 -33t12.5 -26t12 -20t10.5 -14t7.5 -9.5l4 -4q31 8 31 -28q0 -21 -16 -59t-44 -63t-55 -5q-19 18 -38.5 43t-47.5 73t-45.5 120.5t-17.5 156.5q0 284 168 458.5t442 174.5q223 0 361.5 -140t138.5 -360q0 -201 -109.5 -359t-279.5 -237q57 -33 97 -86
t63 -113.5t42.5 -120.5t48.5 -121.5t66 -101.5q4 -4 21.5 -11.5t17.5 -16.5q0 -27 -56 -67t-83 -40q-15 0 -27 12q-46 52 -78.5 118t-47 122.5t-34.5 116.5t-41.5 106t-66.5 83.5t-111 55.5v-284q0 -47 -57 -47q-36 0 -69 18t-33 41zM645 -127q40 0 67 -28.5t27 -82.5
q0 -57 -51.5 -131.5t-87.5 -74.5q-23 0 -39 19t-16 38q0 4 1 6t2.5 3t4.5 2.5t4 2.5q24 7 64 66q-30 6 -50 30t-20 60q0 41 28 65.5t66 24.5z" />
    <glyph glyph-name="rcommaaccent" unicode="&#x157;" horiz-adv-x="628" 
d="M518 -57q-39 0 -74 11.5t-67 37t-51 73t-19 111.5q0 178 103 453h-156h-23q-6 -232 -51 -377q-15 -48 -56 -37q-34 8 -52 45q-12 25 -6 49q27 96 32 357q-88 50 -88 131q0 41 31 67.5t72 26.5q42 0 77.5 -25.5t51.5 -83.5q68 -8 108 -8h107q22 0 62.5 -41.5t35.5 -73.5
q0 -5 -23 -81.5t-46 -188t-23 -201.5q0 -46 21.5 -78t60.5 -32q103 0 147 221q6 30 19.5 45.5t29.5 15.5q25 0 48.5 -27.5t23.5 -56.5q0 -3 -1 -7.5t-1 -6.5q-16 -58 -37.5 -108t-56 -101t-86 -80.5t-113.5 -29.5zM276 -106q40 0 67.5 -28.5t27.5 -82.5q0 -57 -52 -132
t-88 -75q-23 0 -39 19t-16 38q0 3 0.5 5t2 3.5l2.5 2.5t3.5 2t3.5 2q25 7 64 65q-30 6 -50 30t-20 60q0 41 28.5 66t65.5 25z" />
    <glyph glyph-name="Rcaron" unicode="&#x158;" horiz-adv-x="1161" 
d="M410 2v1071q0 23 -4.5 42.5t-4.5 23.5q0 15 16 25t38 10q50 0 82 -26.5t32 -64.5v-669q51 9 104 31t111 64t102.5 97.5t73.5 140t29 183.5q0 61 -20 121t-59.5 112t-107 84.5t-153.5 32.5q-114 0 -203.5 -39t-143.5 -105t-81.5 -148.5t-27.5 -174.5q0 -29 2.5 -55.5
t7 -48t9.5 -40t11.5 -33t12.5 -26t12 -20t10.5 -14t7.5 -9.5l4 -4q31 8 31 -28q0 -21 -16 -59t-44 -63t-55 -5q-19 18 -38.5 43t-47.5 73t-45.5 120.5t-17.5 156.5q0 284 168 458.5t442 174.5q223 0 361.5 -140t138.5 -360q0 -201 -109.5 -359t-279.5 -237q57 -33 97 -86
t63 -113.5t42.5 -120.5t48.5 -121.5t66 -101.5q4 -4 21.5 -11.5t17.5 -16.5q0 -27 -56 -67t-83 -40q-15 0 -27 12q-46 52 -78.5 118t-47 122.5t-34.5 116.5t-41.5 106t-66.5 83.5t-111 55.5v-284q0 -47 -57 -47q-36 0 -69 18t-33 41zM569 1573l-135 196q-16 20 -16 31
q0 18 26 32.5t66 14.5q33 0 45 -20l100 -156l88 141q9 35 50 35q28 0 57 -20t29 -41q0 -12 -15 -27l-131 -188q-18 -55 -65 -55q-39 0 -55.5 10.5t-43.5 46.5z" />
    <glyph glyph-name="rcaron" unicode="&#x159;" horiz-adv-x="628" 
d="M518 -57q-39 0 -74 11.5t-67 37t-51 73t-19 111.5q0 178 103 453h-156h-23q-6 -232 -51 -377q-15 -48 -56 -37q-34 8 -52 45q-12 25 -6 49q27 96 32 357q-88 50 -88 131q0 41 31 67.5t72 26.5q42 0 77.5 -25.5t51.5 -83.5q68 -8 108 -8h107q22 0 62.5 -41.5t35.5 -73.5
q0 -5 -23 -81.5t-46 -188t-23 -201.5q0 -46 21.5 -78t60.5 -32q103 0 147 221q6 30 19.5 45.5t29.5 15.5q25 0 48.5 -27.5t23.5 -56.5q0 -3 -1 -7.5t-1 -6.5q-16 -58 -37.5 -108t-56 -101t-86 -80.5t-113.5 -29.5zM238 987l-136 197q-16 20 -16 30q0 18 26.5 33t65.5 15
q32 0 45 -21l101 -156l88 142q9 35 49 35q28 0 57 -20.5t29 -41.5q0 -11 -15 -26l-131 -189q-18 -55 -65 -55q-27 0 -43.5 6.5t-25.5 15.5t-29 35z" />
    <glyph glyph-name="Sacute" unicode="&#x15a;" horiz-adv-x="847" 
d="M414 -74q-49 0 -89.5 9.5t-64 23t-39.5 29t-22 26t-6 15.5q0 35 28 76.5t51 41.5q14 0 23 -18q49 -49 119 -49q64 0 103.5 39t39.5 104q0 49 -27.5 91.5t-71.5 76t-97.5 67.5t-107 74.5t-97.5 88.5t-71.5 118.5t-27.5 155.5q0 99 51 200.5t131 179.5t185 127.5t207 49.5
q119 0 188.5 -71.5t69.5 -192.5q0 -81 -43 -164.5t-104.5 -143t-128 -97.5t-113.5 -38q-49 0 -82 40.5t-33 78.5q0 16 4.5 19.5t21 -0.5t27.5 -4q55 0 124.5 48t120 121.5t50.5 137.5q0 112 -112 112q-57 0 -127 -32.5t-132 -85t-103.5 -129t-41.5 -156.5q0 -64 27.5 -118
t72 -93.5t98 -75.5t107 -73.5t98 -79t72 -99.5t27.5 -127q0 -125 -88.5 -214t-216.5 -89zM772 1767l-182 -194q-22 -37 -68 -37q-39 0 -59.5 14t-20.5 33q0 10 17 31l186 215q3 17 24 28t44 11q31 0 57.5 -17.5t26.5 -42.5q0 -6 -3 -12.5t-5.5 -10t-8.5 -10t-8 -8.5z" />
    <glyph glyph-name="sacute" unicode="&#x15b;" horiz-adv-x="653" 
d="M188 281q-11 -40 -43.5 -43.5t-57.5 23.5t-17 61q7 32 20 75.5t22.5 72t30 88.5t27.5 79q-33 51 -33 96q0 50 65 106t109 56q36 0 55 -25t19 -67q0 -26 -11.5 -57.5t-24.5 -55t-13 -26.5q28 -50 73.5 -111.5t74 -100t51 -99t22.5 -128.5q0 -35 -10 -73q126 26 168 147
q20 55 47 55q25 0 49.5 -29.5t24.5 -52.5q0 -30 -29.5 -78.5t-65.5 -78.5q-109 -89 -274 -99q-83 -73 -201 -73q-60 0 -125.5 27t-99.5 59q-28 27 -42.5 57.5t-14 56t8.5 46.5t21 32.5t27 11.5q15 0 77 -29.5t135.5 -59t117.5 -29.5q45 53 45 125q0 46 -12 87.5t-36 78.5
t-45.5 62.5t-54.5 59.5q-36 -87 -80 -247zM494 1229l-183 -195q-22 -37 -67 -37q-39 0 -59.5 14t-20.5 33q0 11 16 31l187 215q3 17 23.5 28t43.5 11q31 0 57.5 -17t26.5 -42q0 -6 -2.5 -12.5t-5 -10t-9 -10t-7.5 -8.5z" />
    <glyph glyph-name="Scircumflex" unicode="&#x15c;" horiz-adv-x="847" 
d="M414 -74q-49 0 -89.5 9.5t-64 23t-39.5 29t-22 26t-6 15.5q0 35 28 76.5t51 41.5q14 0 23 -18q49 -49 119 -49q64 0 103.5 39t39.5 104q0 49 -27.5 91.5t-71.5 76t-97.5 67.5t-107 74.5t-97.5 88.5t-71.5 118.5t-27.5 155.5q0 99 51 200.5t131 179.5t185 127.5t207 49.5
q119 0 188.5 -71.5t69.5 -192.5q0 -81 -43 -164.5t-104.5 -143t-128 -97.5t-113.5 -38q-49 0 -82 40.5t-33 78.5q0 16 4.5 19.5t21 -0.5t27.5 -4q55 0 124.5 48t120 121.5t50.5 137.5q0 112 -112 112q-57 0 -127 -32.5t-132 -85t-103.5 -129t-41.5 -156.5q0 -64 27.5 -118
t72 -93.5t98 -75.5t107 -73.5t98 -79t72 -99.5t27.5 -127q0 -125 -88.5 -214t-216.5 -89zM668 1810l135 -196q16 -20 16 -31q0 -18 -26 -32.5t-66 -14.5q-33 0 -45 20l-100 156l-88 -141q-7 -12 -11 -17.5t-14.5 -11.5t-24.5 -6q-28 0 -58 21t-30 42q0 5 4 9l144 204
q38 56 94 56q24 0 37.5 -8t17.5 -16t15 -34z" />
    <glyph glyph-name="scircumflex" unicode="&#x15d;" horiz-adv-x="653" 
d="M188 281q-11 -40 -43.5 -43.5t-57.5 23.5t-17 61q7 32 20 75.5t22.5 72t30 88.5t27.5 79q-33 51 -33 96q0 50 65 106t109 56q36 0 55 -25t19 -67q0 -26 -11.5 -57.5t-24.5 -55t-13 -26.5q28 -50 73.5 -111.5t74 -100t51 -99t22.5 -128.5q0 -35 -10 -73q126 26 168 147
q20 55 47 55q25 0 49.5 -29.5t24.5 -52.5q0 -30 -29.5 -78.5t-65.5 -78.5q-109 -89 -274 -99q-83 -73 -201 -73q-60 0 -125.5 27t-99.5 59q-28 27 -42.5 57.5t-14 56t8.5 46.5t21 32.5t27 11.5q15 0 77 -29.5t135.5 -59t117.5 -29.5q45 53 45 125q0 46 -12 87.5t-36 78.5
t-45.5 62.5t-54.5 59.5q-36 -87 -80 -247zM389 1272l135 -197q17 -21 17 -31q0 -18 -26 -32.5t-66 -14.5q-33 0 -46 21l-100 156l-88 -142q-7 -13 -10.5 -18t-14 -11t-24.5 -6q-28 0 -58 21.5t-30 42.5q0 4 4 8l143 205q37 55 94 55q24 0 37 -7.5t18 -16t15 -33.5z" />
    <glyph glyph-name="Scedilla" unicode="&#x15e;" horiz-adv-x="847" 
d="M719 229q0 -110 -70 -193.5t-178 -103.5l-20 -59q50 -9 85.5 -30t51.5 -48.5t22 -51t6 -48.5q0 -30 -12 -62t-36.5 -63t-69.5 -50.5t-103 -19.5q-86 0 -122.5 21t-36.5 67q0 18 8 37.5t20 12.5q39 -19 109 -19q54 0 86.5 23.5t32.5 64.5q0 33 -26 46t-57 12t-57 11
t-26 44q0 12 28 110q-35 5 -64.5 15.5t-46.5 22.5t-29 25.5t-16.5 22.5t-4.5 13q0 35 28 76.5t51 41.5q14 0 23 -18q49 -49 119 -49q64 0 103.5 39t39.5 104q0 49 -27.5 91.5t-71.5 76t-97.5 67.5t-107 74.5t-97.5 88.5t-71.5 118.5t-27.5 155.5q0 99 51 200.5t131 179.5
t185 127.5t207 49.5q119 0 188.5 -71.5t69.5 -192.5q0 -81 -43 -164.5t-104.5 -143t-128 -97.5t-113.5 -38q-49 0 -82 40.5t-33 78.5q0 16 4.5 19.5t21 -0.5t27.5 -4q55 0 124.5 48t120 121.5t50.5 137.5q0 112 -112 112q-57 0 -127 -32.5t-132 -85t-103.5 -129
t-41.5 -156.5q0 -64 27.5 -118t72 -93.5t98 -75.5t107 -73.5t98 -79t72 -99.5t27.5 -127z" />
    <glyph glyph-name="scedilla" unicode="&#x15f;" horiz-adv-x="653" 
d="M188 281q-11 -40 -43.5 -43.5t-57.5 23.5t-17 61q7 32 20 75.5t22.5 72t30 88.5t27.5 79q-33 51 -33 96q0 50 65 106t109 56q36 0 55 -25t19 -67q0 -26 -11.5 -57.5t-24.5 -55t-13 -26.5q28 -50 73.5 -111.5t74 -100t51 -99t22.5 -128.5q0 -35 -10 -73q126 26 168 147
q20 55 47 55q25 0 49.5 -29.5t24.5 -52.5q0 -30 -29.5 -78.5t-65.5 -78.5q-109 -89 -274 -99q-57 -51 -133 -65l-19 -57q50 -9 85.5 -30t51.5 -49t22.5 -51.5t6.5 -48.5q0 -30 -12 -62t-36.5 -62.5t-69.5 -50t-103 -19.5q-87 0 -123.5 21t-36.5 67q0 18 8.5 37t20.5 12
q37 -18 109 -18q54 0 86 23.5t32 64.5q0 33 -26 46t-57 11.5t-57 10.5t-26 44q0 22 29 107q-52 8 -101.5 32t-76.5 50q-28 27 -42.5 57.5t-14 56t8.5 46.5t21 32.5t27 11.5q15 0 77 -29.5t135.5 -59t117.5 -29.5q45 53 45 125q0 46 -12 87.5t-36 78.5t-45.5 62.5t-54.5 59.5
q-36 -87 -80 -247z" />
    <glyph glyph-name="Scaron" unicode="&#x160;" horiz-adv-x="847" 
d="M414 -74q-49 0 -89.5 9.5t-64 23t-39.5 29t-22 26t-6 15.5q0 35 28 76.5t51 41.5q14 0 23 -18q49 -49 119 -49q64 0 103.5 39t39.5 104q0 49 -27.5 91.5t-71.5 76t-97.5 67.5t-107 74.5t-97.5 88.5t-71.5 118.5t-27.5 155.5q0 99 51 200.5t131 179.5t185 127.5t207 49.5
q119 0 188.5 -71.5t69.5 -192.5q0 -81 -43 -164.5t-104.5 -143t-128 -97.5t-113.5 -38q-49 0 -82 40.5t-33 78.5q0 16 4.5 19.5t21 -0.5t27.5 -4q55 0 124.5 48t120 121.5t50.5 137.5q0 112 -112 112q-57 0 -127 -32.5t-132 -85t-103.5 -129t-41.5 -156.5q0 -64 27.5 -118
t72 -93.5t98 -75.5t107 -73.5t98 -79t72 -99.5t27.5 -127q0 -125 -88.5 -214t-216.5 -89zM502 1593l-135 197q-17 21 -17 31q0 18 26 32.5t66 14.5q32 0 45 -21l101 -155l88 141q9 35 49 35q28 0 57 -20.5t29 -41.5q0 -12 -14 -26l-131 -189q-18 -55 -66 -55
q-27 0 -43.5 6.5t-25.5 15.5t-29 35z" />
    <glyph glyph-name="scaron" unicode="&#x161;" horiz-adv-x="653" 
d="M188 281q-11 -40 -43.5 -43.5t-57.5 23.5t-17 61q7 32 20 75.5t22.5 72t30 88.5t27.5 79q-33 51 -33 96q0 50 65 106t109 56q36 0 55 -25t19 -67q0 -26 -11.5 -57.5t-24.5 -55t-13 -26.5q28 -50 73.5 -111.5t74 -100t51 -99t22.5 -128.5q0 -35 -10 -73q126 26 168 147
q20 55 47 55q25 0 49.5 -29.5t24.5 -52.5q0 -30 -29.5 -78.5t-65.5 -78.5q-109 -89 -274 -99q-83 -73 -201 -73q-60 0 -125.5 27t-99.5 59q-28 27 -42.5 57.5t-14 56t8.5 46.5t21 32.5t27 11.5q15 0 77 -29.5t135.5 -59t117.5 -29.5q45 53 45 125q0 46 -12 87.5t-36 78.5
t-45.5 62.5t-54.5 59.5q-36 -87 -80 -247zM223 1055l-135 196q-16 20 -16 31q0 18 26 32.5t66 14.5q33 0 45 -20l100 -156l88 141q9 35 49 35q28 0 57 -20t29 -41q0 -13 -14 -27l-131 -188q-18 -56 -65 -56q-38 0 -54.5 11t-44.5 47z" />
    <glyph glyph-name="Tcommaaccent" unicode="&#x162;" horiz-adv-x="1050" 
d="M844 115q0 -252 -115 -252q-37 0 -85 44.5t-48 74.5q0 12 3.5 14.5t14.5 -1t17 -3.5q53 0 53 149v1131q-80 -6 -148 -23t-132 -50.5t-108 -82t-70.5 -122t-26.5 -165.5q0 -162 116 -278q31 8 31 -29q0 -41 -31.5 -81t-66.5 -40q-17 0 -31 11q-60 44 -120 158.5t-60 258.5
t55 259.5t153 190.5t232.5 115t294.5 40q56 0 194 -2t150 -2q15 0 26 4t16 8t7 4q9 0 17 -22t8 -46q0 -41 -21.5 -74.5t-58.5 -33.5q-13 0 -57 1t-108 2.5t-101 2.5v-1161zM735 -231q40 0 67 -28.5t27 -82.5q0 -57 -51.5 -132t-87.5 -75q-23 0 -39 19t-16 38q0 3 0.5 5
t2 3.5l2.5 2.5t3.5 2t3.5 2q25 7 64 65q-30 6 -50 30t-20 60q0 41 28.5 66t65.5 25z" />
    <glyph glyph-name="tcommaaccent" unicode="&#x163;" horiz-adv-x="370" 
d="M-113 963q74 -5 185 -7v347q0 35 -10.5 55.5t-10.5 21.5q0 10 21 16.5t45 6.5q50 0 80 -26t30 -64v-359q199 0 408 9q27 29 34 -10q7 -43 -13 -92q-16 -34 -35 -36q-164 -4 -394 -4v-649q0 -94 70 -94q93 0 137 221q6 30 19.5 45.5t29.5 15.5q25 0 48.5 -27.5t23.5 -56.5
q0 -6 -2 -14q-12 -45 -27 -85.5t-40.5 -84.5t-56 -76t-74.5 -52.5t-95 -20.5q-88 0 -138 55t-50 172v651l-142 4q-38 0 -61 50q-22 46 -6 74q8 14 24 14zM250 -127q40 0 67 -28.5t27 -82.5q0 -57 -51.5 -131.5t-87.5 -74.5q-23 0 -39 19t-16 38q0 4 1 6t2.5 3t4.5 2.5t4 2.5
q23 7 63 66q-30 6 -49.5 30t-19.5 60q0 41 28 65.5t66 24.5z" />
    <glyph glyph-name="Tcaron" unicode="&#x164;" horiz-adv-x="1050" 
d="M844 115q0 -252 -115 -252q-37 0 -85 44.5t-48 74.5q0 12 3.5 14.5t14.5 -1t17 -3.5q53 0 53 149v1131q-80 -6 -148 -23t-132 -50.5t-108 -82t-70.5 -122t-26.5 -165.5q0 -162 116 -278q31 8 31 -29q0 -41 -31.5 -81t-66.5 -40q-17 0 -31 11q-60 44 -120 158.5t-60 258.5
t55 259.5t153 190.5t232.5 115t294.5 40q56 0 194 -2t150 -2q15 0 26 4t16 8t7 4q9 0 17 -22t8 -46q0 -41 -21.5 -74.5t-58.5 -33.5q-13 0 -57 1t-108 2.5t-101 2.5v-1161zM682 1577l-135 197q-17 21 -17 30q0 18 26.5 32.5t66.5 14.5q33 0 45 -20l100 -156l88 142
q8 34 49 34q28 0 57 -20t29 -41q0 -13 -14 -27l-131 -188q-18 -55 -66 -55q-27 0 -43.5 6.5t-25.5 15.5t-29 35z" />
    <glyph glyph-name="tcaron" unicode="&#x165;" horiz-adv-x="487" 
d="M-113 963q74 -5 185 -7v347q0 35 -10.5 55.5t-10.5 21.5q0 10 21 16.5t45 6.5q50 0 80 -26t30 -64v-359q199 0 408 9q27 29 34 -10q7 -43 -13 -92q-16 -34 -35 -36q-164 -4 -394 -4v-649q0 -94 70 -94q93 0 137 221q6 30 19.5 45.5t29.5 15.5q25 0 48.5 -27.5t23.5 -56.5
q0 -6 -2 -14q-12 -45 -27 -85.5t-40.5 -84.5t-56 -76t-74.5 -52.5t-95 -20.5q-88 0 -138 55t-50 172v651l-142 4q-38 0 -61 50q-22 46 -6 74q8 14 24 14zM397 1366q40 0 67.5 -28.5t27.5 -82.5q0 -57 -52 -131.5t-88 -74.5q-23 0 -39 19t-16 38q0 4 1 6t2.5 3t4.5 2.5t4 2.5
q24 7 64 66q-30 6 -50 30t-20 60q0 41 28 65.5t66 24.5z" />
    <glyph glyph-name="Tbar" unicode="&#x166;" horiz-adv-x="1050" 
d="M844 115q0 -252 -115 -252q-37 0 -85 44.5t-48 74.5q0 12 3.5 14.5t14.5 -1t17 -3.5q53 0 53 149v695h-235q-54 0 -54 47q0 41 19.5 64.5t54.5 23.5h215v301q-80 -6 -148 -23t-132 -50.5t-108 -82t-70.5 -122t-26.5 -165.5q0 -162 116 -278q31 8 31 -29q0 -41 -31.5 -81
t-66.5 -40q-17 0 -31 11q-60 44 -120 158.5t-60 258.5t55 259.5t153 190.5t232.5 115t294.5 40q56 0 194 -2t150 -2q15 0 26 4t16 8t7 4q9 0 17 -22t8 -46q0 -41 -21.5 -74.5t-58.5 -33.5q-13 0 -57 1t-108 2.5t-101 2.5v-305h223q25 3 35 -11t10 -42q0 -32 -15 -58t-38 -26
q-6 0 -10 2h-205v-721z" />
    <glyph glyph-name="tbar" unicode="&#x167;" horiz-adv-x="370" 
d="M297 78q93 0 137 221q6 30 19.5 45.5t29.5 15.5q25 0 48.5 -27.5t23.5 -56.5q0 -6 -2 -14q-12 -45 -27 -85.5t-40.5 -84.5t-56 -76t-74.5 -52.5t-95 -20.5q-88 0 -138 55t-50 172v356h-115q-53 0 -53 47q0 41 19 63.5t54 22.5h95v162l-142 4q-38 0 -61 50q-22 46 -6 74
q8 14 24 14q74 -5 185 -7v347q0 35 -10.5 55.5t-10.5 21.5q0 10 21 16.5t45 6.5q50 0 80 -26t30 -64v-359q199 0 408 9q27 29 34 -10q7 -43 -13 -92q-16 -34 -35 -36q-164 -4 -394 -4v-162h164q25 3 35 -10t10 -41q0 -32 -15 -58t-38 -26q-6 0 -10 2h-146v-354q0 -94 70 -94
z" />
    <glyph glyph-name="Utilde" unicode="&#x168;" horiz-adv-x="1261" 
d="M985 193v4q-68 -115 -148 -184.5t-163 -69.5q-52 0 -95.5 43.5t-43.5 134.5v1153q-147 -18 -241.5 -125.5t-94.5 -292.5q0 -75 22 -140.5t46.5 -96.5t39.5 -31q6 0 17 4t16 4q16 0 16 -25q0 -65 -51.5 -109.5t-95.5 -12.5q-64 43 -118 154t-54 253q0 125 37 226
t95.5 165.5t136 107.5t153.5 61t153 18q33 0 57.5 -25t24.5 -61v-1215q0 -29 19 -29q31 0 96 75t120.5 185t55.5 191v778q0 23 -4 42.5t-4 23.5q0 15 15.5 25t37.5 10q50 0 82.5 -26.5t32.5 -64.5v-888q0 -301 18 -449q6 -9 6 -14q0 -19 -34 -34t-70 -15q-48 0 -63 58
q-12 42 -17 192zM690 1581q0 -12 -15 -19.5t-32 -7.5q-27 0 -50.5 12t-23.5 29q0 65 45.5 126t110.5 61q37 0 69.5 -17t51 -37.5t41.5 -37.5t43 -17q41 0 41 64q0 21 17 31t38 10q25 0 47.5 -12t22.5 -25q0 -91 -51 -144t-111 -53q-37 0 -71 17.5t-54 39t-38 39t-28 17.5
q-26 0 -36.5 -20t-16.5 -56z" />
    <glyph glyph-name="utilde" unicode="&#x169;" horiz-adv-x="745" 
d="M635 -57q-67 0 -112 40.5t-56 104.5q-84 -147 -205 -147q-102 0 -159.5 80t-57.5 215q0 96 18.5 211t36.5 182l19 67q3 6 6 20.5t7 22t13.5 16.5t30 13t51.5 4q28 0 42.5 -8.5t14.5 -23t-3.5 -28t-11 -30.5t-9.5 -23q-23 -95 -33 -141t-18 -118t-8 -154t24.5 -126
t69.5 -44q58 0 103 80t65 196v330q0 35 -10.5 56t-10.5 22q0 10 21 16t45 6q50 0 80 -26t30 -64v-520q0 -94 54 -94q93 0 137 221q6 30 19.5 45.5t29.5 15.5q25 0 48.5 -27.5t23.5 -56.5q0 -6 -2 -14q-16 -58 -37.5 -108t-56 -101t-86 -80.5t-113.5 -29.5zM233 963
q0 -12 -15 -19.5t-32 -7.5q-27 0 -50 12t-23 29q0 65 45 125.5t110 60.5q38 0 70 -17t50.5 -37t41 -37t43.5 -17q41 0 41 63q0 21 17 31t38 10q25 0 47.5 -12t22.5 -25q0 -91 -51 -143.5t-111 -52.5q-37 0 -71 17.5t-53.5 38.5t-37.5 38.5t-28 17.5q-18 0 -30 -12.5
t-16 -26.5t-8 -36z" />
    <glyph glyph-name="Umacron" unicode="&#x16a;" horiz-adv-x="1261" 
d="M985 193v4q-68 -115 -148 -184.5t-163 -69.5q-52 0 -95.5 43.5t-43.5 134.5v1153q-147 -18 -241.5 -125.5t-94.5 -292.5q0 -75 22 -140.5t46.5 -96.5t39.5 -31q6 0 17 4t16 4q16 0 16 -25q0 -65 -51.5 -109.5t-95.5 -12.5q-64 43 -118 154t-54 253q0 125 37 226
t95.5 165.5t136 107.5t153.5 61t153 18q33 0 57.5 -25t24.5 -61v-1215q0 -29 19 -29q31 0 96 75t120.5 185t55.5 191v778q0 23 -4 42.5t-4 23.5q0 15 15.5 25t37.5 10q50 0 82.5 -26.5t32.5 -64.5v-888q0 -301 18 -449q6 -9 6 -14q0 -19 -34 -34t-70 -15q-48 0 -63 58
q-12 42 -17 192zM664 1702h352q25 3 35 -11t10 -42q0 -32 -15 -58t-38 -26q-7 0 -11 2h-354q-53 0 -53 47q0 41 19.5 64.5t54.5 23.5z" />
    <glyph glyph-name="umacron" unicode="&#x16b;" horiz-adv-x="745" 
d="M635 -57q-67 0 -112 40.5t-56 104.5q-84 -147 -205 -147q-102 0 -159.5 80t-57.5 215q0 96 18.5 211t36.5 182l19 67q3 6 6 20.5t7 22t13.5 16.5t30 13t51.5 4q28 0 42.5 -8.5t14.5 -23t-3.5 -28t-11 -30.5t-9.5 -23q-23 -95 -33 -141t-18 -118t-8 -154t24.5 -126
t69.5 -44q58 0 103 80t65 196v330q0 35 -10.5 56t-10.5 22q0 10 21 16t45 6q50 0 80 -26t30 -64v-520q0 -94 54 -94q93 0 137 221q6 30 19.5 45.5t29.5 15.5q25 0 48.5 -27.5t23.5 -56.5q0 -6 -2 -14q-16 -58 -37.5 -108t-56 -101t-86 -80.5t-113.5 -29.5zM207 1083h352
q25 3 35 -11t10 -42q0 -32 -15 -58t-38 -26q-6 0 -10 2h-355q-53 0 -53 47q0 41 19.5 64.5t54.5 23.5z" />
    <glyph glyph-name="Ubreve" unicode="&#x16c;" horiz-adv-x="1261" 
d="M985 193v4q-68 -115 -148 -184.5t-163 -69.5q-52 0 -95.5 43.5t-43.5 134.5v1153q-147 -18 -241.5 -125.5t-94.5 -292.5q0 -75 22 -140.5t46.5 -96.5t39.5 -31q6 0 17 4t16 4q16 0 16 -25q0 -65 -51.5 -109.5t-95.5 -12.5q-64 43 -118 154t-54 253q0 125 37 226
t95.5 165.5t136 107.5t153.5 61t153 18q33 0 57.5 -25t24.5 -61v-1215q0 -29 19 -29q31 0 96 75t120.5 185t55.5 191v778q0 23 -4 42.5t-4 23.5q0 15 15.5 25t37.5 10q50 0 82.5 -26.5t32.5 -64.5v-888q0 -301 18 -449q6 -9 6 -14q0 -19 -34 -34t-70 -15q-48 0 -63 58
q-12 42 -17 192zM827 1534q-42 0 -82 11.5t-79.5 37.5t-63.5 76.5t-24 118.5q0 18 26 32.5t66 14.5q32 0 45 -21q2 -25 3.5 -39t8 -37t17.5 -36t31.5 -23t49.5 -10q28 0 47.5 9.5t29 21.5t14.5 33t5.5 32.5t0.5 32.5q4 14 17 25.5t34 11.5q28 0 57 -20.5t29 -41.5
q0 -57 -18 -100.5t-43.5 -67t-59 -38.5t-60 -19t-51.5 -4z" />
    <glyph glyph-name="ubreve" unicode="&#x16d;" horiz-adv-x="745" 
d="M635 -57q-67 0 -112 40.5t-56 104.5q-84 -147 -205 -147q-102 0 -159.5 80t-57.5 215q0 96 18.5 211t36.5 182l19 67q3 6 6 20.5t7 22t13.5 16.5t30 13t51.5 4q28 0 42.5 -8.5t14.5 -23t-3.5 -28t-11 -30.5t-9.5 -23q-23 -95 -33 -141t-18 -118t-8 -154t24.5 -126
t69.5 -44q58 0 103 80t65 196v330q0 35 -10.5 56t-10.5 22q0 10 21 16t45 6q50 0 80 -26t30 -64v-520q0 -94 54 -94q93 0 137 221q6 30 19.5 45.5t29.5 15.5q25 0 48.5 -27.5t23.5 -56.5q0 -6 -2 -14q-16 -58 -37.5 -108t-56 -101t-86 -80.5t-113.5 -29.5zM371 915
q-42 0 -82 11.5t-79.5 37.5t-64 76.5t-24.5 118.5q0 18 26 32.5t66 14.5q33 0 45 -20q2 -24 3.5 -38.5t8.5 -37.5t18 -36t31.5 -23.5t49.5 -10.5q28 0 47.5 10t28.5 21t14 33t5.5 32.5t0.5 32.5q4 14 17 25.5t34 11.5q28 0 57 -20t29 -41q0 -57 -17.5 -100.5t-43 -67.5
t-59.5 -38.5t-60 -19t-51 -4.5z" />
    </font>
</defs>
</svg>
